<svg xmlns="http://www.w3.org/2000/svg" xmlns:xlink="http://www.w3.org/1999/xlink" version="1.1" data-diagram-type="SEQUENCE" style="width:838px;height:726px;background:#FFFFFF;" width="838px" height="726px" viewBox="0 0 838 726" zoomAndPan="magnify" preserveAspectRatio="none" contentStyleType="text/css"><?plantuml 1.2026.7beta3?><defs/><g><g class="title" data-source-line="1"><text x="382.425" y="27.9951" fill="#000000" font-size="14" lengthAdjust="spacing" textLength="66.5205" font-weight="700" font-family="sans-serif">Register</text></g><rect x="10" y="265.125" width="812.3706" height="362.2656" fill="none" style="stroke:#000000;stroke-width:1.5;"/><g class="participant-lifeline" data-qualified-name="Guest" data-entity-uid="part1" id="part1-lifeline" data-source-line="12"><g><title>Guest</title><rect x="39.5591" y="118.5938" width="8" height="525.7969" fill="#000000" fill-opacity="0.00000"/><line x1="43" y1="118.5938" x2="43" y2="644.3906" style="stroke:#75607F;stroke-width:0.5;stroke-dasharray:5,5;"/></g></g><g class="participant-lifeline" data-qualified-name="SPA" data-entity-uid="part2" id="part2-lifeline" data-source-line="13"><g><title>SPA</title><rect x="272.5557" y="118.5938" width="8" height="525.7969" fill="#000000" fill-opacity="0.00000"/><line x1="276.0405" y1="118.5938" x2="276.0405" y2="644.3906" style="stroke:#75607F;stroke-width:0.5;stroke-dasharray:5,5;"/></g></g><g class="participant-lifeline" data-qualified-name="API" data-entity-uid="part3" id="part3-lifeline" data-source-line="14"><g><title>API</title><rect x="577.5664" y="118.5938" width="8" height="525.7969" fill="#000000" fill-opacity="0.00000"/><line x1="581.3228" y1="118.5938" x2="581.3228" y2="644.3906" style="stroke:#75607F;stroke-width:0.5;stroke-dasharray:5,5;"/></g></g><g class="participant-lifeline" data-qualified-name="DB" data-entity-uid="part4" id="part4-lifeline" data-source-line="15"><g><title>Postgres</title><rect x="775.2002" y="118.5938" width="8" height="525.7969" fill="#000000" fill-opacity="0.00000"/><line x1="779.0298" y1="118.5938" x2="779.0298" y2="644.3906" style="stroke:#75607F;stroke-width:0.5;stroke-dasharray:5,5;"/></g></g><g class="participant participant-head" data-qualified-name="Guest" data-entity-uid="part1" id="part1-head" data-source-line="12"><text x="20" y="115.292" fill="#000000" font-size="14" lengthAdjust="spacing" textLength="41.1182" font-family="sans-serif">Guest</text><ellipse cx="43.5591" cy="50.7969" rx="8" ry="8" fill="#E2E2F0" style="stroke:#181818;stroke-width:0.5;"/><path d="M43.5591,58.7969 L43.5591,85.7969 M30.5591,66.7969 L56.5591,66.7969 M43.5591,85.7969 L30.5591,100.7969 M43.5591,85.7969 L56.5591,100.7969" style="stroke:#181818;stroke-width:0.5;" fill="none"/></g><g class="participant participant-tail" data-qualified-name="Guest" data-entity-uid="part1" id="part1-tail" data-source-line="12"><text x="20" y="656.3857" fill="#000000" font-size="14" lengthAdjust="spacing" textLength="41.1182" font-family="sans-serif">Guest</text><ellipse cx="43.5591" cy="668.1875" rx="8" ry="8" fill="#E2E2F0" style="stroke:#181818;stroke-width:0.5;"/><path d="M43.5591,676.1875 L43.5591,703.1875 M30.5591,684.1875 L56.5591,684.1875 M43.5591,703.1875 L30.5591,718.1875 M43.5591,703.1875 L56.5591,718.1875" style="stroke:#181818;stroke-width:0.5;" fill="none"/></g><g class="participant participant-head" data-qualified-name="SPA" data-entity-uid="part2" id="part2-head" data-source-line="13"><rect x="244.0405" y="71" width="65.0303" height="46.5938" fill="#F5F0EB" style="stroke:#75607F;stroke-width:0.5;" rx="2.5" ry="2.5"/><text x="263.1025" y="90.9951" fill="#2D1B35" font-size="14" lengthAdjust="spacing" textLength="26.9063" font-family="sans-serif">SPA</text><text x="251.0405" y="107.292" fill="#2D1B35" font-size="14" lengthAdjust="spacing" textLength="51.0303" font-family="sans-serif">(React)</text></g><g class="participant participant-tail" data-qualified-name="SPA" data-entity-uid="part2" id="part2-tail" data-source-line="13"><rect x="244.0405" y="643.3906" width="65.0303" height="46.5938" fill="#F5F0EB" style="stroke:#75607F;stroke-width:0.5;" rx="2.5" ry="2.5"/><text x="263.1025" y="663.3857" fill="#2D1B35" font-size="14" lengthAdjust="spacing" textLength="26.9063" font-family="sans-serif">SPA</text><text x="251.0405" y="679.6826" fill="#2D1B35" font-size="14" lengthAdjust="spacing" textLength="51.0303" font-family="sans-serif">(React)</text></g><g class="participant participant-head" data-qualified-name="API" data-entity-uid="part3" id="part3-head" data-source-line="14"><rect x="543.3228" y="71" width="76.4873" height="46.5938" fill="#F5F0EB" style="stroke:#75607F;stroke-width:0.5;" rx="2.5" ry="2.5"/><text x="570.4922" y="90.9951" fill="#2D1B35" font-size="14" lengthAdjust="spacing" textLength="22.1484" font-family="sans-serif">API</text><text x="550.3228" y="107.292" fill="#2D1B35" font-size="14" lengthAdjust="spacing" textLength="62.4873" font-family="sans-serif">(FastAPI)</text></g><g class="participant participant-tail" data-qualified-name="API" data-entity-uid="part3" id="part3-tail" data-source-line="14"><rect x="543.3228" y="643.3906" width="76.4873" height="46.5938" fill="#F5F0EB" style="stroke:#75607F;stroke-width:0.5;" rx="2.5" ry="2.5"/><text x="570.4922" y="663.3857" fill="#2D1B35" font-size="14" lengthAdjust="spacing" textLength="22.1484" font-family="sans-serif">API</text><text x="550.3228" y="679.6826" fill="#2D1B35" font-size="14" lengthAdjust="spacing" textLength="62.4873" font-family="sans-serif">(FastAPI)</text></g><g class="participant participant-head" data-qualified-name="DB" data-entity-uid="part4" id="part4-head" data-source-line="15"><text x="746.0298" y="115.292" fill="#000000" font-size="14" lengthAdjust="spacing" textLength="60.3408" font-family="sans-serif">Postgres</text><path d="M761.2002,66.2969 C761.2002,56.2969 779.2002,56.2969 779.2002,56.2969 C779.2002,56.2969 797.2002,56.2969 797.2002,66.2969 L797.2002,92.2969 C797.2002,102.2969 779.2002,102.2969 779.2002,102.2969 C779.2002,102.2969 761.2002,102.2969 761.2002,92.2969 L761.2002,66.2969" style="stroke:#181818;stroke-width:0.5;" fill="#E2E2F0"/><path d="M761.2002,66.2969 C761.2002,76.2969 779.2002,76.2969 779.2002,76.2969 C779.2002,76.2969 797.2002,76.2969 797.2002,66.2969" style="stroke:#181818;stroke-width:0.5;" fill="none"/></g><g class="participant participant-tail" data-qualified-name="DB" data-entity-uid="part4" id="part4-tail" data-source-line="15"><text x="746.0298" y="656.3857" fill="#000000" font-size="14" lengthAdjust="spacing" textLength="60.3408" font-family="sans-serif">Postgres</text><path d="M761.2002,669.6875 C761.2002,659.6875 779.2002,659.6875 779.2002,659.6875 C779.2002,659.6875 797.2002,659.6875 797.2002,669.6875 L797.2002,695.6875 C797.2002,705.6875 779.2002,705.6875 779.2002,705.6875 C779.2002,705.6875 761.2002,705.6875 761.2002,695.6875 L761.2002,669.6875" style="stroke:#181818;stroke-width:0.5;" fill="#E2E2F0"/><path d="M761.2002,669.6875 C761.2002,679.6875 779.2002,679.6875 779.2002,679.6875 C779.2002,679.6875 797.2002,679.6875 797.2002,669.6875" style="stroke:#181818;stroke-width:0.5;" fill="none"/></g><g class="message" data-entity-1="part1" data-entity-2="part2" id="msg1" data-source-line="17"><polygon points="264.5557,145.7266,274.5557,149.7266,264.5557,153.7266,268.5557,149.7266" fill="#75607F" style="stroke:#75607F;stroke-width:1;stroke-linejoin:miter;stroke-miterlimit:10;"/><line x1="43.5591" y1="149.7266" x2="270.5557" y2="149.7266" style="stroke:#75607F;stroke-width:1;"/><text x="50.5591" y="144.6606" fill="#000000" font-size="13" lengthAdjust="spacing" textLength="208.9966" font-family="sans-serif">name, email, password, confirm</text></g><g class="message" data-entity-1="part2" data-entity-2="part2" id="msg2" data-source-line="18"><line x1="276.5557" y1="178.8594" x2="318.5557" y2="178.8594" style="stroke:#75607F;stroke-width:1;"/><line x1="318.5557" y1="178.8594" x2="318.5557" y2="191.8594" style="stroke:#75607F;stroke-width:1;"/><line x1="277.5557" y1="191.8594" x2="318.5557" y2="191.8594" style="stroke:#75607F;stroke-width:1;"/><polygon points="287.5557,187.8594,277.5557,191.8594,287.5557,195.8594,283.5557,191.8594" fill="#75607F" style="stroke:#75607F;stroke-width:1;stroke-linejoin:miter;stroke-miterlimit:10;"/><text x="283.5557" y="173.7935" fill="#000000" font-size="13" lengthAdjust="spacing" textLength="250.3262" font-family="sans-serif">validate (email regex, pw>=8, match)</text></g><g class="message" data-entity-1="part2" data-entity-2="part3" id="msg3" data-source-line="19"><polygon points="569.5664,216.9922,579.5664,220.9922,569.5664,224.9922,573.5664,220.9922" fill="#75607F" style="stroke:#75607F;stroke-width:1;stroke-linejoin:miter;stroke-miterlimit:10;"/><line x1="276.5557" y1="220.9922" x2="575.5664" y2="220.9922" style="stroke:#75607F;stroke-width:1;"/><text x="283.5557" y="215.9263" fill="#000000" font-size="13" lengthAdjust="spacing" textLength="281.0107" font-family="sans-serif">POST /api/register {name,email,password}</text></g><g class="message" data-entity-1="part3" data-entity-2="part4" id="msg4" data-source-line="20"><polygon points="767.2002,246.125,777.2002,250.125,767.2002,254.125,771.2002,250.125" fill="#75607F" style="stroke:#75607F;stroke-width:1;stroke-linejoin:miter;stroke-miterlimit:10;"/><line x1="581.5664" y1="250.125" x2="773.2002" y2="250.125" style="stroke:#75607F;stroke-width:1;"/><text x="588.5664" y="245.0591" fill="#000000" font-size="13" lengthAdjust="spacing" textLength="173.6338" font-family="sans-serif">SELECT user WHERE email</text></g><path d="M10,265.125 L74.4429,265.125 L74.4429,272.2578 L64.4429,282.2578 L10,282.2578 L10,265.125" style="stroke:#000000;stroke-width:1.5;" fill="#EEEEEE"/><rect x="10" y="265.125" width="812.3706" height="362.2656" fill="none" style="stroke:#000000;stroke-width:1.5;"/><text x="25" y="278.1919" fill="#000000" font-size="13" lengthAdjust="spacing" textLength="19.4429" font-weight="700" font-family="sans-serif">alt</text><text x="89.4429" y="277.3354" fill="#000000" font-size="11" lengthAdjust="spacing" textLength="127.8589" font-weight="700" font-family="sans-serif">[email already used]</text><g class="message" data-entity-1="part4" data-entity-2="part3" id="msg5" data-source-line="22"><polygon points="592.5664,299.3906,582.5664,303.3906,592.5664,307.3906,588.5664,303.3906" fill="#75607F" style="stroke:#75607F;stroke-width:1;stroke-linejoin:miter;stroke-miterlimit:10;"/><line x1="586.5664" y1="303.3906" x2="778.2002" y2="303.3906" style="stroke:#75607F;stroke-width:1;stroke-dasharray:2,2;"/><text x="598.5664" y="298.3247" fill="#000000" font-size="13" lengthAdjust="spacing" textLength="23.9307" font-family="sans-serif">row</text></g><g class="message" data-entity-1="part3" data-entity-2="part2" id="msg6" data-source-line="23"><polygon points="287.5557,328.5234,277.5557,332.5234,287.5557,336.5234,283.5557,332.5234" fill="#75607F" style="stroke:#75607F;stroke-width:1;stroke-linejoin:miter;stroke-miterlimit:10;"/><line x1="281.5557" y1="332.5234" x2="580.5664" y2="332.5234" style="stroke:#75607F;stroke-width:1;stroke-dasharray:2,2;"/><text x="293.5557" y="327.4575" fill="#000000" font-size="13" lengthAdjust="spacing" textLength="105.7583" font-family="sans-serif">409 email taken</text></g><g class="message" data-entity-1="part2" data-entity-2="part1" id="msg7" data-source-line="24"><polygon points="54.5591,357.6563,44.5591,361.6563,54.5591,365.6563,50.5591,361.6563" fill="#75607F" style="stroke:#75607F;stroke-width:1;stroke-linejoin:miter;stroke-miterlimit:10;"/><line x1="48.5591" y1="361.6563" x2="275.5557" y2="361.6563" style="stroke:#75607F;stroke-width:1;stroke-dasharray:2,2;"/><text x="60.5591" y="356.5903" fill="#000000" font-size="13" lengthAdjust="spacing" textLength="64.1875" font-family="sans-serif">rose error</text></g><line x1="10" y1="370.6563" x2="822.3706" y2="370.6563" style="stroke:#000000;stroke-width:1;stroke-dasharray:2,2;"/><text x="15" y="380.8667" fill="#000000" font-size="11" lengthAdjust="spacing" textLength="35.5083" font-weight="700" font-family="sans-serif">[new]</text><g class="message" data-entity-1="part4" data-entity-2="part3" id="msg8" data-source-line="26"><polygon points="592.5664,401.5938,582.5664,405.5938,592.5664,409.5938,588.5664,405.5938" fill="#75607F" style="stroke:#75607F;stroke-width:1;stroke-linejoin:miter;stroke-miterlimit:10;"/><line x1="586.5664" y1="405.5938" x2="778.2002" y2="405.5938" style="stroke:#75607F;stroke-width:1;stroke-dasharray:2,2;"/><text x="598.5664" y="400.5278" fill="#000000" font-size="13" lengthAdjust="spacing" textLength="32.4302" font-family="sans-serif">none</text></g><g class="message" data-entity-1="part3" data-entity-2="part3" id="msg9" data-source-line="27"><line x1="581.5664" y1="434.7266" x2="623.5664" y2="434.7266" style="stroke:#75607F;stroke-width:1;"/><line x1="623.5664" y1="434.7266" x2="623.5664" y2="447.7266" style="stroke:#75607F;stroke-width:1;"/><line x1="582.5664" y1="447.7266" x2="623.5664" y2="447.7266" style="stroke:#75607F;stroke-width:1;"/><polygon points="592.5664,443.7266,582.5664,447.7266,592.5664,451.7266,588.5664,447.7266" fill="#75607F" style="stroke:#75607F;stroke-width:1;stroke-linejoin:miter;stroke-miterlimit:10;"/><text x="588.5664" y="429.6606" fill="#000000" font-size="13" lengthAdjust="spacing" textLength="81.377" font-family="sans-serif">argon2 hash</text></g><g class="message" data-entity-1="part3" data-entity-2="part4" id="msg10" data-source-line="28"><polygon points="767.2002,472.8594,777.2002,476.8594,767.2002,480.8594,771.2002,476.8594" fill="#75607F" style="stroke:#75607F;stroke-width:1;stroke-linejoin:miter;stroke-miterlimit:10;"/><line x1="581.5664" y1="476.8594" x2="773.2002" y2="476.8594" style="stroke:#75607F;stroke-width:1;"/><text x="588.5664" y="471.7935" fill="#000000" font-size="13" lengthAdjust="spacing" textLength="86.2583" font-family="sans-serif">INSERT users</text></g><g class="message" data-entity-1="part3" data-entity-2="part3" id="msg11" data-source-line="29"><line x1="581.5664" y1="505.9922" x2="623.5664" y2="505.9922" style="stroke:#75607F;stroke-width:1;"/><line x1="623.5664" y1="505.9922" x2="623.5664" y2="518.9922" style="stroke:#75607F;stroke-width:1;"/><line x1="582.5664" y1="518.9922" x2="623.5664" y2="518.9922" style="stroke:#75607F;stroke-width:1;"/><polygon points="592.5664,514.9922,582.5664,518.9922,592.5664,522.9922,588.5664,518.9922" fill="#75607F" style="stroke:#75607F;stroke-width:1;stroke-linejoin:miter;stroke-miterlimit:10;"/><text x="588.5664" y="500.9263" fill="#000000" font-size="13" lengthAdjust="spacing" textLength="127.6514" font-family="sans-serif">sign JWT {sub,exp}</text></g><g class="message" data-entity-1="part3" data-entity-2="part2" id="msg12" data-source-line="30"><polygon points="287.5557,544.125,277.5557,548.125,287.5557,552.125,283.5557,548.125" fill="#75607F" style="stroke:#75607F;stroke-width:1;stroke-linejoin:miter;stroke-miterlimit:10;"/><line x1="281.5557" y1="548.125" x2="580.5664" y2="548.125" style="stroke:#75607F;stroke-width:1;stroke-dasharray:2,2;"/><text x="293.5557" y="543.0591" fill="#000000" font-size="13" lengthAdjust="spacing" textLength="176.4014" font-family="sans-serif">200 Token {access_token}</text></g><g class="message" data-entity-1="part2" data-entity-2="part2" id="msg13" data-source-line="31"><line x1="276.5557" y1="577.2578" x2="318.5557" y2="577.2578" style="stroke:#75607F;stroke-width:1;"/><line x1="318.5557" y1="577.2578" x2="318.5557" y2="590.2578" style="stroke:#75607F;stroke-width:1;"/><line x1="277.5557" y1="590.2578" x2="318.5557" y2="590.2578" style="stroke:#75607F;stroke-width:1;"/><polygon points="287.5557,586.2578,277.5557,590.2578,287.5557,594.2578,283.5557,590.2578" fill="#75607F" style="stroke:#75607F;stroke-width:1;stroke-linejoin:miter;stroke-miterlimit:10;"/><text x="283.5557" y="572.1919" fill="#000000" font-size="13" lengthAdjust="spacing" textLength="169.5459" font-family="sans-serif">store token (localStorage)</text></g><g class="message" data-entity-1="part2" data-entity-2="part1" id="msg14" data-source-line="32"><polygon points="54.5591,615.3906,44.5591,619.3906,54.5591,623.3906,50.5591,619.3906" fill="#75607F" style="stroke:#75607F;stroke-width:1;stroke-linejoin:miter;stroke-miterlimit:10;"/><line x1="48.5591" y1="619.3906" x2="275.5557" y2="619.3906" style="stroke:#75607F;stroke-width:1;stroke-dasharray:2,2;"/><text x="60.5591" y="614.3247" fill="#000000" font-size="13" lengthAdjust="spacing" textLength="170.3647" font-family="sans-serif">-> Dashboard (auto-login)</text></g><?plantuml-src ZPBTRjf048Nlzob6z0OaK0WjJOhKI3ZORIBK88oKcqhLO4_C2dlNtLsNL8XtxwonyqDQgVXcFEURCyVBEkboWYLbqZeomcwbAj5W0MjCjfdHbKglTQuDl8lgtml2qi-AL4Am5m1JO_Ik8I_67uSN4JVdye7cKb6WJKhcd-gRJUDe60PCBD0ucSWIbVkxnKlWVrmYhLmZZsRdmVknJvuuRLxPdr_wHnm4UWc-L6ITA9zTe1ClfjzLTqaCz3g05hZncfWkRfY8q3gkZWmN8aM7QxG4dOMsBZDaQsaM256lWS6Lzvg0meBwG0NAl0ybMhlZX7r8j7gGfX3CFA6_C9ViIz2jSJ2KqICFxQu-N_QXG9TiUkq0PvZ0uYvUmHcMyimq_pliwtt7TUssWs3Q3ys22SJXFBnUGMKPllyQBiDZDe6vErQ0kI5CVtiavMET1J1e5_BLy0VjtThG7uQVcZc7Mr8irmbPhi_1p_0f4Tyg8oZdKj7kn5LfHQrjqqAJQJM23ThDi-BZttoBm-KnlZsPiJ9JS7k_WhsjrdrwB0-dMKV38QmqfuGz9WbP-yFvjqCRki4iNnQ2Me9khXFCO-vWHhstN-TZSSYrHfD25okd1xdEfEe9KkaV?></g></svg>