<svg xmlns="http://www.w3.org/2000/svg" xmlns:xlink="http://www.w3.org/1999/xlink" version="1.1" data-diagram-type="SEQUENCE" style="width:812px;height:639px;background:#FFFFFF;" width="812px" height="639px" viewBox="0 0 812 639" zoomAndPan="magnify" preserveAspectRatio="none" contentStyleType="text/css"><?plantuml 1.2026.7beta3?><defs/><g><g class="title" data-source-line="1"><text x="302.8459" y="27.9951" fill="#000000" font-size="14" lengthAdjust="spacing" textLength="199.4727" font-weight="700" font-family="sans-serif">Log in (email / password)</text></g><rect x="10" y="265.125" width="762.9941" height="274.8672" fill="none" style="stroke:#000000;stroke-width:1.5;"/><g class="participant-lifeline" data-qualified-name="Guest" data-entity-uid="part1" id="part1-lifeline" data-source-line="12"><g><title>Guest</title><rect x="39.5591" y="118.5938" width="8" height="438.3984" fill="#000000" fill-opacity="0.00000"/><line x1="43" y1="118.5938" x2="43" y2="556.9922" style="stroke:#75607F;stroke-width:0.5;stroke-dasharray:5,5;"/></g></g><g class="participant-lifeline" data-qualified-name="SPA" data-entity-uid="part2" id="part2-lifeline" data-source-line="13"><g><title>SPA</title><rect x="260.0762" y="118.5938" width="8" height="438.3984" fill="#000000" fill-opacity="0.00000"/><line x1="263.623" y1="118.5938" x2="263.623" y2="556.9922" style="stroke:#75607F;stroke-width:0.5;stroke-dasharray:5,5;"/></g></g><g class="participant-lifeline" data-qualified-name="API" data-entity-uid="part3" id="part3-lifeline" data-source-line="14"><g><title>API</title><rect x="559.4375" y="118.5938" width="8" height="438.3984" fill="#000000" fill-opacity="0.00000"/><line x1="563.3633" y1="118.5938" x2="563.3633" y2="556.9922" style="stroke:#75607F;stroke-width:0.5;stroke-dasharray:5,5;"/></g></g><g class="participant-lifeline" data-qualified-name="DB" data-entity-uid="part4" id="part4-lifeline" data-source-line="15"><g><title>Postgres</title><rect x="763.9941" y="118.5938" width="8" height="438.3984" fill="#000000" fill-opacity="0.00000"/><line x1="767.8237" y1="118.5938" x2="767.8237" y2="556.9922" style="stroke:#75607F;stroke-width:0.5;stroke-dasharray:5,5;"/></g></g><g class="participant participant-head" data-qualified-name="Guest" data-entity-uid="part1" id="part1-head" data-source-line="12"><text x="20" y="115.292" fill="#000000" font-size="14" lengthAdjust="spacing" textLength="41.1182" font-family="sans-serif">Guest</text><ellipse cx="43.5591" cy="50.7969" rx="8" ry="8" fill="#E2E2F0" style="stroke:#181818;stroke-width:0.5;"/><path d="M43.5591,58.7969 L43.5591,85.7969 M30.5591,66.7969 L56.5591,66.7969 M43.5591,85.7969 L30.5591,100.7969 M43.5591,85.7969 L56.5591,100.7969" style="stroke:#181818;stroke-width:0.5;" fill="none"/></g><g class="participant participant-tail" data-qualified-name="Guest" data-entity-uid="part1" id="part1-tail" data-source-line="12"><text x="20" y="568.9873" fill="#000000" font-size="14" lengthAdjust="spacing" textLength="41.1182" font-family="sans-serif">Guest</text><ellipse cx="43.5591" cy="580.7891" rx="8" ry="8" fill="#E2E2F0" style="stroke:#181818;stroke-width:0.5;"/><path d="M43.5591,588.7891 L43.5591,615.7891 M30.5591,596.7891 L56.5591,596.7891 M43.5591,615.7891 L30.5591,630.7891 M43.5591,615.7891 L56.5591,630.7891" style="stroke:#181818;stroke-width:0.5;" fill="none"/></g><g class="participant participant-head" data-qualified-name="SPA" data-entity-uid="part2" id="part2-head" data-source-line="13"><rect x="243.623" y="87.2969" width="40.9063" height="30.2969" fill="#F5F0EB" style="stroke:#75607F;stroke-width:0.5;" rx="2.5" ry="2.5"/><text x="250.623" y="107.292" fill="#2D1B35" font-size="14" lengthAdjust="spacing" textLength="26.9063" font-family="sans-serif">SPA</text></g><g class="participant participant-tail" data-qualified-name="SPA" data-entity-uid="part2" id="part2-tail" data-source-line="13"><rect x="243.623" y="555.9922" width="40.9063" height="30.2969" fill="#F5F0EB" style="stroke:#75607F;stroke-width:0.5;" rx="2.5" ry="2.5"/><text x="250.623" y="575.9873" fill="#2D1B35" font-size="14" lengthAdjust="spacing" textLength="26.9063" font-family="sans-serif">SPA</text></g><g class="participant participant-head" data-qualified-name="API" data-entity-uid="part3" id="part3-head" data-source-line="14"><rect x="545.3633" y="87.2969" width="36.1484" height="30.2969" fill="#F5F0EB" style="stroke:#75607F;stroke-width:0.5;" rx="2.5" ry="2.5"/><text x="552.3633" y="107.292" fill="#2D1B35" font-size="14" lengthAdjust="spacing" textLength="22.1484" font-family="sans-serif">API</text></g><g class="participant participant-tail" data-qualified-name="API" data-entity-uid="part3" id="part3-tail" data-source-line="14"><rect x="545.3633" y="555.9922" width="36.1484" height="30.2969" fill="#F5F0EB" style="stroke:#75607F;stroke-width:0.5;" rx="2.5" ry="2.5"/><text x="552.3633" y="575.9873" fill="#2D1B35" font-size="14" lengthAdjust="spacing" textLength="22.1484" font-family="sans-serif">API</text></g><g class="participant participant-head" data-qualified-name="DB" data-entity-uid="part4" id="part4-head" data-source-line="15"><text x="734.8237" y="115.292" fill="#000000" font-size="14" lengthAdjust="spacing" textLength="60.3408" font-family="sans-serif">Postgres</text><path d="M749.9941,66.2969 C749.9941,56.2969 767.9941,56.2969 767.9941,56.2969 C767.9941,56.2969 785.9941,56.2969 785.9941,66.2969 L785.9941,92.2969 C785.9941,102.2969 767.9941,102.2969 767.9941,102.2969 C767.9941,102.2969 749.9941,102.2969 749.9941,92.2969 L749.9941,66.2969" style="stroke:#181818;stroke-width:0.5;" fill="#E2E2F0"/><path d="M749.9941,66.2969 C749.9941,76.2969 767.9941,76.2969 767.9941,76.2969 C767.9941,76.2969 785.9941,76.2969 785.9941,66.2969" style="stroke:#181818;stroke-width:0.5;" fill="none"/></g><g class="participant participant-tail" data-qualified-name="DB" data-entity-uid="part4" id="part4-tail" data-source-line="15"><text x="734.8237" y="568.9873" fill="#000000" font-size="14" lengthAdjust="spacing" textLength="60.3408" font-family="sans-serif">Postgres</text><path d="M749.9941,582.2891 C749.9941,572.2891 767.9941,572.2891 767.9941,572.2891 C767.9941,572.2891 785.9941,572.2891 785.9941,582.2891 L785.9941,608.2891 C785.9941,618.2891 767.9941,618.2891 767.9941,618.2891 C767.9941,618.2891 749.9941,618.2891 749.9941,608.2891 L749.9941,582.2891" style="stroke:#181818;stroke-width:0.5;" fill="#E2E2F0"/><path d="M749.9941,582.2891 C749.9941,592.2891 767.9941,592.2891 767.9941,592.2891 C767.9941,592.2891 785.9941,592.2891 785.9941,582.2891" style="stroke:#181818;stroke-width:0.5;" fill="none"/></g><g class="message" data-entity-1="part1" data-entity-2="part2" id="msg1" data-source-line="17"><polygon points="252.0762,145.7266,262.0762,149.7266,252.0762,153.7266,256.0762,149.7266" fill="#75607F" style="stroke:#75607F;stroke-width:1;stroke-linejoin:miter;stroke-miterlimit:10;"/><line x1="43.5591" y1="149.7266" x2="258.0762" y2="149.7266" style="stroke:#75607F;stroke-width:1;"/><text x="50.5591" y="144.6606" fill="#000000" font-size="13" lengthAdjust="spacing" textLength="196.5171" font-family="sans-serif">email + password, Dang nhap</text></g><g class="message" data-entity-1="part2" data-entity-2="part2" id="msg2" data-source-line="18"><line x1="264.0762" y1="178.8594" x2="306.0762" y2="178.8594" style="stroke:#75607F;stroke-width:1;"/><line x1="306.0762" y1="178.8594" x2="306.0762" y2="191.8594" style="stroke:#75607F;stroke-width:1;"/><line x1="265.0762" y1="191.8594" x2="306.0762" y2="191.8594" style="stroke:#75607F;stroke-width:1;"/><polygon points="275.0762,187.8594,265.0762,191.8594,275.0762,195.8594,271.0762,191.8594" fill="#75607F" style="stroke:#75607F;stroke-width:1;stroke-linejoin:miter;stroke-miterlimit:10;"/><text x="271.0762" y="173.7935" fill="#000000" font-size="13" lengthAdjust="spacing" textLength="52.1968" font-family="sans-serif">validate</text></g><g class="message" data-entity-1="part2" data-entity-2="part3" id="msg3" data-source-line="19"><polygon points="551.4375,216.9922,561.4375,220.9922,551.4375,224.9922,555.4375,220.9922" fill="#75607F" style="stroke:#75607F;stroke-width:1;stroke-linejoin:miter;stroke-miterlimit:10;"/><line x1="264.0762" y1="220.9922" x2="557.4375" y2="220.9922" style="stroke:#75607F;stroke-width:1;"/><text x="271.0762" y="215.9263" fill="#000000" font-size="13" lengthAdjust="spacing" textLength="255.7788" font-family="sans-serif">POST /api/token {username,password}</text></g><g class="message" data-entity-1="part3" data-entity-2="part4" id="msg4" data-source-line="20"><polygon points="755.9941,246.125,765.9941,250.125,755.9941,254.125,759.9941,250.125" fill="#75607F" style="stroke:#75607F;stroke-width:1;stroke-linejoin:miter;stroke-miterlimit:10;"/><line x1="563.4375" y1="250.125" x2="761.9941" y2="250.125" style="stroke:#75607F;stroke-width:1;"/><text x="570.4375" y="245.0591" fill="#000000" font-size="13" lengthAdjust="spacing" textLength="173.6338" font-family="sans-serif">SELECT user WHERE email</text></g><path d="M10,265.125 L74.4429,265.125 L74.4429,272.2578 L64.4429,282.2578 L10,282.2578 L10,265.125" style="stroke:#000000;stroke-width:1.5;" fill="#EEEEEE"/><rect x="10" y="265.125" width="762.9941" height="274.8672" fill="none" style="stroke:#000000;stroke-width:1.5;"/><text x="25" y="278.1919" fill="#000000" font-size="13" lengthAdjust="spacing" textLength="19.4429" font-weight="700" font-family="sans-serif">alt</text><text x="89.4429" y="277.3354" fill="#000000" font-size="11" lengthAdjust="spacing" textLength="154.623" font-weight="700" font-family="sans-serif">[no user / bad password]</text><g class="message" data-entity-1="part3" data-entity-2="part3" id="msg5" data-source-line="22"><line x1="563.4375" y1="303.3906" x2="605.4375" y2="303.3906" style="stroke:#75607F;stroke-width:1;"/><line x1="605.4375" y1="303.3906" x2="605.4375" y2="316.3906" style="stroke:#75607F;stroke-width:1;"/><line x1="564.4375" y1="316.3906" x2="605.4375" y2="316.3906" style="stroke:#75607F;stroke-width:1;"/><polygon points="574.4375,312.3906,564.4375,316.3906,574.4375,320.3906,570.4375,316.3906" fill="#75607F" style="stroke:#75607F;stroke-width:1;stroke-linejoin:miter;stroke-miterlimit:10;"/><text x="570.4375" y="298.3247" fill="#000000" font-size="13" lengthAdjust="spacing" textLength="130.6919" font-family="sans-serif">argon2 verify -> fail</text></g><g class="message" data-entity-1="part3" data-entity-2="part2" id="msg6" data-source-line="23"><polygon points="275.0762,341.5234,265.0762,345.5234,275.0762,349.5234,271.0762,345.5234" fill="#75607F" style="stroke:#75607F;stroke-width:1;stroke-linejoin:miter;stroke-miterlimit:10;"/><line x1="269.0762" y1="345.5234" x2="562.4375" y2="345.5234" style="stroke:#75607F;stroke-width:1;stroke-dasharray:2,2;"/><text x="281.0762" y="340.4575" fill="#000000" font-size="13" lengthAdjust="spacing" textLength="171.4883" font-family="sans-serif">401 "Invalid login details."</text></g><g class="message" data-entity-1="part2" data-entity-2="part1" id="msg7" data-source-line="24"><polygon points="54.5591,370.6563,44.5591,374.6563,54.5591,378.6563,50.5591,374.6563" fill="#75607F" style="stroke:#75607F;stroke-width:1;stroke-linejoin:miter;stroke-miterlimit:10;"/><line x1="48.5591" y1="374.6563" x2="263.0762" y2="374.6563" style="stroke:#75607F;stroke-width:1;stroke-dasharray:2,2;"/><text x="60.5591" y="369.5903" fill="#000000" font-size="13" lengthAdjust="spacing" textLength="64.1875" font-family="sans-serif">rose error</text></g><line x1="10" y1="383.6563" x2="772.9941" y2="383.6563" style="stroke:#000000;stroke-width:1;stroke-dasharray:2,2;"/><text x="15" y="393.8667" fill="#000000" font-size="11" lengthAdjust="spacing" textLength="24.9272" font-weight="700" font-family="sans-serif">[ok]</text><g class="message" data-entity-1="part3" data-entity-2="part3" id="msg8" data-source-line="26"><line x1="563.4375" y1="418.5938" x2="605.4375" y2="418.5938" style="stroke:#75607F;stroke-width:1;"/><line x1="605.4375" y1="418.5938" x2="605.4375" y2="431.5938" style="stroke:#75607F;stroke-width:1;"/><line x1="564.4375" y1="431.5938" x2="605.4375" y2="431.5938" style="stroke:#75607F;stroke-width:1;"/><polygon points="574.4375,427.5938,564.4375,431.5938,574.4375,435.5938,570.4375,431.5938" fill="#75607F" style="stroke:#75607F;stroke-width:1;stroke-linejoin:miter;stroke-miterlimit:10;"/><text x="570.4375" y="413.5278" fill="#000000" font-size="13" lengthAdjust="spacing" textLength="190.5566" font-family="sans-serif">argon2 verify -> ok; sign JWT</text></g><g class="message" data-entity-1="part3" data-entity-2="part2" id="msg9" data-source-line="27"><polygon points="275.0762,456.7266,265.0762,460.7266,275.0762,464.7266,271.0762,460.7266" fill="#75607F" style="stroke:#75607F;stroke-width:1;stroke-linejoin:miter;stroke-miterlimit:10;"/><line x1="269.0762" y1="460.7266" x2="562.4375" y2="460.7266" style="stroke:#75607F;stroke-width:1;stroke-dasharray:2,2;"/><text x="281.0762" y="455.6606" fill="#000000" font-size="13" lengthAdjust="spacing" textLength="275.3613" font-family="sans-serif">Token {access_token, token_type:bearer}</text></g><g class="message" data-entity-1="part2" data-entity-2="part2" id="msg10" data-source-line="28"><line x1="264.0762" y1="489.8594" x2="306.0762" y2="489.8594" style="stroke:#75607F;stroke-width:1;"/><line x1="306.0762" y1="489.8594" x2="306.0762" y2="502.8594" style="stroke:#75607F;stroke-width:1;"/><line x1="265.0762" y1="502.8594" x2="306.0762" y2="502.8594" style="stroke:#75607F;stroke-width:1;"/><polygon points="275.0762,498.8594,265.0762,502.8594,275.0762,506.8594,271.0762,502.8594" fill="#75607F" style="stroke:#75607F;stroke-width:1;stroke-linejoin:miter;stroke-miterlimit:10;"/><text x="271.0762" y="484.7935" fill="#000000" font-size="13" lengthAdjust="spacing" textLength="74.1152" font-family="sans-serif">store token</text></g><g class="message" data-entity-1="part2" data-entity-2="part1" id="msg11" data-source-line="29"><polygon points="54.5591,527.9922,44.5591,531.9922,54.5591,535.9922,50.5591,531.9922" fill="#75607F" style="stroke:#75607F;stroke-width:1;stroke-linejoin:miter;stroke-miterlimit:10;"/><line x1="48.5591" y1="531.9922" x2="263.0762" y2="531.9922" style="stroke:#75607F;stroke-width:1;stroke-dasharray:2,2;"/><text x="60.5591" y="526.9263" fill="#000000" font-size="13" lengthAdjust="spacing" textLength="90.4731" font-family="sans-serif">-> Dashboard</text></g><?plantuml-src ZPBTJkCm48Nl_HIZx0qh2crXkw0W8JKqNLXL8jfMuX9DascmajfPsmKXr7TdxBJbRrUGN3YQ-Npcw4oST3N1H9SW5UpH4cKDNMZGsWTjYk_2Lb8rQ709SyohqkYLAYvqhGry6uVd5M7fxufKJl0a08R6w8SDUJBusJiPSt4Y5pIHYXBM9lFVxeT9Wt4lJPZ8q3YPomQL-xV4Q-0hAcEjtAPzDEednmFlF7VQl97ld_fNh0Nw5lnQaNMYUL61Q9eD8q0BVBvj3BEhqE1J5EXmZfOWohHrfI4RMgD4Y2091-TU88Ps3VkxDNHWXAe4TOUDO637tMCjMPIsHHuIGtOzdK4N6zbrkY85JojBHk6IEbkvjM3GywCaXcawIIzcu26ukKp_fErqWRK3fTjwbvTVxDpuYDhxOHwQKgiZk2SZ5u--kl3NDypMwOzU7w8h5Gn3hKl-sGfo3Dh3YDdWdzaGGmn6SqZ4Fv0HLFEdhZwRgQipiB9KyFjczdxsh8q1yvoilGsXT20Sj-wneNXEQCYijpOsjonlcbhieq6V7TgxkKQEWrJn3000?></g></svg>