<svg xmlns="http://www.w3.org/2000/svg" xmlns:xlink="http://www.w3.org/1999/xlink" version="1.1" data-diagram-type="SEQUENCE" style="width:922px;height:770px;background:#FFFFFF;" width="922px" height="770px" viewBox="0 0 922 770" zoomAndPan="magnify" preserveAspectRatio="none" contentStyleType="text/css"><?plantuml 1.2026.7beta3?><defs/><g><g class="title" data-source-line="1"><text x="262.5237" y="27.9951" fill="#000000" font-size="14" lengthAdjust="spacing" textLength="390.585" font-weight="700" font-family="sans-serif">Sign in with Google (Authorization Code redirect)</text></g><rect x="456.6899" y="482.0547" width="449.9424" height="46.2656" fill="none" style="stroke:#000000;stroke-width:1.5;"/><g class="participant-lifeline" data-qualified-name="Guest" data-entity-uid="part1" id="part1-lifeline" data-source-line="12"><g><title>Guest</title><rect x="24.5591" y="118.5938" width="8" height="569.2578" fill="#000000" fill-opacity="0.00000"/><line x1="28" y1="118.5938" x2="28" y2="687.8516" style="stroke:#75607F;stroke-width:0.5;stroke-dasharray:5,5;"/></g></g><g class="participant-lifeline" data-qualified-name="SPA" data-entity-uid="part2" id="part2-lifeline" data-source-line="13"><g><title>SPA</title><rect x="219.7236" y="118.5938" width="8" height="569.2578" fill="#000000" fill-opacity="0.00000"/><line x1="223.2705" y1="118.5938" x2="223.2705" y2="687.8516" style="stroke:#75607F;stroke-width:0.5;stroke-dasharray:5,5;"/></g></g><g class="participant-lifeline" data-qualified-name="API" data-entity-uid="part3" id="part3-lifeline" data-source-line="14"><g><title>API</title><rect x="480.7642" y="118.5938" width="8" height="569.2578" fill="#000000" fill-opacity="0.00000"/><line x1="484.6899" y1="118.5938" x2="484.6899" y2="687.8516" style="stroke:#75607F;stroke-width:0.5;stroke-dasharray:5,5;"/></g></g><g class="participant-lifeline" data-qualified-name="G" data-entity-uid="part4" id="part4-lifeline" data-source-line="15"><g><title>Google</title><rect x="784.6069" y="118.5938" width="8" height="569.2578" fill="#000000" fill-opacity="0.00000"/><line x1="787.9224" y1="118.5938" x2="787.9224" y2="687.8516" style="stroke:#75607F;stroke-width:0.5;stroke-dasharray:5,5;"/></g></g><g class="participant-lifeline" data-qualified-name="DB" data-entity-uid="part5" id="part5-lifeline" data-source-line="16"><g><title>Postgres</title><rect x="859.4619" y="118.5938" width="8" height="569.2578" fill="#000000" fill-opacity="0.00000"/><line x1="863.2915" y1="118.5938" x2="863.2915" y2="687.8516" style="stroke:#75607F;stroke-width:0.5;stroke-dasharray:5,5;"/></g></g><g class="participant participant-head" data-qualified-name="Guest" data-entity-uid="part1" id="part1-head" data-source-line="12"><text x="5" y="115.292" fill="#000000" font-size="14" lengthAdjust="spacing" textLength="41.1182" font-family="sans-serif">Guest</text><ellipse cx="28.5591" cy="50.7969" rx="8" ry="8" fill="#E2E2F0" style="stroke:#181818;stroke-width:0.5;"/><path d="M28.5591,58.7969 L28.5591,85.7969 M15.5591,66.7969 L41.5591,66.7969 M28.5591,85.7969 L15.5591,100.7969 M28.5591,85.7969 L41.5591,100.7969" style="stroke:#181818;stroke-width:0.5;" fill="none"/></g><g class="participant participant-tail" data-qualified-name="Guest" data-entity-uid="part1" id="part1-tail" data-source-line="12"><text x="5" y="699.8467" fill="#000000" font-size="14" lengthAdjust="spacing" textLength="41.1182" font-family="sans-serif">Guest</text><ellipse cx="28.5591" cy="711.6484" rx="8" ry="8" fill="#E2E2F0" style="stroke:#181818;stroke-width:0.5;"/><path d="M28.5591,719.6484 L28.5591,746.6484 M15.5591,727.6484 L41.5591,727.6484 M28.5591,746.6484 L15.5591,761.6484 M28.5591,746.6484 L41.5591,761.6484" style="stroke:#181818;stroke-width:0.5;" fill="none"/></g><g class="participant participant-head" data-qualified-name="SPA" data-entity-uid="part2" id="part2-head" data-source-line="13"><rect x="203.2705" y="87.2969" width="40.9063" height="30.2969" fill="#F5F0EB" style="stroke:#75607F;stroke-width:0.5;" rx="2.5" ry="2.5"/><text x="210.2705" y="107.292" fill="#2D1B35" font-size="14" lengthAdjust="spacing" textLength="26.9063" font-family="sans-serif">SPA</text></g><g class="participant participant-tail" data-qualified-name="SPA" data-entity-uid="part2" id="part2-tail" data-source-line="13"><rect x="203.2705" y="686.8516" width="40.9063" height="30.2969" fill="#F5F0EB" style="stroke:#75607F;stroke-width:0.5;" rx="2.5" ry="2.5"/><text x="210.2705" y="706.8467" fill="#2D1B35" font-size="14" lengthAdjust="spacing" textLength="26.9063" font-family="sans-serif">SPA</text></g><g class="participant participant-head" data-qualified-name="API" data-entity-uid="part3" id="part3-head" data-source-line="14"><rect x="466.6899" y="87.2969" width="36.1484" height="30.2969" fill="#F5F0EB" style="stroke:#75607F;stroke-width:0.5;" rx="2.5" ry="2.5"/><text x="473.6899" y="107.292" fill="#2D1B35" font-size="14" lengthAdjust="spacing" textLength="22.1484" font-family="sans-serif">API</text></g><g class="participant participant-tail" data-qualified-name="API" data-entity-uid="part3" id="part3-tail" data-source-line="14"><rect x="466.6899" y="686.8516" width="36.1484" height="30.2969" fill="#F5F0EB" style="stroke:#75607F;stroke-width:0.5;" rx="2.5" ry="2.5"/><text x="473.6899" y="706.8467" fill="#2D1B35" font-size="14" lengthAdjust="spacing" textLength="22.1484" font-family="sans-serif">API</text></g><g class="participant participant-head" data-qualified-name="G" data-entity-uid="part4" id="part4-head" data-source-line="15"><rect x="756.9224" y="87.2969" width="63.3691" height="30.2969" fill="#F5F0EB" style="stroke:#75607F;stroke-width:0.5;" rx="2.5" ry="2.5"/><text x="763.9224" y="107.292" fill="#2D1B35" font-size="14" lengthAdjust="spacing" textLength="49.3691" font-family="sans-serif">Google</text></g><g class="participant participant-tail" data-qualified-name="G" data-entity-uid="part4" id="part4-tail" data-source-line="15"><rect x="756.9224" y="686.8516" width="63.3691" height="30.2969" fill="#F5F0EB" style="stroke:#75607F;stroke-width:0.5;" rx="2.5" ry="2.5"/><text x="763.9224" y="706.8467" fill="#2D1B35" font-size="14" lengthAdjust="spacing" textLength="49.3691" font-family="sans-serif">Google</text></g><g class="participant participant-head" data-qualified-name="DB" data-entity-uid="part5" id="part5-head" data-source-line="16"><text x="830.2915" y="115.292" fill="#000000" font-size="14" lengthAdjust="spacing" textLength="60.3408" font-family="sans-serif">Postgres</text><path d="M845.4619,66.2969 C845.4619,56.2969 863.4619,56.2969 863.4619,56.2969 C863.4619,56.2969 881.4619,56.2969 881.4619,66.2969 L881.4619,92.2969 C881.4619,102.2969 863.4619,102.2969 863.4619,102.2969 C863.4619,102.2969 845.4619,102.2969 845.4619,92.2969 L845.4619,66.2969" style="stroke:#181818;stroke-width:0.5;" fill="#E2E2F0"/><path d="M845.4619,66.2969 C845.4619,76.2969 863.4619,76.2969 863.4619,76.2969 C863.4619,76.2969 881.4619,76.2969 881.4619,66.2969" style="stroke:#181818;stroke-width:0.5;" fill="none"/></g><g class="participant participant-tail" data-qualified-name="DB" data-entity-uid="part5" id="part5-tail" data-source-line="16"><text x="830.2915" y="699.8467" fill="#000000" font-size="14" lengthAdjust="spacing" textLength="60.3408" font-family="sans-serif">Postgres</text><path d="M845.4619,713.1484 C845.4619,703.1484 863.4619,703.1484 863.4619,703.1484 C863.4619,703.1484 881.4619,703.1484 881.4619,713.1484 L881.4619,739.1484 C881.4619,749.1484 863.4619,749.1484 863.4619,749.1484 C863.4619,749.1484 845.4619,749.1484 845.4619,739.1484 L845.4619,713.1484" style="stroke:#181818;stroke-width:0.5;" fill="#E2E2F0"/><path d="M845.4619,713.1484 C845.4619,723.1484 863.4619,723.1484 863.4619,723.1484 C863.4619,723.1484 881.4619,723.1484 881.4619,713.1484" style="stroke:#181818;stroke-width:0.5;" fill="none"/></g><g class="message" data-entity-1="part1" data-entity-2="part2" id="msg1" data-source-line="18"><polygon points="211.7236,145.7266,221.7236,149.7266,211.7236,153.7266,215.7236,149.7266" fill="#75607F" style="stroke:#75607F;stroke-width:1;stroke-linejoin:miter;stroke-miterlimit:10;"/><line x1="28.5591" y1="149.7266" x2="217.7236" y2="149.7266" style="stroke:#75607F;stroke-width:1;"/><text x="35.5591" y="144.6606" fill="#000000" font-size="13" lengthAdjust="spacing" textLength="171.1646" font-family="sans-serif">click "Sign in with Google"</text></g><g class="message" data-entity-1="part2" data-entity-2="part3" id="msg2" data-source-line="19"><polygon points="472.7642,174.8594,482.7642,178.8594,472.7642,182.8594,476.7642,178.8594" fill="#75607F" style="stroke:#75607F;stroke-width:1;stroke-linejoin:miter;stroke-miterlimit:10;"/><line x1="223.7236" y1="178.8594" x2="478.7642" y2="178.8594" style="stroke:#75607F;stroke-width:1;"/><text x="230.7236" y="173.7935" fill="#000000" font-size="13" lengthAdjust="spacing" textLength="172.9419" font-family="sans-serif">GET /api/auth/google/login</text></g><g class="message" data-entity-1="part3" data-entity-2="part2" id="msg3" data-source-line="20"><polygon points="234.7236,203.9922,224.7236,207.9922,234.7236,211.9922,230.7236,207.9922" fill="#75607F" style="stroke:#75607F;stroke-width:1;stroke-linejoin:miter;stroke-miterlimit:10;"/><line x1="228.7236" y1="207.9922" x2="483.7642" y2="207.9922" style="stroke:#75607F;stroke-width:1;stroke-dasharray:2,2;"/><text x="240.7236" y="202.9263" fill="#000000" font-size="13" lengthAdjust="spacing" textLength="237.0405" font-family="sans-serif">302 -> Google authorize URL (state)</text></g><g class="message" data-entity-1="part2" data-entity-2="part4" id="msg4" data-source-line="21"><polygon points="776.6069,233.125,786.6069,237.125,776.6069,241.125,780.6069,237.125" fill="#75607F" style="stroke:#75607F;stroke-width:1;stroke-linejoin:miter;stroke-miterlimit:10;"/><line x1="223.7236" y1="237.125" x2="782.6069" y2="237.125" style="stroke:#75607F;stroke-width:1;"/><text x="230.7236" y="232.0591" fill="#000000" font-size="13" lengthAdjust="spacing" textLength="150.0142" font-family="sans-serif">redirect; user consents</text></g><g class="message" data-entity-1="part4" data-entity-2="part2" id="msg5" data-source-line="22"><polygon points="234.7236,262.2578,224.7236,266.2578,234.7236,270.2578,230.7236,266.2578" fill="#75607F" style="stroke:#75607F;stroke-width:1;stroke-linejoin:miter;stroke-miterlimit:10;"/><line x1="228.7236" y1="266.2578" x2="787.6069" y2="266.2578" style="stroke:#75607F;stroke-width:1;stroke-dasharray:2,2;"/><text x="240.7236" y="261.1919" fill="#000000" font-size="13" lengthAdjust="spacing" textLength="300.3901" font-family="sans-serif">redirect /api/auth/google/callback?code&amp;state</text></g><g class="message" data-entity-1="part2" data-entity-2="part3" id="msg6" data-source-line="23"><polygon points="472.7642,291.3906,482.7642,295.3906,472.7642,299.3906,476.7642,295.3906" fill="#75607F" style="stroke:#75607F;stroke-width:1;stroke-linejoin:miter;stroke-miterlimit:10;"/><line x1="223.7236" y1="295.3906" x2="478.7642" y2="295.3906" style="stroke:#75607F;stroke-width:1;"/><text x="230.7236" y="290.3247" fill="#000000" font-size="13" lengthAdjust="spacing" textLength="164.9121" font-family="sans-serif">GET callback?code&amp;state</text></g><g class="message" data-entity-1="part3" data-entity-2="part3" id="msg7" data-source-line="24"><line x1="484.7642" y1="324.5234" x2="526.7642" y2="324.5234" style="stroke:#75607F;stroke-width:1;"/><line x1="526.7642" y1="324.5234" x2="526.7642" y2="337.5234" style="stroke:#75607F;stroke-width:1;"/><line x1="485.7642" y1="337.5234" x2="526.7642" y2="337.5234" style="stroke:#75607F;stroke-width:1;"/><polygon points="495.7642,333.5234,485.7642,337.5234,495.7642,341.5234,491.7642,337.5234" fill="#75607F" style="stroke:#75607F;stroke-width:1;stroke-linejoin:miter;stroke-miterlimit:10;"/><text x="491.7642" y="319.4575" fill="#000000" font-size="13" lengthAdjust="spacing" textLength="73.9819" font-family="sans-serif">verify state</text></g><g class="message" data-entity-1="part3" data-entity-2="part4" id="msg8" data-source-line="25"><polygon points="776.6069,362.6563,786.6069,366.6563,776.6069,370.6563,780.6069,366.6563" fill="#75607F" style="stroke:#75607F;stroke-width:1;stroke-linejoin:miter;stroke-miterlimit:10;"/><line x1="484.7642" y1="366.6563" x2="782.6069" y2="366.6563" style="stroke:#75607F;stroke-width:1;"/><text x="491.7642" y="361.5903" fill="#000000" font-size="13" lengthAdjust="spacing" textLength="279.8428" font-family="sans-serif">POST token endpoint {code, client_secret}</text></g><g class="message" data-entity-1="part4" data-entity-2="part3" id="msg9" data-source-line="26"><polygon points="495.7642,391.7891,485.7642,395.7891,495.7642,399.7891,491.7642,395.7891" fill="#75607F" style="stroke:#75607F;stroke-width:1;stroke-linejoin:miter;stroke-miterlimit:10;"/><line x1="489.7642" y1="395.7891" x2="787.6069" y2="395.7891" style="stroke:#75607F;stroke-width:1;stroke-dasharray:2,2;"/><text x="501.7642" y="390.7231" fill="#000000" font-size="13" lengthAdjust="spacing" textLength="161.459" font-family="sans-serif">id_token + access_token</text></g><g class="message" data-entity-1="part3" data-entity-2="part3" id="msg10" data-source-line="27"><line x1="484.7642" y1="424.9219" x2="526.7642" y2="424.9219" style="stroke:#75607F;stroke-width:1;"/><line x1="526.7642" y1="424.9219" x2="526.7642" y2="437.9219" style="stroke:#75607F;stroke-width:1;"/><line x1="485.7642" y1="437.9219" x2="526.7642" y2="437.9219" style="stroke:#75607F;stroke-width:1;"/><polygon points="495.7642,433.9219,485.7642,437.9219,495.7642,441.9219,491.7642,437.9219" fill="#75607F" style="stroke:#75607F;stroke-width:1;stroke-linejoin:miter;stroke-miterlimit:10;"/><text x="491.7642" y="419.856" fill="#000000" font-size="13" lengthAdjust="spacing" textLength="232.0703" font-family="sans-serif">verify id_token; extract email,name</text></g><g class="message" data-entity-1="part3" data-entity-2="part5" id="msg11" data-source-line="28"><polygon points="851.4619,463.0547,861.4619,467.0547,851.4619,471.0547,855.4619,467.0547" fill="#75607F" style="stroke:#75607F;stroke-width:1;stroke-linejoin:miter;stroke-miterlimit:10;"/><line x1="484.7642" y1="467.0547" x2="857.4619" y2="467.0547" style="stroke:#75607F;stroke-width:1;"/><text x="491.7642" y="461.9888" fill="#000000" font-size="13" lengthAdjust="spacing" textLength="173.6338" font-family="sans-serif">SELECT user WHERE email</text></g><path d="M456.6899,482.0547 L521.1328,482.0547 L521.1328,489.1875 L511.1328,499.1875 L456.6899,499.1875 L456.6899,482.0547" style="stroke:#000000;stroke-width:1.5;" fill="#EEEEEE"/><rect x="456.6899" y="482.0547" width="449.9424" height="46.2656" fill="none" style="stroke:#000000;stroke-width:1.5;"/><text x="471.6899" y="495.1216" fill="#000000" font-size="13" lengthAdjust="spacing" textLength="19.4429" font-weight="700" font-family="sans-serif">alt</text><text x="536.1328" y="494.2651" fill="#000000" font-size="11" lengthAdjust="spacing" textLength="67.6221" font-weight="700" font-family="sans-serif">[first time]</text><g class="message" data-entity-1="part3" data-entity-2="part5" id="msg12" data-source-line="30"><polygon points="851.4619,516.3203,861.4619,520.3203,851.4619,524.3203,855.4619,520.3203" fill="#75607F" style="stroke:#75607F;stroke-width:1;stroke-linejoin:miter;stroke-miterlimit:10;"/><line x1="484.7642" y1="520.3203" x2="857.4619" y2="520.3203" style="stroke:#75607F;stroke-width:1;"/><text x="491.7642" y="515.2544" fill="#000000" font-size="13" lengthAdjust="spacing" textLength="228.5664" font-family="sans-serif">INSERT users (oauth, no password)</text></g><g class="message" data-entity-1="part3" data-entity-2="part3" id="msg13" data-source-line="32"><line x1="484.7642" y1="556.4531" x2="526.7642" y2="556.4531" style="stroke:#75607F;stroke-width:1;"/><line x1="526.7642" y1="556.4531" x2="526.7642" y2="569.4531" style="stroke:#75607F;stroke-width:1;"/><line x1="485.7642" y1="569.4531" x2="526.7642" y2="569.4531" style="stroke:#75607F;stroke-width:1;"/><polygon points="495.7642,565.4531,485.7642,569.4531,495.7642,573.4531,491.7642,569.4531" fill="#75607F" style="stroke:#75607F;stroke-width:1;stroke-linejoin:miter;stroke-miterlimit:10;"/><text x="491.7642" y="551.3872" fill="#000000" font-size="13" lengthAdjust="spacing" textLength="81.3071" font-family="sans-serif">sign our JWT</text></g><g class="message" data-entity-1="part3" data-entity-2="part2" id="msg14" data-source-line="33"><polygon points="234.7236,594.5859,224.7236,598.5859,234.7236,602.5859,230.7236,598.5859" fill="#75607F" style="stroke:#75607F;stroke-width:1;stroke-linejoin:miter;stroke-miterlimit:10;"/><line x1="228.7236" y1="598.5859" x2="483.7642" y2="598.5859" style="stroke:#75607F;stroke-width:1;stroke-dasharray:2,2;"/><text x="240.7236" y="593.52" fill="#000000" font-size="13" lengthAdjust="spacing" textLength="169.2412" font-family="sans-serif">redirect to app with token</text></g><g class="message" data-entity-1="part2" data-entity-2="part2" id="msg15" data-source-line="34"><line x1="223.7236" y1="627.7188" x2="265.7236" y2="627.7188" style="stroke:#75607F;stroke-width:1;"/><line x1="265.7236" y1="627.7188" x2="265.7236" y2="640.7188" style="stroke:#75607F;stroke-width:1;"/><line x1="224.7236" y1="640.7188" x2="265.7236" y2="640.7188" style="stroke:#75607F;stroke-width:1;"/><polygon points="234.7236,636.7188,224.7236,640.7188,234.7236,644.7188,230.7236,640.7188" fill="#75607F" style="stroke:#75607F;stroke-width:1;stroke-linejoin:miter;stroke-miterlimit:10;"/><text x="230.7236" y="622.6528" fill="#000000" font-size="13" lengthAdjust="spacing" textLength="74.1152" font-family="sans-serif">store token</text></g><g class="message" data-entity-1="part2" data-entity-2="part1" id="msg16" data-source-line="35"><polygon points="39.5591,665.8516,29.5591,669.8516,39.5591,673.8516,35.5591,669.8516" fill="#75607F" style="stroke:#75607F;stroke-width:1;stroke-linejoin:miter;stroke-miterlimit:10;"/><line x1="33.5591" y1="669.8516" x2="222.7236" y2="669.8516" style="stroke:#75607F;stroke-width:1;stroke-dasharray:2,2;"/><text x="45.5591" y="664.7856" fill="#000000" font-size="13" lengthAdjust="spacing" textLength="90.4731" font-family="sans-serif">-> Dashboard</text></g><?plantuml-src ZLBlRzem4Ftkl-B4f0aqAcWhrebAc_WHiaveGy3KZzNX7C4Ys9djZ6rL__VPJg14C6d9XoX-xzuztpqhR4Qm4Aa48M4lx0PYfL9trXmKTgEq-8DMA0aZbH1eIeGcRblCR8NCKUCELiYtgLQ5J4OgKnhUJC9pmZ3qeo392PuPm41hjQ-OTxtttRk9EvoADKs5fA7I2Ub_ecUTUfDkD7IC6MehkCXHsiiIfuJ_KPaeQIluPdmzlErvvzmgNPE__k1VziBGGn0NP2pBNrMWiPWD6e06tBSE36OF0N3VEb1EFs0nIz3Y2Wr1OwQCJJMP08o7Z8LcSFNHI_U1Pu9lNRlpFJQO8tYUwzI7E5f21tFHGRVSJXeOdKobGZA7mzL1xxPxuskgA62L18BlyoaqZKLBhODkt3_6uXuAGnguaeQaDIn-5JnGphjpp3AVeK_S9Unjq3wpV8aJ_5QSdwJ5-ZVK0EThzcsn1Aks985aaYlX1lpi9Tf-OCxYao6koRvKJeEMI9xAadU0d9CnvU-bVWVgFT0lgrq8W7OeihR4tT76UDY7HJIDHijoE8-VetbKyXXc5jP2kprQuIe0JceUlYwYULbZeAdynDeW5UHepDw5iCNSbMgcZ5--AZHyULpMjtaSlbM0ULx6exnLDUb0Cox4T7hkf-XZrW-cq6nM2dNo5m00?></g></svg>