<svg xmlns="http://www.w3.org/2000/svg" xmlns:xlink="http://www.w3.org/1999/xlink" version="1.1" data-diagram-type="SEQUENCE" style="width:552px;height:558px;background:#FFFFFF;" width="552px" height="558px" viewBox="0 0 552 558" zoomAndPan="magnify" preserveAspectRatio="none" contentStyleType="text/css"><?plantuml 1.2026.7beta3?><defs/><g><g class="title" data-source-line="1"><text x="127.6494" y="27.9951" fill="#000000" font-size="14" lengthAdjust="spacing" textLength="290.4658" font-weight="700" font-family="sans-serif">Log out &amp; Toggle theme (client-side)</text></g><g class="participant-lifeline" data-qualified-name="User" data-entity-uid="part1" id="part1-lifeline" data-source-line="12"><g><title>User</title><rect x="19.9551" y="118.5938" width="8" height="357.3281" fill="#000000" fill-opacity="0.00000"/><line x1="23" y1="118.5938" x2="23" y2="475.9219" style="stroke:#75607F;stroke-width:0.5;stroke-dasharray:5,5;"/></g></g><g class="participant-lifeline" data-qualified-name="SPA" data-entity-uid="part2" id="part2-lifeline" data-source-line="13"><g><title>SPA</title><rect x="237.9521" y="118.5938" width="8" height="357.3281" fill="#000000" fill-opacity="0.00000"/><line x1="241.499" y1="118.5938" x2="241.499" y2="475.9219" style="stroke:#75607F;stroke-width:0.5;stroke-dasharray:5,5;"/></g></g><g class="participant-lifeline" data-qualified-name="API" data-entity-uid="part3" id="part3-lifeline" data-source-line="14"><g><title>API</title><rect x="517.3984" y="118.5938" width="8" height="357.3281" fill="#000000" fill-opacity="0.00000"/><line x1="521.3242" y1="118.5938" x2="521.3242" y2="475.9219" style="stroke:#75607F;stroke-width:0.5;stroke-dasharray:5,5;"/></g></g><g class="participant participant-head" data-qualified-name="User" data-entity-uid="part1" id="part1-head" data-source-line="12"><text x="5" y="115.292" fill="#000000" font-size="14" lengthAdjust="spacing" textLength="31.9102" font-family="sans-serif">User</text><ellipse cx="23.9551" cy="50.7969" rx="8" ry="8" fill="#E2E2F0" style="stroke:#181818;stroke-width:0.5;"/><path d="M23.9551,58.7969 L23.9551,85.7969 M10.9551,66.7969 L36.9551,66.7969 M23.9551,85.7969 L10.9551,100.7969 M23.9551,85.7969 L36.9551,100.7969" style="stroke:#181818;stroke-width:0.5;" fill="none"/></g><g class="participant participant-tail" data-qualified-name="User" data-entity-uid="part1" id="part1-tail" data-source-line="12"><text x="5" y="487.917" fill="#000000" font-size="14" lengthAdjust="spacing" textLength="31.9102" font-family="sans-serif">User</text><ellipse cx="23.9551" cy="499.7188" rx="8" ry="8" fill="#E2E2F0" style="stroke:#181818;stroke-width:0.5;"/><path d="M23.9551,507.7188 L23.9551,534.7188 M10.9551,515.7188 L36.9551,515.7188 M23.9551,534.7188 L10.9551,549.7188 M23.9551,534.7188 L36.9551,549.7188" style="stroke:#181818;stroke-width:0.5;" fill="none"/></g><g class="participant participant-head" data-qualified-name="SPA" data-entity-uid="part2" id="part2-head" data-source-line="13"><rect x="221.499" y="87.2969" width="40.9063" height="30.2969" fill="#F5F0EB" style="stroke:#75607F;stroke-width:0.5;" rx="2.5" ry="2.5"/><text x="228.499" y="107.292" fill="#2D1B35" font-size="14" lengthAdjust="spacing" textLength="26.9063" font-family="sans-serif">SPA</text></g><g class="participant participant-tail" data-qualified-name="SPA" data-entity-uid="part2" id="part2-tail" data-source-line="13"><rect x="221.499" y="474.9219" width="40.9063" height="30.2969" fill="#F5F0EB" style="stroke:#75607F;stroke-width:0.5;" rx="2.5" ry="2.5"/><text x="228.499" y="494.917" fill="#2D1B35" font-size="14" lengthAdjust="spacing" textLength="26.9063" font-family="sans-serif">SPA</text></g><g class="participant participant-head" data-qualified-name="API" data-entity-uid="part3" id="part3-head" data-source-line="14"><rect x="503.3242" y="87.2969" width="36.1484" height="30.2969" fill="#F5F0EB" style="stroke:#75607F;stroke-width:0.5;" rx="2.5" ry="2.5"/><text x="510.3242" y="107.292" fill="#2D1B35" font-size="14" lengthAdjust="spacing" textLength="22.1484" font-family="sans-serif">API</text></g><g class="participant participant-tail" data-qualified-name="API" data-entity-uid="part3" id="part3-tail" data-source-line="14"><rect x="503.3242" y="474.9219" width="36.1484" height="30.2969" fill="#F5F0EB" style="stroke:#75607F;stroke-width:0.5;" rx="2.5" ry="2.5"/><text x="510.3242" y="494.917" fill="#2D1B35" font-size="14" lengthAdjust="spacing" textLength="22.1484" font-family="sans-serif">API</text></g><rect x="0" y="149.1602" width="546.7646" height="3" fill="#EEEEEE" style="stroke:#EEEEEE;stroke-width:1;"/><line x1="0" y1="149.1602" x2="546.7646" y2="149.1602" style="stroke:#000000;stroke-width:1;"/><line x1="0" y1="152.1602" x2="546.7646" y2="152.1602" style="stroke:#000000;stroke-width:1;"/><rect x="236.396" y="138.5938" width="73.9727" height="23.1328" fill="#EEEEEE" style="stroke:#000000;stroke-width:2;"/><text x="242.396" y="154.6606" fill="#000000" font-size="13" lengthAdjust="spacing" textLength="55.4468" font-weight="700" font-family="sans-serif">Log out</text><g class="message" data-entity-1="part1" data-entity-2="part2" id="msg1" data-source-line="17"><polygon points="229.9521,188.8594,239.9521,192.8594,229.9521,196.8594,233.9521,192.8594" fill="#75607F" style="stroke:#75607F;stroke-width:1;stroke-linejoin:miter;stroke-miterlimit:10;"/><line x1="23.9551" y1="192.8594" x2="235.9521" y2="192.8594" style="stroke:#75607F;stroke-width:1;"/><text x="30.9551" y="187.7935" fill="#000000" font-size="13" lengthAdjust="spacing" textLength="82.0498" font-family="sans-serif">click Log out</text></g><g class="message" data-entity-1="part2" data-entity-2="part2" id="msg2" data-source-line="18"><line x1="241.9521" y1="221.9922" x2="283.9521" y2="221.9922" style="stroke:#75607F;stroke-width:1;"/><line x1="283.9521" y1="221.9922" x2="283.9521" y2="234.9922" style="stroke:#75607F;stroke-width:1;"/><line x1="242.9521" y1="234.9922" x2="283.9521" y2="234.9922" style="stroke:#75607F;stroke-width:1;"/><polygon points="252.9521,230.9922,242.9521,234.9922,252.9521,238.9922,248.9521,234.9922" fill="#75607F" style="stroke:#75607F;stroke-width:1;stroke-linejoin:miter;stroke-miterlimit:10;"/><text x="248.9521" y="216.9263" fill="#000000" font-size="13" lengthAdjust="spacing" textLength="190.709" font-family="sans-serif">drop token from localStorage</text></g><g class="message" data-entity-1="part2" data-entity-2="part1" id="msg3" data-source-line="19"><polygon points="34.9551,260.125,24.9551,264.125,34.9551,268.125,30.9551,264.125" fill="#75607F" style="stroke:#75607F;stroke-width:1;stroke-linejoin:miter;stroke-miterlimit:10;"/><line x1="28.9551" y1="264.125" x2="240.9521" y2="264.125" style="stroke:#75607F;stroke-width:1;stroke-dasharray:2,2;"/><text x="40.9551" y="259.0591" fill="#000000" font-size="13" lengthAdjust="spacing" textLength="55.0151" font-family="sans-serif">-> Login</text></g><path d="M246,277.125 L246,317.125 L541,317.125 L541,287.125 L531,277.125 L246,277.125" style="stroke:#181818;stroke-width:0.5;" fill="#FEFFDD"/><path d="M531,277.125 L531,287.125 L541,287.125 L531,277.125" style="stroke:#181818;stroke-width:0.5;" fill="#FEFFDD"/><text x="252" y="294.1919" fill="#000000" font-size="13" lengthAdjust="spacing" textLength="254.5791" font-family="sans-serif">JWT is stateless, no server call needed.</text><text x="252" y="309.3247" fill="#000000" font-size="13" lengthAdjust="spacing" textLength="274.7646" font-family="sans-serif">(optional POST /api/logout to clear cookie)</text><rect x="0" y="342.957" width="546.7646" height="3" fill="#EEEEEE" style="stroke:#EEEEEE;stroke-width:1;"/><line x1="0" y1="342.957" x2="546.7646" y2="342.957" style="stroke:#000000;stroke-width:1;"/><line x1="0" y1="345.957" x2="546.7646" y2="345.957" style="stroke:#000000;stroke-width:1;"/><rect x="213.6904" y="332.3906" width="119.3838" height="23.1328" fill="#EEEEEE" style="stroke:#000000;stroke-width:2;"/><text x="219.6904" y="348.4575" fill="#000000" font-size="13" lengthAdjust="spacing" textLength="100.8579" font-weight="700" font-family="sans-serif">Toggle theme</text><g class="message" data-entity-1="part1" data-entity-2="part2" id="msg4" data-source-line="23"><polygon points="229.9521,382.6563,239.9521,386.6563,229.9521,390.6563,233.9521,386.6563" fill="#75607F" style="stroke:#75607F;stroke-width:1;stroke-linejoin:miter;stroke-miterlimit:10;"/><line x1="23.9551" y1="386.6563" x2="235.9521" y2="386.6563" style="stroke:#75607F;stroke-width:1;"/><text x="30.9551" y="381.5903" fill="#000000" font-size="13" lengthAdjust="spacing" textLength="120.4722" font-family="sans-serif">click theme toggle</text></g><g class="message" data-entity-1="part2" data-entity-2="part2" id="msg5" data-source-line="24"><line x1="241.9521" y1="415.7891" x2="283.9521" y2="415.7891" style="stroke:#75607F;stroke-width:1;"/><line x1="283.9521" y1="415.7891" x2="283.9521" y2="428.7891" style="stroke:#75607F;stroke-width:1;"/><line x1="242.9521" y1="428.7891" x2="283.9521" y2="428.7891" style="stroke:#75607F;stroke-width:1;"/><polygon points="252.9521,424.7891,242.9521,428.7891,252.9521,432.7891,248.9521,428.7891" fill="#75607F" style="stroke:#75607F;stroke-width:1;stroke-linejoin:miter;stroke-miterlimit:10;"/><text x="248.9521" y="410.7231" fill="#000000" font-size="13" lengthAdjust="spacing" textLength="265.4463" font-family="sans-serif">set data-theme + persist to localStorage</text></g><g class="message" data-entity-1="part2" data-entity-2="part1" id="msg6" data-source-line="25"><polygon points="34.9551,453.9219,24.9551,457.9219,34.9551,461.9219,30.9551,457.9219" fill="#75607F" style="stroke:#75607F;stroke-width:1;stroke-linejoin:miter;stroke-miterlimit:10;"/><line x1="28.9551" y1="457.9219" x2="240.9521" y2="457.9219" style="stroke:#75607F;stroke-width:1;stroke-dasharray:2,2;"/><text x="40.9551" y="452.856" fill="#000000" font-size="13" lengthAdjust="spacing" textLength="193.9971" font-family="sans-serif">warm-plum dark / cream light</text></g><?plantuml-src ZL9DImCn4BtdLmmAecYjLMf5gD2g1QLWeHKlNkBkT0sRpQoJgHx4_-wazQF5AYQ7mBmtB-yb8quymf0Ae9d05aoeABGWZrWXR6VUOP16T3dkc5YwK5ks5JpOh2oOPY4_9qyCcuFvMc94V9fXo11U3K2FcLu-c9tsyK5deCMXc-BG1UmJvyY_eZzkQWyEBllA65aMbxdQ1baliKpuZyg0Wdp0XnUj_b4xES-4U4M-TPAsUJCsGN0RaKtzBG8Rur5l0sm4FLU1tkXg3kXfJBVxzURThaagq3XBFQUWRvwLdwZHqXUICzKWL6A0ALC5dZBhnsh35hWWAZDfdQOMLN311184TiMZ04qNCjTt4t0HebX1Zp7kGI3zC7vM4ohe8I3ccE_VXssgnL6m7aOtumaqRUsQdehaMaYDejKEejBfTAH8AyEpFjS2apbn9Ln4WToARImOkr0ZHnVdD_qHzCLorQZzhD9cBg496QFEdq-9tm40?></g></svg>