<svg xmlns="http://www.w3.org/2000/svg" xmlns:xlink="http://www.w3.org/1999/xlink" version="1.1" data-diagram-type="SEQUENCE" style="width:867px;height:671px;background:#FFFFFF;" width="867px" height="671px" viewBox="0 0 867 671" zoomAndPan="magnify" preserveAspectRatio="none" contentStyleType="text/css"><?plantuml 1.2026.7beta3?><defs/><g><g class="title" data-source-line="1"><text x="286.8411" y="27.9951" fill="#000000" font-size="14" lengthAdjust="spacing" textLength="286.624" font-weight="700" font-family="sans-serif">Create note (incl. Save draft locally)</text></g><rect x="10" y="323.3906" width="841.3062" height="248.8672" fill="none" style="stroke:#000000;stroke-width:1.5;"/><g class="participant-lifeline" data-qualified-name="User" data-entity-uid="part1" id="part1-lifeline" data-source-line="12"><g><title>User</title><rect x="34.9551" y="118.5938" width="8" height="470.6641" fill="#000000" fill-opacity="0.00000"/><line x1="38" y1="118.5938" x2="38" y2="589.2578" style="stroke:#75607F;stroke-width:0.5;stroke-dasharray:5,5;"/></g></g><g class="participant-lifeline" data-qualified-name="SPA" data-entity-uid="part2" id="part2-lifeline" data-source-line="13"><g><title>SPA</title><rect x="256.7607" y="118.5938" width="8" height="470.6641" fill="#000000" fill-opacity="0.00000"/><line x1="260.3076" y1="118.5938" x2="260.3076" y2="589.2578" style="stroke:#75607F;stroke-width:0.5;stroke-dasharray:5,5;"/></g></g><g class="participant-lifeline" data-qualified-name="LS" data-entity-uid="part3" id="part3-lifeline" data-source-line="14"><g><title>localStorage</title><rect x="462.4243" y="118.5938" width="8" height="470.6641" fill="#000000" fill-opacity="0.00000"/><line x1="465.7256" y1="118.5938" x2="465.7256" y2="589.2578" style="stroke:#75607F;stroke-width:0.5;stroke-dasharray:5,5;"/></g></g><g class="participant-lifeline" data-qualified-name="API" data-entity-uid="part4" id="part4-lifeline" data-source-line="15"><g><title>API</title><rect x="541.1973" y="118.5938" width="8" height="470.6641" fill="#000000" fill-opacity="0.00000"/><line x1="545.123" y1="118.5938" x2="545.123" y2="589.2578" style="stroke:#75607F;stroke-width:0.5;stroke-dasharray:5,5;"/></g></g><g class="participant-lifeline" data-qualified-name="DB" data-entity-uid="part5" id="part5-lifeline" data-source-line="16"><g><title>Postgres</title><rect x="804.1357" y="118.5938" width="8" height="470.6641" fill="#000000" fill-opacity="0.00000"/><line x1="807.9653" y1="118.5938" x2="807.9653" y2="589.2578" style="stroke:#75607F;stroke-width:0.5;stroke-dasharray:5,5;"/></g></g><g class="participant participant-head" data-qualified-name="User" data-entity-uid="part1" id="part1-head" data-source-line="12"><text x="20" y="115.292" fill="#000000" font-size="14" lengthAdjust="spacing" textLength="31.9102" font-family="sans-serif">User</text><ellipse cx="38.9551" cy="50.7969" rx="8" ry="8" fill="#E2E2F0" style="stroke:#181818;stroke-width:0.5;"/><path d="M38.9551,58.7969 L38.9551,85.7969 M25.9551,66.7969 L51.9551,66.7969 M38.9551,85.7969 L25.9551,100.7969 M38.9551,85.7969 L51.9551,100.7969" style="stroke:#181818;stroke-width:0.5;" fill="none"/></g><g class="participant participant-tail" data-qualified-name="User" data-entity-uid="part1" id="part1-tail" data-source-line="12"><text x="20" y="601.2529" fill="#000000" font-size="14" lengthAdjust="spacing" textLength="31.9102" font-family="sans-serif">User</text><ellipse cx="38.9551" cy="613.0547" rx="8" ry="8" fill="#E2E2F0" style="stroke:#181818;stroke-width:0.5;"/><path d="M38.9551,621.0547 L38.9551,648.0547 M25.9551,629.0547 L51.9551,629.0547 M38.9551,648.0547 L25.9551,663.0547 M38.9551,648.0547 L51.9551,663.0547" style="stroke:#181818;stroke-width:0.5;" fill="none"/></g><g class="participant participant-head" data-qualified-name="SPA" data-entity-uid="part2" id="part2-head" data-source-line="13"><rect x="240.3076" y="87.2969" width="40.9063" height="30.2969" fill="#F5F0EB" style="stroke:#75607F;stroke-width:0.5;" rx="2.5" ry="2.5"/><text x="247.3076" y="107.292" fill="#2D1B35" font-size="14" lengthAdjust="spacing" textLength="26.9063" font-family="sans-serif">SPA</text></g><g class="participant participant-tail" data-qualified-name="SPA" data-entity-uid="part2" id="part2-tail" data-source-line="13"><rect x="240.3076" y="588.2578" width="40.9063" height="30.2969" fill="#F5F0EB" style="stroke:#75607F;stroke-width:0.5;" rx="2.5" ry="2.5"/><text x="247.3076" y="608.2529" fill="#2D1B35" font-size="14" lengthAdjust="spacing" textLength="26.9063" font-family="sans-serif">SPA</text></g><g class="participant participant-head" data-qualified-name="LS" data-entity-uid="part3" id="part3-head" data-source-line="14"><rect x="415.7256" y="87.2969" width="101.3975" height="30.2969" fill="#F5F0EB" style="stroke:#75607F;stroke-width:0.5;" rx="2.5" ry="2.5"/><text x="422.7256" y="107.292" fill="#2D1B35" font-size="14" lengthAdjust="spacing" textLength="87.3975" font-family="sans-serif">localStorage</text></g><g class="participant participant-tail" data-qualified-name="LS" data-entity-uid="part3" id="part3-tail" data-source-line="14"><rect x="415.7256" y="588.2578" width="101.3975" height="30.2969" fill="#F5F0EB" style="stroke:#75607F;stroke-width:0.5;" rx="2.5" ry="2.5"/><text x="422.7256" y="608.2529" fill="#2D1B35" font-size="14" lengthAdjust="spacing" textLength="87.3975" font-family="sans-serif">localStorage</text></g><g class="participant participant-head" data-qualified-name="API" data-entity-uid="part4" id="part4-head" data-source-line="15"><rect x="527.123" y="87.2969" width="36.1484" height="30.2969" fill="#F5F0EB" style="stroke:#75607F;stroke-width:0.5;" rx="2.5" ry="2.5"/><text x="534.123" y="107.292" fill="#2D1B35" font-size="14" lengthAdjust="spacing" textLength="22.1484" font-family="sans-serif">API</text></g><g class="participant participant-tail" data-qualified-name="API" data-entity-uid="part4" id="part4-tail" data-source-line="15"><rect x="527.123" y="588.2578" width="36.1484" height="30.2969" fill="#F5F0EB" style="stroke:#75607F;stroke-width:0.5;" rx="2.5" ry="2.5"/><text x="534.123" y="608.2529" fill="#2D1B35" font-size="14" lengthAdjust="spacing" textLength="22.1484" font-family="sans-serif">API</text></g><g class="participant participant-head" data-qualified-name="DB" data-entity-uid="part5" id="part5-head" data-source-line="16"><text x="774.9653" y="115.292" fill="#000000" font-size="14" lengthAdjust="spacing" textLength="60.3408" font-family="sans-serif">Postgres</text><path d="M790.1357,66.2969 C790.1357,56.2969 808.1357,56.2969 808.1357,56.2969 C808.1357,56.2969 826.1357,56.2969 826.1357,66.2969 L826.1357,92.2969 C826.1357,102.2969 808.1357,102.2969 808.1357,102.2969 C808.1357,102.2969 790.1357,102.2969 790.1357,92.2969 L790.1357,66.2969" style="stroke:#181818;stroke-width:0.5;" fill="#E2E2F0"/><path d="M790.1357,66.2969 C790.1357,76.2969 808.1357,76.2969 808.1357,76.2969 C808.1357,76.2969 826.1357,76.2969 826.1357,66.2969" style="stroke:#181818;stroke-width:0.5;" fill="none"/></g><g class="participant participant-tail" data-qualified-name="DB" data-entity-uid="part5" id="part5-tail" data-source-line="16"><text x="774.9653" y="601.2529" fill="#000000" font-size="14" lengthAdjust="spacing" textLength="60.3408" font-family="sans-serif">Postgres</text><path d="M790.1357,614.5547 C790.1357,604.5547 808.1357,604.5547 808.1357,604.5547 C808.1357,604.5547 826.1357,604.5547 826.1357,614.5547 L826.1357,640.5547 C826.1357,650.5547 808.1357,650.5547 808.1357,650.5547 C808.1357,650.5547 790.1357,650.5547 790.1357,640.5547 L790.1357,614.5547" style="stroke:#181818;stroke-width:0.5;" fill="#E2E2F0"/><path d="M790.1357,614.5547 C790.1357,624.5547 808.1357,624.5547 808.1357,624.5547 C808.1357,624.5547 826.1357,624.5547 826.1357,614.5547" style="stroke:#181818;stroke-width:0.5;" fill="none"/></g><g class="message" data-entity-1="part1" data-entity-2="part2" id="msg1" data-source-line="18"><polygon points="248.7607,145.7266,258.7607,149.7266,248.7607,153.7266,252.7607,149.7266" fill="#75607F" style="stroke:#75607F;stroke-width:1;stroke-linejoin:miter;stroke-miterlimit:10;"/><line x1="38.9551" y1="149.7266" x2="254.7607" y2="149.7266" style="stroke:#75607F;stroke-width:1;"/><text x="45.9551" y="144.6606" fill="#000000" font-size="13" lengthAdjust="spacing" textLength="197.8057" font-family="sans-serif">New note; type title + content</text></g><g class="message" data-entity-1="part2" data-entity-2="part3" id="msg2" data-source-line="19"><polygon points="454.4243,174.8594,464.4243,178.8594,454.4243,182.8594,458.4243,178.8594" fill="#75607F" style="stroke:#75607F;stroke-width:1;stroke-linejoin:miter;stroke-miterlimit:10;"/><line x1="260.7607" y1="178.8594" x2="460.4243" y2="178.8594" style="stroke:#75607F;stroke-width:1;"/><text x="267.7607" y="173.7935" fill="#000000" font-size="13" lengthAdjust="spacing" textLength="181.6636" font-family="sans-serif">autosave draft (debounced)</text></g><g class="message" data-entity-1="part1" data-entity-2="part2" id="msg3" data-source-line="20"><polygon points="248.7607,203.9922,258.7607,207.9922,248.7607,211.9922,252.7607,207.9922" fill="#75607F" style="stroke:#75607F;stroke-width:1;stroke-linejoin:miter;stroke-miterlimit:10;"/><line x1="38.9551" y1="207.9922" x2="254.7607" y2="207.9922" style="stroke:#75607F;stroke-width:1;"/><text x="45.9551" y="202.9263" fill="#000000" font-size="13" lengthAdjust="spacing" textLength="149.4746" font-family="sans-serif">Save (Ctrl/Cmd+Enter)</text></g><g class="message" data-entity-1="part2" data-entity-2="part2" id="msg4" data-source-line="21"><line x1="260.7607" y1="237.125" x2="302.7607" y2="237.125" style="stroke:#75607F;stroke-width:1;"/><line x1="302.7607" y1="237.125" x2="302.7607" y2="250.125" style="stroke:#75607F;stroke-width:1;"/><line x1="261.7607" y1="250.125" x2="302.7607" y2="250.125" style="stroke:#75607F;stroke-width:1;"/><polygon points="271.7607,246.125,261.7607,250.125,271.7607,254.125,267.7607,250.125" fill="#75607F" style="stroke:#75607F;stroke-width:1;stroke-linejoin:miter;stroke-miterlimit:10;"/><text x="267.7607" y="232.0591" fill="#000000" font-size="13" lengthAdjust="spacing" textLength="175.0303" font-family="sans-serif">validate title (no &lt;>:"/\|?*)</text></g><g class="message" data-entity-1="part2" data-entity-2="part4" id="msg5" data-source-line="22"><polygon points="533.1973,275.2578,543.1973,279.2578,533.1973,283.2578,537.1973,279.2578" fill="#75607F" style="stroke:#75607F;stroke-width:1;stroke-linejoin:miter;stroke-miterlimit:10;"/><line x1="260.7607" y1="279.2578" x2="539.1973" y2="279.2578" style="stroke:#75607F;stroke-width:1;"/><text x="267.7607" y="274.1919" fill="#000000" font-size="13" lengthAdjust="spacing" textLength="207.1748" font-family="sans-serif">POST /api/notes {title, content}</text></g><g class="message" data-entity-1="part4" data-entity-2="part5" id="msg6" data-source-line="23"><polygon points="796.1357,304.3906,806.1357,308.3906,796.1357,312.3906,800.1357,308.3906" fill="#75607F" style="stroke:#75607F;stroke-width:1;stroke-linejoin:miter;stroke-miterlimit:10;"/><line x1="545.1973" y1="308.3906" x2="802.1357" y2="308.3906" style="stroke:#75607F;stroke-width:1;"/><text x="552.1973" y="303.3247" fill="#000000" font-size="13" lengthAdjust="spacing" textLength="155.4287" font-family="sans-serif">SELECT (owner_id, title)</text></g><path d="M10,323.3906 L74.4429,323.3906 L74.4429,330.5234 L64.4429,340.5234 L10,340.5234 L10,323.3906" style="stroke:#000000;stroke-width:1.5;" fill="#EEEEEE"/><rect x="10" y="323.3906" width="841.3062" height="248.8672" fill="none" style="stroke:#000000;stroke-width:1.5;"/><text x="25" y="336.4575" fill="#000000" font-size="13" lengthAdjust="spacing" textLength="19.4429" font-weight="700" font-family="sans-serif">alt</text><text x="89.4429" y="335.6011" fill="#000000" font-size="11" lengthAdjust="spacing" textLength="76.0815" font-weight="700" font-family="sans-serif">[title exists]</text><g class="message" data-entity-1="part4" data-entity-2="part2" id="msg7" data-source-line="25"><polygon points="271.7607,357.6563,261.7607,361.6563,271.7607,365.6563,267.7607,361.6563" fill="#75607F" style="stroke:#75607F;stroke-width:1;stroke-linejoin:miter;stroke-miterlimit:10;"/><line x1="265.7607" y1="361.6563" x2="544.1973" y2="361.6563" style="stroke:#75607F;stroke-width:1;stroke-dasharray:2,2;"/><text x="277.7607" y="356.5903" fill="#000000" font-size="13" lengthAdjust="spacing" textLength="148.3447" font-family="sans-serif">409 "...already exists."</text></g><line x1="10" y1="370.6563" x2="851.3062" y2="370.6563" style="stroke:#000000;stroke-width:1;stroke-dasharray:2,2;"/><text x="15" y="380.8667" fill="#000000" font-size="11" lengthAdjust="spacing" textLength="24.9272" font-weight="700" font-family="sans-serif">[ok]</text><g class="message" data-entity-1="part4" data-entity-2="part4" id="msg8" data-source-line="27"><line x1="545.1973" y1="405.5938" x2="587.1973" y2="405.5938" style="stroke:#75607F;stroke-width:1;"/><line x1="587.1973" y1="405.5938" x2="587.1973" y2="418.5938" style="stroke:#75607F;stroke-width:1;"/><line x1="546.1973" y1="418.5938" x2="587.1973" y2="418.5938" style="stroke:#75607F;stroke-width:1;"/><polygon points="556.1973,414.5938,546.1973,418.5938,556.1973,422.5938,552.1973,418.5938" fill="#75607F" style="stroke:#75607F;stroke-width:1;stroke-linejoin:miter;stroke-miterlimit:10;"/><text x="552.1973" y="400.5278" fill="#000000" font-size="13" lengthAdjust="spacing" textLength="243.2295" font-family="sans-serif">extract #tags (strip code blocks first)</text></g><g class="message" data-entity-1="part4" data-entity-2="part5" id="msg9" data-source-line="28"><polygon points="796.1357,443.7266,806.1357,447.7266,796.1357,451.7266,800.1357,447.7266" fill="#75607F" style="stroke:#75607F;stroke-width:1;stroke-linejoin:miter;stroke-miterlimit:10;"/><line x1="545.1973" y1="447.7266" x2="802.1357" y2="447.7266" style="stroke:#75607F;stroke-width:1;"/><text x="552.1973" y="442.6606" fill="#000000" font-size="13" lengthAdjust="spacing" textLength="238.9385" font-family="sans-serif">INSERT note (search_vec via trigger)</text></g><g class="message" data-entity-1="part4" data-entity-2="part5" id="msg10" data-source-line="29"><polygon points="796.1357,472.8594,806.1357,476.8594,796.1357,480.8594,800.1357,476.8594" fill="#75607F" style="stroke:#75607F;stroke-width:1;stroke-linejoin:miter;stroke-miterlimit:10;"/><line x1="545.1973" y1="476.8594" x2="802.1357" y2="476.8594" style="stroke:#75607F;stroke-width:1;"/><text x="552.1973" y="471.7935" fill="#000000" font-size="13" lengthAdjust="spacing" textLength="148.8716" font-family="sans-serif">rewrite note_tags rows</text></g><g class="message" data-entity-1="part4" data-entity-2="part2" id="msg11" data-source-line="30"><polygon points="271.7607,501.9922,261.7607,505.9922,271.7607,509.9922,267.7607,505.9922" fill="#75607F" style="stroke:#75607F;stroke-width:1;stroke-linejoin:miter;stroke-miterlimit:10;"/><line x1="265.7607" y1="505.9922" x2="544.1973" y2="505.9922" style="stroke:#75607F;stroke-width:1;stroke-dasharray:2,2;"/><text x="277.7607" y="500.9263" fill="#000000" font-size="13" lengthAdjust="spacing" textLength="251.0308" font-family="sans-serif">200 Note {title, content, lastModified}</text></g><g class="message" data-entity-1="part2" data-entity-2="part3" id="msg12" data-source-line="31"><polygon points="454.4243,531.125,464.4243,535.125,454.4243,539.125,458.4243,535.125" fill="#75607F" style="stroke:#75607F;stroke-width:1;stroke-linejoin:miter;stroke-miterlimit:10;"/><line x1="260.7607" y1="535.125" x2="460.4243" y2="535.125" style="stroke:#75607F;stroke-width:1;"/><text x="267.7607" y="530.0591" fill="#000000" font-size="13" lengthAdjust="spacing" textLength="67.4375" font-family="sans-serif">clear draft</text></g><g class="message" data-entity-1="part2" data-entity-2="part1" id="msg13" data-source-line="32"><polygon points="49.9551,560.2578,39.9551,564.2578,49.9551,568.2578,45.9551,564.2578" fill="#75607F" style="stroke:#75607F;stroke-width:1;stroke-linejoin:miter;stroke-miterlimit:10;"/><line x1="43.9551" y1="564.2578" x2="259.7607" y2="564.2578" style="stroke:#75607F;stroke-width:1;stroke-dasharray:2,2;"/><text x="55.9551" y="559.1919" fill="#000000" font-size="13" lengthAdjust="spacing" textLength="108.6782" font-family="sans-serif">open saved note</text></g><?plantuml-src ZLDTRnen47pthrYHbwEXG9BIjBHAnQSKYLBKes-Hq79UhXQEVRKD1ANyzzhcAD2qKk-ai-ITdHdld9rmag1d21s1qlwJ29N9EgIu9k065mwapb3ARPNPfL056do4EMRBtEYLuZqjjO6BONnE49P-h4Xb1CyCe6ECtfJ8szRRvktGRux4WaP2KLSRJkQVrHTAhM5pqFM82HedCb6WSd-dE0Ny3yjGArUMh_jNtPjMS9uvRSxehzw5b-qOXX9yisHOSII1IZhfL00j-FMy4EUO-YRCAI96wJcWCxcF-tvb71tEqH9K9jgwt92DfNwNiI09h--2G1l6j8cvVG2tBGXSpFCICdyMKevvJ82EqZRWocbxJ3NXDFS3oOXNpnbZyadF6TdeFVBBWISorGDHHAnH2Xv-cBrQeZHyl6jN6WyFFp-z-WtrfsZ3v4iwXGOMeX5CMdYEBRM3lntpg03kTxtmO3JeJI7H6qLc9dXjprzbA5qfHK_2EXjo2Mq7Fs-Qxw5IhzTH-l-ORqjKlS98-W7gvG5VUg8dPtnuSE4mjv1OPqJX3N62kOzeQM4XZ7NLOrSmTpzE1r-dvHMnX2RxFbjJ1ck1u0doF0pfhCFGneZoLisYbBy4BxnVDvim3gH_JAO64gtxhBbO2E8xttOIPIQzWNsEXuAlX1JRe0jI47BcKPcHuhy0?></g></svg>