<svg xmlns="http://www.w3.org/2000/svg" xmlns:xlink="http://www.w3.org/1999/xlink" version="1.1" data-diagram-type="SEQUENCE" style="width:887px;height:534px;background:#FFFFFF;" width="887px" height="534px" viewBox="0 0 887 534" zoomAndPan="magnify" preserveAspectRatio="none" contentStyleType="text/css"><?plantuml 1.2026.7beta3?><defs/><g><g class="title" data-source-line="1"><text x="297.4885" y="27.9951" fill="#000000" font-size="14" lengthAdjust="spacing" textLength="285.1133" font-weight="700" font-family="sans-serif">View note (incl. Preview markdown)</text></g><rect x="10" y="222.9922" width="606.0664" height="211.7344" fill="none" style="stroke:#000000;stroke-width:1.5;"/><g class="participant-lifeline" data-qualified-name="User" data-entity-uid="part1" id="part1-lifeline" data-source-line="12"><g><title>User</title><rect x="34.9551" y="118.5938" width="8" height="333.1328" fill="#000000" fill-opacity="0.00000"/><line x1="38" y1="118.5938" x2="38" y2="451.7266" style="stroke:#75607F;stroke-width:0.5;stroke-dasharray:5,5;"/></g></g><g class="participant-lifeline" data-qualified-name="SPA" data-entity-uid="part2" id="part2-lifeline" data-source-line="13"><g><title>SPA</title><rect x="236.8164" y="118.5938" width="8" height="333.1328" fill="#000000" fill-opacity="0.00000"/><line x1="240.3633" y1="118.5938" x2="240.3633" y2="451.7266" style="stroke:#75607F;stroke-width:0.5;stroke-dasharray:5,5;"/></g></g><g class="participant-lifeline" data-qualified-name="API" data-entity-uid="part3" id="part3-lifeline" data-source-line="14"><g><title>API</title><rect x="583.9922" y="118.5938" width="8" height="333.1328" fill="#000000" fill-opacity="0.00000"/><line x1="587.918" y1="118.5938" x2="587.918" y2="451.7266" style="stroke:#75607F;stroke-width:0.5;stroke-dasharray:5,5;"/></g></g><g class="participant-lifeline" data-qualified-name="DB" data-entity-uid="part4" id="part4-lifeline" data-source-line="15"><g><title>Postgres</title><rect x="838.9199" y="118.5938" width="8" height="333.1328" fill="#000000" fill-opacity="0.00000"/><line x1="842.7495" y1="118.5938" x2="842.7495" y2="451.7266" style="stroke:#75607F;stroke-width:0.5;stroke-dasharray:5,5;"/></g></g><g class="participant participant-head" data-qualified-name="User" data-entity-uid="part1" id="part1-head" data-source-line="12"><text x="20" y="115.292" fill="#000000" font-size="14" lengthAdjust="spacing" textLength="31.9102" font-family="sans-serif">User</text><ellipse cx="38.9551" cy="50.7969" rx="8" ry="8" fill="#E2E2F0" style="stroke:#181818;stroke-width:0.5;"/><path d="M38.9551,58.7969 L38.9551,85.7969 M25.9551,66.7969 L51.9551,66.7969 M38.9551,85.7969 L25.9551,100.7969 M38.9551,85.7969 L51.9551,100.7969" style="stroke:#181818;stroke-width:0.5;" fill="none"/></g><g class="participant participant-tail" data-qualified-name="User" data-entity-uid="part1" id="part1-tail" data-source-line="12"><text x="20" y="463.7217" fill="#000000" font-size="14" lengthAdjust="spacing" textLength="31.9102" font-family="sans-serif">User</text><ellipse cx="38.9551" cy="475.5234" rx="8" ry="8" fill="#E2E2F0" style="stroke:#181818;stroke-width:0.5;"/><path d="M38.9551,483.5234 L38.9551,510.5234 M25.9551,491.5234 L51.9551,491.5234 M38.9551,510.5234 L25.9551,525.5234 M38.9551,510.5234 L51.9551,525.5234" style="stroke:#181818;stroke-width:0.5;" fill="none"/></g><g class="participant participant-head" data-qualified-name="SPA" data-entity-uid="part2" id="part2-head" data-source-line="13"><rect x="220.3633" y="87.2969" width="40.9063" height="30.2969" fill="#F5F0EB" style="stroke:#75607F;stroke-width:0.5;" rx="2.5" ry="2.5"/><text x="227.3633" y="107.292" fill="#2D1B35" font-size="14" lengthAdjust="spacing" textLength="26.9063" font-family="sans-serif">SPA</text></g><g class="participant participant-tail" data-qualified-name="SPA" data-entity-uid="part2" id="part2-tail" data-source-line="13"><rect x="220.3633" y="450.7266" width="40.9063" height="30.2969" fill="#F5F0EB" style="stroke:#75607F;stroke-width:0.5;" rx="2.5" ry="2.5"/><text x="227.3633" y="470.7217" fill="#2D1B35" font-size="14" lengthAdjust="spacing" textLength="26.9063" font-family="sans-serif">SPA</text></g><g class="participant participant-head" data-qualified-name="API" data-entity-uid="part3" id="part3-head" data-source-line="14"><rect x="569.918" y="87.2969" width="36.1484" height="30.2969" fill="#F5F0EB" style="stroke:#75607F;stroke-width:0.5;" rx="2.5" ry="2.5"/><text x="576.918" y="107.292" fill="#2D1B35" font-size="14" lengthAdjust="spacing" textLength="22.1484" font-family="sans-serif">API</text></g><g class="participant participant-tail" data-qualified-name="API" data-entity-uid="part3" id="part3-tail" data-source-line="14"><rect x="569.918" y="450.7266" width="36.1484" height="30.2969" fill="#F5F0EB" style="stroke:#75607F;stroke-width:0.5;" rx="2.5" ry="2.5"/><text x="576.918" y="470.7217" fill="#2D1B35" font-size="14" lengthAdjust="spacing" textLength="22.1484" font-family="sans-serif">API</text></g><g class="participant participant-head" data-qualified-name="DB" data-entity-uid="part4" id="part4-head" data-source-line="15"><text x="809.7495" y="115.292" fill="#000000" font-size="14" lengthAdjust="spacing" textLength="60.3408" font-family="sans-serif">Postgres</text><path d="M824.9199,66.2969 C824.9199,56.2969 842.9199,56.2969 842.9199,56.2969 C842.9199,56.2969 860.9199,56.2969 860.9199,66.2969 L860.9199,92.2969 C860.9199,102.2969 842.9199,102.2969 842.9199,102.2969 C842.9199,102.2969 824.9199,102.2969 824.9199,92.2969 L824.9199,66.2969" style="stroke:#181818;stroke-width:0.5;" fill="#E2E2F0"/><path d="M824.9199,66.2969 C824.9199,76.2969 842.9199,76.2969 842.9199,76.2969 C842.9199,76.2969 860.9199,76.2969 860.9199,66.2969" style="stroke:#181818;stroke-width:0.5;" fill="none"/></g><g class="participant participant-tail" data-qualified-name="DB" data-entity-uid="part4" id="part4-tail" data-source-line="15"><text x="809.7495" y="463.7217" fill="#000000" font-size="14" lengthAdjust="spacing" textLength="60.3408" font-family="sans-serif">Postgres</text><path d="M824.9199,477.0234 C824.9199,467.0234 842.9199,467.0234 842.9199,467.0234 C842.9199,467.0234 860.9199,467.0234 860.9199,477.0234 L860.9199,503.0234 C860.9199,513.0234 842.9199,513.0234 842.9199,513.0234 C842.9199,513.0234 824.9199,513.0234 824.9199,503.0234 L824.9199,477.0234" style="stroke:#181818;stroke-width:0.5;" fill="#E2E2F0"/><path d="M824.9199,477.0234 C824.9199,487.0234 842.9199,487.0234 842.9199,487.0234 C842.9199,487.0234 860.9199,487.0234 860.9199,477.0234" style="stroke:#181818;stroke-width:0.5;" fill="none"/></g><g class="message" data-entity-1="part1" data-entity-2="part2" id="msg1" data-source-line="17"><polygon points="228.8164,145.7266,238.8164,149.7266,228.8164,153.7266,232.8164,149.7266" fill="#75607F" style="stroke:#75607F;stroke-width:1;stroke-linejoin:miter;stroke-miterlimit:10;"/><line x1="38.9551" y1="149.7266" x2="234.8164" y2="149.7266" style="stroke:#75607F;stroke-width:1;"/><text x="45.9551" y="144.6606" fill="#000000" font-size="13" lengthAdjust="spacing" textLength="177.8613" font-family="sans-serif">open note (route /n/{title})</text></g><g class="message" data-entity-1="part2" data-entity-2="part3" id="msg2" data-source-line="18"><polygon points="575.9922,174.8594,585.9922,178.8594,575.9922,182.8594,579.9922,178.8594" fill="#75607F" style="stroke:#75607F;stroke-width:1;stroke-linejoin:miter;stroke-miterlimit:10;"/><line x1="240.8164" y1="178.8594" x2="581.9922" y2="178.8594" style="stroke:#75607F;stroke-width:1;"/><text x="247.8164" y="173.7935" fill="#000000" font-size="13" lengthAdjust="spacing" textLength="199.1958" font-family="sans-serif">GET /api/notes/{title} (Bearer)</text></g><g class="message" data-entity-1="part3" data-entity-2="part4" id="msg3" data-source-line="19"><polygon points="830.9199,203.9922,840.9199,207.9922,830.9199,211.9922,834.9199,207.9922" fill="#75607F" style="stroke:#75607F;stroke-width:1;stroke-linejoin:miter;stroke-miterlimit:10;"/><line x1="587.9922" y1="207.9922" x2="836.9199" y2="207.9922" style="stroke:#75607F;stroke-width:1;"/><text x="594.9922" y="202.9263" fill="#000000" font-size="13" lengthAdjust="spacing" textLength="230.9277" font-family="sans-serif">SELECT note WHERE owner_id, title</text></g><path d="M10,222.9922 L74.4429,222.9922 L74.4429,230.125 L64.4429,240.125 L10,240.125 L10,222.9922" style="stroke:#000000;stroke-width:1.5;" fill="#EEEEEE"/><rect x="10" y="222.9922" width="606.0664" height="211.7344" fill="none" style="stroke:#000000;stroke-width:1.5;"/><text x="25" y="236.0591" fill="#000000" font-size="13" lengthAdjust="spacing" textLength="19.4429" font-weight="700" font-family="sans-serif">alt</text><text x="89.4429" y="235.2026" fill="#000000" font-size="11" lengthAdjust="spacing" textLength="57.8574" font-weight="700" font-family="sans-serif">[missing]</text><g class="message" data-entity-1="part3" data-entity-2="part2" id="msg4" data-source-line="21"><polygon points="251.8164,257.2578,241.8164,261.2578,251.8164,265.2578,247.8164,261.2578" fill="#75607F" style="stroke:#75607F;stroke-width:1;stroke-linejoin:miter;stroke-miterlimit:10;"/><line x1="245.8164" y1="261.2578" x2="586.9922" y2="261.2578" style="stroke:#75607F;stroke-width:1;stroke-dasharray:2,2;"/><text x="257.8164" y="256.1919" fill="#000000" font-size="13" lengthAdjust="spacing" textLength="163.8521" font-family="sans-serif">404 "...cannot be found."</text></g><line x1="10" y1="270.2578" x2="616.0664" y2="270.2578" style="stroke:#000000;stroke-width:1;stroke-dasharray:2,2;"/><text x="15" y="280.4683" fill="#000000" font-size="11" lengthAdjust="spacing" textLength="45.9336" font-weight="700" font-family="sans-serif">[found]</text><g class="message" data-entity-1="part3" data-entity-2="part2" id="msg5" data-source-line="23"><polygon points="251.8164,301.1953,241.8164,305.1953,251.8164,309.1953,247.8164,305.1953" fill="#75607F" style="stroke:#75607F;stroke-width:1;stroke-linejoin:miter;stroke-miterlimit:10;"/><line x1="245.8164" y1="305.1953" x2="586.9922" y2="305.1953" style="stroke:#75607F;stroke-width:1;stroke-dasharray:2,2;"/><text x="257.8164" y="300.1294" fill="#000000" font-size="13" lengthAdjust="spacing" textLength="222.0854" font-family="sans-serif">Note {title, content, lastModified}</text></g><g class="message" data-entity-1="part2" data-entity-2="part2" id="msg6" data-source-line="24"><line x1="240.8164" y1="334.3281" x2="282.8164" y2="334.3281" style="stroke:#75607F;stroke-width:1;"/><line x1="282.8164" y1="334.3281" x2="282.8164" y2="347.3281" style="stroke:#75607F;stroke-width:1;"/><line x1="241.8164" y1="347.3281" x2="282.8164" y2="347.3281" style="stroke:#75607F;stroke-width:1;"/><polygon points="251.8164,343.3281,241.8164,347.3281,251.8164,351.3281,247.8164,347.3281" fill="#75607F" style="stroke:#75607F;stroke-width:1;stroke-linejoin:miter;stroke-miterlimit:10;"/><text x="247.8164" y="329.2622" fill="#000000" font-size="13" lengthAdjust="spacing" textLength="333.1758" font-family="sans-serif">render markdown (react-markdown + remark-gfm)</text></g><path d="M245,360.3281 L245,400.3281 L410,400.3281 L410,370.3281 L400,360.3281 L245,360.3281" style="stroke:#181818;stroke-width:0.5;" fill="#FEFFDD"/><path d="M400,360.3281 L400,370.3281 L410,370.3281 L400,360.3281" style="stroke:#181818;stroke-width:0.5;" fill="#FEFFDD"/><text x="251" y="377.395" fill="#000000" font-size="13" lengthAdjust="spacing" textLength="126.0962" font-family="sans-serif">tasks, code, tables;</text><a target="_top" href="wiki-link" xlink:href="wiki-link" xlink:type="simple" xlink:actuate="onRequest" xlink:show="new" title="wiki-link" xlink:title="wiki-link"><text x="251" y="392.5278" fill="#0000FF" font-size="13" lengthAdjust="spacing" textLength="53.0664" text-decoration="underline" font-family="sans-serif">wiki-link</text></a><text x="308.1987" y="392.5278" fill="#000000" font-size="13" lengthAdjust="spacing" textLength="87.769" font-family="sans-serif">-> note route</text><g class="message" data-entity-1="part2" data-entity-2="part1" id="msg7" data-source-line="26"><polygon points="49.9551,422.7266,39.9551,426.7266,49.9551,430.7266,45.9551,426.7266" fill="#75607F" style="stroke:#75607F;stroke-width:1;stroke-linejoin:miter;stroke-miterlimit:10;"/><line x1="43.9551" y1="426.7266" x2="239.8164" y2="426.7266" style="stroke:#75607F;stroke-width:1;stroke-dasharray:2,2;"/><text x="55.9551" y="421.6606" fill="#000000" font-size="13" lengthAdjust="spacing" textLength="92.8472" font-family="sans-serif">rendered note</text></g><?plantuml-src ZL9DRzD04BtlhnYPIoCI9uMcHK52YXi7AWLajGKEfK8RUsn6TdRDxfOSglntPXodj7n8U0-hcNdlpUmR1meDmYV2BHWR48x8v4qCcSCVajjeLnTsQmRArsHQxVG6rZglAsVlJ75k6-lWsRBx7Y4yVhz3aoFSAu2vStRR8y-cfvEp9ITNLEAA32RM5UZ-MVsZqtGvIHD6PDe5ogdL9lnTuZ7WVrIMreI-_69ndBoSokHviEw9_F4hEMgdj9JWeqUdsbyY45rbymYq1xwV5kRPHLVWMnKwwBNs255cVQWS-gwqI9GIHHYz4VuCR8kctmgFpzVOZE-3B6mtK8mG8ElDu6rw3MFTqbZ0_e21emIrGpTG31Bi8fd1LRfApw_tgf_VfPSfy7RHVQLY21rDwIR0XhmdKua7GZqCT38vWIYEurmR5e0rGYcsnf72nlV1xvmFqca_qH1oTXbD64AZVNXl2oe9YnrJ-jTq38U67N_uzVZno7QF7kBdZ91WL9MR0NExjpYglWMmvLuYQ5zxQLTmKpQxGV_wYxcvsL9DeuPCVNihxVPCiVOm0YTb1OSXiEWmYeEV?></g></svg>