<svg xmlns="http://www.w3.org/2000/svg" xmlns:xlink="http://www.w3.org/1999/xlink" version="1.1" data-diagram-type="SEQUENCE" style="width:1008px;height:921px;background:#FFFFFF;" width="1008px" height="921px" viewBox="0 0 1008 921" zoomAndPan="magnify" preserveAspectRatio="none" contentStyleType="text/css"><?plantuml 1.2026.7beta3?><defs/><g><g class="title" data-source-line="1"><text x="281.1775" y="27.9951" fill="#000000" font-size="14" lengthAdjust="spacing" textLength="439.4482" font-weight="700" font-family="sans-serif">Edit note (incl. Save draft; Upload attachment extends)</text></g><rect x="10" y="193.8594" width="982.8032" height="234.0625" fill="none" style="stroke:#000000;stroke-width:1.5;"/><rect x="10" y="529.3203" width="873.0396" height="292.8047" fill="none" style="stroke:#000000;stroke-width:1.5;"/><g class="participant-lifeline" data-qualified-name="User" data-entity-uid="part1" id="part1-lifeline" data-source-line="12"><g><title>User</title><rect x="34.9551" y="118.5938" width="8" height="720.5313" fill="#000000" fill-opacity="0.00000"/><line x1="38" y1="118.5938" x2="38" y2="839.125" style="stroke:#75607F;stroke-width:0.5;stroke-dasharray:5,5;"/></g></g><g class="participant-lifeline" data-qualified-name="SPA" data-entity-uid="part2" id="part2-lifeline" data-source-line="13"><g><title>SPA</title><rect x="208.4297" y="118.5938" width="8" height="720.5313" fill="#000000" fill-opacity="0.00000"/><line x1="211.9766" y1="118.5938" x2="211.9766" y2="839.125" style="stroke:#75607F;stroke-width:0.5;stroke-dasharray:5,5;"/></g></g><g class="participant-lifeline" data-qualified-name="LS" data-entity-uid="part3" id="part3-lifeline" data-source-line="14"><g><title>localStorage</title><rect x="414.0933" y="118.5938" width="8" height="720.5313" fill="#000000" fill-opacity="0.00000"/><line x1="417.3945" y1="118.5938" x2="417.3945" y2="839.125" style="stroke:#75607F;stroke-width:0.5;stroke-dasharray:5,5;"/></g></g><g class="participant-lifeline" data-qualified-name="API" data-entity-uid="part4" id="part4-lifeline" data-source-line="15"><g><title>API</title><rect x="567.5161" y="118.5938" width="8" height="720.5313" fill="#000000" fill-opacity="0.00000"/><line x1="571.4419" y1="118.5938" x2="571.4419" y2="839.125" style="stroke:#75607F;stroke-width:0.5;stroke-dasharray:5,5;"/></g></g><g class="participant-lifeline" data-qualified-name="DB" data-entity-uid="part5" id="part5-lifeline" data-source-line="16"><g><title>Postgres</title><rect x="835.8691" y="118.5938" width="8" height="720.5313" fill="#000000" fill-opacity="0.00000"/><line x1="839.6987" y1="118.5938" x2="839.6987" y2="839.125" style="stroke:#75607F;stroke-width:0.5;stroke-dasharray:5,5;"/></g></g><g class="participant-lifeline" data-qualified-name="OS" data-entity-uid="part6" id="part6-lifeline" data-source-line="17"><g><title>Object store</title><rect x="928.9214" y="118.5938" width="8" height="720.5313" fill="#000000" fill-opacity="0.00000"/><line x1="932.0396" y1="118.5938" x2="932.0396" y2="839.125" style="stroke:#75607F;stroke-width:0.5;stroke-dasharray:5,5;"/></g></g><g class="participant participant-head" data-qualified-name="User" data-entity-uid="part1" id="part1-head" data-source-line="12"><text x="20" y="115.292" fill="#000000" font-size="14" lengthAdjust="spacing" textLength="31.9102" font-family="sans-serif">User</text><ellipse cx="38.9551" cy="50.7969" rx="8" ry="8" fill="#E2E2F0" style="stroke:#181818;stroke-width:0.5;"/><path d="M38.9551,58.7969 L38.9551,85.7969 M25.9551,66.7969 L51.9551,66.7969 M38.9551,85.7969 L25.9551,100.7969 M38.9551,85.7969 L51.9551,100.7969" style="stroke:#181818;stroke-width:0.5;" fill="none"/></g><g class="participant participant-tail" data-qualified-name="User" data-entity-uid="part1" id="part1-tail" data-source-line="12"><text x="20" y="851.1201" fill="#000000" font-size="14" lengthAdjust="spacing" textLength="31.9102" font-family="sans-serif">User</text><ellipse cx="38.9551" cy="862.9219" rx="8" ry="8" fill="#E2E2F0" style="stroke:#181818;stroke-width:0.5;"/><path d="M38.9551,870.9219 L38.9551,897.9219 M25.9551,878.9219 L51.9551,878.9219 M38.9551,897.9219 L25.9551,912.9219 M38.9551,897.9219 L51.9551,912.9219" style="stroke:#181818;stroke-width:0.5;" fill="none"/></g><g class="participant participant-head" data-qualified-name="SPA" data-entity-uid="part2" id="part2-head" data-source-line="13"><rect x="191.9766" y="87.2969" width="40.9063" height="30.2969" fill="#F5F0EB" style="stroke:#75607F;stroke-width:0.5;" rx="2.5" ry="2.5"/><text x="198.9766" y="107.292" fill="#2D1B35" font-size="14" lengthAdjust="spacing" textLength="26.9063" font-family="sans-serif">SPA</text></g><g class="participant participant-tail" data-qualified-name="SPA" data-entity-uid="part2" id="part2-tail" data-source-line="13"><rect x="191.9766" y="838.125" width="40.9063" height="30.2969" fill="#F5F0EB" style="stroke:#75607F;stroke-width:0.5;" rx="2.5" ry="2.5"/><text x="198.9766" y="858.1201" fill="#2D1B35" font-size="14" lengthAdjust="spacing" textLength="26.9063" font-family="sans-serif">SPA</text></g><g class="participant participant-head" data-qualified-name="LS" data-entity-uid="part3" id="part3-head" data-source-line="14"><rect x="367.3945" y="87.2969" width="101.3975" height="30.2969" fill="#F5F0EB" style="stroke:#75607F;stroke-width:0.5;" rx="2.5" ry="2.5"/><text x="374.3945" y="107.292" fill="#2D1B35" font-size="14" lengthAdjust="spacing" textLength="87.3975" font-family="sans-serif">localStorage</text></g><g class="participant participant-tail" data-qualified-name="LS" data-entity-uid="part3" id="part3-tail" data-source-line="14"><rect x="367.3945" y="838.125" width="101.3975" height="30.2969" fill="#F5F0EB" style="stroke:#75607F;stroke-width:0.5;" rx="2.5" ry="2.5"/><text x="374.3945" y="858.1201" fill="#2D1B35" font-size="14" lengthAdjust="spacing" textLength="87.3975" font-family="sans-serif">localStorage</text></g><g class="participant participant-head" data-qualified-name="API" data-entity-uid="part4" id="part4-head" data-source-line="15"><rect x="553.4419" y="87.2969" width="36.1484" height="30.2969" fill="#F5F0EB" style="stroke:#75607F;stroke-width:0.5;" rx="2.5" ry="2.5"/><text x="560.4419" y="107.292" fill="#2D1B35" font-size="14" lengthAdjust="spacing" textLength="22.1484" font-family="sans-serif">API</text></g><g class="participant participant-tail" data-qualified-name="API" data-entity-uid="part4" id="part4-tail" data-source-line="15"><rect x="553.4419" y="838.125" width="36.1484" height="30.2969" fill="#F5F0EB" style="stroke:#75607F;stroke-width:0.5;" rx="2.5" ry="2.5"/><text x="560.4419" y="858.1201" fill="#2D1B35" font-size="14" lengthAdjust="spacing" textLength="22.1484" font-family="sans-serif">API</text></g><g class="participant participant-head" data-qualified-name="DB" data-entity-uid="part5" id="part5-head" data-source-line="16"><text x="806.6987" y="115.292" fill="#000000" font-size="14" lengthAdjust="spacing" textLength="60.3408" font-family="sans-serif">Postgres</text><path d="M821.8691,66.2969 C821.8691,56.2969 839.8691,56.2969 839.8691,56.2969 C839.8691,56.2969 857.8691,56.2969 857.8691,66.2969 L857.8691,92.2969 C857.8691,102.2969 839.8691,102.2969 839.8691,102.2969 C839.8691,102.2969 821.8691,102.2969 821.8691,92.2969 L821.8691,66.2969" style="stroke:#181818;stroke-width:0.5;" fill="#E2E2F0"/><path d="M821.8691,66.2969 C821.8691,76.2969 839.8691,76.2969 839.8691,76.2969 C839.8691,76.2969 857.8691,76.2969 857.8691,66.2969" style="stroke:#181818;stroke-width:0.5;" fill="none"/></g><g class="participant participant-tail" data-qualified-name="DB" data-entity-uid="part5" id="part5-tail" data-source-line="16"><text x="806.6987" y="851.1201" fill="#000000" font-size="14" lengthAdjust="spacing" textLength="60.3408" font-family="sans-serif">Postgres</text><path d="M821.8691,864.4219 C821.8691,854.4219 839.8691,854.4219 839.8691,854.4219 C839.8691,854.4219 857.8691,854.4219 857.8691,864.4219 L857.8691,890.4219 C857.8691,900.4219 839.8691,900.4219 839.8691,900.4219 C839.8691,900.4219 821.8691,900.4219 821.8691,890.4219 L821.8691,864.4219" style="stroke:#181818;stroke-width:0.5;" fill="#E2E2F0"/><path d="M821.8691,864.4219 C821.8691,874.4219 839.8691,874.4219 839.8691,874.4219 C839.8691,874.4219 857.8691,874.4219 857.8691,864.4219" style="stroke:#181818;stroke-width:0.5;" fill="none"/></g><g class="participant participant-head" data-qualified-name="OS" data-entity-uid="part6" id="part6-head" data-source-line="17"><rect x="883.0396" y="71" width="99.7637" height="46.5938" fill="#F5F0EB" style="stroke:#75607F;stroke-width:0.5;" rx="2.5" ry="2.5"/><text x="890.0396" y="90.9951" fill="#2D1B35" font-size="14" lengthAdjust="spacing" textLength="85.7637" font-family="sans-serif">Object store</text><text x="896.209" y="107.292" fill="#2D1B35" font-size="14" lengthAdjust="spacing" textLength="73.4248" font-family="sans-serif">(MinIO/S3)</text></g><g class="participant participant-tail" data-qualified-name="OS" data-entity-uid="part6" id="part6-tail" data-source-line="17"><rect x="883.0396" y="838.125" width="99.7637" height="46.5938" fill="#F5F0EB" style="stroke:#75607F;stroke-width:0.5;" rx="2.5" ry="2.5"/><text x="890.0396" y="858.1201" fill="#2D1B35" font-size="14" lengthAdjust="spacing" textLength="85.7637" font-family="sans-serif">Object store</text><text x="896.209" y="874.417" fill="#2D1B35" font-size="14" lengthAdjust="spacing" textLength="73.4248" font-family="sans-serif">(MinIO/S3)</text></g><g class="message" data-entity-1="part1" data-entity-2="part2" id="msg1" data-source-line="19"><polygon points="200.4297,145.7266,210.4297,149.7266,200.4297,153.7266,204.4297,149.7266" fill="#75607F" style="stroke:#75607F;stroke-width:1;stroke-linejoin:miter;stroke-miterlimit:10;"/><line x1="38.9551" y1="149.7266" x2="206.4297" y2="149.7266" style="stroke:#75607F;stroke-width:1;"/><text x="45.9551" y="144.6606" fill="#000000" font-size="13" lengthAdjust="spacing" textLength="113.1152" font-family="sans-serif">press e on a note</text></g><g class="message" data-entity-1="part2" data-entity-2="part3" id="msg2" data-source-line="20"><polygon points="406.0933,174.8594,416.0933,178.8594,406.0933,182.8594,410.0933,178.8594" fill="#75607F" style="stroke:#75607F;stroke-width:1;stroke-linejoin:miter;stroke-miterlimit:10;"/><line x1="212.4297" y1="178.8594" x2="412.0933" y2="178.8594" style="stroke:#75607F;stroke-width:1;"/><text x="219.4297" y="173.7935" fill="#000000" font-size="13" lengthAdjust="spacing" textLength="181.6636" font-family="sans-serif">autosave draft (debounced)</text></g><path d="M10,193.8594 L79.4512,193.8594 L79.4512,200.9922 L69.4512,210.9922 L10,210.9922 L10,193.8594" style="stroke:#000000;stroke-width:1.5;" fill="#EEEEEE"/><rect x="10" y="193.8594" width="982.8032" height="234.0625" fill="none" style="stroke:#000000;stroke-width:1.5;"/><text x="25" y="206.9263" fill="#000000" font-size="13" lengthAdjust="spacing" textLength="24.4512" font-weight="700" font-family="sans-serif">opt</text><text x="94.4512" y="206.0698" fill="#000000" font-size="11" lengthAdjust="spacing" textLength="185.9043" font-weight="700" font-family="sans-serif">[Upload attachment (extend)]</text><g class="message" data-entity-1="part1" data-entity-2="part2" id="msg3" data-source-line="23"><polygon points="200.4297,228.125,210.4297,232.125,200.4297,236.125,204.4297,232.125" fill="#75607F" style="stroke:#75607F;stroke-width:1;stroke-linejoin:miter;stroke-miterlimit:10;"/><line x1="38.9551" y1="232.125" x2="206.4297" y2="232.125" style="stroke:#75607F;stroke-width:1;"/><text x="45.9551" y="227.0591" fill="#000000" font-size="13" lengthAdjust="spacing" textLength="113.6104" font-family="sans-serif">drop / pick image</text></g><g class="message" data-entity-1="part2" data-entity-2="part4" id="msg4" data-source-line="24"><polygon points="559.5161,257.2578,569.5161,261.2578,559.5161,265.2578,563.5161,261.2578" fill="#75607F" style="stroke:#75607F;stroke-width:1;stroke-linejoin:miter;stroke-miterlimit:10;"/><line x1="212.4297" y1="261.2578" x2="565.5161" y2="261.2578" style="stroke:#75607F;stroke-width:1;"/><text x="219.4297" y="256.1919" fill="#000000" font-size="13" lengthAdjust="spacing" textLength="275.2661" font-family="sans-serif">POST /api/attachments (multipart, Bearer)</text></g><g class="message" data-entity-1="part4" data-entity-2="part6" id="msg5" data-source-line="25"><polygon points="920.9214,286.3906,930.9214,290.3906,920.9214,294.3906,924.9214,290.3906" fill="#75607F" style="stroke:#75607F;stroke-width:1;stroke-linejoin:miter;stroke-miterlimit:10;"/><line x1="571.5161" y1="290.3906" x2="926.9214" y2="290.3906" style="stroke:#75607F;stroke-width:1;"/><text x="578.5161" y="285.3247" fill="#000000" font-size="13" lengthAdjust="spacing" textLength="69.4878" font-family="sans-serif">PUT object</text></g><g class="message" data-entity-1="part6" data-entity-2="part4" id="msg6" data-source-line="26"><polygon points="582.5161,315.5234,572.5161,319.5234,582.5161,323.5234,578.5161,319.5234" fill="#75607F" style="stroke:#75607F;stroke-width:1;stroke-linejoin:miter;stroke-miterlimit:10;"/><line x1="576.5161" y1="319.5234" x2="931.9214" y2="319.5234" style="stroke:#75607F;stroke-width:1;stroke-dasharray:2,2;"/><text x="588.5161" y="314.4575" fill="#000000" font-size="13" lengthAdjust="spacing" textLength="23.2197" font-family="sans-serif">key</text></g><g class="message" data-entity-1="part4" data-entity-2="part5" id="msg7" data-source-line="27"><polygon points="827.8691,344.6563,837.8691,348.6563,827.8691,352.6563,831.8691,348.6563" fill="#75607F" style="stroke:#75607F;stroke-width:1;stroke-linejoin:miter;stroke-miterlimit:10;"/><line x1="571.5161" y1="348.6563" x2="833.8691" y2="348.6563" style="stroke:#75607F;stroke-width:1;"/><text x="578.5161" y="343.5903" fill="#000000" font-size="13" lengthAdjust="spacing" textLength="226.4526" font-family="sans-serif">INSERT attachment {note_id, key}</text></g><g class="message" data-entity-1="part4" data-entity-2="part2" id="msg8" data-source-line="28"><polygon points="223.4297,373.7891,213.4297,377.7891,223.4297,381.7891,219.4297,377.7891" fill="#75607F" style="stroke:#75607F;stroke-width:1;stroke-linejoin:miter;stroke-miterlimit:10;"/><line x1="217.4297" y1="377.7891" x2="570.5161" y2="377.7891" style="stroke:#75607F;stroke-width:1;stroke-dasharray:2,2;"/><text x="229.4297" y="372.7231" fill="#000000" font-size="13" lengthAdjust="spacing" textLength="33.7378" font-family="sans-serif">{url}</text></g><g class="message" data-entity-1="part2" data-entity-2="part2" id="msg9" data-source-line="29"><line x1="212.4297" y1="406.9219" x2="254.4297" y2="406.9219" style="stroke:#75607F;stroke-width:1;"/><line x1="254.4297" y1="406.9219" x2="254.4297" y2="419.9219" style="stroke:#75607F;stroke-width:1;"/><line x1="213.4297" y1="419.9219" x2="254.4297" y2="419.9219" style="stroke:#75607F;stroke-width:1;"/><polygon points="223.4297,415.9219,213.4297,419.9219,223.4297,423.9219,219.4297,419.9219" fill="#75607F" style="stroke:#75607F;stroke-width:1;stroke-linejoin:miter;stroke-miterlimit:10;"/><text x="219.4297" y="401.856" fill="#000000" font-size="13" lengthAdjust="spacing" textLength="154.2861" font-family="sans-serif">insert ![..](url) at cursor</text></g><g class="message" data-entity-1="part1" data-entity-2="part2" id="msg10" data-source-line="32"><polygon points="200.4297,452.0547,210.4297,456.0547,200.4297,460.0547,204.4297,456.0547" fill="#75607F" style="stroke:#75607F;stroke-width:1;stroke-linejoin:miter;stroke-miterlimit:10;"/><line x1="38.9551" y1="456.0547" x2="206.4297" y2="456.0547" style="stroke:#75607F;stroke-width:1;"/><text x="45.9551" y="450.9888" fill="#000000" font-size="13" lengthAdjust="spacing" textLength="149.4746" font-family="sans-serif">Save (Ctrl/Cmd+Enter)</text></g><g class="message" data-entity-1="part2" data-entity-2="part4" id="msg11" data-source-line="33"><polygon points="559.5161,481.1875,569.5161,485.1875,559.5161,489.1875,563.5161,485.1875" fill="#75607F" style="stroke:#75607F;stroke-width:1;stroke-linejoin:miter;stroke-miterlimit:10;"/><line x1="212.4297" y1="485.1875" x2="565.5161" y2="485.1875" style="stroke:#75607F;stroke-width:1;"/><text x="219.4297" y="480.1216" fill="#000000" font-size="13" lengthAdjust="spacing" textLength="335.0864" font-family="sans-serif">PATCH /api/notes/{title} {newTitle?, newContent?}</text></g><g class="message" data-entity-1="part4" data-entity-2="part5" id="msg12" data-source-line="34"><polygon points="827.8691,510.3203,837.8691,514.3203,827.8691,518.3203,831.8691,514.3203" fill="#75607F" style="stroke:#75607F;stroke-width:1;stroke-linejoin:miter;stroke-miterlimit:10;"/><line x1="571.5161" y1="514.3203" x2="833.8691" y2="514.3203" style="stroke:#75607F;stroke-width:1;"/><text x="578.5161" y="509.2544" fill="#000000" font-size="13" lengthAdjust="spacing" textLength="188.8491" font-family="sans-serif">SELECT note (owner_id, title)</text></g><path d="M10,529.3203 L74.4429,529.3203 L74.4429,536.4531 L64.4429,546.4531 L10,546.4531 L10,529.3203" style="stroke:#000000;stroke-width:1.5;" fill="#EEEEEE"/><rect x="10" y="529.3203" width="873.0396" height="292.8047" fill="none" style="stroke:#000000;stroke-width:1.5;"/><text x="25" y="542.3872" fill="#000000" font-size="13" lengthAdjust="spacing" textLength="19.4429" font-weight="700" font-family="sans-serif">alt</text><text x="89.4429" y="541.5308" fill="#000000" font-size="11" lengthAdjust="spacing" textLength="57.8574" font-weight="700" font-family="sans-serif">[missing]</text><g class="message" data-entity-1="part4" data-entity-2="part2" id="msg13" data-source-line="36"><polygon points="223.4297,563.5859,213.4297,567.5859,223.4297,571.5859,219.4297,567.5859" fill="#75607F" style="stroke:#75607F;stroke-width:1;stroke-linejoin:miter;stroke-miterlimit:10;"/><line x1="217.4297" y1="567.5859" x2="570.5161" y2="567.5859" style="stroke:#75607F;stroke-width:1;stroke-dasharray:2,2;"/><text x="229.4297" y="562.52" fill="#000000" font-size="13" lengthAdjust="spacing" textLength="163.8521" font-family="sans-serif">404 "...cannot be found."</text></g><line x1="10" y1="576.5859" x2="883.0396" y2="576.5859" style="stroke:#000000;stroke-width:1;stroke-dasharray:2,2;"/><text x="15" y="586.7964" fill="#000000" font-size="11" lengthAdjust="spacing" textLength="114.3721" font-weight="700" font-family="sans-serif">[newTitle collides]</text><g class="message" data-entity-1="part4" data-entity-2="part2" id="msg14" data-source-line="38"><polygon points="223.4297,607.5234,213.4297,611.5234,223.4297,615.5234,219.4297,611.5234" fill="#75607F" style="stroke:#75607F;stroke-width:1;stroke-linejoin:miter;stroke-miterlimit:10;"/><line x1="217.4297" y1="611.5234" x2="570.5161" y2="611.5234" style="stroke:#75607F;stroke-width:1;stroke-dasharray:2,2;"/><text x="229.4297" y="606.4575" fill="#000000" font-size="13" lengthAdjust="spacing" textLength="148.3447" font-family="sans-serif">409 "...already exists."</text></g><line x1="10" y1="620.5234" x2="883.0396" y2="620.5234" style="stroke:#000000;stroke-width:1;stroke-dasharray:2,2;"/><text x="15" y="630.7339" fill="#000000" font-size="11" lengthAdjust="spacing" textLength="24.9272" font-weight="700" font-family="sans-serif">[ok]</text><g class="message" data-entity-1="part4" data-entity-2="part4" id="msg15" data-source-line="40"><line x1="571.5161" y1="655.4609" x2="613.5161" y2="655.4609" style="stroke:#75607F;stroke-width:1;"/><line x1="613.5161" y1="655.4609" x2="613.5161" y2="668.4609" style="stroke:#75607F;stroke-width:1;"/><line x1="572.5161" y1="668.4609" x2="613.5161" y2="668.4609" style="stroke:#75607F;stroke-width:1;"/><polygon points="582.5161,664.4609,572.5161,668.4609,582.5161,672.4609,578.5161,668.4609" fill="#75607F" style="stroke:#75607F;stroke-width:1;stroke-linejoin:miter;stroke-miterlimit:10;"/><text x="578.5161" y="650.395" fill="#000000" font-size="13" lengthAdjust="spacing" textLength="107.4912" font-family="sans-serif">re-extract #tags</text></g><g class="message" data-entity-1="part4" data-entity-2="part5" id="msg16" data-source-line="41"><polygon points="827.8691,693.5938,837.8691,697.5938,827.8691,701.5938,831.8691,697.5938" fill="#75607F" style="stroke:#75607F;stroke-width:1;stroke-linejoin:miter;stroke-miterlimit:10;"/><line x1="571.5161" y1="697.5938" x2="833.8691" y2="697.5938" style="stroke:#75607F;stroke-width:1;"/><text x="578.5161" y="692.5278" fill="#000000" font-size="13" lengthAdjust="spacing" textLength="244.353" font-family="sans-serif">UPDATE note (search_vec via trigger)</text></g><g class="message" data-entity-1="part4" data-entity-2="part5" id="msg17" data-source-line="42"><polygon points="827.8691,722.7266,837.8691,726.7266,827.8691,730.7266,831.8691,726.7266" fill="#75607F" style="stroke:#75607F;stroke-width:1;stroke-linejoin:miter;stroke-miterlimit:10;"/><line x1="571.5161" y1="726.7266" x2="833.8691" y2="726.7266" style="stroke:#75607F;stroke-width:1;"/><text x="578.5161" y="721.6606" fill="#000000" font-size="13" lengthAdjust="spacing" textLength="148.8716" font-family="sans-serif">rewrite note_tags rows</text></g><g class="message" data-entity-1="part4" data-entity-2="part2" id="msg18" data-source-line="43"><polygon points="223.4297,751.8594,213.4297,755.8594,223.4297,759.8594,219.4297,755.8594" fill="#75607F" style="stroke:#75607F;stroke-width:1;stroke-linejoin:miter;stroke-miterlimit:10;"/><line x1="217.4297" y1="755.8594" x2="570.5161" y2="755.8594" style="stroke:#75607F;stroke-width:1;stroke-dasharray:2,2;"/><text x="229.4297" y="750.7935" fill="#000000" font-size="13" lengthAdjust="spacing" textLength="251.0308" font-family="sans-serif">200 Note {title, content, lastModified}</text></g><g class="message" data-entity-1="part2" data-entity-2="part3" id="msg19" data-source-line="44"><polygon points="406.0933,780.9922,416.0933,784.9922,406.0933,788.9922,410.0933,784.9922" fill="#75607F" style="stroke:#75607F;stroke-width:1;stroke-linejoin:miter;stroke-miterlimit:10;"/><line x1="212.4297" y1="784.9922" x2="412.0933" y2="784.9922" style="stroke:#75607F;stroke-width:1;"/><text x="219.4297" y="779.9263" fill="#000000" font-size="13" lengthAdjust="spacing" textLength="67.4375" font-family="sans-serif">clear draft</text></g><g class="message" data-entity-1="part2" data-entity-2="part1" id="msg20" data-source-line="45"><polygon points="49.9551,810.125,39.9551,814.125,49.9551,818.125,45.9551,814.125" fill="#75607F" style="stroke:#75607F;stroke-width:1;stroke-linejoin:miter;stroke-miterlimit:10;"/><line x1="43.9551" y1="814.125" x2="211.4297" y2="814.125" style="stroke:#75607F;stroke-width:1;stroke-dasharray:2,2;"/><text x="55.9551" y="809.0591" fill="#000000" font-size="13" lengthAdjust="spacing" textLength="83.0718" font-family="sans-serif">-> view note</text></g><?plantuml-src ZLJRRXen47tVhvYI5r09a5lJKgaHLpKI2QWBJsqL6NiWBiRUs0OQ8VwzOmE5JLAfyB0hpvdZS-QoNdg5q17IWpOUeIWrLnL8sH91M3Rnds6KASC4CEyPVvoZze2_FMhXIecRIPqno-OmPdmsjMQXHSieO-6a6tz728TF2zGSOPq0DAmrgnto-kf3xRfBXpqvmPxKs3HMeFrdzDLDLzrQfqc80RDUSfanxT-cE0Ry3qlNQByBdxVFcXTNGJdtnkReppw6Vx99M0Z1oA5DiWC95D91em3C0Jtp0MKuKoabiIb6H2_D0ng3stXEpqGmpyRC8HG6nlcfHHT3xMO-fJ_-XTo38rRyeOjtKj_sg-b5AOBxQP84VN3w9QYfGqOq3X2C1XO78A7Z4EsbTM0BRzpVGO2Ym34LZACe9Od9_1k3KTnEHedgbBj6M9D15JB9Po3dv9O0kul8MXq6_NG8LPR9we7CGN6-K5u6TsLe8hDe0p4bXBm-2HoCXc2YNphlft2wvvlXym7PRjRXzZxjV1iUIrq7jmzIb0DuiqVl1QyNLcqE8kEPr6J9mxllbShF8iLBH0TyOPsn2Pb-KTcuGSMMjwhQcelt7Us3_9pfnh3rTUiwQ77LjG_Bk25fk1g6rvioq6kBff0KtsoI8qDffzTf3NSxQrOQRVGI6Ke9KnxcqZcffo-TNTOkeL2fL3ZJb0nZX4dOWaeXGKN3jRyQk55A2dIlyp_5VAOiCl5CtmBflDkdczcXxj6anLEQ2Kkh0IUUJLs-BQD1kp7ix5muQZ5_V5WYXwLauAsSJdCj3naMLrOIEdOl409zI5w9FA_Lu3wGRajQ9ZUnXcLGpFax8-H4eZXgS1XthaZ0TjRt0Og4fjO3P2bnjLqHQlOV?></g></svg>