<svg xmlns="http://www.w3.org/2000/svg" xmlns:xlink="http://www.w3.org/1999/xlink" version="1.1" data-diagram-type="SEQUENCE" style="width:852px;height:529px;background:#FFFFFF;" width="852px" height="529px" viewBox="0 0 852 529" zoomAndPan="magnify" preserveAspectRatio="none" contentStyleType="text/css"><?plantuml 1.2026.7beta3?><defs/><g><g class="title" data-source-line="1"><text x="376.5637" y="27.9951" fill="#000000" font-size="14" lengthAdjust="spacing" textLength="92.2441" font-weight="700" font-family="sans-serif">Delete note</text></g><rect x="10" y="281.2578" width="826.3716" height="148.4688" fill="none" style="stroke:#000000;stroke-width:1.5;"/><g class="participant-lifeline" data-qualified-name="User" data-entity-uid="part1" id="part1-lifeline" data-source-line="12"><g><title>User</title><rect x="34.9551" y="118.5938" width="8" height="328.1328" fill="#000000" fill-opacity="0.00000"/><line x1="38" y1="118.5938" x2="38" y2="446.7266" style="stroke:#75607F;stroke-width:0.5;stroke-dasharray:5,5;"/></g></g><g class="participant-lifeline" data-qualified-name="SPA" data-entity-uid="part2" id="part2-lifeline" data-source-line="13"><g><title>SPA</title><rect x="152.272" y="118.5938" width="8" height="328.1328" fill="#000000" fill-opacity="0.00000"/><line x1="155.8188" y1="118.5938" x2="155.8188" y2="446.7266" style="stroke:#75607F;stroke-width:0.5;stroke-dasharray:5,5;"/></g></g><g class="participant-lifeline" data-qualified-name="API" data-entity-uid="part3" id="part3-lifeline" data-source-line="14"><g><title>API</title><rect x="399.0747" y="118.5938" width="8" height="328.1328" fill="#000000" fill-opacity="0.00000"/><line x1="403.0005" y1="118.5938" x2="403.0005" y2="446.7266" style="stroke:#75607F;stroke-width:0.5;stroke-dasharray:5,5;"/></g></g><g class="participant-lifeline" data-qualified-name="DB" data-entity-uid="part4" id="part4-lifeline" data-source-line="15"><g><title>Postgres</title><rect x="789.2012" y="118.5938" width="8" height="328.1328" fill="#000000" fill-opacity="0.00000"/><line x1="793.0308" y1="118.5938" x2="793.0308" y2="446.7266" style="stroke:#75607F;stroke-width:0.5;stroke-dasharray:5,5;"/></g></g><g class="participant participant-head" data-qualified-name="User" data-entity-uid="part1" id="part1-head" data-source-line="12"><text x="20" y="115.292" fill="#000000" font-size="14" lengthAdjust="spacing" textLength="31.9102" font-family="sans-serif">User</text><ellipse cx="38.9551" cy="50.7969" rx="8" ry="8" fill="#E2E2F0" style="stroke:#181818;stroke-width:0.5;"/><path d="M38.9551,58.7969 L38.9551,85.7969 M25.9551,66.7969 L51.9551,66.7969 M38.9551,85.7969 L25.9551,100.7969 M38.9551,85.7969 L51.9551,100.7969" style="stroke:#181818;stroke-width:0.5;" fill="none"/></g><g class="participant participant-tail" data-qualified-name="User" data-entity-uid="part1" id="part1-tail" data-source-line="12"><text x="20" y="458.7217" fill="#000000" font-size="14" lengthAdjust="spacing" textLength="31.9102" font-family="sans-serif">User</text><ellipse cx="38.9551" cy="470.5234" rx="8" ry="8" fill="#E2E2F0" style="stroke:#181818;stroke-width:0.5;"/><path d="M38.9551,478.5234 L38.9551,505.5234 M25.9551,486.5234 L51.9551,486.5234 M38.9551,505.5234 L25.9551,520.5234 M38.9551,505.5234 L51.9551,520.5234" style="stroke:#181818;stroke-width:0.5;" fill="none"/></g><g class="participant participant-head" data-qualified-name="SPA" data-entity-uid="part2" id="part2-head" data-source-line="13"><rect x="135.8188" y="87.2969" width="40.9063" height="30.2969" fill="#F5F0EB" style="stroke:#75607F;stroke-width:0.5;" rx="2.5" ry="2.5"/><text x="142.8188" y="107.292" fill="#2D1B35" font-size="14" lengthAdjust="spacing" textLength="26.9063" font-family="sans-serif">SPA</text></g><g class="participant participant-tail" data-qualified-name="SPA" data-entity-uid="part2" id="part2-tail" data-source-line="13"><rect x="135.8188" y="445.7266" width="40.9063" height="30.2969" fill="#F5F0EB" style="stroke:#75607F;stroke-width:0.5;" rx="2.5" ry="2.5"/><text x="142.8188" y="465.7217" fill="#2D1B35" font-size="14" lengthAdjust="spacing" textLength="26.9063" font-family="sans-serif">SPA</text></g><g class="participant participant-head" data-qualified-name="API" data-entity-uid="part3" id="part3-head" data-source-line="14"><rect x="385.0005" y="87.2969" width="36.1484" height="30.2969" fill="#F5F0EB" style="stroke:#75607F;stroke-width:0.5;" rx="2.5" ry="2.5"/><text x="392.0005" y="107.292" fill="#2D1B35" font-size="14" lengthAdjust="spacing" textLength="22.1484" font-family="sans-serif">API</text></g><g class="participant participant-tail" data-qualified-name="API" data-entity-uid="part3" id="part3-tail" data-source-line="14"><rect x="385.0005" y="445.7266" width="36.1484" height="30.2969" fill="#F5F0EB" style="stroke:#75607F;stroke-width:0.5;" rx="2.5" ry="2.5"/><text x="392.0005" y="465.7217" fill="#2D1B35" font-size="14" lengthAdjust="spacing" textLength="22.1484" font-family="sans-serif">API</text></g><g class="participant participant-head" data-qualified-name="DB" data-entity-uid="part4" id="part4-head" data-source-line="15"><text x="760.0308" y="115.292" fill="#000000" font-size="14" lengthAdjust="spacing" textLength="60.3408" font-family="sans-serif">Postgres</text><path d="M775.2012,66.2969 C775.2012,56.2969 793.2012,56.2969 793.2012,56.2969 C793.2012,56.2969 811.2012,56.2969 811.2012,66.2969 L811.2012,92.2969 C811.2012,102.2969 793.2012,102.2969 793.2012,102.2969 C793.2012,102.2969 775.2012,102.2969 775.2012,92.2969 L775.2012,66.2969" style="stroke:#181818;stroke-width:0.5;" fill="#E2E2F0"/><path d="M775.2012,66.2969 C775.2012,76.2969 793.2012,76.2969 793.2012,76.2969 C793.2012,76.2969 811.2012,76.2969 811.2012,66.2969" style="stroke:#181818;stroke-width:0.5;" fill="none"/></g><g class="participant participant-tail" data-qualified-name="DB" data-entity-uid="part4" id="part4-tail" data-source-line="15"><text x="760.0308" y="458.7217" fill="#000000" font-size="14" lengthAdjust="spacing" textLength="60.3408" font-family="sans-serif">Postgres</text><path d="M775.2012,472.0234 C775.2012,462.0234 793.2012,462.0234 793.2012,462.0234 C793.2012,462.0234 811.2012,462.0234 811.2012,472.0234 L811.2012,498.0234 C811.2012,508.0234 793.2012,508.0234 793.2012,508.0234 C793.2012,508.0234 775.2012,508.0234 775.2012,498.0234 L775.2012,472.0234" style="stroke:#181818;stroke-width:0.5;" fill="#E2E2F0"/><path d="M775.2012,472.0234 C775.2012,482.0234 793.2012,482.0234 793.2012,482.0234 C793.2012,482.0234 811.2012,482.0234 811.2012,472.0234" style="stroke:#181818;stroke-width:0.5;" fill="none"/></g><g class="message" data-entity-1="part1" data-entity-2="part2" id="msg1" data-source-line="17"><polygon points="144.272,145.7266,154.272,149.7266,144.272,153.7266,148.272,149.7266" fill="#75607F" style="stroke:#75607F;stroke-width:1;stroke-linejoin:miter;stroke-miterlimit:10;"/><line x1="38.9551" y1="149.7266" x2="150.272" y2="149.7266" style="stroke:#75607F;stroke-width:1;"/><text x="45.9551" y="144.6606" fill="#000000" font-size="13" lengthAdjust="spacing" textLength="76.1338" font-family="sans-serif">Delete note</text></g><g class="message" data-entity-1="part2" data-entity-2="part1" id="msg2" data-source-line="18"><polygon points="49.9551,174.8594,39.9551,178.8594,49.9551,182.8594,45.9551,178.8594" fill="#75607F" style="stroke:#75607F;stroke-width:1;stroke-linejoin:miter;stroke-miterlimit:10;"/><line x1="43.9551" y1="178.8594" x2="155.272" y2="178.8594" style="stroke:#75607F;stroke-width:1;"/><text x="55.9551" y="173.7935" fill="#000000" font-size="13" lengthAdjust="spacing" textLength="93.3169" font-family="sans-serif">confirm dialog</text></g><g class="message" data-entity-1="part1" data-entity-2="part2" id="msg3" data-source-line="19"><polygon points="144.272,203.9922,154.272,207.9922,144.272,211.9922,148.272,207.9922" fill="#75607F" style="stroke:#75607F;stroke-width:1;stroke-linejoin:miter;stroke-miterlimit:10;"/><line x1="38.9551" y1="207.9922" x2="150.272" y2="207.9922" style="stroke:#75607F;stroke-width:1;"/><text x="45.9551" y="202.9263" fill="#000000" font-size="13" lengthAdjust="spacing" textLength="49.5371" font-family="sans-serif">confirm</text></g><g class="message" data-entity-1="part2" data-entity-2="part3" id="msg4" data-source-line="20"><polygon points="391.0747,233.125,401.0747,237.125,391.0747,241.125,395.0747,237.125" fill="#75607F" style="stroke:#75607F;stroke-width:1;stroke-linejoin:miter;stroke-miterlimit:10;"/><line x1="156.272" y1="237.125" x2="397.0747" y2="237.125" style="stroke:#75607F;stroke-width:1;"/><text x="163.272" y="232.0591" fill="#000000" font-size="13" lengthAdjust="spacing" textLength="222.8027" font-family="sans-serif">DELETE /api/notes/{title} (Bearer)</text></g><g class="message" data-entity-1="part3" data-entity-2="part4" id="msg5" data-source-line="21"><polygon points="781.2012,262.2578,791.2012,266.2578,781.2012,270.2578,785.2012,266.2578" fill="#75607F" style="stroke:#75607F;stroke-width:1;stroke-linejoin:miter;stroke-miterlimit:10;"/><line x1="403.0747" y1="266.2578" x2="787.2012" y2="266.2578" style="stroke:#75607F;stroke-width:1;"/><text x="410.0747" y="261.1919" fill="#000000" font-size="13" lengthAdjust="spacing" textLength="188.8491" font-family="sans-serif">SELECT note (owner_id, title)</text></g><path d="M10,281.2578 L74.4429,281.2578 L74.4429,288.3906 L64.4429,298.3906 L10,298.3906 L10,281.2578" style="stroke:#000000;stroke-width:1.5;" fill="#EEEEEE"/><rect x="10" y="281.2578" width="826.3716" height="148.4688" fill="none" style="stroke:#000000;stroke-width:1.5;"/><text x="25" y="294.3247" fill="#000000" font-size="13" lengthAdjust="spacing" textLength="19.4429" font-weight="700" font-family="sans-serif">alt</text><text x="89.4429" y="293.4683" fill="#000000" font-size="11" lengthAdjust="spacing" textLength="57.8574" font-weight="700" font-family="sans-serif">[missing]</text><g class="message" data-entity-1="part3" data-entity-2="part2" id="msg6" data-source-line="23"><polygon points="167.272,315.5234,157.272,319.5234,167.272,323.5234,163.272,319.5234" fill="#75607F" style="stroke:#75607F;stroke-width:1;stroke-linejoin:miter;stroke-miterlimit:10;"/><line x1="161.272" y1="319.5234" x2="402.0747" y2="319.5234" style="stroke:#75607F;stroke-width:1;stroke-dasharray:2,2;"/><text x="173.272" y="314.4575" fill="#000000" font-size="13" lengthAdjust="spacing" textLength="163.8521" font-family="sans-serif">404 "...cannot be found."</text></g><line x1="10" y1="328.5234" x2="836.3716" y2="328.5234" style="stroke:#000000;stroke-width:1;stroke-dasharray:2,2;"/><text x="15" y="338.7339" fill="#000000" font-size="11" lengthAdjust="spacing" textLength="24.9272" font-weight="700" font-family="sans-serif">[ok]</text><g class="message" data-entity-1="part3" data-entity-2="part4" id="msg7" data-source-line="25"><polygon points="781.2012,359.4609,791.2012,363.4609,781.2012,367.4609,785.2012,363.4609" fill="#75607F" style="stroke:#75607F;stroke-width:1;stroke-linejoin:miter;stroke-miterlimit:10;"/><line x1="403.0747" y1="363.4609" x2="787.2012" y2="363.4609" style="stroke:#75607F;stroke-width:1;"/><text x="410.0747" y="358.395" fill="#000000" font-size="13" lengthAdjust="spacing" textLength="366.1265" font-family="sans-serif">DELETE note (cascade note_tags, attachments, quizzes)</text></g><g class="message" data-entity-1="part3" data-entity-2="part2" id="msg8" data-source-line="26"><polygon points="167.272,388.5938,157.272,392.5938,167.272,396.5938,163.272,392.5938" fill="#75607F" style="stroke:#75607F;stroke-width:1;stroke-linejoin:miter;stroke-miterlimit:10;"/><line x1="161.272" y1="392.5938" x2="402.0747" y2="392.5938" style="stroke:#75607F;stroke-width:1;stroke-dasharray:2,2;"/><text x="173.272" y="387.5278" fill="#000000" font-size="13" lengthAdjust="spacing" textLength="52.6475" font-family="sans-serif">200 null</text></g><g class="message" data-entity-1="part2" data-entity-2="part1" id="msg9" data-source-line="27"><polygon points="49.9551,417.7266,39.9551,421.7266,49.9551,425.7266,45.9551,421.7266" fill="#75607F" style="stroke:#75607F;stroke-width:1;stroke-linejoin:miter;stroke-miterlimit:10;"/><line x1="43.9551" y1="421.7266" x2="155.272" y2="421.7266" style="stroke:#75607F;stroke-width:1;stroke-dasharray:2,2;"/><text x="55.9551" y="416.6606" fill="#000000" font-size="13" lengthAdjust="spacing" textLength="90.4731" font-family="sans-serif">-> Dashboard</text></g><?plantuml-src ZL5BQm8n4BxdLmpRYuBLrMej7WgkkqB1Ww0zovWTrs1CD8a8Yl-zoQgjzW5D3Y7plJ8J9vmaI4cI8r3Q4RCheJPeS0rpvAl2w9tA1rfg0m_3SjqmB6rtf3Z1aG7qZT7x2xFRUOwxGrySYGMDXA94cvpCd-YFfCumpXBF6ADnWeiDAlUxnItXFov3hTm5RgNDvAaJNiwTDdVspPUmsObXWE3Tac6RBnE89kD-16Z1d_T0V_nM0lvaEJgSeoM8njgwmf0jeJHXB3Z2uslGz-x6xmkX7l0USAqMmgmX5oXrSI-wO5U1p_D6sIYRPj30ZMW4Dziukl319wWaX8PCbNbUeAT93oQUFPYMiL3HUqLc9l8Qb8egG-bWBQmLgWWZ2h9hT3jkGrIlrpagBuOvmI9ClHunahvRlReApZcNLvrpE5gE-RdPcSF2rW2TGxvSatB-ijs9mu5izNjcAuv1xQJqzRBZpnc54BJBkKQJCrBv1m00?></g></svg>