<svg xmlns="http://www.w3.org/2000/svg" xmlns:xlink="http://www.w3.org/1999/xlink" version="1.1" data-diagram-type="SEQUENCE" style="width:1444px;height:664px;background:#FFFFFF;" width="1444px" height="664px" viewBox="0 0 1444 664" zoomAndPan="magnify" preserveAspectRatio="none" contentStyleType="text/css"><?plantuml 1.2026.7beta3?><defs/><g><g class="title" data-source-line="1"><text x="418.6135" y="27.9951" fill="#000000" font-size="14" lengthAdjust="spacing" textLength="599.8945" font-weight="700" font-family="sans-serif">Search notes (covers Browse recent, Filter by #tag; Use operators extends)</text></g><rect x="10" y="135.5938" width="918.5259" height="163.2734" fill="none" style="stroke:#000000;stroke-width:1.5;"/><g class="participant-lifeline" data-qualified-name="User" data-entity-uid="part1" id="part1-lifeline" data-source-line="12"><g><title>User</title><rect x="34.9551" y="118.5938" width="8" height="463.4688" fill="#000000" fill-opacity="0.00000"/><line x1="38" y1="118.5938" x2="38" y2="582.0625" style="stroke:#75607F;stroke-width:0.5;stroke-dasharray:5,5;"/></g></g><g class="participant-lifeline" data-qualified-name="SPA" data-entity-uid="part2" id="part2-lifeline" data-source-line="13"><g><title>SPA</title><rect x="503.4243" y="118.5938" width="8" height="463.4688" fill="#000000" fill-opacity="0.00000"/><line x1="506.9712" y1="118.5938" x2="506.9712" y2="582.0625" style="stroke:#75607F;stroke-width:0.5;stroke-dasharray:5,5;"/></g></g><g class="participant-lifeline" data-qualified-name="API" data-entity-uid="part3" id="part3-lifeline" data-source-line="14"><g><title>API</title><rect x="896.4517" y="118.5938" width="8" height="463.4688" fill="#000000" fill-opacity="0.00000"/><line x1="900.3774" y1="118.5938" x2="900.3774" y2="582.0625" style="stroke:#75607F;stroke-width:0.5;stroke-dasharray:5,5;"/></g></g><g class="participant-lifeline" data-qualified-name="DB" data-entity-uid="part4" id="part4-lifeline" data-source-line="15"><g><title>Postgres FTS</title><rect x="1225.5327" y="118.5938" width="8" height="463.4688" fill="#000000" fill-opacity="0.00000"/><line x1="1229.3916" y1="118.5938" x2="1229.3916" y2="582.0625" style="stroke:#75607F;stroke-width:0.5;stroke-dasharray:5,5;"/></g></g><g class="participant participant-head" data-qualified-name="User" data-entity-uid="part1" id="part1-head" data-source-line="12"><text x="20" y="115.292" fill="#000000" font-size="14" lengthAdjust="spacing" textLength="31.9102" font-family="sans-serif">User</text><ellipse cx="38.9551" cy="50.7969" rx="8" ry="8" fill="#E2E2F0" style="stroke:#181818;stroke-width:0.5;"/><path d="M38.9551,58.7969 L38.9551,85.7969 M25.9551,66.7969 L51.9551,66.7969 M38.9551,85.7969 L25.9551,100.7969 M38.9551,85.7969 L51.9551,100.7969" style="stroke:#181818;stroke-width:0.5;" fill="none"/></g><g class="participant participant-tail" data-qualified-name="User" data-entity-uid="part1" id="part1-tail" data-source-line="12"><text x="20" y="594.0576" fill="#000000" font-size="14" lengthAdjust="spacing" textLength="31.9102" font-family="sans-serif">User</text><ellipse cx="38.9551" cy="605.8594" rx="8" ry="8" fill="#E2E2F0" style="stroke:#181818;stroke-width:0.5;"/><path d="M38.9551,613.8594 L38.9551,640.8594 M25.9551,621.8594 L51.9551,621.8594 M38.9551,640.8594 L25.9551,655.8594 M38.9551,640.8594 L51.9551,655.8594" style="stroke:#181818;stroke-width:0.5;" fill="none"/></g><g class="participant participant-head" data-qualified-name="SPA" data-entity-uid="part2" id="part2-head" data-source-line="13"><rect x="486.9712" y="87.2969" width="40.9063" height="30.2969" fill="#F5F0EB" style="stroke:#75607F;stroke-width:0.5;" rx="2.5" ry="2.5"/><text x="493.9712" y="107.292" fill="#2D1B35" font-size="14" lengthAdjust="spacing" textLength="26.9063" font-family="sans-serif">SPA</text></g><g class="participant participant-tail" data-qualified-name="SPA" data-entity-uid="part2" id="part2-tail" data-source-line="13"><rect x="486.9712" y="581.0625" width="40.9063" height="30.2969" fill="#F5F0EB" style="stroke:#75607F;stroke-width:0.5;" rx="2.5" ry="2.5"/><text x="493.9712" y="601.0576" fill="#2D1B35" font-size="14" lengthAdjust="spacing" textLength="26.9063" font-family="sans-serif">SPA</text></g><g class="participant participant-head" data-qualified-name="API" data-entity-uid="part3" id="part3-head" data-source-line="14"><rect x="882.3774" y="87.2969" width="36.1484" height="30.2969" fill="#F5F0EB" style="stroke:#75607F;stroke-width:0.5;" rx="2.5" ry="2.5"/><text x="889.3774" y="107.292" fill="#2D1B35" font-size="14" lengthAdjust="spacing" textLength="22.1484" font-family="sans-serif">API</text></g><g class="participant participant-tail" data-qualified-name="API" data-entity-uid="part3" id="part3-tail" data-source-line="14"><rect x="882.3774" y="581.0625" width="36.1484" height="30.2969" fill="#F5F0EB" style="stroke:#75607F;stroke-width:0.5;" rx="2.5" ry="2.5"/><text x="889.3774" y="601.0576" fill="#2D1B35" font-size="14" lengthAdjust="spacing" textLength="22.1484" font-family="sans-serif">API</text></g><g class="participant participant-head" data-qualified-name="DB" data-entity-uid="part4" id="part4-head" data-source-line="15"><text x="1181.3916" y="115.292" fill="#000000" font-size="14" lengthAdjust="spacing" textLength="90.2822" font-family="sans-serif">Postgres FTS</text><path d="M1211.5327,66.2969 C1211.5327,56.2969 1229.5327,56.2969 1229.5327,56.2969 C1229.5327,56.2969 1247.5327,56.2969 1247.5327,66.2969 L1247.5327,92.2969 C1247.5327,102.2969 1229.5327,102.2969 1229.5327,102.2969 C1229.5327,102.2969 1211.5327,102.2969 1211.5327,92.2969 L1211.5327,66.2969" style="stroke:#181818;stroke-width:0.5;" fill="#E2E2F0"/><path d="M1211.5327,66.2969 C1211.5327,76.2969 1229.5327,76.2969 1229.5327,76.2969 C1229.5327,76.2969 1247.5327,76.2969 1247.5327,66.2969" style="stroke:#181818;stroke-width:0.5;" fill="none"/></g><g class="participant participant-tail" data-qualified-name="DB" data-entity-uid="part4" id="part4-tail" data-source-line="15"><text x="1181.3916" y="594.0576" fill="#000000" font-size="14" lengthAdjust="spacing" textLength="90.2822" font-family="sans-serif">Postgres FTS</text><path d="M1211.5327,607.3594 C1211.5327,597.3594 1229.5327,597.3594 1229.5327,597.3594 C1229.5327,597.3594 1247.5327,597.3594 1247.5327,607.3594 L1247.5327,633.3594 C1247.5327,643.3594 1229.5327,643.3594 1229.5327,643.3594 C1229.5327,643.3594 1211.5327,643.3594 1211.5327,633.3594 L1211.5327,607.3594" style="stroke:#181818;stroke-width:0.5;" fill="#E2E2F0"/><path d="M1211.5327,607.3594 C1211.5327,617.3594 1229.5327,617.3594 1229.5327,617.3594 C1229.5327,617.3594 1247.5327,617.3594 1247.5327,607.3594" style="stroke:#181818;stroke-width:0.5;" fill="none"/></g><path d="M10,135.5938 L74.4429,135.5938 L74.4429,142.7266 L64.4429,152.7266 L10,152.7266 L10,135.5938" style="stroke:#000000;stroke-width:1.5;" fill="#EEEEEE"/><rect x="10" y="135.5938" width="918.5259" height="163.2734" fill="none" style="stroke:#000000;stroke-width:1.5;"/><text x="25" y="148.6606" fill="#000000" font-size="13" lengthAdjust="spacing" textLength="19.4429" font-weight="700" font-family="sans-serif">alt</text><text x="89.4429" y="147.8042" fill="#000000" font-size="11" lengthAdjust="spacing" textLength="209.5425" font-weight="700" font-family="sans-serif">[Browse recent (dashboard load)]</text><g class="message" data-entity-1="part2" data-entity-2="part3" id="msg1" data-source-line="18"><polygon points="888.4517,169.8594,898.4517,173.8594,888.4517,177.8594,892.4517,173.8594" fill="#75607F" style="stroke:#75607F;stroke-width:1;stroke-linejoin:miter;stroke-miterlimit:10;"/><line x1="507.4243" y1="173.8594" x2="894.4517" y2="173.8594" style="stroke:#75607F;stroke-width:1;"/><text x="514.4243" y="168.7935" fill="#000000" font-size="13" lengthAdjust="spacing" textLength="369.0273" font-family="sans-serif">GET /api/search?term=*&amp;sort=lastModified&amp;order=desc</text></g><line x1="10" y1="182.8594" x2="928.5259" y2="182.8594" style="stroke:#000000;stroke-width:1;stroke-dasharray:2,2;"/><text x="15" y="193.0698" fill="#000000" font-size="11" lengthAdjust="spacing" textLength="135.6094" font-weight="700" font-family="sans-serif">[Filter by #tag (chip)]</text><g class="message" data-entity-1="part2" data-entity-2="part3" id="msg2" data-source-line="20"><polygon points="888.4517,213.7969,898.4517,217.7969,888.4517,221.7969,892.4517,217.7969" fill="#75607F" style="stroke:#75607F;stroke-width:1;stroke-linejoin:miter;stroke-miterlimit:10;"/><line x1="507.4243" y1="217.7969" x2="894.4517" y2="217.7969" style="stroke:#75607F;stroke-width:1;"/><text x="514.4243" y="212.731" fill="#000000" font-size="13" lengthAdjust="spacing" textLength="213.04" font-family="sans-serif">GET /api/search?term=tags:toan</text></g><line x1="10" y1="226.7969" x2="928.5259" y2="226.7969" style="stroke:#000000;stroke-width:1;stroke-dasharray:2,2;"/><text x="15" y="237.0073" fill="#000000" font-size="11" lengthAdjust="spacing" textLength="190.8833" font-weight="700" font-family="sans-serif">[Free search (Enter, "/" focus)]</text><g class="message" data-entity-1="part1" data-entity-2="part2" id="msg3" data-source-line="22"><polygon points="495.4243,257.7344,505.4243,261.7344,495.4243,265.7344,499.4243,261.7344" fill="#75607F" style="stroke:#75607F;stroke-width:1;stroke-linejoin:miter;stroke-miterlimit:10;"/><line x1="38.9551" y1="261.7344" x2="501.4243" y2="261.7344" style="stroke:#75607F;stroke-width:1;"/><text x="45.9551" y="256.6685" fill="#000000" font-size="13" lengthAdjust="spacing" textLength="444.4692" font-family="sans-serif">type query [+ operators: #tag title: content: AND OR NOT "phrase"]</text></g><g class="message" data-entity-1="part2" data-entity-2="part3" id="msg4" data-source-line="23"><polygon points="888.4517,286.8672,898.4517,290.8672,888.4517,294.8672,892.4517,290.8672" fill="#75607F" style="stroke:#75607F;stroke-width:1;stroke-linejoin:miter;stroke-miterlimit:10;"/><line x1="507.4243" y1="290.8672" x2="894.4517" y2="290.8672" style="stroke:#75607F;stroke-width:1;"/><text x="514.4243" y="285.8013" fill="#000000" font-size="13" lengthAdjust="spacing" textLength="210.6279" font-family="sans-serif">GET /api/search?term=&lt;query></text></g><g class="message" data-entity-1="part3" data-entity-2="part3" id="msg5" data-source-line="26"><line x1="900.4517" y1="327" x2="942.4517" y2="327" style="stroke:#75607F;stroke-width:1;"/><line x1="942.4517" y1="327" x2="942.4517" y2="340" style="stroke:#75607F;stroke-width:1;"/><line x1="901.4517" y1="340" x2="942.4517" y2="340" style="stroke:#75607F;stroke-width:1;"/><polygon points="911.4517,336,901.4517,340,911.4517,344,907.4517,340" fill="#75607F" style="stroke:#75607F;stroke-width:1;stroke-linejoin:miter;stroke-miterlimit:10;"/><text x="907.4517" y="321.9341" fill="#000000" font-size="13" lengthAdjust="spacing" textLength="203.3662" font-family="sans-serif">if "#tag" -> rewrite to tag filter</text></g><g class="message" data-entity-1="part3" data-entity-2="part3" id="msg6" data-source-line="27"><line x1="900.4517" y1="369.1328" x2="942.4517" y2="369.1328" style="stroke:#75607F;stroke-width:1;"/><line x1="942.4517" y1="369.1328" x2="942.4517" y2="382.1328" style="stroke:#75607F;stroke-width:1;"/><line x1="901.4517" y1="382.1328" x2="942.4517" y2="382.1328" style="stroke:#75607F;stroke-width:1;"/><polygon points="911.4517,378.1328,901.4517,382.1328,911.4517,386.1328,907.4517,382.1328" fill="#75607F" style="stroke:#75607F;stroke-width:1;stroke-linejoin:miter;stroke-miterlimit:10;"/><text x="907.4517" y="364.0669" fill="#000000" font-size="13" lengthAdjust="spacing" textLength="176.395" font-family="sans-serif">parse operators -> tsquery</text></g><g class="message" data-entity-1="part3" data-entity-2="part4" id="msg7" data-source-line="28"><polygon points="1217.5327,407.2656,1227.5327,411.2656,1217.5327,415.2656,1221.5327,411.2656" fill="#75607F" style="stroke:#75607F;stroke-width:1;stroke-linejoin:miter;stroke-miterlimit:10;"/><line x1="900.4517" y1="411.2656" x2="1223.5327" y2="411.2656" style="stroke:#75607F;stroke-width:1;"/><text x="907.4517" y="406.1997" fill="#000000" font-size="13" lengthAdjust="spacing" textLength="305.0811" font-family="sans-serif">SELECT ts_rank(search_vec, q), ts_headline(...)</text></g><path d="M1234,424.2656 L1234,464.2656 L1433,464.2656 L1433,434.2656 L1423,424.2656 L1234,424.2656" style="stroke:#181818;stroke-width:0.5;" fill="#FEFFDD"/><path d="M1423,424.2656 L1423,434.2656 L1433,434.2656 L1423,424.2656" style="stroke:#181818;stroke-width:0.5;" fill="#FEFFDD"/><text x="1240" y="441.3325" fill="#000000" font-size="13" lengthAdjust="spacing" textLength="178.1216" font-family="sans-serif">title weighted A, content B;</text><text x="1240" y="456.4653" fill="#000000" font-size="13" lengthAdjust="spacing" textLength="177.6138" font-family="sans-serif">sort score|title|lastModified</text><g class="message" data-entity-1="part4" data-entity-2="part3" id="msg8" data-source-line="30"><polygon points="911.4517,486.6641,901.4517,490.6641,911.4517,494.6641,907.4517,490.6641" fill="#75607F" style="stroke:#75607F;stroke-width:1;stroke-linejoin:miter;stroke-miterlimit:10;"/><line x1="905.4517" y1="490.6641" x2="1228.5327" y2="490.6641" style="stroke:#75607F;stroke-width:1;stroke-dasharray:2,2;"/><text x="917.4517" y="485.5981" fill="#000000" font-size="13" lengthAdjust="spacing" textLength="30.7036" font-family="sans-serif">rows</text></g><g class="message" data-entity-1="part3" data-entity-2="part2" id="msg9" data-source-line="31"><polygon points="518.4243,530.9297,508.4243,534.9297,518.4243,538.9297,514.4243,534.9297" fill="#75607F" style="stroke:#75607F;stroke-width:1;stroke-linejoin:miter;stroke-miterlimit:10;"/><line x1="512.4243" y1="534.9297" x2="899.4517" y2="534.9297" style="stroke:#75607F;stroke-width:1;stroke-dasharray:2,2;"/><text x="524.4243" y="514.731" fill="#000000" font-size="13" lengthAdjust="spacing" textLength="224.98" font-family="sans-serif">SearchResult[] {title, lastModified,</text><text x="524.4243" y="529.8638" fill="#000000" font-size="13" lengthAdjust="spacing" textLength="306.668" font-family="sans-serif">titleHighlights, contentHighlights, tagMatches}</text></g><g class="message" data-entity-1="part2" data-entity-2="part1" id="msg10" data-source-line="32"><polygon points="49.9551,560.0625,39.9551,564.0625,49.9551,568.0625,45.9551,564.0625" fill="#75607F" style="stroke:#75607F;stroke-width:1;stroke-linejoin:miter;stroke-miterlimit:10;"/><line x1="43.9551" y1="564.0625" x2="506.4243" y2="564.0625" style="stroke:#75607F;stroke-width:1;stroke-dasharray:2,2;"/><text x="55.9551" y="558.9966" fill="#000000" font-size="13" lengthAdjust="spacing" textLength="147.9702" font-family="sans-serif">result list (highlighted)</text></g><?plantuml-src ZLJlJzim4Ftkl-8K9DHkeVoOEgOmc1hQRfCALBJx10YvzhMn27QmNReA-DztTbjejKqY-H3ftijxvtkNUELBX05oAmhGngE3cZ2FQ1tarimSWaM1sgVGLQL72wCvR7a-EO9VX9aABVU6oFZRevQkpjoTqXMt_1v6NDnDh9bgUMfAOs6h6wyrXiE7AMg1yCG0MfRybip3vkUzmouLUsgCFQKnDrQY_I_wbrEpkzV9YT7drYkXAgxzloNM2UzHwHhjb_11Up__r0oT2nh1Xlp-bt2p5yO354PbMVKc0icWtqg0Ew3d9j3g_um0FPdadeyuZJdf6-SdbhBf3WSHRkUCyT9lPWGroLqnCjnAA0sNTUgD363d9CXbyBqpX5rUgLqNu_v6STuVVzXsnlhZaZj_PgGQAvJRyIZ74frWM9ByPlIq88MgtYLER9Tvm_LInoB20eTQHnCbXMGtWR4HKnS4mw228WbduESL0Ys8dSFLnxTLonPD-B2u6GZAWuwUGUky3HUNS7unXAGgB8qjkNbFYr-ZmmcZxMMCQAziDOOaE2MXOd5cbKVm1eBvE0vaWqufRdmGLFSkQgzexJo3GQVNEHqISckvlgij6hbzH972GpqDzGAvB6cdQur6eyx25mbMJGeFPXmLuhbXXg664bhfQWIG7rtha2KuOIm-H-BpUgwidSFEgj-mE8lELlDU_0GkqKrBVtK3Jr4WXNM5z5h7wWzoBqC7xjL-lKGZEkDU5EXUM0o0B4Aqv1hLeLIEjhLOlOAo_WS0?></g></svg>