<svg xmlns="http://www.w3.org/2000/svg" xmlns:xlink="http://www.w3.org/1999/xlink" version="1.1" data-diagram-type="SEQUENCE" style="width:1229px;height:696px;background:#FFFFFF;" width="1229px" height="696px" viewBox="0 0 1229 696" zoomAndPan="magnify" preserveAspectRatio="none" contentStyleType="text/css"><?plantuml 1.2026.7beta3?><defs/><g><g class="title" data-source-line="1"><text x="382.9197" y="27.9951" fill="#000000" font-size="14" lengthAdjust="spacing" textLength="456.3467" font-weight="700" font-family="sans-serif">Generate quiz from note (incl. View note; calls AI service)</text></g><rect x="10" y="222.9922" width="1203.186" height="374.2031" fill="none" style="stroke:#000000;stroke-width:1.5;"/><rect x="20" y="426.5938" width="876.2197" height="163.6016" fill="none" style="stroke:#000000;stroke-width:1.5;"/><g class="participant-lifeline" data-qualified-name="User" data-entity-uid="part1" id="part1-lifeline" data-source-line="12"><g><title>User</title><rect x="44.9551" y="118.5938" width="8" height="495.6016" fill="#000000" fill-opacity="0.00000"/><line x1="48" y1="118.5938" x2="48" y2="614.1953" style="stroke:#75607F;stroke-width:0.5;stroke-dasharray:5,5;"/></g></g><g class="participant-lifeline" data-qualified-name="SPA" data-entity-uid="part2" id="part2-lifeline" data-source-line="13"><g><title>SPA</title><rect x="236.7173" y="118.5938" width="8" height="495.6016" fill="#000000" fill-opacity="0.00000"/><line x1="240.2642" y1="118.5938" x2="240.2642" y2="614.1953" style="stroke:#75607F;stroke-width:0.5;stroke-dasharray:5,5;"/></g></g><g class="participant-lifeline" data-qualified-name="API" data-entity-uid="part3" id="part3-lifeline" data-source-line="14"><g><title>API</title><rect x="499.2559" y="118.5938" width="8" height="495.6016" fill="#000000" fill-opacity="0.00000"/><line x1="503.1816" y1="118.5938" x2="503.1816" y2="614.1953" style="stroke:#75607F;stroke-width:0.5;stroke-dasharray:5,5;"/></g></g><g class="participant-lifeline" data-qualified-name="DB" data-entity-uid="part4" id="part4-lifeline" data-source-line="15"><g><title>Postgres</title><rect x="849.0493" y="118.5938" width="8" height="495.6016" fill="#000000" fill-opacity="0.00000"/><line x1="852.8789" y1="118.5938" x2="852.8789" y2="614.1953" style="stroke:#75607F;stroke-width:0.5;stroke-dasharray:5,5;"/></g></g><g class="participant-lifeline" data-qualified-name="AI" data-entity-uid="part5" id="part5-lifeline" data-source-line="16"><g><title>AI service</title><rect x="960.7363" y="118.5938" width="8" height="495.6016" fill="#000000" fill-opacity="0.00000"/><line x1="964.2197" y1="118.5938" x2="964.2197" y2="614.1953" style="stroke:#75607F;stroke-width:0.5;stroke-dasharray:5,5;"/></g></g><g class="participant participant-head" data-qualified-name="User" data-entity-uid="part1" id="part1-head" data-source-line="12"><text x="30" y="115.292" fill="#000000" font-size="14" lengthAdjust="spacing" textLength="31.9102" font-family="sans-serif">User</text><ellipse cx="48.9551" cy="50.7969" rx="8" ry="8" fill="#E2E2F0" style="stroke:#181818;stroke-width:0.5;"/><path d="M48.9551,58.7969 L48.9551,85.7969 M35.9551,66.7969 L61.9551,66.7969 M48.9551,85.7969 L35.9551,100.7969 M48.9551,85.7969 L61.9551,100.7969" style="stroke:#181818;stroke-width:0.5;" fill="none"/></g><g class="participant participant-tail" data-qualified-name="User" data-entity-uid="part1" id="part1-tail" data-source-line="12"><text x="30" y="626.1904" fill="#000000" font-size="14" lengthAdjust="spacing" textLength="31.9102" font-family="sans-serif">User</text><ellipse cx="48.9551" cy="637.9922" rx="8" ry="8" fill="#E2E2F0" style="stroke:#181818;stroke-width:0.5;"/><path d="M48.9551,645.9922 L48.9551,672.9922 M35.9551,653.9922 L61.9551,653.9922 M48.9551,672.9922 L35.9551,687.9922 M48.9551,672.9922 L61.9551,687.9922" style="stroke:#181818;stroke-width:0.5;" fill="none"/></g><g class="participant participant-head" data-qualified-name="SPA" data-entity-uid="part2" id="part2-head" data-source-line="13"><rect x="220.2642" y="87.2969" width="40.9063" height="30.2969" fill="#F5F0EB" style="stroke:#75607F;stroke-width:0.5;" rx="2.5" ry="2.5"/><text x="227.2642" y="107.292" fill="#2D1B35" font-size="14" lengthAdjust="spacing" textLength="26.9063" font-family="sans-serif">SPA</text></g><g class="participant participant-tail" data-qualified-name="SPA" data-entity-uid="part2" id="part2-tail" data-source-line="13"><rect x="220.2642" y="613.1953" width="40.9063" height="30.2969" fill="#F5F0EB" style="stroke:#75607F;stroke-width:0.5;" rx="2.5" ry="2.5"/><text x="227.2642" y="633.1904" fill="#2D1B35" font-size="14" lengthAdjust="spacing" textLength="26.9063" font-family="sans-serif">SPA</text></g><g class="participant participant-head" data-qualified-name="API" data-entity-uid="part3" id="part3-head" data-source-line="14"><rect x="485.1816" y="87.2969" width="36.1484" height="30.2969" fill="#F5F0EB" style="stroke:#75607F;stroke-width:0.5;" rx="2.5" ry="2.5"/><text x="492.1816" y="107.292" fill="#2D1B35" font-size="14" lengthAdjust="spacing" textLength="22.1484" font-family="sans-serif">API</text></g><g class="participant participant-tail" data-qualified-name="API" data-entity-uid="part3" id="part3-tail" data-source-line="14"><rect x="485.1816" y="613.1953" width="36.1484" height="30.2969" fill="#F5F0EB" style="stroke:#75607F;stroke-width:0.5;" rx="2.5" ry="2.5"/><text x="492.1816" y="633.1904" fill="#2D1B35" font-size="14" lengthAdjust="spacing" textLength="22.1484" font-family="sans-serif">API</text></g><g class="participant participant-head" data-qualified-name="DB" data-entity-uid="part4" id="part4-head" data-source-line="15"><text x="819.8789" y="115.292" fill="#000000" font-size="14" lengthAdjust="spacing" textLength="60.3408" font-family="sans-serif">Postgres</text><path d="M835.0493,66.2969 C835.0493,56.2969 853.0493,56.2969 853.0493,56.2969 C853.0493,56.2969 871.0493,56.2969 871.0493,66.2969 L871.0493,92.2969 C871.0493,102.2969 853.0493,102.2969 853.0493,102.2969 C853.0493,102.2969 835.0493,102.2969 835.0493,92.2969 L835.0493,66.2969" style="stroke:#181818;stroke-width:0.5;" fill="#E2E2F0"/><path d="M835.0493,66.2969 C835.0493,76.2969 853.0493,76.2969 853.0493,76.2969 C853.0493,76.2969 871.0493,76.2969 871.0493,66.2969" style="stroke:#181818;stroke-width:0.5;" fill="none"/></g><g class="participant participant-tail" data-qualified-name="DB" data-entity-uid="part4" id="part4-tail" data-source-line="15"><text x="819.8789" y="626.1904" fill="#000000" font-size="14" lengthAdjust="spacing" textLength="60.3408" font-family="sans-serif">Postgres</text><path d="M835.0493,639.4922 C835.0493,629.4922 853.0493,629.4922 853.0493,629.4922 C853.0493,629.4922 871.0493,629.4922 871.0493,639.4922 L871.0493,665.4922 C871.0493,675.4922 853.0493,675.4922 853.0493,675.4922 C853.0493,675.4922 835.0493,675.4922 835.0493,665.4922 L835.0493,639.4922" style="stroke:#181818;stroke-width:0.5;" fill="#E2E2F0"/><path d="M835.0493,639.4922 C835.0493,649.4922 853.0493,649.4922 853.0493,649.4922 C853.0493,649.4922 871.0493,649.4922 871.0493,639.4922" style="stroke:#181818;stroke-width:0.5;" fill="none"/></g><g class="participant participant-head" data-qualified-name="AI" data-entity-uid="part5" id="part5-head" data-source-line="16"><rect x="896.2197" y="71" width="137.0332" height="46.5938" fill="#F5F0EB" style="stroke:#75607F;stroke-width:0.5;" rx="2.5" ry="2.5"/><text x="930.584" y="90.9951" fill="#2D1B35" font-size="14" lengthAdjust="spacing" textLength="68.3047" font-family="sans-serif">AI service</text><text x="903.2197" y="107.292" fill="#2D1B35" font-size="14" lengthAdjust="spacing" textLength="123.0332" font-family="sans-serif">(non-Claude LLM)</text></g><g class="participant participant-tail" data-qualified-name="AI" data-entity-uid="part5" id="part5-tail" data-source-line="16"><rect x="896.2197" y="613.1953" width="137.0332" height="46.5938" fill="#F5F0EB" style="stroke:#75607F;stroke-width:0.5;" rx="2.5" ry="2.5"/><text x="930.584" y="633.1904" fill="#2D1B35" font-size="14" lengthAdjust="spacing" textLength="68.3047" font-family="sans-serif">AI service</text><text x="903.2197" y="649.4873" fill="#2D1B35" font-size="14" lengthAdjust="spacing" textLength="123.0332" font-family="sans-serif">(non-Claude LLM)</text></g><g class="message" data-entity-1="part1" data-entity-2="part2" id="msg1" data-source-line="18"><polygon points="228.7173,145.7266,238.7173,149.7266,228.7173,153.7266,232.7173,149.7266" fill="#75607F" style="stroke:#75607F;stroke-width:1;stroke-linejoin:miter;stroke-miterlimit:10;"/><line x1="48.9551" y1="149.7266" x2="234.7173" y2="149.7266" style="stroke:#75607F;stroke-width:1;"/><text x="55.9551" y="144.6606" fill="#000000" font-size="13" lengthAdjust="spacing" textLength="167.7622" font-family="sans-serif">Generate quiz (on a note)</text></g><g class="message" data-entity-1="part2" data-entity-2="part3" id="msg2" data-source-line="19"><polygon points="491.2559,174.8594,501.2559,178.8594,491.2559,182.8594,495.2559,178.8594" fill="#75607F" style="stroke:#75607F;stroke-width:1;stroke-linejoin:miter;stroke-miterlimit:10;"/><line x1="240.7173" y1="178.8594" x2="497.2559" y2="178.8594" style="stroke:#75607F;stroke-width:1;"/><text x="247.7173" y="173.7935" fill="#000000" font-size="13" lengthAdjust="spacing" textLength="238.5386" font-family="sans-serif">POST /api/notes/{title}/quiz (Bearer)</text></g><g class="message" data-entity-1="part3" data-entity-2="part4" id="msg3" data-source-line="20"><polygon points="841.0493,203.9922,851.0493,207.9922,841.0493,211.9922,845.0493,207.9922" fill="#75607F" style="stroke:#75607F;stroke-width:1;stroke-linejoin:miter;stroke-miterlimit:10;"/><line x1="503.2559" y1="207.9922" x2="847.0493" y2="207.9922" style="stroke:#75607F;stroke-width:1;"/><text x="510.2559" y="202.9263" fill="#000000" font-size="13" lengthAdjust="spacing" textLength="325.7935" font-family="sans-serif">SELECT note (owner_id, title)  // include View note</text></g><path d="M10,222.9922 L74.4429,222.9922 L74.4429,230.125 L64.4429,240.125 L10,240.125 L10,222.9922" style="stroke:#000000;stroke-width:1.5;" fill="#EEEEEE"/><rect x="10" y="222.9922" width="1203.186" height="374.2031" fill="none" style="stroke:#000000;stroke-width:1.5;"/><text x="25" y="236.0591" fill="#000000" font-size="13" lengthAdjust="spacing" textLength="19.4429" font-weight="700" font-family="sans-serif">alt</text><text x="89.4429" y="235.2026" fill="#000000" font-size="11" lengthAdjust="spacing" textLength="57.8574" font-weight="700" font-family="sans-serif">[missing]</text><g class="message" data-entity-1="part3" data-entity-2="part2" id="msg4" data-source-line="22"><polygon points="251.7173,257.2578,241.7173,261.2578,251.7173,265.2578,247.7173,261.2578" fill="#75607F" style="stroke:#75607F;stroke-width:1;stroke-linejoin:miter;stroke-miterlimit:10;"/><line x1="245.7173" y1="261.2578" x2="502.2559" y2="261.2578" style="stroke:#75607F;stroke-width:1;stroke-dasharray:2,2;"/><text x="257.7173" y="256.1919" fill="#000000" font-size="13" lengthAdjust="spacing" textLength="163.8521" font-family="sans-serif">404 "...cannot be found."</text></g><line x1="10" y1="270.2578" x2="1213.186" y2="270.2578" style="stroke:#000000;stroke-width:1;stroke-dasharray:2,2;"/><text x="15" y="280.4683" fill="#000000" font-size="11" lengthAdjust="spacing" textLength="24.9272" font-weight="700" font-family="sans-serif">[ok]</text><g class="message" data-entity-1="part3" data-entity-2="part5" id="msg5" data-source-line="24"><polygon points="952.7363,301.1953,962.7363,305.1953,952.7363,309.1953,956.7363,305.1953" fill="#75607F" style="stroke:#75607F;stroke-width:1;stroke-linejoin:miter;stroke-miterlimit:10;"/><line x1="503.2559" y1="305.1953" x2="958.7363" y2="305.1953" style="stroke:#75607F;stroke-width:1;"/><text x="510.2559" y="300.1294" fill="#000000" font-size="13" lengthAdjust="spacing" textLength="330.5859" font-family="sans-serif">prompt(note content) -> N MCQ (4 opts, 1 correct)</text></g><path d="M969,318.1953 L969,343.1953 L1203,343.1953 L1203,328.1953 L1193,318.1953 L969,318.1953" style="stroke:#181818;stroke-width:0.5;" fill="#FEFFDD"/><path d="M1193,318.1953 L1193,328.1953 L1203,328.1953 L1193,318.1953" style="stroke:#181818;stroke-width:0.5;" fill="#FEFFDD"/><text x="975" y="335.2622" fill="#000000" font-size="13" lengthAdjust="spacing" textLength="213.186" font-family="sans-serif">synchronous; SPA shows spinner</text><g class="message" data-entity-1="part5" data-entity-2="part3" id="msg6" data-source-line="26"><polygon points="514.2559,365.4609,504.2559,369.4609,514.2559,373.4609,510.2559,369.4609" fill="#75607F" style="stroke:#75607F;stroke-width:1;stroke-linejoin:miter;stroke-miterlimit:10;"/><line x1="508.2559" y1="369.4609" x2="963.7363" y2="369.4609" style="stroke:#75607F;stroke-width:1;stroke-dasharray:2,2;"/><text x="520.2559" y="364.395" fill="#000000" font-size="13" lengthAdjust="spacing" textLength="99.1123" font-family="sans-serif">questions JSON</text></g><g class="message" data-entity-1="part3" data-entity-2="part3" id="msg7" data-source-line="27"><line x1="503.2559" y1="398.5938" x2="545.2559" y2="398.5938" style="stroke:#75607F;stroke-width:1;"/><line x1="545.2559" y1="398.5938" x2="545.2559" y2="411.5938" style="stroke:#75607F;stroke-width:1;"/><line x1="504.2559" y1="411.5938" x2="545.2559" y2="411.5938" style="stroke:#75607F;stroke-width:1;"/><polygon points="514.2559,407.5938,504.2559,411.5938,514.2559,415.5938,510.2559,411.5938" fill="#75607F" style="stroke:#75607F;stroke-width:1;stroke-linejoin:miter;stroke-miterlimit:10;"/><text x="510.2559" y="393.5278" fill="#000000" font-size="13" lengthAdjust="spacing" textLength="244.4927" font-family="sans-serif">validate schema (4 opts, one correct)</text></g><path d="M20,426.5938 L84.4429,426.5938 L84.4429,433.7266 L74.4429,443.7266 L20,443.7266 L20,426.5938" style="stroke:#000000;stroke-width:1.5;" fill="#EEEEEE"/><rect x="20" y="426.5938" width="876.2197" height="163.6016" fill="none" style="stroke:#000000;stroke-width:1.5;"/><text x="35" y="439.6606" fill="#000000" font-size="13" lengthAdjust="spacing" textLength="19.4429" font-weight="700" font-family="sans-serif">alt</text><text x="99.4429" y="438.8042" fill="#000000" font-size="11" lengthAdjust="spacing" textLength="84.1274" font-weight="700" font-family="sans-serif">[bad / empty]</text><g class="message" data-entity-1="part3" data-entity-2="part2" id="msg8" data-source-line="29"><polygon points="251.7173,460.8594,241.7173,464.8594,251.7173,468.8594,247.7173,464.8594" fill="#75607F" style="stroke:#75607F;stroke-width:1;stroke-linejoin:miter;stroke-miterlimit:10;"/><line x1="245.7173" y1="464.8594" x2="502.2559" y2="464.8594" style="stroke:#75607F;stroke-width:1;stroke-dasharray:2,2;"/><text x="257.7173" y="459.7935" fill="#000000" font-size="13" lengthAdjust="spacing" textLength="185.5483" font-family="sans-serif">502 generation failed (retry)</text></g><line x1="20" y1="473.8594" x2="896.2197" y2="473.8594" style="stroke:#000000;stroke-width:1;stroke-dasharray:2,2;"/><text x="25" y="484.0698" fill="#000000" font-size="11" lengthAdjust="spacing" textLength="24.9272" font-weight="700" font-family="sans-serif">[ok]</text><g class="message" data-entity-1="part3" data-entity-2="part4" id="msg9" data-source-line="31"><polygon points="841.0493,519.9297,851.0493,523.9297,841.0493,527.9297,845.0493,523.9297" fill="#75607F" style="stroke:#75607F;stroke-width:1;stroke-linejoin:miter;stroke-miterlimit:10;"/><line x1="503.2559" y1="523.9297" x2="847.0493" y2="523.9297" style="stroke:#75607F;stroke-width:1;"/><text x="510.2559" y="503.731" fill="#000000" font-size="13" lengthAdjust="spacing" textLength="227.646" font-family="sans-serif">UPSERT quiz (FK note) + questions</text><text x="510.2559" y="518.8638" fill="#000000" font-size="13" lengthAdjust="spacing" textLength="141.8384" font-family="sans-serif">(regen replaces prior)</text></g><g class="message" data-entity-1="part3" data-entity-2="part2" id="msg10" data-source-line="32"><polygon points="251.7173,549.0625,241.7173,553.0625,251.7173,557.0625,247.7173,553.0625" fill="#75607F" style="stroke:#75607F;stroke-width:1;stroke-linejoin:miter;stroke-miterlimit:10;"/><line x1="245.7173" y1="553.0625" x2="502.2559" y2="553.0625" style="stroke:#75607F;stroke-width:1;stroke-dasharray:2,2;"/><text x="257.7173" y="547.9966" fill="#000000" font-size="13" lengthAdjust="spacing" textLength="171.7358" font-family="sans-serif">200 Quiz {id, questions[]}</text></g><g class="message" data-entity-1="part2" data-entity-2="part1" id="msg11" data-source-line="33"><polygon points="59.9551,578.1953,49.9551,582.1953,59.9551,586.1953,55.9551,582.1953" fill="#75607F" style="stroke:#75607F;stroke-width:1;stroke-linejoin:miter;stroke-miterlimit:10;"/><line x1="53.9551" y1="582.1953" x2="239.7173" y2="582.1953" style="stroke:#75607F;stroke-width:1;stroke-dasharray:2,2;"/><text x="65.9551" y="577.1294" fill="#000000" font-size="13" lengthAdjust="spacing" textLength="82.2085" font-family="sans-serif">-> Take quiz</text></g><?plantuml-src ZLBHRjf047o_hrZH5wmcc51eAY9L0W8LBKcSGlhILjLnNk24kNFkZg0quj-xQmWGqagrPLc-cPqTpsxG8KFuX0QT30ZtI_qR9iukm5ZwB6kZiWfyqxWg3Yv0oIppqEg3H_UW5KR2pxN9fPCB64irdpgxD6d7PjR1crvn7J0ytY_HA8Gd0T1opgwspFF6--fvZmu7Ue83RR1jNOhkd-YhJerUjTicHY9Tq4hdqeI_InmI_aUbPqtOmhNBi_Qx1ZjNmReNycSV-1Ph8Hc2Eqf7v7iHA0sJLWca1tg_15f9lm3eBL8Pv5XwX59YVPWwz0LqsJugsQN_mvIDDQUTJ2vJXC7WAjfezOLW2t3waHisZ-PRjWPaCSz84Cmiwjw4v6OuWbZcEcRCnq-1bsCTRuhQA1swI12LAoxRJHXs1ztEQBigTaKzVkdq18go222EWVU7hUqsICWim49xhysKasInPvVrQXrAbKf5IKDK62DCU3YLai2CGh7pvmBoItPpMjCyb8lkYgQ49aICNSDLvnRATR1vy2TmHg1pg494vGNPwUaiW9qKAlxHg9cpnYxz1Ti0FxCh3pxNXlw7EsuS5WdHzlgWhV7mUNXpVM27mGUPwPH3zcg62xbtO0qUUk04nZA5693yFzB9KGwDQWsccubHBvX8dM4APOV1FRB0FesT0Px6NJBiVXrjHzpxiXamlDsRfcrnICBWCC-aGayHQkkYrmvgrIhSiiuJptCdyFtdkk0MIqDSth4cjn_9-MQts9r91Jr_0000?></g></svg>