<svg xmlns="http://www.w3.org/2000/svg" xmlns:xlink="http://www.w3.org/1999/xlink" version="1.1" data-diagram-type="SEQUENCE" style="width:1142px;height:755px;background:#FFFFFF;" width="1142px" height="755px" viewBox="0 0 1142 755" zoomAndPan="magnify" preserveAspectRatio="none" contentStyleType="text/css"><?plantuml 1.2026.7beta3?><defs/><g><g class="title" data-source-line="1"><text x="306.3613" y="27.9951" fill="#000000" font-size="14" lengthAdjust="spacing" textLength="523.1816" font-weight="700" font-family="sans-serif">Take quiz (incl. Generate if none, View result; feeds Review SM-2)</text></g><rect x="282.606" y="193.8594" width="431.1216" height="148.4688" fill="none" style="stroke:#000000;stroke-width:1.5;"/><rect x="10" y="356.3281" width="333.5122" height="46.2656" fill="none" style="stroke:#000000;stroke-width:1.5;"/><g class="participant-lifeline" data-qualified-name="User" data-entity-uid="part1" id="part1-lifeline" data-source-line="12"><g><title>User</title><rect x="34.9551" y="118.5938" width="8" height="554.1953" fill="#000000" fill-opacity="0.00000"/><line x1="38" y1="118.5938" x2="38" y2="672.7891" style="stroke:#75607F;stroke-width:0.5;stroke-dasharray:5,5;"/></g></g><g class="participant-lifeline" data-qualified-name="SPA" data-entity-uid="part2" id="part2-lifeline" data-source-line="13"><g><title>SPA</title><rect x="309.0591" y="118.5938" width="8" height="554.1953" fill="#000000" fill-opacity="0.00000"/><line x1="312.606" y1="118.5938" x2="312.606" y2="672.7891" style="stroke:#75607F;stroke-width:0.5;stroke-dasharray:5,5;"/></g></g><g class="participant-lifeline" data-qualified-name="API" data-entity-uid="part3" id="part3-lifeline" data-source-line="14"><g><title>API</title><rect x="681.6533" y="118.5938" width="8" height="554.1953" fill="#000000" fill-opacity="0.00000"/><line x1="685.5791" y1="118.5938" x2="685.5791" y2="672.7891" style="stroke:#75607F;stroke-width:0.5;stroke-dasharray:5,5;"/></g></g><g class="participant-lifeline" data-qualified-name="DB" data-entity-uid="part4" id="part4-lifeline" data-source-line="15"><g><title>Postgres</title><rect x="918.4077" y="118.5938" width="8" height="554.1953" fill="#000000" fill-opacity="0.00000"/><line x1="922.2373" y1="118.5938" x2="922.2373" y2="672.7891" style="stroke:#75607F;stroke-width:0.5;stroke-dasharray:5,5;"/></g></g><g class="participant participant-head" data-qualified-name="User" data-entity-uid="part1" id="part1-head" data-source-line="12"><text x="20" y="115.292" fill="#000000" font-size="14" lengthAdjust="spacing" textLength="31.9102" font-family="sans-serif">User</text><ellipse cx="38.9551" cy="50.7969" rx="8" ry="8" fill="#E2E2F0" style="stroke:#181818;stroke-width:0.5;"/><path d="M38.9551,58.7969 L38.9551,85.7969 M25.9551,66.7969 L51.9551,66.7969 M38.9551,85.7969 L25.9551,100.7969 M38.9551,85.7969 L51.9551,100.7969" style="stroke:#181818;stroke-width:0.5;" fill="none"/></g><g class="participant participant-tail" data-qualified-name="User" data-entity-uid="part1" id="part1-tail" data-source-line="12"><text x="20" y="684.7842" fill="#000000" font-size="14" lengthAdjust="spacing" textLength="31.9102" font-family="sans-serif">User</text><ellipse cx="38.9551" cy="696.5859" rx="8" ry="8" fill="#E2E2F0" style="stroke:#181818;stroke-width:0.5;"/><path d="M38.9551,704.5859 L38.9551,731.5859 M25.9551,712.5859 L51.9551,712.5859 M38.9551,731.5859 L25.9551,746.5859 M38.9551,731.5859 L51.9551,746.5859" style="stroke:#181818;stroke-width:0.5;" fill="none"/></g><g class="participant participant-head" data-qualified-name="SPA" data-entity-uid="part2" id="part2-head" data-source-line="13"><rect x="292.606" y="87.2969" width="40.9063" height="30.2969" fill="#F5F0EB" style="stroke:#75607F;stroke-width:0.5;" rx="2.5" ry="2.5"/><text x="299.606" y="107.292" fill="#2D1B35" font-size="14" lengthAdjust="spacing" textLength="26.9063" font-family="sans-serif">SPA</text></g><g class="participant participant-tail" data-qualified-name="SPA" data-entity-uid="part2" id="part2-tail" data-source-line="13"><rect x="292.606" y="671.7891" width="40.9063" height="30.2969" fill="#F5F0EB" style="stroke:#75607F;stroke-width:0.5;" rx="2.5" ry="2.5"/><text x="299.606" y="691.7842" fill="#2D1B35" font-size="14" lengthAdjust="spacing" textLength="26.9063" font-family="sans-serif">SPA</text></g><g class="participant participant-head" data-qualified-name="API" data-entity-uid="part3" id="part3-head" data-source-line="14"><rect x="667.5791" y="87.2969" width="36.1484" height="30.2969" fill="#F5F0EB" style="stroke:#75607F;stroke-width:0.5;" rx="2.5" ry="2.5"/><text x="674.5791" y="107.292" fill="#2D1B35" font-size="14" lengthAdjust="spacing" textLength="22.1484" font-family="sans-serif">API</text></g><g class="participant participant-tail" data-qualified-name="API" data-entity-uid="part3" id="part3-tail" data-source-line="14"><rect x="667.5791" y="671.7891" width="36.1484" height="30.2969" fill="#F5F0EB" style="stroke:#75607F;stroke-width:0.5;" rx="2.5" ry="2.5"/><text x="674.5791" y="691.7842" fill="#2D1B35" font-size="14" lengthAdjust="spacing" textLength="22.1484" font-family="sans-serif">API</text></g><g class="participant participant-head" data-qualified-name="DB" data-entity-uid="part4" id="part4-head" data-source-line="15"><text x="889.2373" y="115.292" fill="#000000" font-size="14" lengthAdjust="spacing" textLength="60.3408" font-family="sans-serif">Postgres</text><path d="M904.4077,66.2969 C904.4077,56.2969 922.4077,56.2969 922.4077,56.2969 C922.4077,56.2969 940.4077,56.2969 940.4077,66.2969 L940.4077,92.2969 C940.4077,102.2969 922.4077,102.2969 922.4077,102.2969 C922.4077,102.2969 904.4077,102.2969 904.4077,92.2969 L904.4077,66.2969" style="stroke:#181818;stroke-width:0.5;" fill="#E2E2F0"/><path d="M904.4077,66.2969 C904.4077,76.2969 922.4077,76.2969 922.4077,76.2969 C922.4077,76.2969 940.4077,76.2969 940.4077,66.2969" style="stroke:#181818;stroke-width:0.5;" fill="none"/></g><g class="participant participant-tail" data-qualified-name="DB" data-entity-uid="part4" id="part4-tail" data-source-line="15"><text x="889.2373" y="684.7842" fill="#000000" font-size="14" lengthAdjust="spacing" textLength="60.3408" font-family="sans-serif">Postgres</text><path d="M904.4077,698.0859 C904.4077,688.0859 922.4077,688.0859 922.4077,688.0859 C922.4077,688.0859 940.4077,688.0859 940.4077,698.0859 L940.4077,724.0859 C940.4077,734.0859 922.4077,734.0859 922.4077,734.0859 C922.4077,734.0859 904.4077,734.0859 904.4077,724.0859 L904.4077,698.0859" style="stroke:#181818;stroke-width:0.5;" fill="#E2E2F0"/><path d="M904.4077,698.0859 C904.4077,708.0859 922.4077,708.0859 922.4077,708.0859 C922.4077,708.0859 940.4077,708.0859 940.4077,698.0859" style="stroke:#181818;stroke-width:0.5;" fill="none"/></g><g class="message" data-entity-1="part1" data-entity-2="part2" id="msg1" data-source-line="17"><polygon points="301.0591,145.7266,311.0591,149.7266,301.0591,153.7266,305.0591,149.7266" fill="#75607F" style="stroke:#75607F;stroke-width:1;stroke-linejoin:miter;stroke-miterlimit:10;"/><line x1="38.9551" y1="149.7266" x2="307.0591" y2="149.7266" style="stroke:#75607F;stroke-width:1;"/><text x="45.9551" y="144.6606" fill="#000000" font-size="13" lengthAdjust="spacing" textLength="138.4805" font-family="sans-serif">Take quiz (on a note)</text></g><g class="message" data-entity-1="part2" data-entity-2="part3" id="msg2" data-source-line="18"><polygon points="673.6533,174.8594,683.6533,178.8594,673.6533,182.8594,677.6533,178.8594" fill="#75607F" style="stroke:#75607F;stroke-width:1;stroke-linejoin:miter;stroke-miterlimit:10;"/><line x1="313.0591" y1="178.8594" x2="679.6533" y2="178.8594" style="stroke:#75607F;stroke-width:1;"/><text x="320.0591" y="173.7935" fill="#000000" font-size="13" lengthAdjust="spacing" textLength="172.6563" font-family="sans-serif">GET /api/notes/{title}/quiz</text></g><path d="M282.606,193.8594 L347.0488,193.8594 L347.0488,200.9922 L337.0488,210.9922 L282.606,210.9922 L282.606,193.8594" style="stroke:#000000;stroke-width:1.5;" fill="#EEEEEE"/><rect x="282.606" y="193.8594" width="431.1216" height="148.4688" fill="none" style="stroke:#000000;stroke-width:1.5;"/><text x="297.606" y="206.9263" fill="#000000" font-size="13" lengthAdjust="spacing" textLength="19.4429" font-weight="700" font-family="sans-serif">alt</text><text x="362.0488" y="206.0698" fill="#000000" font-size="11" lengthAdjust="spacing" textLength="78.8691" font-weight="700" font-family="sans-serif">[no quiz yet]</text><g class="message" data-entity-1="part3" data-entity-2="part2" id="msg3" data-source-line="20"><polygon points="324.0591,228.125,314.0591,232.125,324.0591,236.125,320.0591,232.125" fill="#75607F" style="stroke:#75607F;stroke-width:1;stroke-linejoin:miter;stroke-miterlimit:10;"/><line x1="318.0591" y1="232.125" x2="684.6533" y2="232.125" style="stroke:#75607F;stroke-width:1;stroke-dasharray:2,2;"/><text x="330.0591" y="227.0591" fill="#000000" font-size="13" lengthAdjust="spacing" textLength="24.813" font-family="sans-serif">404</text></g><g class="message" data-entity-1="part2" data-entity-2="part3" id="msg4" data-source-line="21"><polygon points="673.6533,257.2578,683.6533,261.2578,673.6533,265.2578,677.6533,261.2578" fill="#75607F" style="stroke:#75607F;stroke-width:1;stroke-linejoin:miter;stroke-miterlimit:10;"/><line x1="313.0591" y1="261.2578" x2="679.6533" y2="261.2578" style="stroke:#75607F;stroke-width:1;"/><text x="320.0591" y="256.1919" fill="#000000" font-size="13" lengthAdjust="spacing" textLength="348.5942" font-family="sans-serif">POST .../quiz  (Generate from note -- see diagram 10)</text></g><g class="message" data-entity-1="part3" data-entity-2="part2" id="msg5" data-source-line="22"><polygon points="324.0591,286.3906,314.0591,290.3906,324.0591,294.3906,320.0591,290.3906" fill="#75607F" style="stroke:#75607F;stroke-width:1;stroke-linejoin:miter;stroke-miterlimit:10;"/><line x1="318.0591" y1="290.3906" x2="684.6533" y2="290.3906" style="stroke:#75607F;stroke-width:1;stroke-dasharray:2,2;"/><text x="330.0591" y="285.3247" fill="#000000" font-size="13" lengthAdjust="spacing" textLength="28.9072" font-family="sans-serif">Quiz</text></g><line x1="282.606" y1="299.3906" x2="713.7275" y2="299.3906" style="stroke:#000000;stroke-width:1;stroke-dasharray:2,2;"/><text x="287.606" y="309.6011" fill="#000000" font-size="11" lengthAdjust="spacing" textLength="46.7339" font-weight="700" font-family="sans-serif">[exists]</text><g class="message" data-entity-1="part3" data-entity-2="part2" id="msg6" data-source-line="24"><polygon points="324.0591,330.3281,314.0591,334.3281,324.0591,338.3281,320.0591,334.3281" fill="#75607F" style="stroke:#75607F;stroke-width:1;stroke-linejoin:miter;stroke-miterlimit:10;"/><line x1="318.0591" y1="334.3281" x2="684.6533" y2="334.3281" style="stroke:#75607F;stroke-width:1;stroke-dasharray:2,2;"/><text x="330.0591" y="329.2622" fill="#000000" font-size="13" lengthAdjust="spacing" textLength="233.5239" font-family="sans-serif">Quiz {questions[] without answers}</text></g><path d="M10,356.3281 L86.624,356.3281 L86.624,363.4609 L76.624,373.4609 L10,373.4609 L10,356.3281" style="stroke:#000000;stroke-width:1.5;" fill="#EEEEEE"/><rect x="10" y="356.3281" width="333.5122" height="46.2656" fill="none" style="stroke:#000000;stroke-width:1.5;"/><text x="25" y="369.395" fill="#000000" font-size="13" lengthAdjust="spacing" textLength="31.624" font-weight="700" font-family="sans-serif">loop</text><text x="101.624" y="368.5386" fill="#000000" font-size="11" lengthAdjust="spacing" textLength="97.249" font-weight="700" font-family="sans-serif">[each question]</text><g class="message" data-entity-1="part1" data-entity-2="part2" id="msg7" data-source-line="28"><polygon points="301.0591,390.5938,311.0591,394.5938,301.0591,398.5938,305.0591,394.5938" fill="#75607F" style="stroke:#75607F;stroke-width:1;stroke-linejoin:miter;stroke-miterlimit:10;"/><line x1="38.9551" y1="394.5938" x2="307.0591" y2="394.5938" style="stroke:#75607F;stroke-width:1;"/><text x="45.9551" y="389.5278" fill="#000000" font-size="13" lengthAdjust="spacing" textLength="135.9414" font-family="sans-serif">pick one of 4 options</text></g><g class="message" data-entity-1="part2" data-entity-2="part3" id="msg8" data-source-line="30"><polygon points="673.6533,426.7266,683.6533,430.7266,673.6533,434.7266,677.6533,430.7266" fill="#75607F" style="stroke:#75607F;stroke-width:1;stroke-linejoin:miter;stroke-miterlimit:10;"/><line x1="313.0591" y1="430.7266" x2="679.6533" y2="430.7266" style="stroke:#75607F;stroke-width:1;"/><text x="320.0591" y="425.6606" fill="#000000" font-size="13" lengthAdjust="spacing" textLength="314.2534" font-family="sans-serif">POST /api/notes/{title}/quiz/submit {answers[]}</text></g><g class="message" data-entity-1="part3" data-entity-2="part4" id="msg9" data-source-line="31"><polygon points="910.4077,455.8594,920.4077,459.8594,910.4077,463.8594,914.4077,459.8594" fill="#75607F" style="stroke:#75607F;stroke-width:1;stroke-linejoin:miter;stroke-miterlimit:10;"/><line x1="685.6533" y1="459.8594" x2="916.4077" y2="459.8594" style="stroke:#75607F;stroke-width:1;"/><text x="692.6533" y="454.7935" fill="#000000" font-size="13" lengthAdjust="spacing" textLength="156.9648" font-family="sans-serif">SELECT correct answers</text></g><g class="message" data-entity-1="part3" data-entity-2="part3" id="msg10" data-source-line="32"><line x1="685.6533" y1="488.9922" x2="727.6533" y2="488.9922" style="stroke:#75607F;stroke-width:1;"/><line x1="727.6533" y1="488.9922" x2="727.6533" y2="501.9922" style="stroke:#75607F;stroke-width:1;"/><line x1="686.6533" y1="501.9922" x2="727.6533" y2="501.9922" style="stroke:#75607F;stroke-width:1;"/><polygon points="696.6533,497.9922,686.6533,501.9922,696.6533,505.9922,692.6533,501.9922" fill="#75607F" style="stroke:#75607F;stroke-width:1;stroke-linejoin:miter;stroke-miterlimit:10;"/><text x="692.6533" y="483.9263" fill="#000000" font-size="13" lengthAdjust="spacing" textLength="130.8252" font-family="sans-serif">auto-grade -> score</text></g><g class="message" data-entity-1="part3" data-entity-2="part4" id="msg11" data-source-line="33"><polygon points="910.4077,527.125,920.4077,531.125,910.4077,535.125,914.4077,531.125" fill="#75607F" style="stroke:#75607F;stroke-width:1;stroke-linejoin:miter;stroke-miterlimit:10;"/><line x1="685.6533" y1="531.125" x2="916.4077" y2="531.125" style="stroke:#75607F;stroke-width:1;"/><text x="692.6533" y="526.0591" fill="#000000" font-size="13" lengthAdjust="spacing" textLength="212.7544" font-family="sans-serif">INSERT quiz_attempt {score, ts}</text></g><path d="M927,544.125 L927,599.125 L1131,599.125 L1131,554.125 L1121,544.125 L927,544.125" style="stroke:#181818;stroke-width:0.5;" fill="#FEFFDD"/><path d="M1121,544.125 L1121,554.125 L1131,554.125 L1121,544.125" style="stroke:#181818;stroke-width:0.5;" fill="#FEFFDD"/><text x="933" y="561.1919" fill="#000000" font-size="13" lengthAdjust="spacing" textLength="177.5757" font-family="sans-serif">feeds Review: update SM-2</text><text x="933" y="576.3247" fill="#000000" font-size="13" lengthAdjust="spacing" textLength="174.7827" font-family="sans-serif">interval+ease on the note;</text><text x="933" y="591.4575" fill="#000000" font-size="13" lengthAdjust="spacing" textLength="183.9043" font-family="sans-serif">bumps streak (today active)</text><g class="message" data-entity-1="part3" data-entity-2="part2" id="msg12" data-source-line="35"><polygon points="324.0591,621.6563,314.0591,625.6563,324.0591,629.6563,320.0591,625.6563" fill="#75607F" style="stroke:#75607F;stroke-width:1;stroke-linejoin:miter;stroke-miterlimit:10;"/><line x1="318.0591" y1="625.6563" x2="684.6533" y2="625.6563" style="stroke:#75607F;stroke-width:1;stroke-dasharray:2,2;"/><text x="330.0591" y="620.5903" fill="#000000" font-size="13" lengthAdjust="spacing" textLength="264.5957" font-family="sans-serif">Result {score, perQuestion correctness}</text></g><g class="message" data-entity-1="part2" data-entity-2="part1" id="msg13" data-source-line="36"><polygon points="49.9551,650.7891,39.9551,654.7891,49.9551,658.7891,45.9551,654.7891" fill="#75607F" style="stroke:#75607F;stroke-width:1;stroke-linejoin:miter;stroke-miterlimit:10;"/><line x1="43.9551" y1="654.7891" x2="312.0591" y2="654.7891" style="stroke:#75607F;stroke-width:1;stroke-dasharray:2,2;"/><text x="55.9551" y="649.7231" fill="#000000" font-size="13" lengthAdjust="spacing" textLength="250.104" font-family="sans-serif">View quiz result (ring + review wrong)</text></g><?plantuml-src ZLJRRXf137sVhx3e2oZXba9J4IaI910XqPO0xKiILSEkWH7Bp6R62qqH_rxFS2aqYTJTXzNQnyVsiMT8KO8madE4vqpzXhpIKLA2EzHe9I6e2MYZyHn-A5o1HPSbT0KJnDZ109VUEFnIl2W8DrSwbLOkO2oZ-TIQJCSt9Z4MFdJ2SuHm-9oXZX3M0g1fhLdja9VrJvNB3XjxQe8zfR5bR8psNU-hJFLEfTrYH5zQKf5AfQQtAOu1_yFICPfsxelRQkjZtLSUaR4dzDNF_XKR8RqBlZkq8lrB0hbXlva3wO2_fuvclniS_1Mn93cM3Y7NDuwcB7fmtRQ4y8nGlFRnZUEf6GsI1qLO4Epo22Pgm5rx16MPgh9tkVAQ_BGtPHyZP48SiOr_GVBzzBjGt9FNAZKs7PFrlmr7K2gLGZX0_h0Z4siM8Jb7ysmHOYMdVixLIk5VsdkV6XDk3dyfH-ujFwnvFHmfezt34wmKpKn68BLReNKRWJeM8Z4c1PJH3FPOPZfH9rNH77XrmKoW1YODV27uLLFlI5HssNYX2DQxr0zF6n6AlUPPD63OxhLlHX0PQp4wrBT717QPaIco535wasCe7ZDqlmxRWr4OmKz9X8kKamNKEH1t6ZIrQZeZtuIFE3vu3SZIsEll3-2ZLfhGBcLoXdvrU25eXc4gLuzwd2rI1uuioZdaoSJo1NX5rPBtvKJ-GJZWXo9IjFSxUVTzQdHSMP2GWxpYZUtT4BPYUq50tYezXJF-3JV4oXezBVm1?></g></svg>