<svg xmlns="http://www.w3.org/2000/svg" xmlns:xlink="http://www.w3.org/1999/xlink" version="1.1" data-diagram-type="SEQUENCE" style="width:901px;height:593px;background:#FFFFFF;" width="901px" height="593px" viewBox="0 0 901 593" zoomAndPan="magnify" preserveAspectRatio="none" contentStyleType="text/css"><?plantuml 1.2026.7beta3?><defs/><g><g class="title" data-source-line="1"><text x="264.1909" y="27.9951" fill="#000000" font-size="14" lengthAdjust="spacing" textLength="366.5703" font-weight="700" font-family="sans-serif">Review (spaced repetition, SM-2-lite per note)</text></g><g class="participant-lifeline" data-qualified-name="User" data-entity-uid="part1" id="part1-lifeline" data-source-line="12"><g><title>User</title><rect x="19.9551" y="118.5938" width="8" height="392.9922" fill="#000000" fill-opacity="0.00000"/><line x1="23" y1="118.5938" x2="23" y2="511.5859" style="stroke:#75607F;stroke-width:0.5;stroke-dasharray:5,5;"/></g></g><g class="participant-lifeline" data-qualified-name="SPA" data-entity-uid="part2" id="part2-lifeline" data-source-line="13"><g><title>SPA</title><rect x="308.1001" y="118.5938" width="8" height="392.9922" fill="#000000" fill-opacity="0.00000"/><line x1="311.647" y1="118.5938" x2="311.647" y2="511.5859" style="stroke:#75607F;stroke-width:0.5;stroke-dasharray:5,5;"/></g></g><g class="participant-lifeline" data-qualified-name="API" data-entity-uid="part3" id="part3-lifeline" data-source-line="14"><g><title>API</title><rect x="566.4302" y="118.5938" width="8" height="392.9922" fill="#000000" fill-opacity="0.00000"/><line x1="570.356" y1="118.5938" x2="570.356" y2="511.5859" style="stroke:#75607F;stroke-width:0.5;stroke-dasharray:5,5;"/></g></g><g class="participant-lifeline" data-qualified-name="DB" data-entity-uid="part4" id="part4-lifeline" data-source-line="15"><g><title>Postgres</title><rect x="853.7817" y="118.5938" width="8" height="392.9922" fill="#000000" fill-opacity="0.00000"/><line x1="857.6113" y1="118.5938" x2="857.6113" y2="511.5859" style="stroke:#75607F;stroke-width:0.5;stroke-dasharray:5,5;"/></g></g><g class="participant participant-head" data-qualified-name="User" data-entity-uid="part1" id="part1-head" data-source-line="12"><text x="5" y="115.292" fill="#000000" font-size="14" lengthAdjust="spacing" textLength="31.9102" font-family="sans-serif">User</text><ellipse cx="23.9551" cy="50.7969" rx="8" ry="8" fill="#E2E2F0" style="stroke:#181818;stroke-width:0.5;"/><path d="M23.9551,58.7969 L23.9551,85.7969 M10.9551,66.7969 L36.9551,66.7969 M23.9551,85.7969 L10.9551,100.7969 M23.9551,85.7969 L36.9551,100.7969" style="stroke:#181818;stroke-width:0.5;" fill="none"/></g><g class="participant participant-tail" data-qualified-name="User" data-entity-uid="part1" id="part1-tail" data-source-line="12"><text x="5" y="523.5811" fill="#000000" font-size="14" lengthAdjust="spacing" textLength="31.9102" font-family="sans-serif">User</text><ellipse cx="23.9551" cy="535.3828" rx="8" ry="8" fill="#E2E2F0" style="stroke:#181818;stroke-width:0.5;"/><path d="M23.9551,543.3828 L23.9551,570.3828 M10.9551,551.3828 L36.9551,551.3828 M23.9551,570.3828 L10.9551,585.3828 M23.9551,570.3828 L36.9551,585.3828" style="stroke:#181818;stroke-width:0.5;" fill="none"/></g><g class="participant participant-head" data-qualified-name="SPA" data-entity-uid="part2" id="part2-head" data-source-line="13"><rect x="291.647" y="87.2969" width="40.9063" height="30.2969" fill="#F5F0EB" style="stroke:#75607F;stroke-width:0.5;" rx="2.5" ry="2.5"/><text x="298.647" y="107.292" fill="#2D1B35" font-size="14" lengthAdjust="spacing" textLength="26.9063" font-family="sans-serif">SPA</text></g><g class="participant participant-tail" data-qualified-name="SPA" data-entity-uid="part2" id="part2-tail" data-source-line="13"><rect x="291.647" y="510.5859" width="40.9063" height="30.2969" fill="#F5F0EB" style="stroke:#75607F;stroke-width:0.5;" rx="2.5" ry="2.5"/><text x="298.647" y="530.5811" fill="#2D1B35" font-size="14" lengthAdjust="spacing" textLength="26.9063" font-family="sans-serif">SPA</text></g><g class="participant participant-head" data-qualified-name="API" data-entity-uid="part3" id="part3-head" data-source-line="14"><rect x="552.356" y="87.2969" width="36.1484" height="30.2969" fill="#F5F0EB" style="stroke:#75607F;stroke-width:0.5;" rx="2.5" ry="2.5"/><text x="559.356" y="107.292" fill="#2D1B35" font-size="14" lengthAdjust="spacing" textLength="22.1484" font-family="sans-serif">API</text></g><g class="participant participant-tail" data-qualified-name="API" data-entity-uid="part3" id="part3-tail" data-source-line="14"><rect x="552.356" y="510.5859" width="36.1484" height="30.2969" fill="#F5F0EB" style="stroke:#75607F;stroke-width:0.5;" rx="2.5" ry="2.5"/><text x="559.356" y="530.5811" fill="#2D1B35" font-size="14" lengthAdjust="spacing" textLength="22.1484" font-family="sans-serif">API</text></g><g class="participant participant-head" data-qualified-name="DB" data-entity-uid="part4" id="part4-head" data-source-line="15"><text x="824.6113" y="115.292" fill="#000000" font-size="14" lengthAdjust="spacing" textLength="60.3408" font-family="sans-serif">Postgres</text><path d="M839.7817,66.2969 C839.7817,56.2969 857.7817,56.2969 857.7817,56.2969 C857.7817,56.2969 875.7817,56.2969 875.7817,66.2969 L875.7817,92.2969 C875.7817,102.2969 857.7817,102.2969 857.7817,102.2969 C857.7817,102.2969 839.7817,102.2969 839.7817,92.2969 L839.7817,66.2969" style="stroke:#181818;stroke-width:0.5;" fill="#E2E2F0"/><path d="M839.7817,66.2969 C839.7817,76.2969 857.7817,76.2969 857.7817,76.2969 C857.7817,76.2969 875.7817,76.2969 875.7817,66.2969" style="stroke:#181818;stroke-width:0.5;" fill="none"/></g><g class="participant participant-tail" data-qualified-name="DB" data-entity-uid="part4" id="part4-tail" data-source-line="15"><text x="824.6113" y="523.5811" fill="#000000" font-size="14" lengthAdjust="spacing" textLength="60.3408" font-family="sans-serif">Postgres</text><path d="M839.7817,536.8828 C839.7817,526.8828 857.7817,526.8828 857.7817,526.8828 C857.7817,526.8828 875.7817,526.8828 875.7817,536.8828 L875.7817,562.8828 C875.7817,572.8828 857.7817,572.8828 857.7817,572.8828 C857.7817,572.8828 839.7817,572.8828 839.7817,562.8828 L839.7817,536.8828" style="stroke:#181818;stroke-width:0.5;" fill="#E2E2F0"/><path d="M839.7817,536.8828 C839.7817,546.8828 857.7817,546.8828 857.7817,546.8828 C857.7817,546.8828 875.7817,546.8828 875.7817,536.8828" style="stroke:#181818;stroke-width:0.5;" fill="none"/></g><g class="message" data-entity-1="part1" data-entity-2="part2" id="msg1" data-source-line="17"><polygon points="300.1001,145.7266,310.1001,149.7266,300.1001,153.7266,304.1001,149.7266" fill="#75607F" style="stroke:#75607F;stroke-width:1;stroke-linejoin:miter;stroke-miterlimit:10;"/><line x1="23.9551" y1="149.7266" x2="306.1001" y2="149.7266" style="stroke:#75607F;stroke-width:1;"/><text x="30.9551" y="144.6606" fill="#000000" font-size="13" lengthAdjust="spacing" textLength="83.5415" font-family="sans-serif">open Review</text></g><g class="message" data-entity-1="part2" data-entity-2="part3" id="msg2" data-source-line="18"><polygon points="558.4302,174.8594,568.4302,178.8594,558.4302,182.8594,562.4302,178.8594" fill="#75607F" style="stroke:#75607F;stroke-width:1;stroke-linejoin:miter;stroke-miterlimit:10;"/><line x1="312.1001" y1="178.8594" x2="564.4302" y2="178.8594" style="stroke:#75607F;stroke-width:1;"/><text x="319.1001" y="173.7935" fill="#000000" font-size="13" lengthAdjust="spacing" textLength="131.0981" font-family="sans-serif">GET /api/review/due</text></g><g class="message" data-entity-1="part3" data-entity-2="part4" id="msg3" data-source-line="19"><polygon points="845.7817,219.125,855.7817,223.125,845.7817,227.125,849.7817,223.125" fill="#75607F" style="stroke:#75607F;stroke-width:1;stroke-linejoin:miter;stroke-miterlimit:10;"/><line x1="570.4302" y1="223.125" x2="851.7817" y2="223.125" style="stroke:#75607F;stroke-width:1;"/><text x="577.4302" y="202.9263" fill="#000000" font-size="13" lengthAdjust="spacing" textLength="204.02" font-family="sans-serif">SELECT notes WHERE owner_id</text><text x="577.4302" y="218.0591" fill="#000000" font-size="13" lengthAdjust="spacing" textLength="159.7896" font-family="sans-serif">AND next_due &lt;= today</text></g><g class="message" data-entity-1="part4" data-entity-2="part3" id="msg4" data-source-line="20"><polygon points="581.4302,248.2578,571.4302,252.2578,581.4302,256.2578,577.4302,252.2578" fill="#75607F" style="stroke:#75607F;stroke-width:1;stroke-linejoin:miter;stroke-miterlimit:10;"/><line x1="575.4302" y1="252.2578" x2="856.7817" y2="252.2578" style="stroke:#75607F;stroke-width:1;stroke-dasharray:2,2;"/><text x="587.4302" y="247.1919" fill="#000000" font-size="13" lengthAdjust="spacing" textLength="167.521" font-family="sans-serif">due notes (interval, ease)</text></g><g class="message" data-entity-1="part3" data-entity-2="part2" id="msg5" data-source-line="21"><polygon points="323.1001,277.3906,313.1001,281.3906,323.1001,285.3906,319.1001,281.3906" fill="#75607F" style="stroke:#75607F;stroke-width:1;stroke-linejoin:miter;stroke-miterlimit:10;"/><line x1="317.1001" y1="281.3906" x2="569.4302" y2="281.3906" style="stroke:#75607F;stroke-width:1;stroke-dasharray:2,2;"/><text x="329.1001" y="276.3247" fill="#000000" font-size="13" lengthAdjust="spacing" textLength="47.7153" font-family="sans-serif">due list</text></g><g class="message" data-entity-1="part2" data-entity-2="part1" id="msg6" data-source-line="22"><polygon points="34.9551,306.5234,24.9551,310.5234,34.9551,314.5234,30.9551,310.5234" fill="#75607F" style="stroke:#75607F;stroke-width:1;stroke-linejoin:miter;stroke-miterlimit:10;"/><line x1="28.9551" y1="310.5234" x2="311.1001" y2="310.5234" style="stroke:#75607F;stroke-width:1;stroke-dasharray:2,2;"/><text x="40.9551" y="305.4575" fill="#000000" font-size="13" lengthAdjust="spacing" textLength="105.7773" font-family="sans-serif">notes due today</text></g><g class="message" data-entity-1="part1" data-entity-2="part2" id="msg7" data-source-line="24"><polygon points="300.1001,335.6563,310.1001,339.6563,300.1001,343.6563,304.1001,339.6563" fill="#75607F" style="stroke:#75607F;stroke-width:1;stroke-linejoin:miter;stroke-miterlimit:10;"/><line x1="23.9551" y1="339.6563" x2="306.1001" y2="339.6563" style="stroke:#75607F;stroke-width:1;"/><text x="30.9551" y="334.5903" fill="#000000" font-size="13" lengthAdjust="spacing" textLength="264.145" font-family="sans-serif">review a note -> Take quiz (diagram 11)</text></g><path d="M547,352.6563 L547,437.6563 L880,437.6563 L880,362.6563 L870,352.6563 L547,352.6563" style="stroke:#181818;stroke-width:0.5;" fill="#FEFFDD"/><path d="M870,352.6563 L870,362.6563 L880,362.6563 L870,352.6563" style="stroke:#181818;stroke-width:0.5;" fill="#FEFFDD"/><text x="602.7146" y="369.7231" fill="#000000" font-size="13" lengthAdjust="spacing" textLength="100.4009" font-family="sans-serif">on quiz submit:</text><text x="602.7146" y="384.856" fill="#000000" font-size="13" lengthAdjust="spacing" textLength="155.0034" font-family="sans-serif">score -> quality q (0..5)</text><text x="602.7146" y="399.9888" fill="#000000" font-size="13" lengthAdjust="spacing" textLength="176.1157" font-family="sans-serif">ease' = clamp(ease + f(q))</text><text x="602.7146" y="415.1216" fill="#000000" font-size="13" lengthAdjust="spacing" textLength="213.167" font-family="sans-serif">interval' = 1, 6, or interval*ease'</text><text x="602.7146" y="430.2544" fill="#000000" font-size="13" lengthAdjust="spacing" textLength="188.4302" font-family="sans-serif">next_due = today + interval'</text><g class="message" data-entity-1="part3" data-entity-2="part4" id="msg8" data-source-line="26"><polygon points="845.7817,460.4531,855.7817,464.4531,845.7817,468.4531,849.7817,464.4531" fill="#75607F" style="stroke:#75607F;stroke-width:1;stroke-linejoin:miter;stroke-miterlimit:10;"/><line x1="570.4302" y1="464.4531" x2="851.7817" y2="464.4531" style="stroke:#75607F;stroke-width:1;"/><text x="577.4302" y="459.3872" fill="#000000" font-size="13" lengthAdjust="spacing" textLength="263.3516" font-family="sans-serif">UPDATE note {ease, interval, next_due}</text></g><g class="message" data-entity-1="part3" data-entity-2="part2" id="msg9" data-source-line="27"><polygon points="323.1001,489.5859,313.1001,493.5859,323.1001,497.5859,319.1001,493.5859" fill="#75607F" style="stroke:#75607F;stroke-width:1;stroke-linejoin:miter;stroke-miterlimit:10;"/><line x1="317.1001" y1="493.5859" x2="569.4302" y2="493.5859" style="stroke:#75607F;stroke-width:1;stroke-dasharray:2,2;"/><text x="329.1001" y="488.52" fill="#000000" font-size="13" lengthAdjust="spacing" textLength="234.3301" font-family="sans-serif">updated; note leaves today's queue</text></g><?plantuml-src ZLBVRvim47xtNt7A7WeRQKAdj1DR9q4XNQLiYffKUubKEN2Dh10RR9EihVg_ppQaJRHD6ZmWxljntvsjcIuHRd7BS0UUgcYE1KYiK3FD10zWzhr_rY-PHgXG0XSQVQBMZ5TKqWqiQRvUIT7muagKGiAxiNiE60hh1dcEy4m0OYd5hcDUZCw75sDJdB07d32EYP05od-YVtGQZOTPOXXJAZNBMKMv_hl58U5_NCQ2wmu-IyFauyWcpxMGH_RX9_kI5q8j17SA9QdUJA0tcyOze0hCznY8fpSEC5zIK4sNL27qfaBfbKJbe3GXn3f2_wlLHo0gvDqn4LEmTIEFu3gRmu1MR20TDYWQ90QmU9f4CCicsTNS7Pk2dz-osmp4ZgEyPyM2npzIuFXBtniHVBa4BGhwID84-djt2xHQZt6DSalB0D34zTic-tIMLpAbssYcQhD7dTI2hVNnI6rYe8vcgtEwHgWRzWHUmUZAtfumz8c3nTOeJS_0ZILuorFDSiDqjE0g5z9vr0qrb_KHQl26fwSZVy5jt1EuXBoacygpV_017hpQDzX-A8k70Pm7O4voNtplb0l-kg9kGqR-gZlSzTqqZUTPEysprGRmjhIzoSlnufhAN00iFhUg4kdMBCnrEL5c5cpmDm00?></g></svg>