<svg xmlns="http://www.w3.org/2000/svg" xmlns:xlink="http://www.w3.org/1999/xlink" version="1.1" data-diagram-type="SEQUENCE" style="width:981px;height:563px;background:#FFFFFF;" width="981px" height="563px" viewBox="0 0 981 563" zoomAndPan="magnify" preserveAspectRatio="none" contentStyleType="text/css"><?plantuml 1.2026.7beta3?><defs/><g><g class="title" data-source-line="1"><text x="384.5671" y="27.9951" fill="#000000" font-size="14" lengthAdjust="spacing" textLength="205.7002" font-weight="700" font-family="sans-serif">View profile / leaderboard</text></g><g class="participant-lifeline" data-qualified-name="User" data-entity-uid="part1" id="part1-lifeline" data-source-line="12"><g><title>User</title><rect x="19.9551" y="118.5938" width="8" height="362.7266" fill="#000000" fill-opacity="0.00000"/><line x1="23" y1="118.5938" x2="23" y2="481.3203" style="stroke:#75607F;stroke-width:0.5;stroke-dasharray:5,5;"/></g></g><g class="participant-lifeline" data-qualified-name="SPA" data-entity-uid="part2" id="part2-lifeline" data-source-line="13"><g><title>SPA</title><rect x="294.605" y="118.5938" width="8" height="362.7266" fill="#000000" fill-opacity="0.00000"/><line x1="298.1519" y1="118.5938" x2="298.1519" y2="481.3203" style="stroke:#75607F;stroke-width:0.5;stroke-dasharray:5,5;"/></g></g><g class="participant-lifeline" data-qualified-name="API" data-entity-uid="part3" id="part3-lifeline" data-source-line="14"><g><title>API</title><rect x="456.4951" y="118.5938" width="8" height="362.7266" fill="#000000" fill-opacity="0.00000"/><line x1="460.4209" y1="118.5938" x2="460.4209" y2="481.3203" style="stroke:#75607F;stroke-width:0.5;stroke-dasharray:5,5;"/></g></g><g class="participant-lifeline" data-qualified-name="DB" data-entity-uid="part4" id="part4-lifeline" data-source-line="15"><g><title>Postgres</title><rect x="744.9448" y="118.5938" width="8" height="362.7266" fill="#000000" fill-opacity="0.00000"/><line x1="748.7744" y1="118.5938" x2="748.7744" y2="481.3203" style="stroke:#75607F;stroke-width:0.5;stroke-dasharray:5,5;"/></g></g><g class="participant participant-head" data-qualified-name="User" data-entity-uid="part1" id="part1-head" data-source-line="12"><text x="5" y="115.292" fill="#000000" font-size="14" lengthAdjust="spacing" textLength="31.9102" font-family="sans-serif">User</text><ellipse cx="23.9551" cy="50.7969" rx="8" ry="8" fill="#E2E2F0" style="stroke:#181818;stroke-width:0.5;"/><path d="M23.9551,58.7969 L23.9551,85.7969 M10.9551,66.7969 L36.9551,66.7969 M23.9551,85.7969 L10.9551,100.7969 M23.9551,85.7969 L36.9551,100.7969" style="stroke:#181818;stroke-width:0.5;" fill="none"/></g><g class="participant participant-tail" data-qualified-name="User" data-entity-uid="part1" id="part1-tail" data-source-line="12"><text x="5" y="493.3154" fill="#000000" font-size="14" lengthAdjust="spacing" textLength="31.9102" font-family="sans-serif">User</text><ellipse cx="23.9551" cy="505.1172" rx="8" ry="8" fill="#E2E2F0" style="stroke:#181818;stroke-width:0.5;"/><path d="M23.9551,513.1172 L23.9551,540.1172 M10.9551,521.1172 L36.9551,521.1172 M23.9551,540.1172 L10.9551,555.1172 M23.9551,540.1172 L36.9551,555.1172" style="stroke:#181818;stroke-width:0.5;" fill="none"/></g><g class="participant participant-head" data-qualified-name="SPA" data-entity-uid="part2" id="part2-head" data-source-line="13"><rect x="278.1519" y="87.2969" width="40.9063" height="30.2969" fill="#F5F0EB" style="stroke:#75607F;stroke-width:0.5;" rx="2.5" ry="2.5"/><text x="285.1519" y="107.292" fill="#2D1B35" font-size="14" lengthAdjust="spacing" textLength="26.9063" font-family="sans-serif">SPA</text></g><g class="participant participant-tail" data-qualified-name="SPA" data-entity-uid="part2" id="part2-tail" data-source-line="13"><rect x="278.1519" y="480.3203" width="40.9063" height="30.2969" fill="#F5F0EB" style="stroke:#75607F;stroke-width:0.5;" rx="2.5" ry="2.5"/><text x="285.1519" y="500.3154" fill="#2D1B35" font-size="14" lengthAdjust="spacing" textLength="26.9063" font-family="sans-serif">SPA</text></g><g class="participant participant-head" data-qualified-name="API" data-entity-uid="part3" id="part3-head" data-source-line="14"><rect x="442.4209" y="87.2969" width="36.1484" height="30.2969" fill="#F5F0EB" style="stroke:#75607F;stroke-width:0.5;" rx="2.5" ry="2.5"/><text x="449.4209" y="107.292" fill="#2D1B35" font-size="14" lengthAdjust="spacing" textLength="22.1484" font-family="sans-serif">API</text></g><g class="participant participant-tail" data-qualified-name="API" data-entity-uid="part3" id="part3-tail" data-source-line="14"><rect x="442.4209" y="480.3203" width="36.1484" height="30.2969" fill="#F5F0EB" style="stroke:#75607F;stroke-width:0.5;" rx="2.5" ry="2.5"/><text x="449.4209" y="500.3154" fill="#2D1B35" font-size="14" lengthAdjust="spacing" textLength="22.1484" font-family="sans-serif">API</text></g><g class="participant participant-head" data-qualified-name="DB" data-entity-uid="part4" id="part4-head" data-source-line="15"><text x="715.7744" y="115.292" fill="#000000" font-size="14" lengthAdjust="spacing" textLength="60.3408" font-family="sans-serif">Postgres</text><path d="M730.9448,66.2969 C730.9448,56.2969 748.9448,56.2969 748.9448,56.2969 C748.9448,56.2969 766.9448,56.2969 766.9448,66.2969 L766.9448,92.2969 C766.9448,102.2969 748.9448,102.2969 748.9448,102.2969 C748.9448,102.2969 730.9448,102.2969 730.9448,92.2969 L730.9448,66.2969" style="stroke:#181818;stroke-width:0.5;" fill="#E2E2F0"/><path d="M730.9448,66.2969 C730.9448,76.2969 748.9448,76.2969 748.9448,76.2969 C748.9448,76.2969 766.9448,76.2969 766.9448,66.2969" style="stroke:#181818;stroke-width:0.5;" fill="none"/></g><g class="participant participant-tail" data-qualified-name="DB" data-entity-uid="part4" id="part4-tail" data-source-line="15"><text x="715.7744" y="493.3154" fill="#000000" font-size="14" lengthAdjust="spacing" textLength="60.3408" font-family="sans-serif">Postgres</text><path d="M730.9448,506.6172 C730.9448,496.6172 748.9448,496.6172 748.9448,496.6172 C748.9448,496.6172 766.9448,496.6172 766.9448,506.6172 L766.9448,532.6172 C766.9448,542.6172 748.9448,542.6172 748.9448,542.6172 C748.9448,542.6172 730.9448,542.6172 730.9448,532.6172 L730.9448,506.6172" style="stroke:#181818;stroke-width:0.5;" fill="#E2E2F0"/><path d="M730.9448,506.6172 C730.9448,516.6172 748.9448,516.6172 748.9448,516.6172 C748.9448,516.6172 766.9448,516.6172 766.9448,506.6172" style="stroke:#181818;stroke-width:0.5;" fill="none"/></g><g class="message" data-entity-1="part1" data-entity-2="part2" id="msg1" data-source-line="17"><polygon points="286.605,145.7266,296.605,149.7266,286.605,153.7266,290.605,149.7266" fill="#75607F" style="stroke:#75607F;stroke-width:1;stroke-linejoin:miter;stroke-miterlimit:10;"/><line x1="23.9551" y1="149.7266" x2="292.605" y2="149.7266" style="stroke:#75607F;stroke-width:1;"/><text x="30.9551" y="144.6606" fill="#000000" font-size="13" lengthAdjust="spacing" textLength="77.5112" font-family="sans-serif">open Profile</text></g><g class="message" data-entity-1="part2" data-entity-2="part3" id="msg2" data-source-line="18"><polygon points="448.4951,174.8594,458.4951,178.8594,448.4951,182.8594,452.4951,178.8594" fill="#75607F" style="stroke:#75607F;stroke-width:1;stroke-linejoin:miter;stroke-miterlimit:10;"/><line x1="298.605" y1="178.8594" x2="454.4951" y2="178.8594" style="stroke:#75607F;stroke-width:1;"/><text x="305.605" y="173.7935" fill="#000000" font-size="13" lengthAdjust="spacing" textLength="100.2993" font-family="sans-serif">GET /api/profile</text></g><g class="message" data-entity-1="part3" data-entity-2="part4" id="msg3" data-source-line="19"><polygon points="736.9448,219.125,746.9448,223.125,736.9448,227.125,740.9448,223.125" fill="#75607F" style="stroke:#75607F;stroke-width:1;stroke-linejoin:miter;stroke-miterlimit:10;"/><line x1="460.4951" y1="223.125" x2="742.9448" y2="223.125" style="stroke:#75607F;stroke-width:1;"/><text x="467.4951" y="202.9263" fill="#000000" font-size="13" lengthAdjust="spacing" textLength="133.1421" font-family="sans-serif">SELECT user, counts</text><text x="467.4951" y="218.0591" fill="#000000" font-size="13" lengthAdjust="spacing" textLength="264.4497" font-family="sans-serif">(notes, quizzes taken, avg score, streak)</text></g><g class="message" data-entity-1="part3" data-entity-2="part2" id="msg4" data-source-line="20"><polygon points="309.605,248.2578,299.605,252.2578,309.605,256.2578,305.605,252.2578" fill="#75607F" style="stroke:#75607F;stroke-width:1;stroke-linejoin:miter;stroke-miterlimit:10;"/><line x1="303.605" y1="252.2578" x2="459.4951" y2="252.2578" style="stroke:#75607F;stroke-width:1;stroke-dasharray:2,2;"/><text x="315.605" y="247.1919" fill="#000000" font-size="13" lengthAdjust="spacing" textLength="77.1875" font-family="sans-serif">profile stats</text></g><g class="message" data-entity-1="part2" data-entity-2="part1" id="msg5" data-source-line="21"><polygon points="34.9551,277.3906,24.9551,281.3906,34.9551,285.3906,30.9551,281.3906" fill="#75607F" style="stroke:#75607F;stroke-width:1;stroke-linejoin:miter;stroke-miterlimit:10;"/><line x1="28.9551" y1="281.3906" x2="297.605" y2="281.3906" style="stroke:#75607F;stroke-width:1;stroke-dasharray:2,2;"/><text x="40.9551" y="276.3247" fill="#000000" font-size="13" lengthAdjust="spacing" textLength="176.7949" font-family="sans-serif">profile card + growth chart</text></g><g class="message" data-entity-1="part2" data-entity-2="part3" id="msg6" data-source-line="23"><polygon points="448.4951,306.5234,458.4951,310.5234,448.4951,314.5234,452.4951,310.5234" fill="#75607F" style="stroke:#75607F;stroke-width:1;stroke-linejoin:miter;stroke-miterlimit:10;"/><line x1="298.605" y1="310.5234" x2="454.4951" y2="310.5234" style="stroke:#75607F;stroke-width:1;"/><text x="305.605" y="305.4575" fill="#000000" font-size="13" lengthAdjust="spacing" textLength="137.8901" font-family="sans-serif">GET /api/leaderboard</text></g><g class="message" data-entity-1="part3" data-entity-2="part4" id="msg7" data-source-line="24"><polygon points="736.9448,350.7891,746.9448,354.7891,736.9448,358.7891,740.9448,354.7891" fill="#75607F" style="stroke:#75607F;stroke-width:1;stroke-linejoin:miter;stroke-miterlimit:10;"/><line x1="460.4951" y1="354.7891" x2="742.9448" y2="354.7891" style="stroke:#75607F;stroke-width:1;"/><text x="467.4951" y="334.5903" fill="#000000" font-size="13" lengthAdjust="spacing" textLength="243.5913" font-family="sans-serif">SELECT users ORDER BY points DESC</text><text x="467.4951" y="349.7231" fill="#000000" font-size="13" lengthAdjust="spacing" textLength="123.2524" font-family="sans-serif">(rank current user)</text></g><path d="M753,367.7891 L753,407.7891 L970,407.7891 L970,377.7891 L960,367.7891 L753,367.7891" style="stroke:#181818;stroke-width:0.5;" fill="#FEFFDD"/><path d="M960,367.7891 L960,377.7891 L970,377.7891 L960,367.7891" style="stroke:#181818;stroke-width:0.5;" fill="#FEFFDD"/><text x="759" y="384.856" fill="#000000" font-size="13" lengthAdjust="spacing" textLength="101.3086" font-family="sans-serif">scope = global;</text><text x="759" y="399.9888" fill="#000000" font-size="13" lengthAdjust="spacing" textLength="196.8345" font-family="sans-serif">points = total correct answers</text><g class="message" data-entity-1="part3" data-entity-2="part2" id="msg8" data-source-line="26"><polygon points="309.605,430.1875,299.605,434.1875,309.605,438.1875,305.605,434.1875" fill="#75607F" style="stroke:#75607F;stroke-width:1;stroke-linejoin:miter;stroke-miterlimit:10;"/><line x1="303.605" y1="434.1875" x2="459.4951" y2="434.1875" style="stroke:#75607F;stroke-width:1;stroke-dasharray:2,2;"/><text x="315.605" y="429.1216" fill="#000000" font-size="13" lengthAdjust="spacing" textLength="68.5547" font-family="sans-serif">ranked list</text></g><g class="message" data-entity-1="part2" data-entity-2="part1" id="msg9" data-source-line="27"><polygon points="34.9551,459.3203,24.9551,463.3203,34.9551,467.3203,30.9551,463.3203" fill="#75607F" style="stroke:#75607F;stroke-width:1;stroke-linejoin:miter;stroke-miterlimit:10;"/><line x1="28.9551" y1="463.3203" x2="297.605" y2="463.3203" style="stroke:#75607F;stroke-width:1;stroke-dasharray:2,2;"/><text x="40.9551" y="458.2544" fill="#000000" font-size="13" lengthAdjust="spacing" textLength="250.6499" font-family="sans-serif">leaderboard (current user highlighted)</text></g><?plantuml-src ZL9XYzD04Fs-l-9HlronqZkbdbHEQ9fKX8BXUWh2VPacqtH9tCtjRYoS-D-TRNjSgXLCFYmxR-RDUxCJT6WONpNlq3gxqN8Pes4gsQqjkLBvMfkM77t7cegwShOpvTmsrk75Ol_rCZm_T6mAnay5p9opksFczUJjvVL2WakzuQKsd5Wd7Vw9_jLfihZC4id8oGLTw9PCE4_HJ_WVbeKruGY_Jg-IDvEel0ZMdT1VlOk_-gKeGlZYsQdscGI3LJuRW3paF0Lc-QSz8ASgAT2QF6EGMnygntuFfObIaH6lFiJwAMpB1ldXDPH48Y3rKtpCxZ2cLe-FJwKa6i4qcMALBRFv7JeX6g4Gry7VcmjZ0_iH7Zhz-CWUWMes8z2F2hwmZaVmmJ7LmmFJau2dJV21WZye42XgVCOAMGwyX0nu5xOejc9QdHVRtwRpWZq-twRPBP9lQAqMvKYprLpaEp8rYiuvbbd6pA6AZk1qjGsmcpsHE6aPDwWQkwRc_RqvSjmWs42D34FgYm0oVYUzJgt63boYqJxyORGd6nTz3TXAzoOgu7Bu6m00?></g></svg>