<svg xmlns="http://www.w3.org/2000/svg" xmlns:xlink="http://www.w3.org/1999/xlink" version="1.1" data-diagram-type="DESCRIPTION" style="width:1068px;height:1085px;background:#FFFFFF;" width="1068px" height="1085px" viewBox="0 0 1068 1085" zoomAndPan="magnify" preserveAspectRatio="none" contentStyleType="text/css"><?plantuml 1.2026.7beta3?><defs/><g><!--cluster Noteknock — Auth & Notes--><g class="cluster" data-qualified-name="Noteknock . Auth . Notes" id="ent0004" data-source-line="15"><rect x="281.13" y="99.15" width="772.89" height="692" fill="none" style="stroke:#181818;stroke-width:1;" rx="2.5" ry="2.5"/><text x="561.0506" y="114.1451" fill="#000000" font-size="14" lengthAdjust="spacing" textLength="213.0488" font-weight="700" font-family="sans-serif">Noteknock — Auth &amp; Notes</text></g><!--entity UC_Reg--><g class="entity" data-qualified-name="Noteknock . Auth . Notes.UC_Reg" id="ent0005" data-source-line="16"><ellipse cx="385.2128" cy="558.1536" rx="44.2028" ry="14.5236" fill="#FFFFFF" style="stroke:#75607F;stroke-width:0.5;"/><text x="356.078" y="562.8021" fill="#000000" font-size="14" lengthAdjust="spacing" textLength="58.2695" font-family="sans-serif">Register</text></g><!--entity UC_Login--><g class="entity" data-qualified-name="Noteknock . Auth . Notes.UC_Login" id="ent0006" data-source-line="17"><ellipse cx="679.4172" cy="352.1536" rx="33.0272" ry="14.5236" fill="#FFFFFF" style="stroke:#75607F;stroke-width:0.5;"/><text x="658.1848" y="356.8021" fill="#000000" font-size="14" lengthAdjust="spacing" textLength="42.4648" font-family="sans-serif">Log in</text></g><!--entity UC_Google--><g class="entity" data-qualified-name="Noteknock . Auth . Notes.UC_Google" id="ent0007" data-source-line="18"><ellipse cx="385.2115" cy="281.1503" rx="82.1515" ry="18.8303" fill="#FFFFFF" style="stroke:#75607F;stroke-width:0.5;"/><text x="317.3511" y="285.7987" fill="#000000" font-size="14" lengthAdjust="spacing" textLength="135.7207" font-family="sans-serif">Sign in with Google</text></g><!--entity UC_Logout--><g class="entity" data-qualified-name="Noteknock . Auth . Notes.UC_Logout" id="ent0008" data-source-line="19"><ellipse cx="385.2149" cy="760.1536" rx="40.2149" ry="14.5236" fill="#FFFFFF" style="stroke:#75607F;stroke-width:0.5;"/><text x="358.9" y="764.8021" fill="#000000" font-size="14" lengthAdjust="spacing" textLength="52.6299" font-family="sans-serif">Log out</text></g><!--entity UC_Theme--><g class="entity" data-qualified-name="Noteknock . Auth . Notes.UC_Theme" id="ent0009" data-source-line="20"><ellipse cx="385.2087" cy="623.1537" rx="66.3687" ry="15.6737" fill="#FFFFFF" style="stroke:#75607F;stroke-width:0.5;"/><text x="336.6735" y="627.8022" fill="#000000" font-size="14" lengthAdjust="spacing" textLength="97.0703" font-family="sans-serif">Toggle theme</text></g><!--entity UC_Create--><g class="entity" data-qualified-name="Noteknock . Auth . Notes.UC_Create" id="ent0010" data-source-line="22"><ellipse cx="679.4214" cy="758.1483" rx="61.0914" ry="14.6183" fill="#FFFFFF" style="stroke:#75607F;stroke-width:0.5;"/><text x="638.0127" y="762.7967" fill="#000000" font-size="14" lengthAdjust="spacing" textLength="82.8174" font-family="sans-serif">Create note</text></g><!--entity UC_View--><g class="entity" data-qualified-name="Noteknock . Auth . Notes.UC_View" id="ent0011" data-source-line="23"><ellipse cx="385.2091" cy="149.1536" rx="52.1591" ry="14.5236" fill="#FFFFFF" style="stroke:#75607F;stroke-width:0.5;"/><text x="350.4484" y="153.8021" fill="#000000" font-size="14" lengthAdjust="spacing" textLength="69.5215" font-family="sans-serif">View note</text></g><!--entity UC_Edit--><g class="entity" data-qualified-name="Noteknock . Auth . Notes.UC_Edit" id="ent0012" data-source-line="24"><ellipse cx="679.4202" cy="692.1536" rx="47.6202" ry="14.5236" fill="#FFFFFF" style="stroke:#75607F;stroke-width:0.5;"/><text x="647.869" y="696.8021" fill="#000000" font-size="14" lengthAdjust="spacing" textLength="63.1025" font-family="sans-serif">Edit note</text></g><!--entity UC_Delete--><g class="entity" data-qualified-name="Noteknock . Auth . Notes.UC_Delete" id="ent0013" data-source-line="25"><ellipse cx="385.2073" cy="213.1495" rx="60.7973" ry="14.5595" fill="#FFFFFF" style="stroke:#75607F;stroke-width:0.5;"/><text x="344.2122" y="217.7979" fill="#000000" font-size="14" lengthAdjust="spacing" textLength="81.9902" font-family="sans-serif">Delete note</text></g><!--entity UC_Draft--><g class="entity" data-qualified-name="Noteknock . Auth . Notes.UC_Draft" id="ent0014" data-source-line="26"><ellipse cx="961.7902" cy="712.146" rx="76.2302" ry="17.646" fill="#FFFFFF" style="stroke:#75607F;stroke-width:0.5;"/><text x="900.9401" y="716.7945" fill="#000000" font-size="14" lengthAdjust="spacing" textLength="121.7002" font-family="sans-serif">Save draft locally</text></g><!--entity UC_Md--><g class="entity" data-qualified-name="Noteknock . Auth . Notes.UC_Md" id="ent0015" data-source-line="27"><ellipse cx="679.4199" cy="153.148" rx="81.1399" ry="18.628" fill="#FFFFFF" style="stroke:#75607F;stroke-width:0.5;"/><text x="612.7422" y="157.7964" fill="#000000" font-size="14" lengthAdjust="spacing" textLength="133.3555" font-family="sans-serif">Preview markdown</text></g><!--entity UC_Attach--><g class="entity" data-qualified-name="Noteknock . Auth . Notes.UC_Attach" id="ent0016" data-source-line="28"><ellipse cx="385.2079" cy="692.1536" rx="81.7679" ry="18.7536" fill="#FFFFFF" style="stroke:#75607F;stroke-width:0.5;"/><text x="317.7953" y="696.802" fill="#000000" font-size="14" lengthAdjust="spacing" textLength="134.8252" font-family="sans-serif">Upload attachment</text></g><!--entity UC_Search--><g class="entity" data-qualified-name="Noteknock . Auth . Notes.UC_Search" id="ent0017" data-source-line="30"><ellipse cx="679.4228" cy="452.1466" rx="64.3328" ry="15.2666" fill="#FFFFFF" style="stroke:#75607F;stroke-width:0.5;"/><text x="633.5776" y="456.795" fill="#000000" font-size="14" lengthAdjust="spacing" textLength="91.6904" font-family="sans-serif">Search notes</text></g><!--entity UC_TagFilter--><g class="entity" data-qualified-name="Noteknock . Auth . Notes.UC_TagFilter" id="ent0018" data-source-line="31"><ellipse cx="385.2108" cy="350.1462" rx="66.1308" ry="15.6262" fill="#FFFFFF" style="stroke:#75607F;stroke-width:0.5;"/><text x="336.9866" y="354.7946" fill="#000000" font-size="14" lengthAdjust="spacing" textLength="96.4482" font-family="sans-serif">Filter by #tag</text></g><!--entity UC_Recent--><g class="entity" data-qualified-name="Noteknock . Auth . Notes.UC_Recent" id="ent0019" data-source-line="32"><ellipse cx="385.2085" cy="417.1497" rx="67.7985" ry="15.9597" fill="#FFFFFF" style="stroke:#75607F;stroke-width:0.5;"/><text x="334.8208" y="421.7981" fill="#000000" font-size="14" lengthAdjust="spacing" textLength="100.7754" font-family="sans-serif">Browse recent</text></g><!--entity UC_Ops--><g class="entity" data-qualified-name="Noteknock . Auth . Notes.UC_Ops" id="ent0020" data-source-line="33"><ellipse cx="385.206" cy="488.1452" rx="88.076" ry="20.0152" fill="#FFFFFF" style="stroke:#75607F;stroke-width:0.5;"/><text x="310.52" y="492.7936" fill="#000000" font-size="14" lengthAdjust="spacing" textLength="149.3721" font-family="sans-serif">Use search operators</text></g><!--entity Guest--><g class="entity" data-qualified-name="Guest" id="ent0001" data-source-line="11"><ellipse cx="206.63" cy="601" rx="16" ry="16" fill="#F1F1F1" style="stroke:#181818;stroke-width:0.5;"/><path d="M206.63,621 C210.63,621 213.63,621 217.63,617 C225.63,617 233.63,625 233.63,633 L233.63,637 C233.63,641 229.63,645 225.63,645 L187.63,645 C183.63,645 179.63,641 179.63,637 L179.63,633 C179.63,625 187.63,617 195.63,617 C199.63,621 202.63,621 206.63,621" style="stroke:#181818;stroke-width:0.5;" fill="#F1F1F1"/><text x="186.0709" y="658.4951" fill="#000000" font-size="14" lengthAdjust="spacing" textLength="41.1182" font-family="sans-serif">Guest</text></g><!--entity User--><g class="entity" data-qualified-name="User" id="ent0002" data-source-line="12"><ellipse cx="62.0649" cy="601" rx="16" ry="16" fill="#F1F1F1" style="stroke:#181818;stroke-width:0.5;"/><path d="M62.0649,621 C66.0649,621 69.0649,621 73.0649,617 C81.0649,617 89.0649,625 89.0649,633 L89.0649,637 C89.0649,641 85.0649,645 81.0649,645 L43.0649,645 C39.0649,645 35.0649,641 35.0649,637 L35.0649,633 C35.0649,625 43.0649,617 51.0649,617 C55.0649,621 58.0649,621 62.0649,621" style="stroke:#181818;stroke-width:0.5;" fill="#F1F1F1"/><text x="6" y="658.4951" fill="#000000" font-size="14" lengthAdjust="spacing" textLength="112.1299" font-family="sans-serif">Registered User</text></g><!--entity Google--><g class="entity" data-qualified-name="Google" id="ent0021" data-source-line="36"><ellipse cx="679.42" cy="22" rx="16" ry="16" fill="#F1F1F1" style="stroke:#181818;stroke-width:0.5;"/><path d="M679.42,42 C683.42,42 686.42,42 690.42,38 C698.42,38 706.42,46 706.42,54 L706.42,58 C706.42,62 702.42,66 698.42,66 L660.42,66 C656.42,66 652.42,62 652.42,58 L652.42,54 C652.42,46 660.42,38 668.42,38 C672.42,42 675.42,42 679.42,42" style="stroke:#181818;stroke-width:0.5;" fill="#F1F1F1"/><text x="654.7354" y="79.4951" fill="#000000" font-size="14" lengthAdjust="spacing" textLength="49.3691" font-family="sans-serif">Google</text></g><!--link User to Guest--><g class="link" data-entity-1="ent0002" data-entity-2="ent0001" id="lnk3" data-source-line="13" data-link-type="extension"><path d="M118.59,623.15 C139.23,623.15 143.73,623.15 160.68,623.15" style="stroke:#75607F;stroke-width:1;" fill="none" id="User-to-Guest"/><polygon points="178.68,623.15,160.68,617.15,160.68,629.15,178.68,623.15" fill="none" style="stroke:#75607F;stroke-width:1;stroke-linejoin:miter;stroke-miterlimit:10;"/></g><!--link Guest to UC_Reg--><g class="link" data-entity-1="ent0001" data-entity-2="ent0005" id="lnk22" data-source-line="38" data-link-type="association"><path d="M234.52,608.18 C246.16,602.08 260.09,595.26 273.13,590.15 C297.7,580.52 326.34,572.34 348.38,566.66" style="stroke:#75607F;stroke-width:1;" fill="none" id="Guest-UC_Reg"/></g><!--link Guest to UC_Login--><g class="link" data-entity-1="ent0001" data-entity-2="ent0006" id="lnk23" data-source-line="39" data-link-type="association"><path d="M210.48,662.01 C215.74,702.21 230.68,763.08 273.13,792.15 C346.52,842.42 390.83,825.53 473.28,792.15 C527.76,770.1 542.51,752.98 568.28,700.15 C623.35,587.27 539.13,529.95 598.28,419.15 C611.61,394.2 638.45,374.78 657.39,363.41" style="stroke:#75607F;stroke-width:1;" fill="none" id="Guest-UC_Login"/></g><!--link Guest to UC_Theme--><g class="link" data-entity-1="ent0001" data-entity-2="ent0009" id="lnk24" data-source-line="40" data-link-type="association"><path d="M234.45,623.15 C256.73,623.15 289.39,623.15 318.53,623.15" style="stroke:#75607F;stroke-width:1;" fill="none" id="Guest-UC_Theme"/></g><!--link User to UC_Create--><g class="link" data-entity-1="ent0002" data-entity-2="ent0010" id="lnk25" data-source-line="42" data-link-type="association"><path d="M62.71,662.18 C64.32,738.06 79.67,905.25 179.13,987.15 C213.2,1015.21 229.59,1011.95 273.13,1019.15 C403.62,1040.75 471.17,1070.95 568.28,981.15 C633.75,920.62 665.26,812.64 675,773.15" style="stroke:#75607F;stroke-width:1;" fill="none" id="User-UC_Create"/></g><!--link User to UC_View--><g class="link" data-entity-1="ent0002" data-entity-2="ent0011" id="lnk26" data-source-line="43" data-link-type="association"><path d="M71.47,584.13 C86.44,519.71 121.68,388.47 179.13,290.15 C211.4,234.92 219.27,215.66 273.13,181.15 C292.82,168.54 317.59,160.78 338.74,156.07" style="stroke:#75607F;stroke-width:1;" fill="none" id="User-UC_View"/></g><!--link User to UC_Edit--><g class="link" data-entity-1="ent0002" data-entity-2="ent0012" id="lnk27" data-source-line="44" data-link-type="association"><path d="M68.2,662.1 C78.88,736.27 106.01,893.26 148.13,925.15 C297,1037.88 426.74,1046.96 568.28,925.15 C636.08,866.81 543.47,796.84 598.28,726.15 C608.28,713.25 624.11,705.19 639.07,700.17" style="stroke:#75607F;stroke-width:1;" fill="none" id="User-UC_Edit"/></g><!--link User to UC_Delete--><g class="link" data-entity-1="ent0002" data-entity-2="ent0013" id="lnk28" data-source-line="45" data-link-type="association"><path d="M73.63,584.09 C96.52,507.11 158.11,335.42 273.13,245.15 C289.55,232.27 310.96,224.57 330.6,219.97" style="stroke:#75607F;stroke-width:1;" fill="none" id="User-UC_Delete"/></g><!--link User to UC_Search--><g class="link" data-entity-1="ent0002" data-entity-2="ent0017" id="lnk29" data-source-line="46" data-link-type="association"><path d="M87.56,661.94 C121.92,712.27 189.67,797.71 273.13,832.15 C355.36,866.09 386.58,852.04 473.28,832.15 C519.01,821.67 538.9,822.72 568.28,786.15 C604.34,741.28 581.23,715.13 598.28,660.15 C621.1,586.6 656.87,501.71 671.66,467.56" style="stroke:#75607F;stroke-width:1;" fill="none" id="User-UC_Search"/></g><!--link User to UC_TagFilter--><g class="link" data-entity-1="ent0002" data-entity-2="ent0018" id="lnk30" data-source-line="47" data-link-type="association"><path d="M85.55,584.01 C118.99,529.66 187.22,432.56 273.13,384.15 C291.93,373.56 314.42,365.88 334.23,360.53" style="stroke:#75607F;stroke-width:1;" fill="none" id="User-UC_TagFilter"/></g><!--link User to UC_Recent--><g class="link" data-entity-1="ent0002" data-entity-2="ent0019" id="lnk31" data-source-line="48" data-link-type="association"><path d="M100.64,584.12 C140.2,545.09 205.97,485.87 273.13,450.15 C291.69,440.28 313.61,432.97 333.05,427.77" style="stroke:#75607F;stroke-width:1;" fill="none" id="User-UC_Recent"/></g><!--link User to UC_Logout--><g class="link" data-entity-1="ent0002" data-entity-2="ent0008" id="lnk32" data-source-line="49" data-link-type="association"><path d="M118.41,654.32 C160.05,676.89 219,707.03 273.13,728.15 C298.74,738.15 328.75,746.61 351.12,752.32" style="stroke:#75607F;stroke-width:1;" fill="none" id="User-UC_Logout"/></g><!--link UC_Google to Google--><g class="link" data-entity-1="ent0007" data-entity-2="ent0021" id="lnk33" data-source-line="51" data-link-type="association"><path d="M441.85,267.14 C453.59,261.92 464.94,254.81 473.28,245.15 C508.95,203.89 468.57,168.22 503.28,126.15 C541.75,79.54 612.71,57.94 651.45,49.22" style="stroke:#75607F;stroke-width:1;" fill="none" id="UC_Google-Google"/></g><!--link UC_Google to UC_Login--><g class="link" data-entity-1="ent0007" data-entity-2="ent0006" id="lnk34" data-source-line="53" data-link-type="dependency"><path d="M442.89,294.93 C504.97,310.01 597.1714,332.4091 644.9814,344.0291" style="stroke:#75607F;stroke-width:1;stroke-dasharray:7,7;" fill="none" id="UC_Google-to-UC_Login"/><polygon points="649.84,345.21,642.0393,339.1976,644.9814,344.0291,640.1499,346.9713,649.84,345.21" fill="#75607F" style="stroke:#75607F;stroke-width:1;stroke-linejoin:miter;stroke-miterlimit:10;"/><text x="505.28" y="307.2169" fill="#000000" font-size="13" lengthAdjust="spacing" textLength="61.1851" font-family="sans-serif">«extend»</text></g><!--link UC_Attach to UC_Edit--><g class="link" data-entity-1="ent0016" data-entity-2="ent0012" id="lnk35" data-source-line="54" data-link-type="dependency"><path d="M467.22,692.15 C520.08,692.15 582.24,692.15 626.47,692.15" style="stroke:#75607F;stroke-width:1;stroke-dasharray:7,7;" fill="none" id="UC_Attach-to-UC_Edit"/><polygon points="631.47,692.15,622.47,688.15,626.47,692.15,622.47,696.15,631.47,692.15" fill="#75607F" style="stroke:#75607F;stroke-width:1;stroke-linejoin:miter;stroke-miterlimit:10;"/><text x="505.28" y="688.2169" fill="#000000" font-size="13" lengthAdjust="spacing" textLength="61.1851" font-family="sans-serif">«extend»</text></g><!--link UC_Ops to UC_Search--><g class="link" data-entity-1="ent0020" data-entity-2="ent0017" id="lnk36" data-source-line="55" data-link-type="dependency"><path d="M463.36,478.65 C513.08,472.52 571.6476,465.3119 616.7376,459.7519" style="stroke:#75607F;stroke-width:1;stroke-dasharray:7,7;" fill="none" id="UC_Ops-to-UC_Search"/><polygon points="621.7,459.14,612.2781,456.2715,616.7376,459.7519,613.2572,464.2114,621.7,459.14" fill="#75607F" style="stroke:#75607F;stroke-width:1;stroke-linejoin:miter;stroke-miterlimit:10;"/><text x="505.28" y="462.2169" fill="#000000" font-size="13" lengthAdjust="spacing" textLength="61.1851" font-family="sans-serif">«extend»</text></g><!--link UC_Create to UC_Draft--><g class="link" data-entity-1="ent0010" data-entity-2="ent0014" id="lnk37" data-source-line="56" data-link-type="dependency"><path d="M731.41,750.15 C766.36,744.63 813.79,737.06 855.56,730.15 C869.82,727.79 880.2411,726.0403 894.6711,723.5803" style="stroke:#75607F;stroke-width:1;stroke-dasharray:7,7;" fill="none" id="UC_Create-to-UC_Draft"/><polygon points="899.6,722.74,890.0558,720.3094,894.6711,723.5803,891.4002,728.1956,899.6,722.74" fill="#75607F" style="stroke:#75607F;stroke-width:1;stroke-linejoin:miter;stroke-miterlimit:10;"/><text x="791.56" y="726.2169" fill="#000000" font-size="13" lengthAdjust="spacing" textLength="63.0068" font-family="sans-serif">«include»</text></g><!--link UC_Edit to UC_Draft--><g class="link" data-entity-1="ent0012" data-entity-2="ent0014" id="lnk38" data-source-line="57" data-link-type="dependency"><path d="M726.09,695.41 C770,698.54 832.0927,702.9745 883.3027,706.6245" style="stroke:#75607F;stroke-width:1;stroke-dasharray:7,7;" fill="none" id="UC_Edit-to-UC_Draft"/><polygon points="888.29,706.98,879.5972,702.3503,883.3027,706.6245,879.0284,710.33,888.29,706.98" fill="#75607F" style="stroke:#75607F;stroke-width:1;stroke-linejoin:miter;stroke-miterlimit:10;"/><text x="791.56" y="697.2169" fill="#000000" font-size="13" lengthAdjust="spacing" textLength="63.0068" font-family="sans-serif">«include»</text></g><!--link UC_View to UC_Md--><g class="link" data-entity-1="ent0011" data-entity-2="ent0015" id="lnk39" data-source-line="58" data-link-type="dependency"><path d="M437.78,149.86 C482.18,150.47 541.9905,151.2816 593.1805,151.9816" style="stroke:#75607F;stroke-width:1;stroke-dasharray:7,7;" fill="none" id="UC_View-to-UC_Md"/><polygon points="598.18,152.05,589.2355,147.9273,593.1805,151.9816,589.1261,155.9266,598.18,152.05" fill="#75607F" style="stroke:#75607F;stroke-width:1;stroke-linejoin:miter;stroke-miterlimit:10;"/><text x="504.28" y="147.2169" fill="#000000" font-size="13" lengthAdjust="spacing" textLength="63.0068" font-family="sans-serif">«include»</text></g><!--link UC_Recent to UC_Search--><g class="link" data-entity-1="ent0019" data-entity-2="ent0017" id="lnk40" data-source-line="59" data-link-type="dependency"><path d="M446.4,424.36 C497.69,430.51 565.9255,438.6751 616.3255,444.7151" style="stroke:#75607F;stroke-width:1;stroke-dasharray:7,7;" fill="none" id="UC_Recent-to-UC_Search"/><polygon points="621.29,445.31,612.8299,440.2675,616.3255,444.7151,611.878,448.2107,621.29,445.31" fill="#75607F" style="stroke:#75607F;stroke-width:1;stroke-linejoin:miter;stroke-miterlimit:10;"/><text x="504.28" y="428.2169" fill="#000000" font-size="13" lengthAdjust="spacing" textLength="63.0068" font-family="sans-serif">«include»</text></g><!--link UC_TagFilter to UC_Search--><g class="link" data-entity-1="ent0018" data-entity-2="ent0017" id="lnk41" data-source-line="60" data-link-type="dependency"><path d="M428.49,362.29 C465.61,373.2 520.91,390.1 568.28,407.15 C595.3,416.88 620.8497,427.3511 642.7597,436.6811" style="stroke:#75607F;stroke-width:1;stroke-dasharray:7,7;" fill="none" id="UC_TagFilter-to-UC_Search"/><polygon points="647.36,438.64,640.6467,431.4337,642.7597,436.6811,637.5123,438.7941,647.36,438.64" fill="#75607F" style="stroke:#75607F;stroke-width:1;stroke-linejoin:miter;stroke-miterlimit:10;"/><text x="504.28" y="382.2169" fill="#000000" font-size="13" lengthAdjust="spacing" textLength="63.0068" font-family="sans-serif">«include»</text></g><?plantuml-src XPFFRXCn4CRl-nIZLEBMYWjKGbMaDD1UAA2cvLeDw-ck5SUER6z314Wy14_8a-1_wyoc279OxNppoumzywsYHm_UW9LTxq58IwsNHZTkBVKMBMu0Ms_iokyL0Ux8cGsnv1RRDNQKq_6_g3l50TUZC3kfEtX4vNXcSDIY8_ZM05o6CfqrWnPBeuo5awlqYnbZ1TcYdhzw_V8ygWjhpMug_cYQT5AONG_a_0pGGNeRvLlgfFDaIS2z8vk0-DB41voUVfyNlgdtWDa7uscjJRk6tpz_mMBmFRo0ABfPElXuYLezbrq-X9YdtviEf1wJ8PAQfrUoqo4FEnaQN1iJUeziZevhcS6pOY7Ym9tfuk5zJvjQvYu63QUMbj0Jw72P4SeIXpvBsasGA73WdP1-0aI10sz9qL6RB4tkZqy4mcBmeZ8jAhMlR1Gv-idIKppK1kqwEAlEz4Pmwdwh30f0xx7jDwJhj1P9cGnYHMZRFftGZLZME7KbLLWlVDd3YSUkZXMxdE3ePJ2dIvy3QtoReiaPmyFbtcPB5eDBQ_-FMySTVN14iKEJh1fSEtgDnzbUN2dRBqvdgsPAsYoBqo9PNBR6b38afXp6mSHoSwOKopRLtb4VRtOGpyxczJe0R-3YWhvwqc8-R-ecHoZvy3aKvXZK4IgRFeRAbr2WvBXSIUfM3O8oLJhyXqeVJALkHEp-dCeZ-Vl99c0TwB_0Fm00?></g></svg>