<svg xmlns="http://www.w3.org/2000/svg" xmlns:xlink="http://www.w3.org/1999/xlink" version="1.1" data-diagram-type="DESCRIPTION" style="width:1561px;height:1487px;background:#FFFFFF;" width="1561px" height="1487px" viewBox="0 0 1561 1487" zoomAndPan="magnify" preserveAspectRatio="none" contentStyleType="text/css"><?plantuml 1.2026.7beta3?><defs/><g><!--cluster Noteknock (StudyMap)--><g class="cluster" data-qualified-name="Noteknock .StudyMap." id="ent0006" data-source-line="11"><rect x="281.13" y="99.15" width="1266.08" height="896" fill="none" style="stroke:#181818;stroke-width:1;" rx="2.5" ry="2.5"/><text x="823.6759" y="114.1451" fill="#000000" font-size="14" lengthAdjust="spacing" textLength="180.9883" font-weight="700" font-family="sans-serif">Noteknock (StudyMap)</text></g><!--cluster Auth--><g class="cluster" data-qualified-name="Noteknock .StudyMap..Auth" id="ent0007" data-source-line="13"><rect x="305.13" y="200.15" width="196.3" height="281" fill="none" style="stroke:#181818;stroke-width:1;" rx="2.5" ry="2.5"/><text x="384.5495" y="215.1451" fill="#000000" font-size="14" lengthAdjust="spacing" textLength="37.4609" font-weight="700" font-family="sans-serif">Auth</text></g><!--cluster Notes (real API)--><g class="cluster" data-qualified-name="Noteknock .StudyMap..Notes .real API." id="ent0012" data-source-line="20"><rect x="999.81" y="697.15" width="523.4" height="274" fill="none" style="stroke:#181818;stroke-width:1;" rx="2.5" ry="2.5"/><text x="1198.8347" y="712.1451" fill="#000000" font-size="14" lengthAdjust="spacing" textLength="125.3506" font-weight="700" font-family="sans-serif">Notes (real API)</text></g><!--cluster Discover--><g class="cluster" data-qualified-name="Noteknock .StudyMap..Discover" id="ent0020" data-source-line="30"><rect x="315.24" y="505.15" width="892.25" height="168" fill="none" style="stroke:#181818;stroke-width:1;" rx="2.5" ry="2.5"/><text x="727.2673" y="520.1451" fill="#000000" font-size="14" lengthAdjust="spacing" textLength="68.1953" font-weight="700" font-family="sans-serif">Discover</text></g><!--cluster StudyMap (DB-backed)--><g class="cluster" data-qualified-name="Noteknock .StudyMap..StudyMap .DB-backed." id="ent0025" data-source-line="37"><rect x="320.58" y="697.15" width="530.73" height="244" fill="none" style="stroke:#181818;stroke-width:1;" rx="2.5" ry="2.5"/><text x="495.1159" y="712.1451" fill="#000000" font-size="14" lengthAdjust="spacing" textLength="181.6582" font-weight="700" font-family="sans-serif">StudyMap (DB-backed)</text></g><!--entity UC_Theme--><g class="entity" data-qualified-name="Noteknock .StudyMap..UC_Theme" id="ent0032" data-source-line="46"><ellipse cx="403.2784" cy="159.1526" rx="69.8384" ry="25.4426" fill="#F1F1F1" style="stroke:#181818;stroke-width:0.5;"/><text x="354.7432" y="156.5195" fill="#000000" font-size="14" lengthAdjust="spacing" textLength="97.0703" font-family="sans-serif">Toggle theme</text><text x="360.2154" y="172.8164" fill="#000000" font-size="14" lengthAdjust="spacing" textLength="86.126" font-family="sans-serif">(warm dark)</text></g><!--entity UC_Reg--><g class="entity" data-qualified-name="Noteknock .StudyMap..Auth.UC_Reg" id="ent0008" data-source-line="14"><ellipse cx="403.2828" cy="386.1536" rx="44.2028" ry="14.5236" fill="#F1F1F1" style="stroke:#181818;stroke-width:0.5;"/><text x="374.148" y="390.8021" fill="#000000" font-size="14" lengthAdjust="spacing" textLength="58.2695" font-family="sans-serif">Register</text></g><!--entity UC_Login--><g class="entity" data-qualified-name="Noteknock .StudyMap..Auth.UC_Login" id="ent0009" data-source-line="15"><ellipse cx="403.2772" cy="250.1536" rx="33.0272" ry="14.5236" fill="#F1F1F1" style="stroke:#181818;stroke-width:0.5;"/><text x="382.0448" y="254.8021" fill="#000000" font-size="14" lengthAdjust="spacing" textLength="42.4648" font-family="sans-serif">Log in</text></g><!--entity UC_Google--><g class="entity" data-qualified-name="Noteknock .StudyMap..Auth.UC_Google" id="ent0010" data-source-line="16"><ellipse cx="403.2815" cy="318.1503" rx="82.1515" ry="18.8303" fill="#F1F1F1" style="stroke:#181818;stroke-width:0.5;"/><text x="335.4211" y="322.7987" fill="#000000" font-size="14" lengthAdjust="spacing" textLength="135.7207" font-family="sans-serif">Sign in with Google</text></g><!--entity UC_Logout--><g class="entity" data-qualified-name="Noteknock .StudyMap..Auth.UC_Logout" id="ent0011" data-source-line="17"><ellipse cx="403.2849" cy="450.1536" rx="40.2149" ry="14.5236" fill="#F1F1F1" style="stroke:#181818;stroke-width:0.5;"/><text x="376.97" y="454.8021" fill="#000000" font-size="14" lengthAdjust="spacing" textLength="52.6299" font-family="sans-serif">Log out</text></g><!--entity UC_Create--><g class="entity" data-qualified-name="Noteknock .StudyMap..Notes .real API..UC_Create" id="ent0013" data-source-line="21"><ellipse cx="1076.9014" cy="812.1483" rx="61.0914" ry="14.6183" fill="#F1F1F1" style="stroke:#181818;stroke-width:0.5;"/><text x="1035.4927" y="816.7967" fill="#000000" font-size="14" lengthAdjust="spacing" textLength="82.8174" font-family="sans-serif">Create note</text></g><!--entity UC_View--><g class="entity" data-qualified-name="Noteknock .StudyMap..Notes .real API..UC_View" id="ent0014" data-source-line="22"><ellipse cx="1076.8991" cy="748.1536" rx="52.1591" ry="14.5236" fill="#F1F1F1" style="stroke:#181818;stroke-width:0.5;"/><text x="1042.1384" y="752.8021" fill="#000000" font-size="14" lengthAdjust="spacing" textLength="69.5215" font-family="sans-serif">View note</text></g><!--entity UC_Edit--><g class="entity" data-qualified-name="Noteknock .StudyMap..Notes .real API..UC_Edit" id="ent0015" data-source-line="23"><ellipse cx="1076.9002" cy="876.1536" rx="47.6202" ry="14.5236" fill="#F1F1F1" style="stroke:#181818;stroke-width:0.5;"/><text x="1045.349" y="880.8021" fill="#000000" font-size="14" lengthAdjust="spacing" textLength="63.1025" font-family="sans-serif">Edit note</text></g><!--entity UC_Delete--><g class="entity" data-qualified-name="Noteknock .StudyMap..Notes .real API..UC_Delete" id="ent0016" data-source-line="24"><ellipse cx="1076.8973" cy="940.1495" rx="60.7973" ry="14.5595" fill="#F1F1F1" style="stroke:#181818;stroke-width:0.5;"/><text x="1035.9022" y="944.7979" fill="#000000" font-size="14" lengthAdjust="spacing" textLength="81.9902" font-family="sans-serif">Delete note</text></g><!--entity UC_Draft--><g class="entity" data-qualified-name="Noteknock .StudyMap..Notes .real API..UC_Draft" id="ent0017" data-source-line="25"><ellipse cx="1412.8502" cy="856.146" rx="76.2302" ry="17.646" fill="#F1F1F1" style="stroke:#181818;stroke-width:0.5;"/><text x="1352.0001" y="860.7945" fill="#000000" font-size="14" lengthAdjust="spacing" textLength="121.7002" font-family="sans-serif">Save draft locally</text></g><!--entity UC_Md--><g class="entity" data-qualified-name="Noteknock .StudyMap..Notes .real API..UC_Md" id="ent0018" data-source-line="26"><ellipse cx="1412.8515" cy="757.1499" rx="94.3615" ry="25.3299" fill="#F1F1F1" style="stroke:#181818;stroke-width:0.5;"/><text x="1346.1738" y="754.6813" fill="#000000" font-size="14" lengthAdjust="spacing" textLength="133.3555" font-family="sans-serif">Preview markdown</text><text x="1355.228" y="770.9781" fill="#000000" font-size="14" lengthAdjust="spacing" textLength="115.2471" font-family="sans-serif">(GFM, wiki-links)</text></g><!--entity UC_Attach--><g class="entity" data-qualified-name="Noteknock .StudyMap..Notes .real API..UC_Attach" id="ent0019" data-source-line="27"><ellipse cx="1412.8479" cy="928.1536" rx="81.7679" ry="18.7536" fill="#F1F1F1" style="stroke:#181818;stroke-width:0.5;"/><text x="1345.4353" y="932.802" fill="#000000" font-size="14" lengthAdjust="spacing" textLength="134.8252" font-family="sans-serif">Upload attachment</text></g><!--entity UC_Search--><g class="entity" data-qualified-name="Noteknock .StudyMap..Discover.UC_Search" id="ent0021" data-source-line="31"><ellipse cx="723.8728" cy="622.1466" rx="64.3328" ry="15.2666" fill="#F1F1F1" style="stroke:#181818;stroke-width:0.5;"/><text x="678.0276" y="626.795" fill="#000000" font-size="14" lengthAdjust="spacing" textLength="91.6904" font-family="sans-serif">Search notes</text></g><!--entity UC_TagFilter--><g class="entity" data-qualified-name="Noteknock .StudyMap..Discover.UC_TagFilter" id="ent0022" data-source-line="32"><ellipse cx="403.2808" cy="556.1462" rx="66.1308" ry="15.6262" fill="#F1F1F1" style="stroke:#181818;stroke-width:0.5;"/><text x="355.0566" y="560.7946" fill="#000000" font-size="14" lengthAdjust="spacing" textLength="96.4482" font-family="sans-serif">Filter by #tag</text></g><!--entity UC_Recent--><g class="entity" data-qualified-name="Noteknock .StudyMap..Discover.UC_Recent" id="ent0023" data-source-line="33"><ellipse cx="403.2758" cy="632.1515" rx="72.0458" ry="25.3315" fill="#F1F1F1" style="stroke:#181818;stroke-width:0.5;"/><text x="352.8881" y="629.6805" fill="#000000" font-size="14" lengthAdjust="spacing" textLength="100.7754" font-family="sans-serif">Browse recent</text><text x="359.7138" y="645.9774" fill="#000000" font-size="14" lengthAdjust="spacing" textLength="87.124" font-family="sans-serif">(Dashboard)</text></g><!--entity UC_Ops--><g class="entity" data-qualified-name="Noteknock .StudyMap..Discover.UC_Ops" id="ent0024" data-source-line="34"><ellipse cx="1076.8997" cy="622.1459" rx="114.5897" ry="25.6659" fill="#F1F1F1" style="stroke:#181818;stroke-width:0.5;"/><text x="1002.2137" y="618.102" fill="#000000" font-size="14" lengthAdjust="spacing" textLength="149.3721" font-family="sans-serif">Use search operators</text><text x="996.6663" y="634.3989" fill="#000000" font-size="14" lengthAdjust="spacing" textLength="160.4668" font-family="sans-serif">title: / AND / \"phrase\"</text></g><!--entity UC_QuizGen--><g class="entity" data-qualified-name="Noteknock .StudyMap..StudyMap .DB-backed..UC_QuizGen" id="ent0026" data-source-line="38"><ellipse cx="723.8683" cy="825.1477" rx="111.4383" ry="24.6877" fill="#F1F1F1" style="stroke:#181818;stroke-width:0.5;"/><text x="637.7868" y="824.7554" fill="#000000" font-size="14" lengthAdjust="spacing" textLength="172.1631" font-family="sans-serif">Generate quiz from note</text><text x="675.4391" y="841.0523" fill="#000000" font-size="14" lengthAdjust="spacing" textLength="96.8584" font-family="sans-serif">(AI questions)</text></g><!--entity UC_Quiz--><g class="entity" data-qualified-name="Noteknock .StudyMap..StudyMap .DB-backed..UC_Quiz" id="ent0027" data-source-line="39"><ellipse cx="403.2781" cy="756.1536" rx="50.5881" ry="14.5236" fill="#F1F1F1" style="stroke:#181818;stroke-width:0.5;"/><text x="369.6282" y="760.8021" fill="#000000" font-size="14" lengthAdjust="spacing" textLength="67.2998" font-family="sans-serif">Take quiz</text></g><!--entity UC_QuizRes--><g class="entity" data-qualified-name="Noteknock .StudyMap..StudyMap .DB-backed..UC_QuizRes" id="ent0028" data-source-line="40"><ellipse cx="723.8676" cy="749.1475" rx="71.9876" ry="16.7975" fill="#F1F1F1" style="stroke:#181818;stroke-width:0.5;"/><text x="668.1957" y="753.7959" fill="#000000" font-size="14" lengthAdjust="spacing" textLength="111.3438" font-family="sans-serif">View quiz result</text></g><!--entity UC_Review--><g class="entity" data-qualified-name="Noteknock .StudyMap..StudyMap .DB-backed..UC_Review" id="ent0029" data-source-line="41"><ellipse cx="723.8735" cy="905.1507" rx="87.5035" ry="19.9007" fill="#F1F1F1" style="stroke:#181818;stroke-width:0.5;"/><text x="649.8403" y="909.7991" fill="#000000" font-size="14" lengthAdjust="spacing" textLength="148.0664" font-family="sans-serif">Review (spaced rep.)</text></g><!--entity UC_Streak--><g class="entity" data-qualified-name="Noteknock .StudyMap..StudyMap .DB-backed..UC_Streak" id="ent0030" data-source-line="42"><ellipse cx="403.283" cy="820.1486" rx="62.593" ry="14.9186" fill="#F1F1F1" style="stroke:#181818;stroke-width:0.5;"/><text x="359.7928" y="824.797" fill="#000000" font-size="14" lengthAdjust="spacing" textLength="86.9805" font-family="sans-serif">Track streak</text></g><!--entity UC_Profile--><g class="entity" data-qualified-name="Noteknock .StudyMap..StudyMap .DB-backed..UC_Profile" id="ent0031" data-source-line="43"><ellipse cx="403.28" cy="896.1472" rx="66.7" ry="25.6472" fill="#F1F1F1" style="stroke:#181818;stroke-width:0.5;"/><text x="357.4416" y="893.2181" fill="#000000" font-size="14" lengthAdjust="spacing" textLength="91.6768" font-family="sans-serif">View profile /</text><text x="360.7741" y="909.5149" fill="#000000" font-size="14" lengthAdjust="spacing" textLength="85.0117" font-family="sans-serif">leaderboard</text></g><!--entity Guest--><g class="entity" data-qualified-name="Guest" id="ent0001" data-source-line="5"><ellipse cx="206.63" cy="296" rx="16" ry="16" fill="#F1F1F1" style="stroke:#181818;stroke-width:0.5;"/><path d="M206.63,316 C210.63,316 213.63,316 217.63,312 C225.63,312 233.63,320 233.63,328 L233.63,332 C233.63,336 229.63,340 225.63,340 L187.63,340 C183.63,340 179.63,336 179.63,332 L179.63,328 C179.63,320 187.63,312 195.63,312 C199.63,316 202.63,316 206.63,316" style="stroke:#181818;stroke-width:0.5;" fill="#F1F1F1"/><text x="186.0709" y="353.4951" fill="#000000" font-size="14" lengthAdjust="spacing" textLength="41.1182" font-family="sans-serif">Guest</text></g><!--entity User--><g class="entity" data-qualified-name="User" id="ent0002" data-source-line="6"><ellipse cx="62.0649" cy="953" rx="16" ry="16" fill="#F1F1F1" style="stroke:#181818;stroke-width:0.5;"/><path d="M62.0649,973 C66.0649,973 69.0649,973 73.0649,969 C81.0649,969 89.0649,977 89.0649,985 L89.0649,989 C89.0649,993 85.0649,997 81.0649,997 L43.0649,997 C39.0649,997 35.0649,993 35.0649,989 L35.0649,985 C35.0649,977 43.0649,969 51.0649,969 C55.0649,973 58.0649,973 62.0649,973" style="stroke:#181818;stroke-width:0.5;" fill="#F1F1F1"/><text x="6" y="1010.4951" fill="#000000" font-size="14" lengthAdjust="spacing" textLength="112.1299" font-family="sans-serif">Registered User</text></g><!--entity Google--><g class="entity" data-qualified-name="Google" id="ent0003" data-source-line="7"><ellipse cx="723.87" cy="22" rx="16" ry="16" fill="#F1F1F1" style="stroke:#181818;stroke-width:0.5;"/><path d="M723.87,42 C727.87,42 730.87,42 734.87,38 C742.87,38 750.87,46 750.87,54 L750.87,58 C750.87,62 746.87,66 742.87,66 L704.87,66 C700.87,66 696.87,62 696.87,58 L696.87,54 C696.87,46 704.87,38 712.87,38 C716.87,42 719.87,42 723.87,42" style="stroke:#181818;stroke-width:0.5;" fill="#F1F1F1"/><text x="699.1854" y="79.4951" fill="#000000" font-size="14" lengthAdjust="spacing" textLength="49.3691" font-family="sans-serif">Google</text></g><!--entity AI--><g class="entity" data-qualified-name="AI" id="ent0004" data-source-line="8"><ellipse cx="1076.9023" cy="22" rx="16" ry="16" fill="#F1F1F1" style="stroke:#181818;stroke-width:0.5;"/><path d="M1076.9023,42 C1080.9023,42 1083.9023,42 1087.9023,38 C1095.9023,38 1103.9023,46 1103.9023,54 L1103.9023,58 C1103.9023,62 1099.9023,66 1095.9023,66 L1057.9023,66 C1053.9023,66 1049.9023,62 1049.9023,58 L1049.9023,54 C1049.9023,46 1057.9023,38 1065.9023,38 C1069.9023,42 1072.9023,42 1076.9023,42" style="stroke:#181818;stroke-width:0.5;" fill="#F1F1F1"/><text x="1042.75" y="79.4951" fill="#000000" font-size="14" lengthAdjust="spacing" textLength="68.3047" font-family="sans-serif">AI service</text></g><!--link User to Guest--><g class="link" data-entity-1="ent0002" data-entity-2="ent0001" id="lnk5" data-source-line="9" data-link-type="extension"><path d="M65.98,936.13 C73.3,847.83 95.76,626.6 148.13,449.15 C157.59,417.11 165.0849,398.7561 177.5649,373.1861" style="stroke:#181818;stroke-width:1;" fill="none" id="User-to-Guest"/><polygon points="185.46,357.01,172.1728,370.5544,182.9569,375.8178,185.46,357.01" fill="none" style="stroke:#181818;stroke-width:1;stroke-linejoin:miter;stroke-miterlimit:10;"/></g><!--link Guest to UC_Reg--><g class="link" data-entity-1="ent0001" data-entity-2="ent0008" id="lnk33" data-source-line="50" data-link-type="dependency"><path d="M234.59,335.03 C246.13,341.71 259.96,349 273.13,354.15 C302.6,365.67 332.6193,373.0382 358.7093,378.3182" style="stroke:#181818;stroke-width:1;" fill="none" id="Guest-to-UC_Reg"/><polygon points="363.61,379.31,355.5822,373.6043,358.7093,378.3182,353.9954,381.4453,363.61,379.31" fill="#181818" style="stroke:#181818;stroke-width:1;stroke-linejoin:miter;stroke-miterlimit:10;"/></g><!--link Guest to UC_Login--><g class="link" data-entity-1="ent0001" data-entity-2="ent0009" id="lnk34" data-source-line="51" data-link-type="dependency"><path d="M234.59,301.27 C246.13,294.59 259.96,287.3 273.13,282.15 C305.83,269.36 340.3197,261.4226 366.9397,256.3126" style="stroke:#181818;stroke-width:1;" fill="none" id="Guest-to-UC_Login"/><polygon points="371.85,255.37,362.2573,253.1384,366.9397,256.3126,363.7655,260.9949,371.85,255.37" fill="#181818" style="stroke:#181818;stroke-width:1;stroke-linejoin:miter;stroke-miterlimit:10;"/></g><!--link Guest to UC_Google--><g class="link" data-entity-1="ent0001" data-entity-2="ent0010" id="lnk35" data-source-line="52" data-link-type="dependency"><path d="M234.29,318.15 C256.67,318.15 284.88,318.15 315.88,318.15" style="stroke:#181818;stroke-width:1;" fill="none" id="Guest-to-UC_Google"/><polygon points="320.88,318.15,311.88,314.15,315.88,318.15,311.88,322.15,320.88,318.15" fill="#181818" style="stroke:#181818;stroke-width:1;stroke-linejoin:miter;stroke-miterlimit:10;"/></g><!--link Guest to UC_Theme--><g class="link" data-entity-1="ent0001" data-entity-2="ent0032" id="lnk36" data-source-line="53" data-link-type="dependency"><path d="M226.74,279.14 C238.05,259.18 253.92,235.68 273.13,219.15 C295.34,200.04 320.0046,187.594 345.0946,177.764" style="stroke:#181818;stroke-width:1;" fill="none" id="Guest-to-UC_Theme"/><polygon points="349.75,175.94,339.911,175.4988,345.0946,177.764,342.8294,182.9475,349.75,175.94" fill="#181818" style="stroke:#181818;stroke-width:1;stroke-linejoin:miter;stroke-miterlimit:10;"/></g><!--link UC_Google to Google--><g class="link" data-entity-1="ent0010" data-entity-2="ent0003" id="lnk37" data-source-line="54" data-link-type="dependency"><path d="M461.32,304.46 C477.66,299.03 494.95,291.74 509.43,282.15 C591.11,228.07 658.79,139.552 694.71,87.232" style="stroke:#181818;stroke-width:1;" fill="none" id="UC_Google-to-Google"/><polygon points="697.54,83.11,689.1484,88.2657,694.71,87.232,695.7437,92.7937,697.54,83.11" fill="#181818" style="stroke:#181818;stroke-width:1;stroke-linejoin:miter;stroke-miterlimit:10;"/></g><!--link User to UC_Create--><g class="link" data-entity-1="ent0002" data-entity-2="ent0013" id="lnk38" data-source-line="57" data-link-type="dependency"><path d="M65.02,1014.04 C71.24,1091.82 97.22,1259.15 205.63,1259.15 C205.63,1259.15 205.63,1259.15 724.87,1259.15 C819.21,1259.15 870.17,1285.13 932.31,1214.15 C986.64,1152.08 909.89,907.85 962.31,844.15 C975.65,827.93 991.6239,820.5841 1011.8539,816.3941" style="stroke:#181818;stroke-width:1;" fill="none" id="User-to-UC_Create"/><polygon points="1016.75,815.38,1007.1258,813.2885,1011.8539,816.3941,1008.7483,821.1222,1016.75,815.38" fill="#181818" style="stroke:#181818;stroke-width:1;stroke-linejoin:miter;stroke-miterlimit:10;"/></g><!--link User to UC_View--><g class="link" data-entity-1="ent0002" data-entity-2="ent0014" id="lnk39" data-source-line="58" data-link-type="dependency"><path d="M70.65,1014.22 C85.11,1075.71 122.86,1188.15 205.63,1188.15 C205.63,1188.15 205.63,1188.15 724.87,1188.15 C934.68,1188.15 796.46,908.65 962.31,780.15 C981.02,765.66 1001.0567,758.7084 1022.8067,754.3684" style="stroke:#181818;stroke-width:1;" fill="none" id="User-to-UC_View"/><polygon points="1027.71,753.39,1018.1013,751.2285,1022.8067,754.3684,1019.6667,759.0738,1027.71,753.39" fill="#181818" style="stroke:#181818;stroke-width:1;stroke-linejoin:miter;stroke-miterlimit:10;"/></g><!--link User to UC_Edit--><g class="link" data-entity-1="ent0002" data-entity-2="ent0015" id="lnk40" data-source-line="59" data-link-type="dependency"><path d="M65.91,1014.13 C72.08,1076.25 91.08,1199.43 148.13,1285.15 C166.11,1312.16 173.18,1330.15 205.63,1330.15 C205.63,1330.15 205.63,1330.15 724.87,1330.15 C819.21,1330.15 870.22,1356.18 932.31,1285.15 C987.62,1221.87 908.96,973.08 962.31,908.15 C978.37,888.6 1000.4149,881.1384 1024.0649,877.9484" style="stroke:#181818;stroke-width:1;" fill="none" id="User-to-UC_Edit"/><polygon points="1029.02,877.28,1019.5661,874.519,1024.0649,877.9484,1020.6355,882.4472,1029.02,877.28" fill="#181818" style="stroke:#181818;stroke-width:1;stroke-linejoin:miter;stroke-miterlimit:10;"/></g><!--link User to UC_Delete--><g class="link" data-entity-1="ent0002" data-entity-2="ent0016" id="lnk41" data-source-line="60" data-link-type="dependency"><path d="M63.33,1014.05 C65.54,1086.82 78.65,1246.12 148.13,1356.15 C165.46,1383.59 173.18,1401.15 205.63,1401.15 C205.63,1401.15 205.63,1401.15 724.87,1401.15 C819.21,1401.15 861.76,1418.78 932.31,1356.15 C1058.58,1244.05 1073.7002,1020.4678 1075.5102,960.0678" style="stroke:#181818;stroke-width:1;" fill="none" id="User-to-UC_Delete"/><polygon points="1075.66,955.07,1071.3922,963.9461,1075.5102,960.0678,1079.3886,964.1858,1075.66,955.07" fill="#181818" style="stroke:#181818;stroke-width:1;stroke-linejoin:miter;stroke-miterlimit:10;"/></g><!--link User to UC_Attach--><g class="link" data-entity-1="ent0002" data-entity-2="ent0019" id="lnk42" data-source-line="61" data-link-type="dependency"><path d="M65.82,1014.15 C75.15,1131.31 110.48,1472.15 205.63,1472.15 C205.63,1472.15 205.63,1472.15 1077.9,1472.15 C1329.74,1472.15 1396.9981,1048.4412 1409.0681,952.1512" style="stroke:#181818;stroke-width:1;" fill="none" id="User-to-UC_Attach"/><polygon points="1409.69,947.19,1404.6017,955.6226,1409.0681,952.1512,1412.5395,956.6176,1409.69,947.19" fill="#181818" style="stroke:#181818;stroke-width:1;stroke-linejoin:miter;stroke-miterlimit:10;"/></g><!--link User to UC_Search--><g class="link" data-entity-1="ent0002" data-entity-2="ent0021" id="lnk43" data-source-line="62" data-link-type="dependency"><path d="M118.62,979.94 C238.65,989.01 516.68,1002.63 582.43,941.15 C656.12,872.25 564.15,804.73 612.43,716.15 C631.96,680.34 666.7175,654.8073 692.7575,638.9773" style="stroke:#181818;stroke-width:1;" fill="none" id="User-to-UC_Search"/><polygon points="697.03,636.38,687.2617,637.6371,692.7575,638.9773,691.4174,644.4731,697.03,636.38" fill="#181818" style="stroke:#181818;stroke-width:1;stroke-linejoin:miter;stroke-miterlimit:10;"/></g><!--link User to UC_TagFilter--><g class="link" data-entity-1="ent0002" data-entity-2="ent0022" id="lnk44" data-source-line="63" data-link-type="dependency"><path d="M72.7,936.04 C94.24,857.25 154.02,679.25 273.13,589.15 C292.6,574.42 313.0544,567.1971 336.1344,562.6471" style="stroke:#181818;stroke-width:1;" fill="none" id="User-to-UC_TagFilter"/><polygon points="341.04,561.68,331.4363,559.4963,336.1344,562.6471,332.9836,567.3452,341.04,561.68" fill="#181818" style="stroke:#181818;stroke-width:1;stroke-linejoin:miter;stroke-miterlimit:10;"/></g><!--link User to UC_Recent--><g class="link" data-entity-1="ent0002" data-entity-2="ent0023" id="lnk45" data-source-line="64" data-link-type="dependency"><path d="M86.23,936.33 C108.23,900.73 143.2,847.31 179.13,805.15 C216.45,761.37 227.94,751.76 273.13,716.15 C302.54,692.97 334.1331,672.61 360.6031,656.58" style="stroke:#181818;stroke-width:1;" fill="none" id="User-to-UC_Recent"/><polygon points="364.88,653.99,355.1096,655.2306,360.6031,656.58,359.2537,662.0736,364.88,653.99" fill="#181818" style="stroke:#181818;stroke-width:1;stroke-linejoin:miter;stroke-miterlimit:10;"/></g><!--link User to UC_QuizGen--><g class="link" data-entity-1="ent0002" data-entity-2="ent0026" id="lnk46" data-source-line="65" data-link-type="dependency"><path d="M118.43,999.35 C222.01,1040.47 446.87,1109.54 582.43,1001.15 C629.76,963.31 572.9,914.08 612.43,868.15 C621.63,857.47 629.2825,851.5417 642.1925,845.4917" style="stroke:#181818;stroke-width:1;" fill="none" id="User-to-UC_QuizGen"/><polygon points="646.72,843.37,636.8731,843.5671,642.1925,845.4917,640.2679,850.8111,646.72,843.37" fill="#181818" style="stroke:#181818;stroke-width:1;stroke-linejoin:miter;stroke-miterlimit:10;"/></g><!--link User to UC_Quiz--><g class="link" data-entity-1="ent0002" data-entity-2="ent0027" id="lnk47" data-source-line="66" data-link-type="dependency"><path d="M95.02,936.05 C132.81,892.64 199.88,823.98 273.13,788.15 C299.48,775.26 326.5546,768.1958 352.1046,763.4358" style="stroke:#181818;stroke-width:1;" fill="none" id="User-to-UC_Quiz"/><polygon points="357.02,762.52,347.4396,760.236,352.1046,763.4358,348.9048,768.1007,357.02,762.52" fill="#181818" style="stroke:#181818;stroke-width:1;stroke-linejoin:miter;stroke-miterlimit:10;"/></g><!--link User to UC_Review--><g class="link" data-entity-1="ent0002" data-entity-2="ent0029" id="lnk48" data-source-line="67" data-link-type="dependency"><path d="M85.67,1014.28 C100.42,1035.69 121.81,1060.23 148.13,1072.15 C323.95,1151.81 407.45,1153.63 582.43,1072.15 C648.54,1041.37 692.3872,966.9137 711.1872,929.6637" style="stroke:#181818;stroke-width:1;" fill="none" id="User-to-UC_Review"/><polygon points="713.44,925.2,705.8139,931.4324,711.1872,929.6637,712.9559,935.037,713.44,925.2" fill="#181818" style="stroke:#181818;stroke-width:1;stroke-linejoin:miter;stroke-miterlimit:10;"/></g><!--link User to UC_Streak--><g class="link" data-entity-1="ent0002" data-entity-2="ent0030" id="lnk49" data-source-line="68" data-link-type="dependency"><path d="M118.25,941 C128.16,934.98 138.42,928.83 148.13,923.15 C203.08,890.98 214.01,876.79 273.13,853.15 C298.92,842.84 324.0298,836.038 348.6098,830.558" style="stroke:#181818;stroke-width:1;" fill="none" id="User-to-UC_Streak"/><polygon points="353.49,829.47,343.8353,827.5243,348.6098,830.558,345.5761,835.3326,353.49,829.47" fill="#181818" style="stroke:#181818;stroke-width:1;stroke-linejoin:miter;stroke-miterlimit:10;"/></g><!--link User to UC_Profile--><g class="link" data-entity-1="ent0002" data-entity-2="ent0031" id="lnk50" data-source-line="69" data-link-type="dependency"><path d="M118.23,957.49 C128.14,954.55 138.41,951.64 148.13,949.15 C214.06,932.24 285.7172,917.7698 337.4472,907.9798" style="stroke:#181818;stroke-width:1;" fill="none" id="User-to-UC_Profile"/><polygon points="342.36,907.05,332.7732,904.7933,337.4472,907.9798,334.2608,912.6538,342.36,907.05" fill="#181818" style="stroke:#181818;stroke-width:1;stroke-linejoin:miter;stroke-miterlimit:10;"/></g><!--link User to UC_Logout--><g class="link" data-entity-1="ent0002" data-entity-2="ent0011" id="lnk51" data-source-line="70" data-link-type="dependency"><path d="M70.74,936.16 C84.91,870.12 119.32,733.54 179.13,632.15 C211.46,577.34 223.95,564.53 273.13,524.15 C305.88,497.26 345.1624,476.5927 372.4024,463.6727" style="stroke:#181818;stroke-width:1;" fill="none" id="User-to-UC_Logout"/><polygon points="376.92,461.53,367.0741,461.7728,372.4024,463.6727,370.5025,469.001,376.92,461.53" fill="#181818" style="stroke:#181818;stroke-width:1;stroke-linejoin:miter;stroke-miterlimit:10;"/></g><!--link UC_QuizGen to AI--><g class="link" data-entity-1="ent0026" data-entity-2="ent0004" id="lnk52" data-source-line="73" data-link-type="dependency"><path d="M819.28,812.03 C834.85,805.7 849.18,796.49 859.31,783.15 C868.01,771.68 864.16,538.2 867.31,524.15 C906.1,351.03 1004.5693,167.1055 1050.2993,87.5055" style="stroke:#181818;stroke-width:1;" fill="none" id="UC_QuizGen-to-AI"/><polygon points="1052.79,83.17,1044.8383,88.9813,1050.2993,87.5055,1051.7751,92.9664,1052.79,83.17" fill="#181818" style="stroke:#181818;stroke-width:1;stroke-linejoin:miter;stroke-miterlimit:10;"/></g><!--link UC_QuizGen to UC_View--><g class="link" data-entity-1="ent0026" data-entity-2="ent0014" id="lnk53" data-source-line="74" data-link-type="dependency"><path d="M804.09,807.77 C875.87,792.03 973.896,770.5209 1030.266,758.1609" style="stroke:#181818;stroke-width:1;stroke-dasharray:7,7;" fill="none" id="UC_QuizGen-to-UC_View"/><polygon points="1035.15,757.09,1025.5021,755.1104,1030.266,758.1609,1027.2156,762.9248,1035.15,757.09" fill="#181818" style="stroke:#181818;stroke-width:1;stroke-linejoin:miter;stroke-miterlimit:10;"/><text x="868.31" y="776.2169" fill="#000000" font-size="13" lengthAdjust="spacing" textLength="63.0068" font-family="sans-serif">«include»</text></g><!--link UC_Quiz to UC_QuizGen--><g class="link" data-entity-1="ent0027" data-entity-2="ent0026" id="lnk54" data-source-line="75" data-link-type="dependency"><path d="M444.63,764.89 C494.28,775.64 574.8432,793.092 637.9832,806.762" style="stroke:#181818;stroke-width:1;stroke-dasharray:7,7;" fill="none" id="UC_Quiz-to-UC_QuizGen"/><polygon points="642.87,807.82,634.9202,802.0062,637.9832,806.762,633.2274,809.825,642.87,807.82" fill="#181818" style="stroke:#181818;stroke-width:1;stroke-linejoin:miter;stroke-miterlimit:10;"/><text x="518.43" y="779.2169" fill="#000000" font-size="13" lengthAdjust="spacing" textLength="63.0068" font-family="sans-serif">«include»</text></g><!--link UC_Create to UC_Draft--><g class="link" data-entity-1="ent0013" data-entity-2="ent0017" id="lnk55" data-source-line="78" data-link-type="dependency"><path d="M1131.18,819.17 C1189.47,826.85 1277.9828,838.5173 1340.8728,846.7973" style="stroke:#181818;stroke-width:1;stroke-dasharray:7,7;" fill="none" id="UC_Create-to-UC_Draft"/><polygon points="1345.83,847.45,1337.4291,842.3094,1340.8728,846.7973,1336.3849,850.241,1345.83,847.45" fill="#181818" style="stroke:#181818;stroke-width:1;stroke-linejoin:miter;stroke-miterlimit:10;"/><text x="1224.49" y="828.2169" fill="#000000" font-size="13" lengthAdjust="spacing" textLength="63.0068" font-family="sans-serif">«include»</text></g><!--link UC_Edit to UC_Draft--><g class="link" data-entity-1="ent0015" data-entity-2="ent0017" id="lnk56" data-source-line="79" data-link-type="dependency"><path d="M1124.35,874.39 C1167.04,872.67 1232.06,869.78 1288.49,866.15 C1305.43,865.06 1318.6759,864.0888 1335.7959,862.7188" style="stroke:#181818;stroke-width:1;stroke-dasharray:7,7;" fill="none" id="UC_Edit-to-UC_Draft"/><polygon points="1340.78,862.32,1331.4896,859.0507,1335.7959,862.7188,1332.1278,867.0252,1340.78,862.32" fill="#181818" style="stroke:#181818;stroke-width:1;stroke-linejoin:miter;stroke-miterlimit:10;"/><text x="1224.49" y="862.2169" fill="#000000" font-size="13" lengthAdjust="spacing" textLength="63.0068" font-family="sans-serif">«include»</text></g><!--link UC_Edit to UC_Attach--><g class="link" data-entity-1="ent0015" data-entity-2="ent0019" id="lnk57" data-source-line="80" data-link-type="dependency"><path d="M1119.86,882.68 C1176.18,891.45 1271.9595,906.3711 1339.1095,916.8211" style="stroke:#181818;stroke-width:1;stroke-dasharray:7,7;" fill="none" id="UC_Edit-to-UC_Attach"/><polygon points="1344.05,917.59,1335.7721,912.2536,1339.1095,916.8211,1334.542,920.1585,1344.05,917.59" fill="#181818" style="stroke:#181818;stroke-width:1;stroke-linejoin:miter;stroke-miterlimit:10;"/><text x="1225.49" y="895.2169" fill="#000000" font-size="13" lengthAdjust="spacing" textLength="61.1851" font-family="sans-serif">«extend»</text></g><!--link UC_View to UC_Md--><g class="link" data-entity-1="ent0014" data-entity-2="ent0018" id="lnk58" data-source-line="81" data-link-type="dependency"><path d="M1128.98,749.53 C1179.32,750.88 1252.3918,752.8556 1313.7718,754.5056" style="stroke:#181818;stroke-width:1;stroke-dasharray:7,7;" fill="none" id="UC_View-to-UC_Md"/><polygon points="1318.77,754.64,1309.8807,750.3996,1313.7718,754.5056,1309.6658,758.3967,1318.77,754.64" fill="#181818" style="stroke:#181818;stroke-width:1;stroke-linejoin:miter;stroke-miterlimit:10;"/><text x="1224.49" y="748.2169" fill="#000000" font-size="13" lengthAdjust="spacing" textLength="63.0068" font-family="sans-serif">«include»</text></g><!--link UC_Quiz to UC_QuizRes--><g class="link" data-entity-1="ent0027" data-entity-2="ent0028" id="lnk59" data-source-line="82" data-link-type="dependency"><path d="M454.06,755.06 C507.18,753.89 586.7712,752.1398 646.8712,750.8198" style="stroke:#181818;stroke-width:1;stroke-dasharray:7,7;" fill="none" id="UC_Quiz-to-UC_QuizRes"/><polygon points="651.87,750.71,642.7843,746.9086,646.8712,750.8198,642.96,754.9067,651.87,750.71" fill="#181818" style="stroke:#181818;stroke-width:1;stroke-linejoin:miter;stroke-miterlimit:10;"/><text x="518.43" y="749.2169" fill="#000000" font-size="13" lengthAdjust="spacing" textLength="63.0068" font-family="sans-serif">«include»</text></g><!--link UC_Quiz to UC_Review--><g class="link" data-entity-1="ent0027" data-entity-2="ent0029" id="lnk60" data-source-line="83" data-link-type="dependency"><path d="M452.03,760.43 C472.21,764.59 494.45,772.64 509.43,788.15 C519.02,798.08 508.78,807.4 517.43,818.15 C547.22,855.16 568.75,848.48 612.43,867.15 C631.17,875.16 647.4791,881.1412 666.1291,887.3912" style="stroke:#181818;stroke-width:1;stroke-dasharray:7,7;" fill="none" id="UC_Quiz-to-UC_Review"/><polygon points="670.87,888.98,663.6074,882.3275,666.1291,887.3912,661.0654,889.9129,670.87,888.98" fill="#181818" style="stroke:#181818;stroke-width:1;stroke-linejoin:miter;stroke-miterlimit:10;"/><text x="518.43" y="814.2169" fill="#000000" font-size="13" lengthAdjust="spacing" textLength="63.0068" font-family="sans-serif">«include»</text></g><!--link UC_Search to UC_Ops--><g class="link" data-entity-1="ent0021" data-entity-2="ent0024" id="lnk61" data-source-line="84" data-link-type="dependency"><path d="M788.44,622.15 C836.75,622.15 899.47,622.15 957.05,622.15" style="stroke:#181818;stroke-width:1;stroke-dasharray:7,7;" fill="none" id="UC_Search-to-UC_Ops"/><polygon points="962.05,622.15,953.05,618.15,957.05,622.15,953.05,626.15,962.05,622.15" fill="#181818" style="stroke:#181818;stroke-width:1;stroke-linejoin:miter;stroke-miterlimit:10;"/><text x="869.31" y="618.2169" fill="#000000" font-size="13" lengthAdjust="spacing" textLength="61.1851" font-family="sans-serif">«extend»</text></g><!--link UC_Recent to UC_Search--><g class="link" data-entity-1="ent0023" data-entity-2="ent0021" id="lnk62" data-source-line="85" data-link-type="dependency"><path d="M475.38,629.92 C530.67,628.18 601.6725,625.9571 654.8125,624.2871" style="stroke:#181818;stroke-width:1;stroke-dasharray:7,7;" fill="none" id="UC_Recent-to-UC_Search"/><polygon points="659.81,624.13,650.6888,620.4147,654.8125,624.2871,650.9401,628.4107,659.81,624.13" fill="#181818" style="stroke:#181818;stroke-width:1;stroke-linejoin:miter;stroke-miterlimit:10;"/><text x="518.43" y="623.2169" fill="#000000" font-size="13" lengthAdjust="spacing" textLength="63.0068" font-family="sans-serif">«include»</text></g><!--link UC_TagFilter to UC_Search--><g class="link" data-entity-1="ent0022" data-entity-2="ent0021" id="lnk63" data-source-line="86" data-link-type="dependency"><path d="M454.06,566.46 C514.18,578.92 609.724,598.7055 669.324,611.0555" style="stroke:#181818;stroke-width:1;stroke-dasharray:7,7;" fill="none" id="UC_TagFilter-to-UC_Search"/><polygon points="674.22,612.07,666.2188,606.3271,669.324,611.0555,664.5956,614.1607,674.22,612.07" fill="#181818" style="stroke:#181818;stroke-width:1;stroke-linejoin:miter;stroke-miterlimit:10;"/><text x="518.43" y="578.2169" fill="#000000" font-size="13" lengthAdjust="spacing" textLength="63.0068" font-family="sans-serif">«include»</text></g><?plantuml-src ZLLRRzCm57xFhpWg3tGI7Uy8LIeKfaaCnZPugeIyv2onujh1Tbl6vRzpV4lj1W5zg9BlVET-YS072rQ1vcrdeU4QQykLh4pFvS0qsyB0wfwrU6iV1O8JCzaAp0Yijae7CJkWKLkiAe_1x6A7niw06V1F2Rx1bXkB6XluP51xWdiOrPGY5q7FFoR1wXA8jkTr4AukAwS6YyNFPVHGZH72xBsos4jLzp2_jRlcyOeDPpFuKLMGaYABEziv3EYtCrWpWyVuGc2llz1xINYdMk0oYUcDov9morj933Xmsq6M3h5ZHXDxQcSpW_H6b5z5h2uV0tEDJC3g-l9i4lTh4ba4IRnaAa0bxJF7Gq5oG4bvqt1RK1nGKjOeyCHPW4ugmVO8ZMOqPaBLJ8Z7aUt0adojSU-2spBTD-eWDt9-yVRg6PMnvml1PM_EalPLKwf-6eHY3J1hMTrjKOx5N7baKimrDxNQknwV5F4McQuxdvT9DW9MyjvoGIC2zu_mnB8sCUzO6mGb-PLM1-FNXoAZhDRCTFUAwURiE6DET98J_PaGZXfGCze1iv6MMu4lu3citg_fVpCREatqpIoP-Z2OIRff0M2-VhMu9nIRwVnSe7HU4Bxk-7Tuq6hhoq3nqk9zTVj5f-7OWe_48fNInXthWtxE-iFyUHSQpKxOd7c3vdGN_KJC3QL2zqBZS9xLR3-Pt3jDoO6nDFVzs3x_zeSW1gqUE9sAvnifa3MeVK-IsdMGfbeUNQZMtHVRuTRLvi3q5XgQs36kEoUfIEbfk4fGiu7TSy4jf_G2j5WiqsafW71C2YXUZ08BBaQXXoEFlFghM3YDTtAPtOGSyXSW1_o-vq3SxHoAcvL3SL5owBWHEHh7FOVIE9rY9thxqr1ZTtCeTIx7ub6bwZYZmDtdOz76YM_2j3C_xzKn6A_iFZD7vFnyh1YyW9SlkQp5hi7bCf4I8ocK9F9_WuBvJUeuRUhOaAJdx-BKj3_9_qy9pV4S_6PHDe7YmuwKg-RV2T0-_fqKztF2YMSqikWaJK898v0OaJ-nCuxFtuY_0G00?></g></svg>