<svg xmlns="http://www.w3.org/2000/svg" xmlns:xlink="http://www.w3.org/1999/xlink" version="1.1" data-diagram-type="DESCRIPTION" style="width:966px;height:375px;background:#FFFFFF;" width="966px" height="375px" viewBox="0 0 966 375" zoomAndPan="magnify" preserveAspectRatio="none" contentStyleType="text/css"><?plantuml 1.2026.7beta3?><defs/><g><!--cluster Noteknock — StudyMap & AI quiz--><g class="cluster" data-qualified-name="Noteknock . StudyMap . AI quiz" id="ent0002" data-source-line="13"><rect x="165.13" y="7" width="787.41" height="239" fill="none" style="stroke:#181818;stroke-width:1;" rx="2.5" ry="2.5"/><text x="427.397" y="21.9951" fill="#000000" font-size="14" lengthAdjust="spacing" textLength="262.876" font-weight="700" font-family="sans-serif">Noteknock — StudyMap &amp; AI quiz</text></g><!--entity UC_QuizGen--><g class="entity" data-qualified-name="Noteknock . StudyMap . AI quiz.UC_QuizGen" id="ent0003" data-source-line="14"><ellipse cx="608.9863" cy="132.9973" rx="98.2363" ry="22.0473" fill="#FFFFFF" style="stroke:#75607F;stroke-width:0.5;"/><text x="522.9048" y="137.6457" fill="#000000" font-size="14" lengthAdjust="spacing" textLength="172.1631" font-family="sans-serif">Generate quiz from note</text></g><!--entity UC_Quiz--><g class="entity" data-qualified-name="Noteknock . StudyMap . AI quiz.UC_Quiz" id="ent0004" data-source-line="15"><ellipse cx="283.4381" cy="59.0036" rx="50.5881" ry="14.5236" fill="#FFFFFF" style="stroke:#75607F;stroke-width:0.5;"/><text x="249.7882" y="63.6521" fill="#000000" font-size="14" lengthAdjust="spacing" textLength="67.2998" font-family="sans-serif">Take quiz</text></g><!--entity UC_QuizRes--><g class="entity" data-qualified-name="Noteknock . StudyMap . AI quiz.UC_QuizRes" id="ent0005" data-source-line="16"><ellipse cx="608.9876" cy="58.9975" rx="71.9876" ry="16.7975" fill="#FFFFFF" style="stroke:#75607F;stroke-width:0.5;"/><text x="553.3157" y="63.6459" fill="#000000" font-size="14" lengthAdjust="spacing" textLength="111.3438" font-family="sans-serif">View quiz result</text></g><!--entity UC_Review--><g class="entity" data-qualified-name="Noteknock . StudyMap . AI quiz.UC_Review" id="ent0006" data-source-line="17"><ellipse cx="608.9935" cy="210.0007" rx="87.5035" ry="19.9007" fill="#FFFFFF" style="stroke:#75607F;stroke-width:0.5;"/><text x="534.9603" y="214.6491" fill="#000000" font-size="14" lengthAdjust="spacing" textLength="148.0664" font-family="sans-serif">Review (spaced rep.)</text></g><!--entity UC_Streak--><g class="entity" data-qualified-name="Noteknock . StudyMap . AI quiz.UC_Streak" id="ent0007" data-source-line="18"><ellipse cx="283.443" cy="122.9986" rx="62.593" ry="14.9186" fill="#FFFFFF" style="stroke:#75607F;stroke-width:0.5;"/><text x="239.9528" y="127.647" fill="#000000" font-size="14" lengthAdjust="spacing" textLength="86.9805" font-family="sans-serif">Track streak</text></g><!--entity UC_Profile--><g class="entity" data-qualified-name="Noteknock . StudyMap . AI quiz.UC_Profile" id="ent0008" data-source-line="19"><ellipse cx="283.4413" cy="196.0023" rx="102.3113" ry="22.8623" fill="#FFFFFF" style="stroke:#75607F;stroke-width:0.5;"/><text x="192.8719" y="200.6507" fill="#000000" font-size="14" lengthAdjust="spacing" textLength="181.1387" font-family="sans-serif">View profile / leaderboard</text></g><!--entity UC_View--><g class="entity" data-qualified-name="Noteknock . StudyMap . AI quiz.UC_View" id="ent0009" data-source-line="20"><ellipse cx="884.3791" cy="133.0036" rx="52.1591" ry="14.5236" fill="#FFFFFF" style="stroke:#75607F;stroke-width:0.5;"/><text x="849.6184" y="137.6521" fill="#000000" font-size="14" lengthAdjust="spacing" textLength="69.5215" font-family="sans-serif">View note</text></g><!--entity User--><g class="entity" data-qualified-name="User" id="ent0001" data-source-line="11"><ellipse cx="62.0649" cy="173.85" rx="16" ry="16" fill="#F1F1F1" style="stroke:#181818;stroke-width:0.5;"/><path d="M62.0649,193.85 C66.0649,193.85 69.0649,193.85 73.0649,189.85 C81.0649,189.85 89.0649,197.85 89.0649,205.85 L89.0649,209.85 C89.0649,213.85 85.0649,217.85 81.0649,217.85 L43.0649,217.85 C39.0649,217.85 35.0649,213.85 35.0649,209.85 L35.0649,205.85 C35.0649,197.85 43.0649,189.85 51.0649,189.85 C55.0649,193.85 58.0649,193.85 62.0649,193.85" style="stroke:#181818;stroke-width:0.5;" fill="#F1F1F1"/><text x="6" y="231.3451" fill="#000000" font-size="14" lengthAdjust="spacing" textLength="112.1299" font-family="sans-serif">Registered User</text></g><!--entity AI--><g class="entity" data-qualified-name="AI" id="ent0010" data-source-line="23"><ellipse cx="884.3823" cy="278.85" rx="16" ry="16" fill="#F1F1F1" style="stroke:#181818;stroke-width:0.5;"/><path d="M884.3823,298.85 C888.3823,298.85 891.3823,298.85 895.3823,294.85 C903.3823,294.85 911.3823,302.85 911.3823,310.85 L911.3823,314.85 C911.3823,318.85 907.3823,322.85 903.3823,322.85 L865.3823,322.85 C861.3823,322.85 857.3823,318.85 857.3823,314.85 L857.3823,310.85 C857.3823,302.85 865.3823,294.85 873.3823,294.85 C877.3823,298.85 880.3823,298.85 884.3823,298.85" style="stroke:#181818;stroke-width:0.5;" fill="#F1F1F1"/><text x="850.23" y="336.3451" fill="#000000" font-size="14" lengthAdjust="spacing" textLength="68.3047" font-family="sans-serif">AI service</text></g><!--link User to UC_Quiz--><g class="link" data-entity-1="ent0001" data-entity-2="ent0004" id="lnk11" data-source-line="25" data-link-type="association"><path d="M89.03,156.98 C105.91,134.53 129.82,107.56 157.13,91 C180.94,76.56 211.08,68.61 235.84,64.24" style="stroke:#75607F;stroke-width:1;" fill="none" id="User-UC_Quiz"/></g><!--link User to UC_QuizGen--><g class="link" data-entity-1="ent0001" data-entity-2="ent0003" id="lnk12" data-source-line="26" data-link-type="association"><path d="M118.58,223.93 C130.97,228.93 144.26,233.38 157.13,236 C256.69,256.29 286.9,259.5 385.75,236 C446.28,221.61 454.17,198.85 510.75,173 C526.36,165.87 543.61,158.58 559.2,152.22" style="stroke:#75607F;stroke-width:1;" fill="none" id="User-UC_QuizGen"/></g><!--link User to UC_Review--><g class="link" data-entity-1="ent0001" data-entity-2="ent0006" id="lnk13" data-source-line="27" data-link-type="association"><path d="M83.87,235.01 C98.48,257.98 120.36,285 148.13,298 C282.02,360.68 339.63,342.05 480.75,298 C523.57,284.64 564.67,251.26 588.07,229.67" style="stroke:#75607F;stroke-width:1;" fill="none" id="User-UC_Review"/></g><!--link User to UC_Streak--><g class="link" data-entity-1="ent0001" data-entity-2="ent0007" id="lnk14" data-source-line="28" data-link-type="association"><path d="M118.51,170.86 C131.07,165.6 144.45,160.34 157.13,156 C183.1,147.11 212.77,139.2 236.73,133.36" style="stroke:#75607F;stroke-width:1;" fill="none" id="User-UC_Streak"/></g><!--link User to UC_Profile--><g class="link" data-entity-1="ent0001" data-entity-2="ent0008" id="lnk15" data-source-line="29" data-link-type="association"><path d="M118.42,196 C137.46,196 159.42,196 180.96,196" style="stroke:#75607F;stroke-width:1;" fill="none" id="User-UC_Profile"/></g><!--link UC_QuizGen to AI--><g class="link" data-entity-1="ent0003" data-entity-2="ent0010" id="lnk16" data-source-line="31" data-link-type="association"><path d="M662.28,151.85 C677.15,157.91 693.12,165.12 707.23,173 C760.03,202.49 815.64,245.12 849.93,272.94" style="stroke:#75607F;stroke-width:1;" fill="none" id="UC_QuizGen-AI"/></g><!--link UC_Quiz to UC_QuizGen--><g class="link" data-entity-1="ent0004" data-entity-2="ent0003" id="lnk17" data-source-line="33" data-link-type="dependency"><path d="M324.11,68.08 C377.52,80.29 468.5059,101.0952 533.9159,116.0552" style="stroke:#75607F;stroke-width:1;stroke-dasharray:7,7;" fill="none" id="UC_Quiz-to-UC_QuizGen"/><polygon points="538.79,117.17,530.9084,111.2641,533.9159,116.0552,529.1247,119.0627,538.79,117.17" fill="#75607F" style="stroke:#75607F;stroke-width:1;stroke-linejoin:miter;stroke-miterlimit:10;"/><text x="416.75" y="86.0669" fill="#000000" font-size="13" lengthAdjust="spacing" textLength="63.0068" font-family="sans-serif">«include»</text></g><!--link UC_Quiz to UC_QuizRes--><g class="link" data-entity-1="ent0004" data-entity-2="ent0005" id="lnk18" data-source-line="34" data-link-type="dependency"><path d="M334.29,59 C388.44,59 470.41,59 531.76,59" style="stroke:#75607F;stroke-width:1;stroke-dasharray:7,7;" fill="none" id="UC_Quiz-to-UC_QuizRes"/><polygon points="536.76,59,527.76,55,531.76,59,527.76,63,536.76,59" fill="#75607F" style="stroke:#75607F;stroke-width:1;stroke-linejoin:miter;stroke-miterlimit:10;"/><text x="416.75" y="55.0669" fill="#000000" font-size="13" lengthAdjust="spacing" textLength="63.0068" font-family="sans-serif">«include»</text></g><!--link UC_Quiz to UC_Review--><g class="link" data-entity-1="ent0004" data-entity-2="ent0006" id="lnk19" data-source-line="35" data-link-type="dependency"><path d="M327.08,66.63 C346.19,71.46 368.29,79.12 385.75,91 C403.25,102.92 399.11,114.92 415.75,128 C452.49,156.86 467.78,154.68 510.75,173 C527.04,179.94 540.4205,185.2287 556.5205,191.2887" style="stroke:#75607F;stroke-width:1;stroke-dasharray:7,7;" fill="none" id="UC_Quiz-to-UC_Review"/><polygon points="561.2,193.05,554.186,186.136,556.5205,191.2887,551.3678,193.6232,561.2,193.05" fill="#75607F" style="stroke:#75607F;stroke-width:1;stroke-linejoin:miter;stroke-miterlimit:10;"/><text x="416.75" y="124.0669" fill="#000000" font-size="13" lengthAdjust="spacing" textLength="63.0068" font-family="sans-serif">«include»</text></g><!--link UC_QuizGen to UC_View--><g class="link" data-entity-1="ent0003" data-entity-2="ent0009" id="lnk20" data-source-line="36" data-link-type="dependency"><path d="M707.53,133 C749.55,133 791.96,133 826.95,133" style="stroke:#75607F;stroke-width:1;stroke-dasharray:7,7;" fill="none" id="UC_QuizGen-to-UC_View"/><polygon points="831.95,133,822.95,129,826.95,133,822.95,137,831.95,133" fill="#75607F" style="stroke:#75607F;stroke-width:1;stroke-linejoin:miter;stroke-miterlimit:10;"/><text x="738.23" y="129.0669" fill="#000000" font-size="13" lengthAdjust="spacing" textLength="63.0068" font-family="sans-serif">«include»</text></g><?plantuml-src XP7DIWCn58NtUOhB2A8BgnijI2bKGN6XQAjkvJgv7SDCa_4cur15y25yGf_4P7uqhOfPJSxvxa_E53Htu0omoXuSICMKEcMqiBdI9J8k05DdUEQM1G7MPCs28hF4DCUCMZlKeiwA6B0FA4sjT0PpB6piL9PIj0Gl0k38jydOL5eUcy8mR9mq9pY69N6d3lSFzeP1dJ2RUbLy5QBP598fPSewOf9mOuaJGDjy2F6r82GNnb6kJPh3nzixp5mbb-TOmYPCpk2nKiz9irU_Ot9AcXWTDHxCsIn0-mvjx-ExAwzw9AwunfowJjzC3DmggjjsJBOgNCnDoSReb9u2l6LztFvLJELWkyTRRsKo-pJ1EYRCUshMt7wCBzdCbOzZ5mf2d_EzGPPzpMLh_YYA7nw4A7eVdW_wIQKjC3aJ8YGFEpjV2QpTGsgHrBqcKhhD8wNVItot24uph5N0dy5W7Cs0GnYDb4wBIj9u_0VdK_-Nwtx5xrmOr75DKh36VG80?></g></svg>