<svg xmlns="http://www.w3.org/2000/svg" xmlns:xlink="http://www.w3.org/1999/xlink" version="1.1" data-diagram-type="DESCRIPTION" style="width:1417px;height:1398px;background:#FFFFFF;" width="1417px" height="1398px" viewBox="0 0 1417 1398" zoomAndPan="magnify" preserveAspectRatio="none" contentStyleType="text/css"><?plantuml 1.2026.7beta3?><defs/><g><!--cluster Noteknock (StudyMap)--><g class="cluster" data-qualified-name="Noteknock .StudyMap." id="ent0004" data-source-line="16"><rect x="281.13" y="154.15" width="1122.84" height="837" fill="none" style="stroke:#181818;stroke-width:1;" rx="2.5" ry="2.5"/><text x="752.0559" y="169.1451" fill="#000000" font-size="14" lengthAdjust="spacing" textLength="180.9883" font-weight="700" font-family="sans-serif">Noteknock (StudyMap)</text></g><!--entity UC_Reg--><g class="entity" data-qualified-name="Noteknock .StudyMap..UC_Reg" id="ent0005" data-source-line="18"><ellipse cx="399.4428" cy="270.1536" rx="44.2028" ry="14.5236" fill="#FFFFFF" style="stroke:#75607F;stroke-width:0.5;"/><text x="370.308" y="274.8021" fill="#000000" font-size="14" lengthAdjust="spacing" textLength="58.2695" font-family="sans-serif">Register</text></g><!--entity UC_Login--><g class="entity" data-qualified-name="Noteknock .StudyMap..UC_Login" id="ent0006" data-source-line="19"><ellipse cx="724.9872" cy="270.1536" rx="33.0272" ry="14.5236" fill="#FFFFFF" style="stroke:#75607F;stroke-width:0.5;"/><text x="703.7548" y="274.8021" fill="#000000" font-size="14" lengthAdjust="spacing" textLength="42.4648" font-family="sans-serif">Log in</text></g><!--entity UC_Google--><g class="entity" data-qualified-name="Noteknock .StudyMap..UC_Google" id="ent0007" data-source-line="20"><ellipse cx="399.4415" cy="466.1503" rx="82.1515" ry="18.8303" fill="#FFFFFF" style="stroke:#75607F;stroke-width:0.5;"/><text x="331.5811" y="470.7987" fill="#000000" font-size="14" lengthAdjust="spacing" textLength="135.7207" font-family="sans-serif">Sign in with Google</text></g><!--entity UC_Logout--><g class="entity" data-qualified-name="Noteknock .StudyMap..UC_Logout" id="ent0008" data-source-line="21"><ellipse cx="399.4449" cy="334.1536" rx="40.2149" ry="14.5236" fill="#FFFFFF" style="stroke:#75607F;stroke-width:0.5;"/><text x="373.13" y="338.8021" fill="#000000" font-size="14" lengthAdjust="spacing" textLength="52.6299" font-family="sans-serif">Log out</text></g><!--entity UC_Create--><g class="entity" data-qualified-name="Noteknock .StudyMap..UC_Create" id="ent0009" data-source-line="24"><ellipse cx="724.9914" cy="960.1483" rx="61.0914" ry="14.6183" fill="#FFFFFF" style="stroke:#75607F;stroke-width:0.5;"/><text x="683.5827" y="964.7967" fill="#000000" font-size="14" lengthAdjust="spacing" textLength="82.8174" font-family="sans-serif">Create note</text></g><!--entity UC_View--><g class="entity" data-qualified-name="Noteknock .StudyMap..UC_View" id="ent0010" data-source-line="25"><ellipse cx="1024.4591" cy="931.1536" rx="52.1591" ry="14.5236" fill="#FFFFFF" style="stroke:#75607F;stroke-width:0.5;"/><text x="989.6984" y="935.8021" fill="#000000" font-size="14" lengthAdjust="spacing" textLength="69.5215" font-family="sans-serif">View note</text></g><!--entity UC_Edit--><g class="entity" data-qualified-name="Noteknock .StudyMap..UC_Edit" id="ent0011" data-source-line="26"><ellipse cx="724.9902" cy="741.1536" rx="47.6202" ry="14.5236" fill="#FFFFFF" style="stroke:#75607F;stroke-width:0.5;"/><text x="693.439" y="745.8021" fill="#000000" font-size="14" lengthAdjust="spacing" textLength="63.1025" font-family="sans-serif">Edit note</text></g><!--entity UC_Delete--><g class="entity" data-qualified-name="Noteknock .StudyMap..UC_Delete" id="ent0012" data-source-line="27"><ellipse cx="399.4373" cy="398.1495" rx="60.7973" ry="14.5595" fill="#FFFFFF" style="stroke:#75607F;stroke-width:0.5;"/><text x="358.4422" y="402.7979" fill="#000000" font-size="14" lengthAdjust="spacing" textLength="81.9902" font-family="sans-serif">Delete note</text></g><!--entity UC_Draft--><g class="entity" data-qualified-name="Noteknock .StudyMap..UC_Draft" id="ent0013" data-source-line="28"><ellipse cx="1024.4602" cy="845.146" rx="76.2302" ry="17.646" fill="#FFFFFF" style="stroke:#75607F;stroke-width:0.5;"/><text x="963.6101" y="849.7945" fill="#000000" font-size="14" lengthAdjust="spacing" textLength="121.7002" font-family="sans-serif">Save draft locally</text></g><!--entity UC_Md--><g class="entity" data-qualified-name="Noteknock .StudyMap..UC_Md" id="ent0014" data-source-line="29"><ellipse cx="1306.8299" cy="931.148" rx="81.1399" ry="18.628" fill="#FFFFFF" style="stroke:#75607F;stroke-width:0.5;"/><text x="1240.1522" y="935.7964" fill="#000000" font-size="14" lengthAdjust="spacing" textLength="133.3555" font-family="sans-serif">Preview markdown</text></g><!--entity UC_Attach--><g class="entity" data-qualified-name="Noteknock .StudyMap..UC_Attach" id="ent0015" data-source-line="30"><ellipse cx="399.4379" cy="747.1536" rx="81.7679" ry="18.7536" fill="#FFFFFF" style="stroke:#75607F;stroke-width:0.5;"/><text x="332.0253" y="751.802" fill="#000000" font-size="14" lengthAdjust="spacing" textLength="134.8252" font-family="sans-serif">Upload attachment</text></g><!--entity UC_Search--><g class="entity" data-qualified-name="Noteknock .StudyMap..UC_Search" id="ent0016" data-source-line="33"><ellipse cx="724.9928" cy="599.1466" rx="64.3328" ry="15.2666" fill="#FFFFFF" style="stroke:#75607F;stroke-width:0.5;"/><text x="679.1476" y="603.795" fill="#000000" font-size="14" lengthAdjust="spacing" textLength="91.6904" font-family="sans-serif">Search notes</text></g><!--entity UC_TagFilter--><g class="entity" data-qualified-name="Noteknock .StudyMap..UC_TagFilter" id="ent0017" data-source-line="34"><ellipse cx="399.4408" cy="535.1462" rx="66.1308" ry="15.6262" fill="#FFFFFF" style="stroke:#75607F;stroke-width:0.5;"/><text x="351.2166" y="539.7946" fill="#000000" font-size="14" lengthAdjust="spacing" textLength="96.4482" font-family="sans-serif">Filter by #tag</text></g><!--entity UC_Recent--><g class="entity" data-qualified-name="Noteknock .StudyMap..UC_Recent" id="ent0018" data-source-line="35"><ellipse cx="399.4385" cy="602.1497" rx="67.7985" ry="15.9597" fill="#FFFFFF" style="stroke:#75607F;stroke-width:0.5;"/><text x="349.0508" y="606.7981" fill="#000000" font-size="14" lengthAdjust="spacing" textLength="100.7754" font-family="sans-serif">Browse recent</text></g><!--entity UC_Ops--><g class="entity" data-qualified-name="Noteknock .StudyMap..UC_Ops" id="ent0019" data-source-line="36"><ellipse cx="399.436" cy="673.1452" rx="88.076" ry="20.0152" fill="#FFFFFF" style="stroke:#75607F;stroke-width:0.5;"/><text x="324.75" y="677.7936" fill="#000000" font-size="14" lengthAdjust="spacing" textLength="149.3721" font-family="sans-serif">Use search operators</text></g><!--entity UC_QuizGen--><g class="entity" data-qualified-name="Noteknock .StudyMap..UC_QuizGen" id="ent0020" data-source-line="39"><ellipse cx="724.9863" cy="813.1473" rx="98.2363" ry="22.0473" fill="#FFFFFF" style="stroke:#75607F;stroke-width:0.5;"/><text x="638.9048" y="817.7957" fill="#000000" font-size="14" lengthAdjust="spacing" textLength="172.1631" font-family="sans-serif">Generate quiz from note</text></g><!--entity UC_Quiz--><g class="entity" data-qualified-name="Noteknock .StudyMap..UC_Quiz" id="ent0021" data-source-line="40"><ellipse cx="399.4381" cy="815.1536" rx="50.5881" ry="14.5236" fill="#FFFFFF" style="stroke:#75607F;stroke-width:0.5;"/><text x="365.7882" y="819.8021" fill="#000000" font-size="14" lengthAdjust="spacing" textLength="67.2998" font-family="sans-serif">Take quiz</text></g><!--entity UC_QuizRes--><g class="entity" data-qualified-name="Noteknock .StudyMap..UC_QuizRes" id="ent0022" data-source-line="41"><ellipse cx="724.9876" cy="675.1475" rx="71.9876" ry="16.7975" fill="#FFFFFF" style="stroke:#75607F;stroke-width:0.5;"/><text x="669.3157" y="679.7959" fill="#000000" font-size="14" lengthAdjust="spacing" textLength="111.3438" font-family="sans-serif">View quiz result</text></g><!--entity UC_Review--><g class="entity" data-qualified-name="Noteknock .StudyMap..UC_Review" id="ent0023" data-source-line="42"><ellipse cx="724.9935" cy="890.1507" rx="87.5035" ry="19.9007" fill="#FFFFFF" style="stroke:#75607F;stroke-width:0.5;"/><text x="650.9603" y="894.7991" fill="#000000" font-size="14" lengthAdjust="spacing" textLength="148.0664" font-family="sans-serif">Review (spaced rep.)</text></g><!--entity UC_Streak--><g class="entity" data-qualified-name="Noteknock .StudyMap..UC_Streak" id="ent0024" data-source-line="43"><ellipse cx="399.443" cy="879.1486" rx="62.593" ry="14.9186" fill="#FFFFFF" style="stroke:#75607F;stroke-width:0.5;"/><text x="355.9528" y="883.797" fill="#000000" font-size="14" lengthAdjust="spacing" textLength="86.9805" font-family="sans-serif">Track streak</text></g><!--entity UC_Profile--><g class="entity" data-qualified-name="Noteknock .StudyMap..UC_Profile" id="ent0025" data-source-line="44"><ellipse cx="399.4413" cy="952.1523" rx="102.3113" ry="22.8623" fill="#FFFFFF" style="stroke:#75607F;stroke-width:0.5;"/><text x="308.8719" y="956.8007" fill="#000000" font-size="14" lengthAdjust="spacing" textLength="181.1387" font-family="sans-serif">View profile / leaderboard</text></g><!--entity UC_Theme--><g class="entity" data-qualified-name="Noteknock .StudyMap..UC_Theme" id="ent0026" data-source-line="45"><ellipse cx="399.4387" cy="205.1537" rx="66.3687" ry="15.6737" fill="#FFFFFF" style="stroke:#75607F;stroke-width:0.5;"/><text x="350.9035" y="209.8022" fill="#000000" font-size="14" lengthAdjust="spacing" textLength="97.0703" font-family="sans-serif">Toggle theme</text></g><!--entity Guest--><g class="entity" data-qualified-name="Guest" id="ent0001" data-source-line="12"><ellipse cx="206.63" cy="221" rx="16" ry="16" fill="#F1F1F1" style="stroke:#181818;stroke-width:0.5;"/><path d="M206.63,241 C210.63,241 213.63,241 217.63,237 C225.63,237 233.63,245 233.63,253 L233.63,257 C233.63,261 229.63,265 225.63,265 L187.63,265 C183.63,265 179.63,261 179.63,257 L179.63,253 C179.63,245 187.63,237 195.63,237 C199.63,241 202.63,241 206.63,241" style="stroke:#181818;stroke-width:0.5;" fill="#F1F1F1"/><text x="186.0709" y="278.4951" fill="#000000" font-size="14" lengthAdjust="spacing" textLength="41.1182" font-family="sans-serif">Guest</text></g><!--entity User--><g class="entity" data-qualified-name="User" id="ent0002" data-source-line="13"><ellipse cx="62.0649" cy="898" rx="16" ry="16" fill="#F1F1F1" style="stroke:#181818;stroke-width:0.5;"/><path d="M62.0649,918 C66.0649,918 69.0649,918 73.0649,914 C81.0649,914 89.0649,922 89.0649,930 L89.0649,934 C89.0649,938 85.0649,942 81.0649,942 L43.0649,942 C39.0649,942 35.0649,938 35.0649,934 L35.0649,930 C35.0649,922 43.0649,914 51.0649,914 C55.0649,918 58.0649,918 62.0649,918" style="stroke:#181818;stroke-width:0.5;" fill="#F1F1F1"/><text x="6" y="955.4951" fill="#000000" font-size="14" lengthAdjust="spacing" textLength="112.1299" font-family="sans-serif">Registered User</text></g><!--entity Google--><g class="entity" data-qualified-name="Google" id="ent0027" data-source-line="49"><ellipse cx="399.44" cy="22" rx="16" ry="16" fill="#F1F1F1" style="stroke:#181818;stroke-width:0.5;"/><path d="M399.44,42 C403.44,42 406.44,42 410.44,38 C418.44,38 426.44,46 426.44,54 L426.44,58 C426.44,62 422.44,66 418.44,66 L380.44,66 C376.44,66 372.44,62 372.44,58 L372.44,54 C372.44,46 380.44,38 388.44,38 C392.44,42 395.44,42 399.44,42" style="stroke:#181818;stroke-width:0.5;" fill="#F1F1F1"/><text x="374.7554" y="79.4951" fill="#000000" font-size="14" lengthAdjust="spacing" textLength="49.3691" font-family="sans-serif">Google</text></g><!--entity AI--><g class="entity" data-qualified-name="AI" id="ent0028" data-source-line="50"><ellipse cx="724.9923" cy="77" rx="16" ry="16" fill="#F1F1F1" style="stroke:#181818;stroke-width:0.5;"/><path d="M724.9923,97 C728.9923,97 731.9923,97 735.9923,93 C743.9923,93 751.9923,101 751.9923,109 L751.9923,113 C751.9923,117 747.9923,121 743.9923,121 L705.9923,121 C701.9923,121 697.9923,117 697.9923,113 L697.9923,109 C697.9923,101 705.9923,93 713.9923,93 C717.9923,97 720.9923,97 724.9923,97" style="stroke:#181818;stroke-width:0.5;" fill="#F1F1F1"/><text x="690.84" y="134.4951" fill="#000000" font-size="14" lengthAdjust="spacing" textLength="68.3047" font-family="sans-serif">AI service</text></g><!--link User to Guest--><g class="link" data-entity-1="ent0002" data-entity-2="ent0001" id="lnk3" data-source-line="14" data-link-type="extension"><path d="M65.51,881.1 C71.98,790.04 93,557.26 148.13,371.15 C157.3,340.2 164.3276,323.0984 176.7476,298.2684" style="stroke:#75607F;stroke-width:1;" fill="none" id="User-to-Guest"/><polygon points="184.8,282.17,171.3814,295.5842,182.1137,300.9525,184.8,282.17" fill="none" style="stroke:#75607F;stroke-width:1;stroke-linejoin:miter;stroke-miterlimit:10;"/></g><!--link Guest to UC_Reg--><g class="link" data-entity-1="ent0001" data-entity-2="ent0005" id="lnk29" data-source-line="53" data-link-type="association"><path d="M234.56,246.96 C266.82,251.53 321.15,259.21 358.34,264.48" style="stroke:#75607F;stroke-width:1;" fill="none" id="Guest-UC_Reg"/></g><!--link Guest to UC_Login--><g class="link" data-entity-1="ent0001" data-entity-2="ent0006" id="lnk30" data-source-line="54" data-link-type="association"><path d="M233.53,204.06 C244.15,191.43 257.61,178.95 273.13,172.15 C366.2,131.38 402.33,151.2 501.75,172.15 C581.39,188.93 667.26,236.11 704.7,258.31" style="stroke:#75607F;stroke-width:1;" fill="none" id="Guest-UC_Login"/></g><!--link Guest to UC_Theme--><g class="link" data-entity-1="ent0001" data-entity-2="ent0026" id="lnk31" data-source-line="55" data-link-type="association"><path d="M234.56,237.79 C263.84,231.96 311.3,222.5 347.63,215.27" style="stroke:#75607F;stroke-width:1;" fill="none" id="Guest-UC_Theme"/></g><!--link User to UC_Create--><g class="link" data-entity-1="ent0002" data-entity-2="ent0009" id="lnk32" data-source-line="58" data-link-type="association"><path d="M68.61,958.91 C78.06,1016.03 101.03,1124.72 148.13,1205.15 C178.12,1256.37 213.96,1247.46 273.13,1252.15 C416.71,1263.53 482.73,1323.15 596.75,1235.15 C685.46,1166.69 714.63,1021.78 721.93,975.03" style="stroke:#75607F;stroke-width:1;" fill="none" id="User-UC_Create"/></g><!--link User to UC_View--><g class="link" data-entity-1="ent0002" data-entity-2="ent0010" id="lnk33" data-source-line="59" data-link-type="association"><path d="M66.63,959.23 C77.87,1070.85 117.21,1383.15 205.63,1383.15 C205.63,1383.15 205.63,1383.15 725.99,1383.15 C940.41,1383.15 1008.95,1023.83 1021.29,945.93" style="stroke:#75607F;stroke-width:1;" fill="none" id="User-UC_View"/></g><!--link User to UC_Edit--><g class="link" data-entity-1="ent0002" data-entity-2="ent0011" id="lnk34" data-source-line="60" data-link-type="association"><path d="M75.85,959.17 C88.62,991.09 111.67,1034.11 148.13,1054.15 C322.86,1150.19 448.47,1187.45 596.75,1054.15 C643.46,1012.17 587.28,822 626.75,773.15 C639.43,757.46 659.98,749.39 678.93,745.27" style="stroke:#75607F;stroke-width:1;" fill="none" id="User-UC_Edit"/></g><!--link User to UC_Delete--><g class="link" data-entity-1="ent0002" data-entity-2="ent0012" id="lnk35" data-source-line="61" data-link-type="association"><path d="M67.22,881.01 C79.49,786.57 124.55,545.54 273.13,430.15 C292.55,415.07 318.28,407.03 341.37,402.78" style="stroke:#75607F;stroke-width:1;" fill="none" id="User-UC_Delete"/></g><!--link User to UC_Search--><g class="link" data-entity-1="ent0002" data-entity-2="ent0016" id="lnk36" data-source-line="62" data-link-type="association"><path d="M118.46,949.4 C204.82,990.7 374.81,1054.5 501.75,992.15 C563.75,961.7 570.22,932.92 596.75,869.15 C636.01,774.78 565.15,722.7 626.75,641.15 C638.61,625.45 657.54,615.54 675.57,609.32" style="stroke:#75607F;stroke-width:1;" fill="none" id="User-UC_Search"/></g><!--link User to UC_TagFilter--><g class="link" data-entity-1="ent0002" data-entity-2="ent0017" id="lnk37" data-source-line="63" data-link-type="association"><path d="M73.22,881.18 C95.21,805.64 155.03,640.44 273.13,569.15 C294.07,556.51 319.77,548.48 342.43,543.42" style="stroke:#75607F;stroke-width:1;" fill="none" id="User-UC_TagFilter"/></g><!--link User to UC_Recent--><g class="link" data-entity-1="ent0002" data-entity-2="ent0018" id="lnk38" data-source-line="64" data-link-type="association"><path d="M80.99,881.03 C111.43,819.1 179.18,698.95 273.13,635.15 C292.39,622.07 316.56,614.17 338.52,609.4" style="stroke:#75607F;stroke-width:1;" fill="none" id="User-UC_Recent"/></g><!--link User to UC_QuizGen--><g class="link" data-entity-1="ent0002" data-entity-2="ent0020" id="lnk39" data-source-line="65" data-link-type="association"><path d="M66.61,959.15 C73.33,1007.53 92.69,1088.13 148.13,1125.15 C231.04,1180.51 522.49,1191.67 596.75,1125.15 C642.05,1084.58 590.18,901.74 626.75,853.15 C634.55,842.79 645.5,835.11 657.25,829.4" style="stroke:#75607F;stroke-width:1;" fill="none" id="User-UC_QuizGen"/></g><!--link User to UC_Quiz--><g class="link" data-entity-1="ent0002" data-entity-2="ent0021" id="lnk40" data-source-line="66" data-link-type="association"><path d="M118.27,892.42 C128.09,888 138.31,883.72 148.13,880.15 C219.86,854.06 306.71,833.96 356.96,823.4" style="stroke:#75607F;stroke-width:1;" fill="none" id="User-UC_Quiz"/></g><!--link User to UC_Review--><g class="link" data-entity-1="ent0002" data-entity-2="ent0023" id="lnk41" data-source-line="67" data-link-type="association"><path d="M69.33,959.27 C81.29,1028.44 109.66,1167.75 148.13,1196.15 C228.34,1255.36 522.44,1262.61 596.75,1196.15 C641.42,1156.2 590.25,975.68 626.75,928.15 C635.2,917.15 647.28,909.34 660.07,903.78" style="stroke:#75607F;stroke-width:1;" fill="none" id="User-UC_Review"/></g><!--link User to UC_Streak--><g class="link" data-entity-1="ent0002" data-entity-2="ent0024" id="lnk42" data-source-line="68" data-link-type="association"><path d="M118.36,910.59 C128.26,909.01 138.49,907.46 148.13,906.15 C213.85,897.2 289.61,889.38 340.42,884.49" style="stroke:#75607F;stroke-width:1;" fill="none" id="User-UC_Streak"/></g><!--link User to UC_Profile--><g class="link" data-entity-1="ent0002" data-entity-2="ent0025" id="lnk43" data-source-line="69" data-link-type="association"><path d="M118.45,925.43 C168.96,930.25 244.63,937.47 304.58,943.19" style="stroke:#75607F;stroke-width:1;" fill="none" id="User-UC_Profile"/></g><!--link User to UC_Logout--><g class="link" data-entity-1="ent0002" data-entity-2="ent0008" id="lnk44" data-source-line="70" data-link-type="association"><path d="M66.44,881.08 C74.8,800.5 101.75,612.02 179.13,476.15 C210.96,420.27 218.54,400.14 273.13,366.15 C299.53,349.71 334.04,341.7 360.16,337.8" style="stroke:#75607F;stroke-width:1;" fill="none" id="User-UC_Logout"/></g><!--link UC_Google to Google--><g class="link" data-entity-1="ent0007" data-entity-2="ent0027" id="lnk45" data-source-line="73" data-link-type="association"><path d="M321.49,459.85 C293.3,452.92 265.5,439.24 253.63,412.65 C227.82,354.81 227.82,185.49 253.63,127.65 C274.49,80.9 335.28,59 371.44,49.86" style="stroke:#75607F;stroke-width:1;" fill="none" id="UC_Google-Google"/></g><!--link UC_QuizGen to AI--><g class="link" data-entity-1="ent0020" data-entity-2="ent0028" id="lnk46" data-source-line="74" data-link-type="association"><path d="M638.53,802.35 C610.14,794.24 581.49,780.12 564.25,755.65 C491.95,653 501.14,299.19 564.25,190.65 C591.37,144.01 652.12,119.18 690.68,107.62" style="stroke:#75607F;stroke-width:1;" fill="none" id="UC_QuizGen-AI"/></g><!--link UC_Google to UC_Login--><g class="link" data-entity-1="ent0007" data-entity-2="ent0006" id="lnk47" data-source-line="77" data-link-type="dependency"><path d="M451.36,451.2 C467.86,445.54 485.96,438.42 501.75,430.15 C586.18,385.9 670.89,316.0813 705.3,286.4713" style="stroke:#75607F;stroke-width:1;stroke-dasharray:7,7;" fill="none" id="UC_Google-to-UC_Login"/><polygon points="709.09,283.21,699.659,286.0484,705.3,286.4713,704.8771,292.1123,709.09,283.21" fill="#75607F" style="stroke:#75607F;stroke-width:1;stroke-linejoin:miter;stroke-miterlimit:10;"/><text x="533.75" y="371.2169" fill="#000000" font-size="13" lengthAdjust="spacing" textLength="61.1851" font-family="sans-serif">«extend»</text></g><!--link UC_Attach to UC_Edit--><g class="link" data-entity-1="ent0015" data-entity-2="ent0011" id="lnk48" data-source-line="78" data-link-type="dependency"><path d="M466.79,758.07 C504.83,762.95 553.48,766.86 596.75,763.15 C626.79,760.57 655.4885,755.6173 680.6085,750.5573" style="stroke:#75607F;stroke-width:1;stroke-dasharray:7,7;" fill="none" id="UC_Attach-to-UC_Edit"/><polygon points="685.51,749.57,675.8973,747.426,680.6085,750.5573,677.4771,755.2684,685.51,749.57" fill="#75607F" style="stroke:#75607F;stroke-width:1;stroke-linejoin:miter;stroke-miterlimit:10;"/><text x="533.75" y="759.2169" fill="#000000" font-size="13" lengthAdjust="spacing" textLength="61.1851" font-family="sans-serif">«extend»</text></g><!--link UC_Ops to UC_Search--><g class="link" data-entity-1="ent0019" data-entity-2="ent0016" id="lnk49" data-source-line="79" data-link-type="dependency"><path d="M462.82,658.88 C525.63,644.52 616.1859,623.8049 672.6259,610.8949" style="stroke:#75607F;stroke-width:1;stroke-dasharray:7,7;" fill="none" id="UC_Ops-to-UC_Search"/><polygon points="677.5,609.78,667.8347,607.8875,672.6259,610.8949,669.6185,615.6861,677.5,609.78" fill="#75607F" style="stroke:#75607F;stroke-width:1;stroke-linejoin:miter;stroke-miterlimit:10;"/><text x="533.75" y="626.2169" fill="#000000" font-size="13" lengthAdjust="spacing" textLength="61.1851" font-family="sans-serif">«extend»</text></g><!--link UC_Create to UC_Draft--><g class="link" data-entity-1="ent0009" data-entity-2="ent0013" id="lnk50" data-source-line="80" data-link-type="dependency"><path d="M770.09,950 C787.48,944.79 807.11,937.35 823.23,927.15 C839.42,916.89 836.84,906.11 853.23,896.15 C886.44,875.95 923.3133,864.3836 957.1633,856.7236" style="stroke:#75607F;stroke-width:1;stroke-dasharray:7,7;" fill="none" id="UC_Create-to-UC_Draft"/><polygon points="962.04,855.62,952.3791,853.7051,957.1633,856.7236,954.1448,861.5078,962.04,855.62" fill="#75607F" style="stroke:#75607F;stroke-width:1;stroke-linejoin:miter;stroke-miterlimit:10;"/><text x="854.23" y="865.2169" fill="#000000" font-size="13" lengthAdjust="spacing" textLength="63.0068" font-family="sans-serif">«include»</text></g><!--link UC_Edit to UC_Draft--><g class="link" data-entity-1="ent0011" data-entity-2="ent0013" id="lnk51" data-source-line="81" data-link-type="dependency"><path d="M758.92,751.74 C777.79,757.87 801.88,765.8 823.23,773.15 C878.59,792.21 937.4553,813.5497 977.8453,828.3497" style="stroke:#75607F;stroke-width:1;stroke-dasharray:7,7;" fill="none" id="UC_Edit-to-UC_Draft"/><polygon points="982.54,830.07,975.4657,823.2177,977.8453,828.3497,972.7132,830.7293,982.54,830.07" fill="#75607F" style="stroke:#75607F;stroke-width:1;stroke-linejoin:miter;stroke-miterlimit:10;"/><text x="854.23" y="781.2169" fill="#000000" font-size="13" lengthAdjust="spacing" textLength="63.0068" font-family="sans-serif">«include»</text></g><!--link UC_View to UC_Md--><g class="link" data-entity-1="ent0010" data-entity-2="ent0014" id="lnk52" data-source-line="82" data-link-type="dependency"><path d="M1076.88,931.15 C1118.38,931.15 1172.5,931.15 1220.27,931.15" style="stroke:#75607F;stroke-width:1;stroke-dasharray:7,7;" fill="none" id="UC_View-to-UC_Md"/><polygon points="1225.27,931.15,1216.27,927.15,1220.27,931.15,1216.27,935.15,1225.27,931.15" fill="#75607F" style="stroke:#75607F;stroke-width:1;stroke-linejoin:miter;stroke-miterlimit:10;"/><text x="1131.69" y="927.2169" fill="#000000" font-size="13" lengthAdjust="spacing" textLength="63.0068" font-family="sans-serif">«include»</text></g><!--link UC_QuizGen to UC_View--><g class="link" data-entity-1="ent0020" data-entity-2="ent0010" id="lnk53" data-source-line="83" data-link-type="dependency"><path d="M788.13,830.42 C800.85,836.1 813.36,843.53 823.23,853.15 C846.88,876.21 826.09,902.31 853.23,921.15 C890.79,947.24 940.0741,946.2134 977.1641,940.7134" style="stroke:#75607F;stroke-width:1;stroke-dasharray:7,7;" fill="none" id="UC_QuizGen-to-UC_View"/><polygon points="982.11,939.98,972.6206,937.3434,977.1641,940.7134,973.7941,945.2569,982.11,939.98" fill="#75607F" style="stroke:#75607F;stroke-width:1;stroke-linejoin:miter;stroke-miterlimit:10;"/><text x="854.23" y="917.2169" fill="#000000" font-size="13" lengthAdjust="spacing" textLength="63.0068" font-family="sans-serif">«include»</text></g><!--link UC_Quiz to UC_QuizGen--><g class="link" data-entity-1="ent0021" data-entity-2="ent0020" id="lnk54" data-source-line="84" data-link-type="dependency"><path d="M449.66,817.85 C489.36,819.67 546.65,821.53 596.75,820.15 C607.48,819.86 613.7152,819.6485 624.8652,819.1385" style="stroke:#75607F;stroke-width:1;stroke-dasharray:7,7;" fill="none" id="UC_Quiz-to-UC_QuizGen"/><polygon points="629.86,818.91,620.6866,815.3254,624.8652,819.1385,621.0522,823.3171,629.86,818.91" fill="#75607F" style="stroke:#75607F;stroke-width:1;stroke-linejoin:miter;stroke-miterlimit:10;"/><text x="532.75" y="816.2169" fill="#000000" font-size="13" lengthAdjust="spacing" textLength="63.0068" font-family="sans-serif">«include»</text></g><!--link UC_Quiz to UC_QuizRes--><g class="link" data-entity-1="ent0021" data-entity-2="ent0022" id="lnk55" data-source-line="85" data-link-type="dependency"><path d="M443.86,807.79 C462.9,803.03 484.74,795.36 501.75,783.15 C520.1,769.98 513.6,755.58 531.75,742.15 C571.95,712.39 621.5722,696.2022 662.2722,686.6522" style="stroke:#75607F;stroke-width:1;stroke-dasharray:7,7;" fill="none" id="UC_Quiz-to-UC_QuizRes"/><polygon points="667.14,685.51,657.4642,683.6717,662.2722,686.6522,659.2917,691.4602,667.14,685.51" fill="#75607F" style="stroke:#75607F;stroke-width:1;stroke-linejoin:miter;stroke-miterlimit:10;"/><text x="532.75" y="704.2169" fill="#000000" font-size="13" lengthAdjust="spacing" textLength="63.0068" font-family="sans-serif">«include»</text></g><!--link UC_Quiz to UC_Review--><g class="link" data-entity-1="ent0021" data-entity-2="ent0023" id="lnk56" data-source-line="86" data-link-type="dependency"><path d="M439.5,824.44 C465.6,830.64 500.72,838.94 531.75,846.15 C575.27,856.27 619.5051,866.3887 657.1851,874.9787" style="stroke:#75607F;stroke-width:1;stroke-dasharray:7,7;" fill="none" id="UC_Quiz-to-UC_Review"/><polygon points="662.06,876.09,654.1742,870.1896,657.1851,874.9787,652.3961,877.9895,662.06,876.09" fill="#75607F" style="stroke:#75607F;stroke-width:1;stroke-linejoin:miter;stroke-miterlimit:10;"/><text x="532.75" y="842.2169" fill="#000000" font-size="13" lengthAdjust="spacing" textLength="63.0068" font-family="sans-serif">«include»</text></g><!--link UC_Recent to UC_Search--><g class="link" data-entity-1="ent0018" data-entity-2="ent0016" id="lnk57" data-source-line="87" data-link-type="dependency"><path d="M467.48,601.53 C524.12,601 599.6802,600.3067 655.3402,599.7867" style="stroke:#75607F;stroke-width:1;stroke-dasharray:7,7;" fill="none" id="UC_Recent-to-UC_Search"/><polygon points="660.34,599.74,651.303,595.8243,655.3402,599.7867,651.3778,603.8239,660.34,599.74" fill="#75607F" style="stroke:#75607F;stroke-width:1;stroke-linejoin:miter;stroke-miterlimit:10;"/><text x="532.75" y="597.2169" fill="#000000" font-size="13" lengthAdjust="spacing" textLength="63.0068" font-family="sans-serif">«include»</text></g><!--link UC_TagFilter to UC_Search--><g class="link" data-entity-1="ent0017" data-entity-2="ent0016" id="lnk58" data-source-line="88" data-link-type="dependency"><path d="M451.35,545.22 C512.39,557.29 609.1051,576.4193 669.5351,588.3793" style="stroke:#75607F;stroke-width:1;stroke-dasharray:7,7;" fill="none" id="UC_TagFilter-to-UC_Search"/><polygon points="674.44,589.35,666.3878,583.6788,669.5351,588.3793,664.8347,591.5265,674.44,589.35" fill="#75607F" style="stroke:#75607F;stroke-width:1;stroke-linejoin:miter;stroke-miterlimit:10;"/><text x="532.75" y="558.2169" fill="#000000" font-size="13" lengthAdjust="spacing" textLength="63.0068" font-family="sans-serif">«include»</text></g><?plantuml-src ZLLDRzim3BtxLn3feIsmTBji0uekGDgkHO5cwv9srq6rMKU8OtcId2px-E-ZlXmwATRvO9YFJnGbaiyLFbcm2hGivnOAgJ6tKjMPMSYw4LeiGUHMwPdTL0XYZKOjaJaRaIz4YS7jregwh3Z1p4MXrh8kuKbKXdjQWxam2ByoW7CAKshLriM5gfI6Wol_E8_I1Ug8ld_xxirxXuwrLki--2VB3c4u7CATbakXDo5l0qSLdV3OUJAFmE2wHMC780puhmHFiPJ6eiO27WngJt0VcNlH-j-ZoC-wSyBWaxAug5M-WAEPROlDH3J70t-aGnYtTauVwPpT1Y7onJUokVjMbI3hv2HBrjmzasLDVbXBEuThfMZxn0tMRYpLMXQChCndvJ8sd7kXKLY4cl343n0dVPMuxb4Sm0aV2sbx10TmmYLMkBDDW7g752k4GWlgoKhbeges7TU1d7gdSUMIebelgCEwYviKdFNGL4eK8AmL-No9TNSbOu-4AxcK9bShgZJF18NEvpvTazO4ZBEkP4K5XSSD75XH9jwzA8E3Ky-fOusV4PR5r5kzXEbbmjwgGIrS3oVsvyQ4X5EhyONNM3iwmlTM_eGdhPQzk_v2A57uYdkn26pEsIkw3wVHj9Nbl6c_YQQX64U61846I6DpShmzv6gdMUurpJiOIsssw2xNMtlRDrezIPgqrr2X82LuL48NQSrTSFP2gz8DfftZiZlxlJEs0Z5hcqPfwpGfQOHNlxv8R2SiZbTqZ6-eFdeby-0StxYmNXZ8D2gNmkcdoG94syL9vtOORew452cI5vjUe2W_R2uPuiUGsNxgc1r7Z26nYHcoRLS6nivaIEgW7QY_QBMJJwmgGrBD69JawV2PqZIohgcXw0z59Gr_gQoJF82XHuQfHjiqEqyeq1IhS9rpsL2z7oQtfoIcUTKM21_WaLfdE1n5e7W5-CDYNP0dV50-v7QiOxxvoScegoR0APoT1Vfeb7KAqx6yGEwpQAR1FP4LPMUN5JKwiRmOnc0nwS2Bcxp8ywErvKqAdyC-BrrcvALbp_9OlBJiVtWa92_oehhiyqANFdz_FMBNu_yY_WK0?></g></svg>