<svg xmlns="http://www.w3.org/2000/svg" xmlns:xlink="http://www.w3.org/1999/xlink" version="1.1" data-diagram-type="DESCRIPTION" style="width:1441px;height:1124px;background:#FFFFFF;" width="1441px" height="1124px" viewBox="0 0 1441 1124" zoomAndPan="magnify" preserveAspectRatio="none" contentStyleType="text/css"><?plantuml 1.2026.7beta3?><defs/><g><!--cluster Noteknock (StudyMap)--><g class="cluster" data-qualified-name="Noteknock .StudyMap." id="ent0004" data-source-line="16"><rect x="281.13" y="95" width="1146.53" height="811" fill="none" style="stroke:#181818;stroke-width:1;" rx="2.5" ry="2.5"/><text x="763.9009" y="109.9951" fill="#000000" font-size="14" lengthAdjust="spacing" textLength="180.9883" font-weight="700" font-family="sans-serif">Noteknock (StudyMap)</text></g><!--entity UC_Reg--><g class="entity" data-qualified-name="Noteknock .StudyMap..UC_Reg" id="ent0005" data-source-line="18"><ellipse cx="399.4428" cy="356.0036" rx="44.2028" ry="14.5236" fill="#FFFFFF" style="stroke:#75607F;stroke-width:0.5;"/><text x="370.308" y="360.6521" fill="#000000" font-size="14" lengthAdjust="spacing" textLength="58.2695" font-family="sans-serif">Register</text></g><!--entity UC_Login--><g class="entity" data-qualified-name="Noteknock .StudyMap..UC_Login" id="ent0006" data-source-line="19"><ellipse cx="399.4372" cy="420.0036" rx="33.0272" ry="14.5236" fill="#FFFFFF" style="stroke:#75607F;stroke-width:0.5;"/><text x="378.2048" y="424.6521" fill="#000000" font-size="14" lengthAdjust="spacing" textLength="42.4648" font-family="sans-serif">Log in</text></g><!--entity UC_Google--><g class="entity" data-qualified-name="Noteknock .StudyMap..UC_Google" id="ent0007" data-source-line="20"><ellipse cx="724.9915" cy="481.0003" rx="82.1515" ry="18.8303" fill="#FFFFFF" style="stroke:#75607F;stroke-width:0.5;"/><text x="657.1311" y="485.6487" fill="#000000" font-size="14" lengthAdjust="spacing" textLength="135.7207" font-family="sans-serif">Sign in with Google</text></g><!--entity UC_Logout--><g class="entity" data-qualified-name="Noteknock .StudyMap..UC_Logout" id="ent0008" data-source-line="21"><ellipse cx="399.4449" cy="484.0036" rx="40.2149" ry="14.5236" fill="#FFFFFF" style="stroke:#75607F;stroke-width:0.5;"/><text x="373.13" y="488.6521" fill="#000000" font-size="14" lengthAdjust="spacing" textLength="52.6299" font-family="sans-serif">Log out</text></g><!--entity UC_Create--><g class="entity" data-qualified-name="Noteknock .StudyMap..UC_Create" id="ent0009" data-source-line="24"><ellipse cx="399.4414" cy="547.9983" rx="61.0914" ry="14.6183" fill="#FFFFFF" style="stroke:#75607F;stroke-width:0.5;"/><text x="358.0327" y="552.6467" fill="#000000" font-size="14" lengthAdjust="spacing" textLength="82.8174" font-family="sans-serif">Create note</text></g><!--entity UC_View--><g class="entity" data-qualified-name="Noteknock .StudyMap..UC_View" id="ent0010" data-source-line="25"><ellipse cx="1036.2991" cy="183.0036" rx="52.1591" ry="14.5236" fill="#FFFFFF" style="stroke:#75607F;stroke-width:0.5;"/><text x="1001.5384" y="187.6521" fill="#000000" font-size="14" lengthAdjust="spacing" textLength="69.5215" font-family="sans-serif">View note</text></g><!--entity UC_Edit--><g class="entity" data-qualified-name="Noteknock .StudyMap..UC_Edit" id="ent0011" data-source-line="26"><ellipse cx="399.4402" cy="677.0036" rx="47.6202" ry="14.5236" fill="#FFFFFF" style="stroke:#75607F;stroke-width:0.5;"/><text x="367.889" y="681.6521" fill="#000000" font-size="14" lengthAdjust="spacing" textLength="63.1025" font-family="sans-serif">Edit note</text></g><!--entity UC_Delete--><g class="entity" data-qualified-name="Noteknock .StudyMap..UC_Delete" id="ent0012" data-source-line="27"><ellipse cx="399.4373" cy="740.9995" rx="60.7973" ry="14.5595" fill="#FFFFFF" style="stroke:#75607F;stroke-width:0.5;"/><text x="358.4422" y="745.6479" fill="#000000" font-size="14" lengthAdjust="spacing" textLength="81.9902" font-family="sans-serif">Delete note</text></g><!--entity UC_Draft--><g class="entity" data-qualified-name="Noteknock .StudyMap..UC_Draft" id="ent0013" data-source-line="28"><ellipse cx="724.9902" cy="576.996" rx="76.2302" ry="17.646" fill="#FFFFFF" style="stroke:#75607F;stroke-width:0.5;"/><text x="664.1401" y="581.6445" fill="#000000" font-size="14" lengthAdjust="spacing" textLength="121.7002" font-family="sans-serif">Save draft locally</text></g><!--entity UC_Md--><g class="entity" data-qualified-name="Noteknock .StudyMap..UC_Md" id="ent0014" data-source-line="29"><ellipse cx="1330.5199" cy="182.998" rx="81.1399" ry="18.628" fill="#FFFFFF" style="stroke:#75607F;stroke-width:0.5;"/><text x="1263.8422" y="187.6464" fill="#000000" font-size="14" lengthAdjust="spacing" textLength="133.3555" font-family="sans-serif">Preview markdown</text></g><!--entity UC_Attach--><g class="entity" data-qualified-name="Noteknock .StudyMap..UC_Attach" id="ent0015" data-source-line="30"><ellipse cx="724.9879" cy="677.0036" rx="81.7679" ry="18.7536" fill="#FFFFFF" style="stroke:#75607F;stroke-width:0.5;"/><text x="657.5753" y="681.652" fill="#000000" font-size="14" lengthAdjust="spacing" textLength="134.8252" font-family="sans-serif">Upload attachment</text></g><!--entity UC_Search--><g class="entity" data-qualified-name="Noteknock .StudyMap..UC_Search" id="ent0016" data-source-line="33"><ellipse cx="724.9928" cy="854.9966" rx="64.3328" ry="15.2666" fill="#FFFFFF" style="stroke:#75607F;stroke-width:0.5;"/><text x="679.1476" y="859.645" fill="#000000" font-size="14" lengthAdjust="spacing" textLength="91.6904" font-family="sans-serif">Search notes</text></g><!--entity UC_TagFilter--><g class="entity" data-qualified-name="Noteknock .StudyMap..UC_TagFilter" id="ent0017" data-source-line="34"><ellipse cx="399.4408" cy="873.9962" rx="66.1308" ry="15.6262" fill="#FFFFFF" style="stroke:#75607F;stroke-width:0.5;"/><text x="351.2166" y="878.6446" fill="#000000" font-size="14" lengthAdjust="spacing" textLength="96.4482" font-family="sans-serif">Filter by #tag</text></g><!--entity UC_Recent--><g class="entity" data-qualified-name="Noteknock .StudyMap..UC_Recent" id="ent0018" data-source-line="35"><ellipse cx="399.4385" cy="806.9997" rx="67.7985" ry="15.9597" fill="#FFFFFF" style="stroke:#75607F;stroke-width:0.5;"/><text x="349.0508" y="811.6481" fill="#000000" font-size="14" lengthAdjust="spacing" textLength="100.7754" font-family="sans-serif">Browse recent</text></g><!--entity UC_Ops--><g class="entity" data-qualified-name="Noteknock .StudyMap..UC_Ops" id="ent0019" data-source-line="36"><ellipse cx="1036.296" cy="854.9952" rx="88.076" ry="20.0152" fill="#FFFFFF" style="stroke:#75607F;stroke-width:0.5;"/><text x="961.61" y="859.6436" fill="#000000" font-size="14" lengthAdjust="spacing" textLength="149.3721" font-family="sans-serif">Use search operators</text></g><!--entity UC_QuizGen--><g class="entity" data-qualified-name="Noteknock .StudyMap..UC_QuizGen" id="ent0020" data-source-line="39"><ellipse cx="724.9863" cy="371.9973" rx="98.2363" ry="22.0473" fill="#FFFFFF" style="stroke:#75607F;stroke-width:0.5;"/><text x="638.9048" y="376.6457" fill="#000000" font-size="14" lengthAdjust="spacing" textLength="172.1631" font-family="sans-serif">Generate quiz from note</text></g><!--entity UC_Quiz--><g class="entity" data-qualified-name="Noteknock .StudyMap..UC_Quiz" id="ent0021" data-source-line="40"><ellipse cx="399.4381" cy="145.0036" rx="50.5881" ry="14.5236" fill="#FFFFFF" style="stroke:#75607F;stroke-width:0.5;"/><text x="365.7882" y="149.6521" fill="#000000" font-size="14" lengthAdjust="spacing" textLength="67.2998" font-family="sans-serif">Take quiz</text></g><!--entity UC_QuizRes--><g class="entity" data-qualified-name="Noteknock .StudyMap..UC_QuizRes" id="ent0022" data-source-line="41"><ellipse cx="724.9876" cy="221.9975" rx="71.9876" ry="16.7975" fill="#FFFFFF" style="stroke:#75607F;stroke-width:0.5;"/><text x="669.3157" y="226.6459" fill="#000000" font-size="14" lengthAdjust="spacing" textLength="111.3438" font-family="sans-serif">View quiz result</text></g><!--entity UC_Review--><g class="entity" data-qualified-name="Noteknock .StudyMap..UC_Review" id="ent0023" data-source-line="42"><ellipse cx="724.9935" cy="150.0007" rx="87.5035" ry="19.9007" fill="#FFFFFF" style="stroke:#75607F;stroke-width:0.5;"/><text x="650.9603" y="154.6491" fill="#000000" font-size="14" lengthAdjust="spacing" textLength="148.0664" font-family="sans-serif">Review (spaced rep.)</text></g><!--entity UC_Streak--><g class="entity" data-qualified-name="Noteknock .StudyMap..UC_Streak" id="ent0024" data-source-line="43"><ellipse cx="399.443" cy="612.9986" rx="62.593" ry="14.9186" fill="#FFFFFF" style="stroke:#75607F;stroke-width:0.5;"/><text x="355.9528" y="617.647" fill="#000000" font-size="14" lengthAdjust="spacing" textLength="86.9805" font-family="sans-serif">Track streak</text></g><!--entity UC_Profile--><g class="entity" data-qualified-name="Noteknock .StudyMap..UC_Profile" id="ent0025" data-source-line="44"><ellipse cx="399.4413" cy="217.0023" rx="102.3113" ry="22.8623" fill="#FFFFFF" style="stroke:#75607F;stroke-width:0.5;"/><text x="308.8719" y="221.6507" fill="#000000" font-size="14" lengthAdjust="spacing" textLength="181.1387" font-family="sans-serif">View profile / leaderboard</text></g><!--entity UC_Theme--><g class="entity" data-qualified-name="Noteknock .StudyMap..UC_Theme" id="ent0026" data-source-line="45"><ellipse cx="399.4387" cy="291.0037" rx="66.3687" ry="15.6737" fill="#FFFFFF" style="stroke:#75607F;stroke-width:0.5;"/><text x="350.9035" y="295.6522" fill="#000000" font-size="14" lengthAdjust="spacing" textLength="97.0703" font-family="sans-serif">Toggle theme</text></g><!--entity Guest--><g class="entity" data-qualified-name="Guest" id="ent0001" data-source-line="12"><ellipse cx="206.63" cy="334.85" rx="16" ry="16" fill="#F1F1F1" style="stroke:#181818;stroke-width:0.5;"/><path d="M206.63,354.85 C210.63,354.85 213.63,354.85 217.63,350.85 C225.63,350.85 233.63,358.85 233.63,366.85 L233.63,370.85 C233.63,374.85 229.63,378.85 225.63,378.85 L187.63,378.85 C183.63,378.85 179.63,374.85 179.63,370.85 L179.63,366.85 C179.63,358.85 187.63,350.85 195.63,350.85 C199.63,354.85 202.63,354.85 206.63,354.85" style="stroke:#181818;stroke-width:0.5;" fill="#F1F1F1"/><text x="186.0709" y="392.3451" fill="#000000" font-size="14" lengthAdjust="spacing" textLength="41.1182" font-family="sans-serif">Guest</text></g><!--entity User--><g class="entity" data-qualified-name="User" id="ent0002" data-source-line="13"><ellipse cx="62.0649" cy="535.85" rx="16" ry="16" fill="#F1F1F1" style="stroke:#181818;stroke-width:0.5;"/><path d="M62.0649,555.85 C66.0649,555.85 69.0649,555.85 73.0649,551.85 C81.0649,551.85 89.0649,559.85 89.0649,567.85 L89.0649,571.85 C89.0649,575.85 85.0649,579.85 81.0649,579.85 L43.0649,579.85 C39.0649,579.85 35.0649,575.85 35.0649,571.85 L35.0649,567.85 C35.0649,559.85 43.0649,551.85 51.0649,551.85 C55.0649,555.85 58.0649,555.85 62.0649,555.85" style="stroke:#181818;stroke-width:0.5;" fill="#F1F1F1"/><text x="6" y="593.3451" fill="#000000" font-size="14" lengthAdjust="spacing" textLength="112.1299" font-family="sans-serif">Registered User</text></g><!--entity Google--><g class="entity" data-qualified-name="Google" id="ent0027" data-source-line="49"><ellipse cx="1036.3" cy="1050.85" rx="16" ry="16" fill="#F1F1F1" style="stroke:#181818;stroke-width:0.5;"/><path d="M1036.3,1070.85 C1040.3,1070.85 1043.3,1070.85 1047.3,1066.85 C1055.3,1066.85 1063.3,1074.85 1063.3,1082.85 L1063.3,1086.85 C1063.3,1090.85 1059.3,1094.85 1055.3,1094.85 L1017.3,1094.85 C1013.3,1094.85 1009.3,1090.85 1009.3,1086.85 L1009.3,1082.85 C1009.3,1074.85 1017.3,1066.85 1025.3,1066.85 C1029.3,1070.85 1032.3,1070.85 1036.3,1070.85" style="stroke:#181818;stroke-width:0.5;" fill="#F1F1F1"/><text x="1011.6154" y="1108.3451" fill="#000000" font-size="14" lengthAdjust="spacing" textLength="49.3691" font-family="sans-serif">Google</text></g><!--entity AI--><g class="entity" data-qualified-name="AI" id="ent0028" data-source-line="50"><ellipse cx="1036.3023" cy="938.85" rx="16" ry="16" fill="#F1F1F1" style="stroke:#181818;stroke-width:0.5;"/><path d="M1036.3023,958.85 C1040.3023,958.85 1043.3023,958.85 1047.3023,954.85 C1055.3023,954.85 1063.3023,962.85 1063.3023,970.85 L1063.3023,974.85 C1063.3023,978.85 1059.3023,982.85 1055.3023,982.85 L1017.3023,982.85 C1013.3023,982.85 1009.3023,978.85 1009.3023,974.85 L1009.3023,970.85 C1009.3023,962.85 1017.3023,954.85 1025.3023,954.85 C1029.3023,958.85 1032.3023,958.85 1036.3023,958.85" style="stroke:#181818;stroke-width:0.5;" fill="#F1F1F1"/><text x="1002.15" y="996.3451" fill="#000000" font-size="14" lengthAdjust="spacing" textLength="68.3047" font-family="sans-serif">AI service</text></g><!--link User to Guest--><g class="link" data-entity-1="ent0002" data-entity-2="ent0001" id="lnk3" data-source-line="14" data-link-type="extension"><path d="M86.14,518.97 C102.55,491.98 125.6,455.55 148.13,425 C157.58,412.19 157.0034,412.3175 166.9534,400.7475" style="stroke:#75607F;stroke-width:1;" fill="none" id="User-to-Guest"/><polygon points="178.69,387.1,162.4043,396.8353,171.5026,404.6596,178.69,387.1" fill="none" style="stroke:#75607F;stroke-width:1;stroke-linejoin:miter;stroke-miterlimit:10;"/></g><!--link Guest to UC_Reg--><g class="link" data-entity-1="ent0001" data-entity-2="ent0005" id="lnk29" data-source-line="53" data-link-type="association"><path d="M234.56,356.86 C265.9,356.7 318.05,356.42 355.1,356.23" style="stroke:#75607F;stroke-width:1;" fill="none" id="Guest-UC_Reg"/></g><!--link Guest to UC_Login--><g class="link" data-entity-1="ent0001" data-entity-2="ent0006" id="lnk30" data-source-line="54" data-link-type="association"><path d="M234.54,371.17 C246.19,376.92 260.11,383.31 273.13,388 C305.13,399.54 343.14,408.63 368.84,414.13" style="stroke:#75607F;stroke-width:1;" fill="none" id="Guest-UC_Login"/></g><!--link Guest to UC_Theme--><g class="link" data-entity-1="ent0001" data-entity-2="ent0026" id="lnk31" data-source-line="55" data-link-type="association"><path d="M234.46,341.89 C246.1,335.75 260.03,328.96 273.13,324 C297.53,314.76 325.55,307.11 348.9,301.52" style="stroke:#75607F;stroke-width:1;" fill="none" id="Guest-UC_Theme"/></g><!--link User to UC_Create--><g class="link" data-entity-1="ent0002" data-entity-2="ent0009" id="lnk32" data-source-line="58" data-link-type="association"><path d="M118.45,556.35 C179.1,554.54 276.03,551.65 338.45,549.79" style="stroke:#75607F;stroke-width:1;" fill="none" id="User-UC_Create"/></g><!--link User to UC_View--><g class="link" data-entity-1="ent0002" data-entity-2="ent0010" id="lnk33" data-source-line="59" data-link-type="association"><path d="M64.72,519.19 C71.12,393.54 99.48,6 205.63,6 C205.63,6 205.63,6 725.99,6 C856.85,6 982.61,126.81 1022.37,168.82" style="stroke:#75607F;stroke-width:1;" fill="none" id="User-UC_View"/></g><!--link User to UC_Edit--><g class="link" data-entity-1="ent0002" data-entity-2="ent0011" id="lnk34" data-source-line="60" data-link-type="association"><path d="M118.41,583.47 C160.3,602.12 219.57,627.17 273.13,645 C301.68,654.5 334.67,662.83 359.64,668.6" style="stroke:#75607F;stroke-width:1;" fill="none" id="User-UC_Edit"/></g><!--link User to UC_Delete--><g class="link" data-entity-1="ent0002" data-entity-2="ent0012" id="lnk35" data-source-line="61" data-link-type="association"><path d="M106.68,596.88 C147.17,631.05 210.45,679.75 273.13,709 C296.83,720.06 324.92,727.68 348.48,732.71" style="stroke:#75607F;stroke-width:1;" fill="none" id="User-UC_Delete"/></g><!--link User to UC_Search--><g class="link" data-entity-1="ent0002" data-entity-2="ent0016" id="lnk36" data-source-line="62" data-link-type="association"><path d="M70.59,596.85 C88.6,676.97 142.81,857.26 273.13,907 C421.83,963.76 616.58,898.57 692.12,868.54" style="stroke:#75607F;stroke-width:1;" fill="none" id="User-UC_Search"/></g><!--link User to UC_TagFilter--><g class="link" data-entity-1="ent0002" data-entity-2="ent0017" id="lnk37" data-source-line="63" data-link-type="association"><path d="M78.94,597.13 C107.22,661.01 172.89,786 273.13,840 C295.06,851.82 321.4,859.76 344.27,864.99" style="stroke:#75607F;stroke-width:1;" fill="none" id="User-UC_TagFilter"/></g><!--link User to UC_Recent--><g class="link" data-entity-1="ent0002" data-entity-2="ent0018" id="lnk38" data-source-line="64" data-link-type="association"><path d="M88.73,596.9 C123.9,646.72 192.04,731.56 273.13,773 C295.21,784.29 321.45,792.15 344.2,797.45" style="stroke:#75607F;stroke-width:1;" fill="none" id="User-UC_Recent"/></g><!--link User to UC_QuizGen--><g class="link" data-entity-1="ent0002" data-entity-2="ent0020" id="lnk39" data-source-line="65" data-link-type="association"><path d="M64.98,596.98 C70.5,691.1 89.95,926.51 148.13,974 C177.74,998.17 196.19,978.68 234.13,974 C399.94,953.56 494.62,1007.21 596.75,875 C655.31,799.2 580.98,529.14 626.75,445 C639.16,422.19 662.09,404.45 682.57,392.17" style="stroke:#75607F;stroke-width:1;" fill="none" id="User-UC_QuizGen"/></g><!--link User to UC_Quiz--><g class="link" data-entity-1="ent0002" data-entity-2="ent0021" id="lnk40" data-source-line="66" data-link-type="association"><path d="M69.76,519.21 C82.05,457.56 113.27,336.01 179.13,256 C213.81,213.87 224.59,201.93 273.13,177 C298.2,164.13 328.8,156.19 353.49,151.43" style="stroke:#75607F;stroke-width:1;" fill="none" id="User-UC_Quiz"/></g><!--link User to UC_Review--><g class="link" data-entity-1="ent0002" data-entity-2="ent0023" id="lnk41" data-source-line="67" data-link-type="association"><path d="M65.44,519.07 C73.78,422.98 110.82,177.65 273.13,113 C411.76,57.79 592.96,104.91 677.18,132.88" style="stroke:#75607F;stroke-width:1;" fill="none" id="User-UC_Review"/></g><!--link User to UC_Streak--><g class="link" data-entity-1="ent0002" data-entity-2="ent0024" id="lnk42" data-source-line="68" data-link-type="association"><path d="M118.45,567.08 C181.89,577.49 285.02,594.4 346.84,604.54" style="stroke:#75607F;stroke-width:1;" fill="none" id="User-UC_Streak"/></g><!--link User to UC_Profile--><g class="link" data-entity-1="ent0002" data-entity-2="ent0025" id="lnk43" data-source-line="69" data-link-type="association"><path d="M71.47,519.1 C85.2,464.02 117.31,363.12 179.13,301 C216.23,263.72 271.63,242.68 317.46,230.98" style="stroke:#75607F;stroke-width:1;" fill="none" id="User-UC_Profile"/></g><!--link User to UC_Logout--><g class="link" data-entity-1="ent0002" data-entity-2="ent0008" id="lnk44" data-source-line="70" data-link-type="association"><path d="M118.57,538.53 C128.35,535.44 138.49,532.46 148.13,530 C223.05,510.88 312.51,496.41 361.62,489.16" style="stroke:#75607F;stroke-width:1;" fill="none" id="User-UC_Logout"/></g><!--link UC_Google to Google--><g class="link" data-entity-1="ent0007" data-entity-2="ent0027" id="lnk45" data-source-line="73" data-link-type="association"><path d="M769.18,497.28 C789.07,507.1 810.95,521.71 823.23,542 C867.65,615.42 816.28,849.55 853.23,927 C885.5,994.66 966.21,1040.77 1008.5,1061.15" style="stroke:#75607F;stroke-width:1;" fill="none" id="UC_Google-Google"/></g><!--link UC_QuizGen to AI--><g class="link" data-entity-1="ent0020" data-entity-2="ent0028" id="lnk46" data-source-line="74" data-link-type="association"><path d="M767.39,392.18 C787.86,404.46 810.79,422.21 823.23,445 C867.81,526.76 802.63,784.82 853.23,863 C887.16,915.44 959.08,941.87 1001.67,953.42" style="stroke:#75607F;stroke-width:1;" fill="none" id="UC_QuizGen-AI"/></g><!--link UC_Login to UC_Google--><g class="link" data-entity-1="ent0006" data-entity-2="ent0007" id="lnk47" data-source-line="77" data-link-type="dependency"><path d="M430.3,425.63 C482.39,435.45 586.0466,454.9937 655.5866,468.1037" style="stroke:#75607F;stroke-width:1;stroke-dasharray:7,7;" fill="none" id="UC_Login-to-UC_Google"/><polygon points="660.5,469.03,652.3968,463.4319,655.5866,468.1037,650.9148,471.2934,660.5,469.03" fill="#75607F" style="stroke:#75607F;stroke-width:1;stroke-linejoin:miter;stroke-miterlimit:10;"/><text x="533.75" y="442.0669" fill="#000000" font-size="13" lengthAdjust="spacing" textLength="61.1851" font-family="sans-serif">«extend»</text></g><!--link UC_Create to UC_Draft--><g class="link" data-entity-1="ent0009" data-entity-2="ent0013" id="lnk48" data-source-line="78" data-link-type="dependency"><path d="M457.17,553.09 C511.72,557.98 589.37,564.9331 648.21,570.2131" style="stroke:#75607F;stroke-width:1;stroke-dasharray:7,7;" fill="none" id="UC_Create-to-UC_Draft"/><polygon points="653.19,570.66,644.5835,565.8716,648.21,570.2131,643.8685,573.8396,653.19,570.66" fill="#75607F" style="stroke:#75607F;stroke-width:1;stroke-linejoin:miter;stroke-miterlimit:10;"/><text x="532.75" y="556.0669" fill="#000000" font-size="13" lengthAdjust="spacing" textLength="63.0068" font-family="sans-serif">«include»</text></g><!--link UC_Edit to UC_Draft--><g class="link" data-entity-1="ent0011" data-entity-2="ent0013" id="lnk49" data-source-line="79" data-link-type="dependency"><path d="M433.85,666.68 C491.97,648.71 607.023,613.1566 673.053,592.7466" style="stroke:#75607F;stroke-width:1;stroke-dasharray:7,7;" fill="none" id="UC_Edit-to-UC_Draft"/><polygon points="677.83,591.27,668.0501,590.1062,673.053,592.7466,670.4127,597.7494,677.83,591.27" fill="#75607F" style="stroke:#75607F;stroke-width:1;stroke-linejoin:miter;stroke-miterlimit:10;"/><text x="532.75" y="615.0669" fill="#000000" font-size="13" lengthAdjust="spacing" textLength="63.0068" font-family="sans-serif">«include»</text></g><!--link UC_Edit to UC_Attach--><g class="link" data-entity-1="ent0011" data-entity-2="ent0015" id="lnk50" data-source-line="80" data-link-type="dependency"><path d="M447.49,677 C498.58,677 576.12,677 637.74,677" style="stroke:#75607F;stroke-width:1;stroke-dasharray:7,7;" fill="none" id="UC_Edit-to-UC_Attach"/><polygon points="642.74,677,633.74,673,637.74,677,633.74,681,642.74,677" fill="#75607F" style="stroke:#75607F;stroke-width:1;stroke-linejoin:miter;stroke-miterlimit:10;"/><text x="533.75" y="673.0669" fill="#000000" font-size="13" lengthAdjust="spacing" textLength="61.1851" font-family="sans-serif">«extend»</text></g><!--link UC_View to UC_Md--><g class="link" data-entity-1="ent0010" data-entity-2="ent0014" id="lnk51" data-source-line="81" data-link-type="dependency"><path d="M1088.87,183 C1133.19,183 1192.85,183 1243.99,183" style="stroke:#75607F;stroke-width:1;stroke-dasharray:7,7;" fill="none" id="UC_View-to-UC_Md"/><polygon points="1248.99,183,1239.99,179,1243.99,183,1239.99,187,1248.99,183" fill="#75607F" style="stroke:#75607F;stroke-width:1;stroke-linejoin:miter;stroke-miterlimit:10;"/><text x="1155.38" y="179.0669" fill="#000000" font-size="13" lengthAdjust="spacing" textLength="63.0068" font-family="sans-serif">«include»</text></g><!--link UC_QuizGen to UC_View--><g class="link" data-entity-1="ent0020" data-entity-2="ent0010" id="lnk52" data-source-line="82" data-link-type="dependency"><path d="M760.27,351.05 C824.29,311.94 956.0536,231.4273 1009.1536,198.9773" style="stroke:#75607F;stroke-width:1;stroke-dasharray:7,7;" fill="none" id="UC_QuizGen-to-UC_View"/><polygon points="1013.42,196.37,1003.6547,197.6499,1009.1536,198.9773,1007.8263,204.4762,1013.42,196.37" fill="#75607F" style="stroke:#75607F;stroke-width:1;stroke-linejoin:miter;stroke-miterlimit:10;"/><text x="854.23" y="252.0669" fill="#000000" font-size="13" lengthAdjust="spacing" textLength="63.0068" font-family="sans-serif">«include»</text></g><!--link UC_Quiz to UC_QuizGen--><g class="link" data-entity-1="ent0021" data-entity-2="ent0020" id="lnk53" data-source-line="83" data-link-type="dependency"><path d="M443.47,152.49 C462.55,157.28 484.52,164.95 501.75,177 C519.67,189.54 516.49,200.34 531.75,216 C583.94,269.57 649.9264,319.4767 689.4564,347.8167" style="stroke:#75607F;stroke-width:1;stroke-dasharray:7,7;" fill="none" id="UC_Quiz-to-UC_QuizGen"/><polygon points="693.52,350.73,688.5362,342.2352,689.4564,347.8167,683.8749,348.737,693.52,350.73" fill="#75607F" style="stroke:#75607F;stroke-width:1;stroke-linejoin:miter;stroke-miterlimit:10;"/><text x="532.75" y="212.0669" fill="#000000" font-size="13" lengthAdjust="spacing" textLength="63.0068" font-family="sans-serif">«include»</text></g><!--link UC_Quiz to UC_QuizRes--><g class="link" data-entity-1="ent0021" data-entity-2="ent0022" id="lnk54" data-source-line="84" data-link-type="dependency"><path d="M439.47,154.29 C498.04,168.23 603.8359,193.4022 668.5359,208.8022" style="stroke:#75607F;stroke-width:1;stroke-dasharray:7,7;" fill="none" id="UC_Quiz-to-UC_QuizRes"/><polygon points="673.4,209.96,665.5708,203.9847,668.5359,208.8022,663.7184,211.7673,673.4,209.96" fill="#75607F" style="stroke:#75607F;stroke-width:1;stroke-linejoin:miter;stroke-miterlimit:10;"/><text x="532.75" y="173.0669" fill="#000000" font-size="13" lengthAdjust="spacing" textLength="63.0068" font-family="sans-serif">«include»</text></g><!--link UC_Quiz to UC_Review--><g class="link" data-entity-1="ent0021" data-entity-2="ent0023" id="lnk55" data-source-line="85" data-link-type="dependency"><path d="M450.29,145.77 C500.01,146.54 572.4006,147.6631 632.2206,148.5831" style="stroke:#75607F;stroke-width:1;stroke-dasharray:7,7;" fill="none" id="UC_Quiz-to-UC_Review"/><polygon points="637.22,148.66,628.2826,144.5221,632.2206,148.5831,628.1596,152.5211,637.22,148.66" fill="#75607F" style="stroke:#75607F;stroke-width:1;stroke-linejoin:miter;stroke-miterlimit:10;"/><text x="532.75" y="144.0669" fill="#000000" font-size="13" lengthAdjust="spacing" textLength="63.0068" font-family="sans-serif">«include»</text></g><!--link UC_Search to UC_Ops--><g class="link" data-entity-1="ent0016" data-entity-2="ent0019" id="lnk56" data-source-line="86" data-link-type="dependency"><path d="M789.7,855 C835.42,855 892.58,855 942.92,855" style="stroke:#75607F;stroke-width:1;stroke-dasharray:7,7;" fill="none" id="UC_Search-to-UC_Ops"/><polygon points="947.92,855,938.92,851,942.92,855,938.92,859,947.92,855" fill="#75607F" style="stroke:#75607F;stroke-width:1;stroke-linejoin:miter;stroke-miterlimit:10;"/><text x="855.23" y="851.0669" fill="#000000" font-size="13" lengthAdjust="spacing" textLength="61.1851" font-family="sans-serif">«extend»</text></g><!--link UC_Recent to UC_Search--><g class="link" data-entity-1="ent0018" data-entity-2="ent0016" id="lnk57" data-source-line="87" data-link-type="dependency"><path d="M457.54,815.47 C517.41,824.35 605.8441,837.4768 664.6641,846.1968" style="stroke:#75607F;stroke-width:1;stroke-dasharray:7,7;" fill="none" id="UC_Recent-to-UC_Search"/><polygon points="669.61,846.93,661.2939,841.6534,664.6641,846.1968,660.1207,849.5669,669.61,846.93" fill="#75607F" style="stroke:#75607F;stroke-width:1;stroke-linejoin:miter;stroke-miterlimit:10;"/><text x="532.75" y="823.0669" fill="#000000" font-size="13" lengthAdjust="spacing" textLength="63.0068" font-family="sans-serif">«include»</text></g><!--link UC_TagFilter to UC_Search--><g class="link" data-entity-1="ent0017" data-entity-2="ent0016" id="lnk58" data-source-line="88" data-link-type="dependency"><path d="M463.98,870.27 C521.3,866.9 600.1286,862.2732 656.9786,858.9332" style="stroke:#75607F;stroke-width:1;stroke-dasharray:7,7;" fill="none" id="UC_TagFilter-to-UC_Search"/><polygon points="661.97,858.64,652.7509,855.1747,656.9786,858.9332,653.2201,863.161,661.97,858.64" fill="#75607F" style="stroke:#75607F;stroke-width:1;stroke-linejoin:miter;stroke-miterlimit:10;"/><text x="532.75" y="859.0669" fill="#000000" font-size="13" lengthAdjust="spacing" textLength="63.0068" font-family="sans-serif">«include»</text></g><?plantuml-src bLHDRzim3BtxLn3feUsXtIxRWA48aBPhKM3TkYJTTL1jnXQYM9ua9yi-_lieoNBeP9yv1ERZ8qM9v5EuSE0q65bM3WffC7TIrvbToheHHgn0v4wRcTig1B51grV8d8t8bwB4wFQneYuL9zXA57eZwn8MGbdkQItcmY9yom0kAKrfT5iNLrff0qStuUSzsXHeElJLYvVFNtbqOepU3C4VMNOCPsTdy63aIfXjhDl2YQ8RddfF5X0OtRPetGY4XV2Lu2cMqZeqMC2ZHHC8_YFpVnJ_VTpni_wUC7gd7IvhdI_XPERQOdilcjDHkD8nJ5fNqKUwPtz0p7prYMpkVgjBa7LoaYLhxfx9iYO_RAIhu5PhEZvnexMVIxUE9ICh2rNvYYtdNXaK3g4cFF4Zn4aV9Mu650zmmfj2kW710vnmZGhtZedGu99YZL0OGJEfT2wKslPS3tBgWy6rBufwlQG9wn_klk2inqPfKO1mJkJL2kl-IIO1YKzoBMskrzHfNWaAarUXN9jY8iPPDr9HG-5f2qTEb8at5sLqSEebJQmDEyAgc0PhK33zsNYsRj08FyE9_RwniU0qQZpm5cjFH_ZSog-mC7erUEiFX1A5Hyp5Ch8vvw3f8Pr1soh7UTFX44rZCqui2G8jaC7c_7HtoVNUiCmDxJjOHsEsx1ytM0V7DqOl96tQCr0eI0cUj315Ydc8pa5gNVh5T1Mk-hlFlR4JY5dRDDeuhqb98uBw3KLYjs7TUdMEoHtrnwnb7fsJEvys20EPLkTIUFsqMOJek6xJkHsNcoEnHCeKn6QGg9CVjfSC2Ml8xB1rpEvMZ27T43DaDwuCx2QJ8Mc2zg1Xq7gldgwh34azOr2If-FVjWQiBF0qwxNE1tPjsLNcmTYEAQhuU9MabKaF3W3dv-ETOC9hkBZ0BmxhOZpE-kVjMK5o8B1adQksm4WBKWV_Iuk2St1c6F8Twxxmnc6oTCMEraNzaiQofQX_uT52_vNNRVaXhrFBn2EXwg_1Bnk7YYNiuWxozIFv9-9F?></g></svg>